<?xml version="1.0" encoding="UTF-8" standalone="no"?>
<!-- Created with Inkscape (http://www.inkscape.org/) -->

<svg
   xmlns:dc="http://purl.org/dc/elements/1.1/"
   xmlns:cc="http://creativecommons.org/ns#"
   xmlns:rdf="http://www.w3.org/1999/02/22-rdf-syntax-ns#"
   xmlns:svg="http://www.w3.org/2000/svg"
   xmlns="http://www.w3.org/2000/svg"
   xmlns:sodipodi="http://sodipodi.sourceforge.net/DTD/sodipodi-0.dtd"
   xmlns:inkscape="http://www.inkscape.org/namespaces/inkscape"
   width="524.40942"
   height="372.04724"
   id="svg2"
   version="1.1"
   inkscape:version="0.48.4 r9939"
   sodipodi:docname="postcard_6_en_path.svg"
   inkscape:export-filename="/home/svet/Dropbox/falanster/design/postcards/console/postcard_6_en_path.png"
   inkscape:export-xdpi="300"
   inkscape:export-ydpi="300">
  <defs
     id="defs4" />
  <sodipodi:namedview
     id="base"
     pagecolor="#ffffff"
     bordercolor="#666666"
     borderopacity="1.0"
     inkscape:pageopacity="0.0"
     inkscape:pageshadow="2"
     inkscape:zoom="1.4"
     inkscape:cx="360.4133"
     inkscape:cy="209.58817"
     inkscape:document-units="px"
     inkscape:current-layer="layer1"
     showgrid="false"
     inkscape:window-width="1301"
     inkscape:window-height="744"
     inkscape:window-x="65"
     inkscape:window-y="24"
     inkscape:window-maximized="1"
     showguides="true"
     inkscape:guide-bbox="true">
    <sodipodi:guide
       orientation="0,1"
       position="279.81226,16.162441"
       id="guide2999" />
    <sodipodi:guide
       orientation="1,0"
       position="26.263966,437.39605"
       id="guide3001" />
    <sodipodi:guide
       orientation="1,0"
       position="495.9849,304.05592"
       id="guide3003" />
  </sodipodi:namedview>
  <metadata
     id="metadata7">
    <rdf:RDF>
      <cc:Work
         rdf:about="">
        <dc:format>image/svg+xml</dc:format>
        <dc:type
           rdf:resource="http://purl.org/dc/dcmitype/StillImage" />
        <dc:title></dc:title>
      </cc:Work>
    </rdf:RDF>
  </metadata>
  <g
     inkscape:label="Layer 1"
     inkscape:groupmode="layer"
     id="layer1"
     transform="translate(0,-680.31491)">
    <path
       style="fill:#1a1a1a;fill-opacity:1;fill-rule:nonzero;stroke:none"
       d="m 0,680.31488 524.40942,0 0,372.04722 -524.40942,0 z"
       id="rect2985" />
    <g
       style="font-size:52px;font-style:normal;font-variant:normal;font-weight:normal;font-stretch:normal;line-height:125%;letter-spacing:0px;word-spacing:0px;fill:#00ff00;fill-opacity:1;stroke:none;font-family:Courier 10 Pitch;-inkscape-font-specification:Courier 10 Pitch"
       id="text2983">
      <path
         d="m 35.062262,746.45836 0.5256,-9.2418 3.1098,0 -0.438,9.1104 c 0,0.0438 0,0.0876 0,0.0876 0,0.876 0.5256,1.4016 1.2702,1.4016 0.875999,0 1.3578,-0.4818 1.4016,-1.3578 l 0.4818,-9.2418 3.1536,0 c 0.919799,0 1.4016,-0.5256 1.4016,-1.4454 0,-0.9198 -0.481801,-1.4454 -1.4016,-1.4454 l -2.9784,0 0.2628,-5.0808 2.7156,0 c 0.919799,0 1.4016,-0.5256 1.4016,-1.4454 0,-0.9198 -0.481801,-1.4016 -1.4016,-1.4016 l -2.628,0 0.5256,-9.1542 c 0,-0.0438 0,-0.0876 0,-0.0876 0,-0.876 -0.569401,-1.3578 -1.3578,-1.3578 -0.7884,0 -1.2702,0.438 -1.314,1.314 l -0.5256,9.2856 -3.1098,0 0.438,-9.1542 c 0,-0.0438 0,-0.0876 0,-0.0876 0,-0.876 -0.525601,-1.3578 -1.314,-1.3578 -0.7884,0 -1.2702,0.438 -1.314,1.314 l -0.5256,9.2856 -3.1974,0 c -0.919799,0 -1.4016,0.4818 -1.4016,1.4016 0,0.9198 0.481801,1.4454 1.4016,1.4454 l 3.066,0 -0.219,5.0808 -2.847,0 c -0.919799,0 -1.4016,0.5256 -1.4016,1.4454 0,0.9198 0.481801,1.4454 1.4016,1.4454 l 2.6718,0 -0.4818,9.1104 c 0,0.0438 0,0.0876 0,0.1314 0,0.8322 0.4818,1.3578 1.2264,1.3578 0.875999,0 1.3578,-0.4818 1.4016,-1.3578 m 0.657,-12.1326 0.2628,-5.0808 3.1974,0 -0.3066,5.0808 -3.1536,0"
         style="font-size:43.79999924px;fill:#00ff00"
         id="path3014" />
      <path
         d="m 84.693134,737.39176 0,-10.2492 c 0,-0.0876 0,-0.1314 0,-0.219 0,-0.9636 -0.0438,-1.4016 -1.2264,-1.4016 l -3.241199,0 c -1.138799,0 -1.7082,0.4818 -1.7082,1.4892 0,1.095 0.613201,1.533 1.971,1.533 0.306599,0 0.657,0 0.9636,0 l 0,9.636 c 0,4.99319 2.365204,7.5336 7.051799,7.5336 2.584198,0 4.423803,-1.0074 6.6576,-2.7594 l 0,1.4454 c 0,0.5256 0.394201,0.876 1.2264,0.876 l 3.2412,0 c 1.138796,0 1.708196,-0.5256 1.708196,-1.533 0,-1.095 -0.6132,-1.4892 -1.970996,-1.4892 -0.306599,0 -0.657,0 -0.9636,0 l 0,-14.673 c 0,-1.2702 -10e-7,-2.0586 -1.4892,-2.0586 l -4.5552,0 c -1.182598,0 -1.7082,0.438 -1.7082,1.4892 0,1.0512 0.438001,1.533 1.5768,1.533 l 2.9346,0 0,8.8476 c 0,3.15359 -2.759403,5.1684 -5.6502,5.1684 -3.328796,0 -4.818,-1.66441 -4.818,-5.1684"
         style="font-size:43.79999924px;fill:#00ff00"
         id="path3016" />
      <path
         d="m 108.50117,742.25356 c -0.1752,0 -0.3066,0 -0.438,0 -1.752,0 -2.4966,0.2628 -2.4966,1.4892 0,1.0074 0.5694,1.533 1.7958,1.533 0.5694,0 0.9636,0 1.1388,0 l 3.8982,0 c 1.6206,0 2.2776,-0.0876 2.2776,-1.533 0,-1.1826 -0.5694,-1.533 -2.0586,-1.533 -0.2628,0 -0.5694,0.0438 -0.9198,0.0438 l 0,-8.8914 c 0,-3.1974 2.97841,-5.1246 5.5626,-5.1246 2.8032,0 4.38,1.7082 4.38,5.1246 l 0,8.8914 c -0.2628,0 -0.4818,0 -0.7008,0 -1.533,0 -2.1462,0.3066 -2.1462,1.4892 0,1.4016 0.6132,1.533 2.1462,1.533 l 4.7304,0 c 1.533,0 2.2776,-0.3066 2.2776,-1.533 0,-1.095 -0.657,-1.4892 -2.0148,-1.4892 -0.3066,0 -0.657,0 -0.9636,0 l 0,-9.6798 c 0,-4.9494 -2.8908,-7.6212 -6.9642,-7.6212 -2.2338,0 -4.2048,0.9636 -6.2634,2.8908 l 0,-1.4454 c 0,-0.5256 -0.3942,-0.876 -1.2264,-0.876 l -2.0148,0 c -1.971,0 -2.9346,0 -2.9346,1.4892 0,1.095 0.6132,1.533 1.971,1.533 0.3066,0 0.657,0 0.9636,0 l 0,13.7094"
         style="font-size:43.79999924px;fill:#00ff00"
         id="path3018" />
      <path
         d="m 147.68301,742.56016 0.219,1.314 c 0.1752,0.9198 0.7008,1.4016 1.4892,1.4016 l 3.3726,0 c 1.1388,0 1.7082,-0.5256 1.7082,-1.533 0,-1.2702 -0.7446,-1.4892 -2.5404,-1.4892 l -1.095,0 0,-9.6798 c 0,-5.1684 -2.54041,-7.5774 -8.0154,-7.5774 -4.818,0 -7.9716,1.533 -7.9716,3.0222 0,1.095 0.657,1.7958 1.4454,1.7958 1.6644,0 3.4164,-1.7958 6.4386,-1.7958 3.28499,0 4.818,1.533 4.818,4.818 0,0.0438 0,0.0876 0,0.1314 -1.752,-0.438 -3.4164,-0.657 -5.0808,-0.657 -6.351,0 -9.8988,2.6718 -9.8988,7.0956 0,3.76679 2.8032,6.3948 7.0956,6.3948 2.93459,0 5.694,-1.13881 8.0154,-3.2412 m -0.1314,-6.7452 0,2.3214 c 0,1.92719 -3.50401,4.38 -7.3584,4.38 -2.4966,0 -4.2048,-1.4454 -4.2048,-3.3288 0,-2.409 2.4966,-4.1172 7.0518,-4.1172 1.5768,0 3.066,0.2628 4.5114,0.7446"
         style="font-size:43.79999924px;fill:#00ff00"
         id="path3020" />
      <path
         d="m 176.96605,733.36216 0,9.7674 c 0,1.4016 0.6132,2.1462 1.7958,2.1462 l 2.5842,0 c 1.0074,0 1.533,-0.5256 1.533,-1.533 0,-1.2264 -0.6132,-1.4892 -2.2338,-1.4892 -0.1314,0 -0.2628,0 -0.3942,0 l 0,-9.6798 c 0,-4.9932 -1.314,-7.6212 -5.256,-7.6212 -2.0586,0 -3.5916,0.876 -4.7742,2.628 -0.6132,-1.752 -1.9272,-2.628 -3.8982,-2.628 -1.6644,0 -2.9784,0.5694 -4.1172,1.8396 -0.0876,-1.0512 -0.3066,-1.2702 -1.2264,-1.2702 l -3.285,0 c -1.1388,0 -1.6644,0.4818 -1.6644,1.4892 0,1.095 0.6132,1.533 1.971,1.533 0.3066,0 0.657,0 0.9636,0 l 0,13.7094 c -0.1752,0 -0.3066,0 -0.438,0 -1.752,0 -2.4966,0.2628 -2.4966,1.4892 0,1.0074 0.5256,1.533 1.6644,1.533 l 5.694,0 c 1.2702,0 1.752,-0.3066 1.752,-1.533 0,-1.1826 -0.5694,-1.533 -2.0586,-1.533 -0.2628,0 -0.5694,0.0438 -0.9198,0.0438 l 0,-11.7822 c 0.7884,-1.4892 1.8396,-2.2338 3.1536,-2.2338 1.6206,0 2.8032,1.2702 2.8032,3.4602 0,0.2628 0,0.8322 0,1.6644 l 0,9.0228 c 0,0.219 0,0.3942 0,0.5694 0,1.6644 0.0876,2.3214 1.4892,2.3214 l 2.7156,0 c 1.0074,0 1.4892,-0.5256 1.4892,-1.533 0,-1.2264 -0.6132,-1.4892 -2.2338,-1.4892 -0.1314,0 -0.2628,0 -0.3942,0 l 0,-8.8914 c 0,-3.4164 1.4892,-5.1246 3.4602,-5.1246 2.1462,0 2.3214,1.8834 2.3214,5.1246"
         style="font-size:43.79999924px;fill:#00ff00"
         id="path3022" />
      <path
         d="m 188.37868,733.53736 c 0.8322,-3.5478 3.59161,-5.6502 7.3584,-5.6502 3.4602,0 6.1758,2.2338 6.57,5.6502 l -13.9284,0 m -0.0876,2.8032 14.3664,0 c 2.628,0 3.5478,-10e-6 3.5478,-2.0148 0,-4.7742 -3.9858,-9.3732 -10.4682,-9.3732 -6.61379,0 -11.169,4.2486 -11.169,10.3806 0,6.39479 4.11721,10.4682 10.731,10.4682 2.8908,0 6.00061,-0.7008 8.9352,-2.1462 1.2702,-0.6132 1.8834,-1.2702 1.8834,-2.1462 0,-0.7884 -0.657,-1.4016 -1.4892,-1.4016 -1.92719,0 -4.6866,2.6718 -9.0228,2.6718 -4.42379,0 -7.0956,-2.32141 -7.3146,-6.4386"
         style="font-size:43.79999924px;fill:#00ff00"
         id="path3024" />
      <path
         d="m 28.492262,792.22936 17.738999,0 c 0.5256,0 1.0074,-0.4818 1.0074,-1.0074 l 0,-2.2776 c 0,-0.5256 -0.3504,-0.876 -1.0074,-0.876 l -17.738999,0 c -0.5694,0 -0.9198,0.3504 -0.9198,0.876 l 0,2.2776 c 0,0.6132 0.3504,1.0074 0.9198,1.0074"
         style="font-size:43.79999924px;fill:#00ff00"
         id="path3026" />
      <path
         d="m 54.840698,792.22936 17.739,0 c 0.525599,0 1.0074,-0.4818 1.0074,-1.0074 l 0,-2.2776 c 0,-0.5256 -0.350401,-0.876 -1.0074,-0.876 l -17.739,0 c -0.569399,0 -0.9198,0.3504 -0.9198,0.876 l 0,2.2776 c 0,0.6132 0.350401,1.0074 0.9198,1.0074"
         style="font-size:43.79999924px;fill:#00ff00"
         id="path3028" />
      <path
         d="m 101.29333,790.17076 c 0,-5.913 -4.380003,-10.3806 -11.168996,-10.3806 -6.788993,0 -11.212799,4.4238 -11.212799,10.3806 0,5.95679 4.423806,10.3806 11.212799,10.3806 6.788993,0 11.168996,-4.42381 11.168996,-10.3806 m -11.168996,7.4022 c -4.423795,0 -7.4898,-3.15361 -7.4898,-7.4022 0,-4.2486 3.066005,-7.446 7.4898,-7.446 4.423796,0 7.4898,3.1974 7.4898,7.446 0,4.29239 -3.066004,7.4022 -7.4898,7.4022"
         style="font-size:43.79999924px;fill:#00ff00"
         id="path3030" />
      <path
         d="m 117.56777,796.91596 c -3.98579,0 -6.7452,-2.84701 -6.7452,-6.7014 0,-3.8544 2.75941,-6.7014 6.7452,-6.7014 4.0296,0 6.789,2.847 6.789,6.7014 0,3.98579 -2.847,6.7014 -6.789,6.7014 m -6.6576,8.5848 0,-8.541 c 1.752,2.01479 4.38001,3.1098 7.4022,3.1098 5.6064,0 9.7236,-3.94201 9.7236,-9.636 0,-6.0006 -4.4676,-10.2054 -10.074,-10.2054 -2.71559,0 -5.0808,1.0074 -7.008,2.9784 l 0,-2.0586 c 0,-0.6132 -0.3942,-0.876 -1.2264,-0.876 l -3.285,0 c -1.1388,0 -1.7082,0.4818 -1.7082,1.4892 0,1.095 0.657,1.533 2.0148,1.533 0.3066,0 0.657,0 0.9636,0 l 0,22.2066 c -0.1314,0 -0.2628,0 -0.3942,0 -1.7958,0 -2.5842,0.3066 -2.5842,1.533 0,1.00739 0.5694,1.533 1.7082,1.533 l 9.4608,0 c 1.2702,0 1.7958,-0.35041 1.7958,-1.533 0,-1.0074 -0.5256,-1.533 -1.6206,-1.533 l -5.1684,0"
         style="font-size:43.79999924px;fill:#00ff00"
         id="path3032" />
      <path
         d="m 135.68181,788.28736 c 0.8322,-3.5478 3.5916,-5.6502 7.3584,-5.6502 3.46019,0 6.1758,2.2338 6.57,5.6502 l -13.9284,0 m -0.0876,2.8032 14.3664,0 c 2.62799,0 3.5478,-10e-6 3.5478,-2.0148 0,-4.7742 -3.98581,-9.3732 -10.4682,-9.3732 -6.6138,0 -11.169,4.2486 -11.169,10.3806 0,6.39479 4.1172,10.4682 10.731,10.4682 2.89079,0 6.0006,-0.70081 8.9352,-2.1462 1.2702,-0.6132 1.8834,-1.2702 1.8834,-2.1462 0,-0.7884 -0.657,-1.4016 -1.4892,-1.4016 -1.9272,0 -4.68661,2.6718 -9.0228,2.6718 -4.4238,0 -7.0956,-2.32141 -7.3146,-6.4386"
         style="font-size:43.79999924px;fill:#00ff00"
         id="path3034" />
      <path
         d="m 167.06725,797.00356 0,-8.8476 c 2.847,-3.2412 5.256,-4.9494 7.6212,-4.9494 1.6644,0 2.5842,1.314 3.723,1.314 0.9198,0 1.8834,-0.9636 1.8834,-2.0148 0,-1.5768 -1.5768,-2.7594 -4.2486,-2.7594 -3.4164,0 -6.3072,1.6644 -8.979,5.037 l 0,-3.6354 c 0,-0.6132 -0.3942,-0.876 -1.1826,-0.876 l -4.8618,0 c -1.1388,0 -1.7082,0.4818 -1.7082,1.4892 0,1.095 0.6132,1.533 2.0148,1.533 0.219,0 0.6132,0 1.095,0 l 1.4454,0 0,13.7094 -3.7668,0 c -1.1826,0 -1.7958,0.4818 -1.7958,1.4892 0,1.00739 0.6132,1.533 1.752,1.533 l 13.9722,0 c 1.2702,0 1.752,-0.30661 1.752,-1.533 0,-1.0512 -0.5256,-1.4892 -1.6206,-1.4892 l -7.0956,0"
         style="font-size:43.79999924px;fill:#00ff00"
         id="path3036" />
      <path
         d="m 200.37988,797.31016 0.219,1.314 c 0.1752,0.91979 0.7008,1.4016 1.4892,1.4016 l 3.3726,0 c 1.1388,0 1.7082,-0.52561 1.7082,-1.533 0,-1.2702 -0.7446,-1.4892 -2.5404,-1.4892 l -1.095,0 0,-9.6798 c 0,-5.1684 -2.5404,-7.5774 -8.0154,-7.5774 -4.81799,0 -7.9716,1.533 -7.9716,3.0222 0,1.095 0.657,1.7958 1.4454,1.7958 1.6644,0 3.41641,-1.7958 6.4386,-1.7958 3.285,0 4.818,1.533 4.818,4.818 0,0.0438 0,0.0876 0,0.1314 -1.75199,-0.438 -3.4164,-0.657 -5.0808,-0.657 -6.35099,0 -9.8988,2.6718 -9.8988,7.0956 0,3.76679 2.80321,6.3948 7.0956,6.3948 2.9346,0 5.69401,-1.13881 8.0154,-3.2412 m -0.1314,-6.7452 0,2.3214 c 0,1.92719 -3.504,4.38 -7.3584,4.38 -2.49659,0 -4.2048,-1.44541 -4.2048,-3.3288 0,-2.409 2.49661,-4.1172 7.0518,-4.1172 1.5768,0 3.066,0.2628 4.5114,0.7446"
         style="font-size:43.79999924px;fill:#00ff00"
         id="path3038" />
      <path
         d="m 227.69192,781.45456 -8.4096,0 0,-4.3362 c 0,-2.1024 -0.1752,-2.9784 -1.7082,-2.9784 -1.1388,0 -1.6644,0.6132 -1.6644,1.7958 0,0.5694 0,0.9636 0,1.1388 l 0,4.38 -2.3652,0 c -2.0586,0 -2.9346,0.1314 -2.9346,1.533 0,1.0512 0.5256,1.4892 1.7082,1.4892 l 3.5916,0 0,7.1394 c 0,0.219 0,0.438 0,0.657 0,1.97099 0.0438,3.6792 0.7884,4.9494 1.2264,2.14619 3.504,3.1974 6.789,3.1974 2.0148,0 4.2486,-0.56941 6.9204,-1.6206 1.5768,-0.6132 2.3652,-1.22641 2.3652,-2.2338 0,-0.7884 -0.7008,-1.533 -1.4892,-1.533 -1.7082,0 -4.55521,2.2776 -8.0154,2.2776 -3.7668,0 -4.0296,-2.27761 -4.0296,-5.694 l 0,-7.1394 8.6724,0 c 1.1826,0 1.7958,-0.4818 1.7958,-1.4892 0,-1.095 -0.657,-1.533 -2.0148,-1.533"
         style="font-size:43.79999924px;fill:#00ff00"
         id="path3040" />
      <path
         d="m 250.18595,797.00356 0,-15.8556 c 0,-0.5256 -0.3942,-0.876 -1.2264,-0.876 l -6.2634,0 c -1.1388,0 -1.7082,0.4818 -1.7082,1.4892 0,1.0074 0.6132,1.533 1.7958,1.533 l 4.161,0 0,13.7094 -6.5262,0 c -1.1826,0 -1.7958,0.4818 -1.7958,1.4892 0,1.00739 0.5694,1.533 1.7082,1.533 l 16.6002,0 c 1.2702,0 1.752,-0.30661 1.752,-1.533 0,-1.0512 -0.5256,-1.4892 -1.6206,-1.4892 l -6.8766,0 m -3.9858,-22.9074 c 0,1.75199 0.438,2.1024 2.2338,2.1024 2.0586,0 2.19,-0.48181 2.19,-2.7156 0,-2.2338 -0.219,-2.8908 -2.19,-2.8908 -1.971,0 -2.2338,0.657 -2.2338,3.504"
         style="font-size:43.79999924px;fill:#00ff00"
         id="path3042" />
      <path
         d="m 266.59179,797.00356 c -0.1752,0 -0.3066,0 -0.438,0 -1.752,0 -2.4966,0.2628 -2.4966,1.4892 0,1.00739 0.5694,1.533 1.7958,1.533 0.5694,0 0.9636,0 1.1388,0 l 3.8982,0 c 1.6206,0 2.2776,-0.0876 2.2776,-1.533 0,-1.1826 -0.5694,-1.533 -2.0586,-1.533 -0.2628,0 -0.5694,0.0438 -0.9198,0.0438 l 0,-8.8914 c 0,-3.1974 2.9784,-5.1246 5.5626,-5.1246 2.80319,0 4.38,1.7082 4.38,5.1246 l 0,8.8914 c -0.2628,0 -0.4818,0 -0.7008,0 -1.533,0 -2.1462,0.3066 -2.1462,1.4892 0,1.40159 0.6132,1.533 2.1462,1.533 l 4.7304,0 c 1.533,0 2.2776,-0.30661 2.2776,-1.533 0,-1.095 -0.657,-1.4892 -2.0148,-1.4892 -0.3066,0 -0.657,0 -0.9636,0 l 0,-9.6798 c 0,-4.9494 -2.89081,-7.6212 -6.9642,-7.6212 -2.2338,0 -4.20481,0.9636 -6.2634,2.8908 l 0,-1.4454 c 0,-0.5256 -0.3942,-0.876 -1.2264,-0.876 l -2.0148,0 c -1.971,0 -2.9346,0 -2.9346,1.4892 0,1.095 0.6132,1.533 1.971,1.533 0.3066,0 0.657,0 0.9636,0 l 0,13.7094"
         style="font-size:43.79999924px;fill:#00ff00"
         id="path3044" />
      <path
         d="m 309.58424,798.88696 0,-15.5928 c 0.1314,0 0.2628,0 0.3942,0 1.79579,0 2.5404,-0.30661 2.5404,-1.533 0,-1.0074 -0.5694,-1.4892 -1.7082,-1.4892 l -3.2412,0 c -0.8322,0 -1.2264,0.2628 -1.2264,0.876 l 0,1.533 c -2.0586,-1.6206 -4.11721,-2.4528 -6.3072,-2.4528 -5.1684,0 -9.417,3.8982 -9.417,9.417 0,5.60639 3.942,9.5046 9.2418,9.5046 2.75939,0 4.7742,-0.91981 6.5262,-2.9346 l 0,2.5842 c 0,4.42379 -1.35781,6.4386 -5.8254,6.4386 -1.1388,0 -2.3214,-0.3066 -3.5916,-0.3066 -1.0074,0 -1.8396,0.7884 -1.8396,1.6644 0,1.40159 1.533,1.971 4.6866,1.971 3.98579,0 6.8766,-1.18261 8.4534,-3.2412 1.2702,-1.6644 1.314,-3.54781 1.314,-5.9568 0,-0.1752 0,-0.3066 0,-0.4818 m -9.2856,-15.4614 c 3.76679,0 6.351,2.628 6.351,6.2196 0,3.63539 -2.62801,6.2196 -6.351,6.2196 -3.7668,0 -6.351,-2.62801 -6.351,-6.2196 0,-3.6792 2.628,-6.2196 6.351,-6.2196"
         style="font-size:43.79999924px;fill:#00ff00"
         id="path3046" />
      <path
         d="m 318.32506,792.22936 17.739,0 c 0.5256,0 1.0074,-0.4818 1.0074,-1.0074 l 0,-2.2776 c 0,-0.5256 -0.3504,-0.876 -1.0074,-0.876 l -17.739,0 c -0.5694,0 -0.9198,0.3504 -0.9198,0.876 l 0,2.2776 c 0,0.6132 0.3504,1.0074 0.9198,1.0074"
         style="font-size:43.79999924px;fill:#00ff00"
         id="path3048" />
      <path
         d="m 344.23551,798.49276 c 0,1.35779 0.5694,2.0586 1.5768,2.0586 0.4818,0 1.1826,-0.3504 2.19,-1.0074 2.40899,0.6132 4.5552,0.9636 6.4824,0.9636 5.34359,0 8.3658,-2.67181 8.3658,-6.351 0,-4.2048 -2.93461,-5.8692 -8.5848,-6.0006 -4.2048,-0.0876 -6.6576,-0.30661 -6.6576,-2.5842 0,-1.7082 1.6206,-3.1536 4.4676,-3.1536 2.23379,0 3.8106,0.5256 5.4312,1.971 1.27019,1.13879 1.7082,2.2338 2.6718,2.2338 1.05119,0 1.4454,-0.74461 1.4454,-2.1462 l 0,-2.4966 c 0,-1.4454 -0.48181,-2.1462 -1.4454,-2.1462 -1.1388,0 -1.57681,0.8322 -2.19,0.8322 -0.6132,0 -2.32141,-0.9636 -5.4312,-0.9636 -5.2998,0 -8.2344,2.4528 -8.2344,6.0006 0,3.81059 3.1098,5.913 8.9352,5.913 0.61319,0 1.0074,0 1.2264,0 3.24119,0 4.818,0.6132 4.818,2.8032 0,1.92719 -1.92721,3.3288 -5.037,3.3288 -2.8908,0 -5.34361,-1.05121 -6.4824,-2.5404 -0.8322,-1.095 -0.70081,-2.2776 -2.0148,-2.2776 -1.1388,0 -1.533,0.6132 -1.533,1.752 l 0,3.8106"
         style="font-size:43.79999924px;fill:#00ff00"
         id="path3050" />
      <path
         d="m 378.33652,805.50076 11.2566,-22.2066 c 1.4892,-0.0438 2.1462,-0.3942 2.1462,-1.533 0,-1.0074 -0.5694,-1.4892 -1.7082,-1.4892 l -5.2998,0 c -1.40159,0 -2.0148,0.219 -2.0148,1.4892 0,1.22639 0.74461,1.533 2.5842,1.533 0.2628,0 0.5256,0 0.8322,0 l -5.9568,11.7822 -5.7378,-11.7822 c 0.2628,0 0.52561,0 0.7884,0 1.752,0 2.4966,-0.30661 2.4966,-1.533 0,-1.2702 -0.6132,-1.4892 -2.0148,-1.4892 l -5.9568,0 c -1.13879,0 -1.7082,0.4818 -1.7082,1.4892 0,1.22639 0.70081,1.533 2.4528,1.533 l 7.8402,15.3738 -3.504,6.8328 -4.6428,0 c -1.09499,0 -1.6206,0.5256 -1.6206,1.533 0,1.18259 0.52561,1.533 1.7958,1.533 l 9.8112,0 c 1.1388,0 1.752,-0.52561 1.752,-1.533 0,-1.2702 -0.7884,-1.533 -2.6718,-1.533 -0.26279,0 -0.5694,0 -0.9198,0"
         style="font-size:43.79999924px;fill:#00ff00"
         id="path3052" />
      <path
         d="m 396.93237,798.49276 c 0,1.35779 0.56941,2.0586 1.5768,2.0586 0.4818,0 1.18261,-0.3504 2.19,-1.0074 2.409,0.6132 4.55521,0.9636 6.4824,0.9636 5.3436,0 8.3658,-2.67181 8.3658,-6.351 0,-4.2048 -2.9346,-5.8692 -8.5848,-6.0006 -4.20479,-0.0876 -6.6576,-0.30661 -6.6576,-2.5842 0,-1.7082 1.62061,-3.1536 4.4676,-3.1536 2.2338,0 3.81061,0.5256 5.4312,1.971 1.2702,1.13879 1.70821,2.2338 2.6718,2.2338 1.0512,0 1.4454,-0.74461 1.4454,-2.1462 l 0,-2.4966 c 0,-1.4454 -0.4818,-2.1462 -1.4454,-2.1462 -1.13879,0 -1.5768,0.8322 -2.19,0.8322 -0.6132,0 -2.3214,-0.9636 -5.4312,-0.9636 -5.29979,0 -8.2344,2.4528 -8.2344,6.0006 0,3.81059 3.10981,5.913 8.9352,5.913 0.6132,0 1.0074,0 1.2264,0 3.2412,0 4.818,0.6132 4.818,2.8032 0,1.92719 -1.9272,3.3288 -5.037,3.3288 -2.89079,0 -5.3436,-1.05121 -6.4824,-2.5404 -0.83219,-1.095 -0.7008,-2.2776 -2.0148,-2.2776 -1.13879,0 -1.533,0.6132 -1.533,1.752 l 0,3.8106"
         style="font-size:43.79999924px;fill:#00ff00"
         id="path3054" />
      <path
         d="m 438.47939,781.45456 -8.4096,0 0,-4.3362 c 0,-2.1024 -0.1752,-2.9784 -1.7082,-2.9784 -1.1388,0 -1.6644,0.6132 -1.6644,1.7958 0,0.5694 0,0.9636 0,1.1388 l 0,4.38 -2.3652,0 c -2.05859,0 -2.9346,0.1314 -2.9346,1.533 0,1.0512 0.52561,1.4892 1.7082,1.4892 l 3.5916,0 0,7.1394 c 0,0.219 0,0.438 0,0.657 0,1.97099 0.0438,3.6792 0.7884,4.9494 1.2264,2.14619 3.50401,3.1974 6.789,3.1974 2.0148,0 4.24861,-0.56941 6.9204,-1.6206 1.5768,-0.6132 2.3652,-1.22641 2.3652,-2.2338 0,-0.7884 -0.7008,-1.533 -1.4892,-1.533 -1.70819,0 -4.5552,2.2776 -8.0154,2.2776 -3.76679,0 -4.0296,-2.27761 -4.0296,-5.694 l 0,-7.1394 8.6724,0 c 1.1826,0 1.7958,-0.4818 1.7958,-1.4892 0,-1.095 -0.657,-1.533 -2.0148,-1.533"
         style="font-size:43.79999924px;fill:#00ff00"
         id="path3056" />
      <path
         d="m 451.86304,788.28736 c 0.8322,-3.5478 3.59161,-5.6502 7.3584,-5.6502 3.4602,0 6.1758,2.2338 6.57,5.6502 l -13.9284,0 m -0.0876,2.8032 14.3664,0 c 2.628,0 3.5478,-10e-6 3.5478,-2.0148 0,-4.7742 -3.9858,-9.3732 -10.4682,-9.3732 -6.61379,0 -11.169,4.2486 -11.169,10.3806 0,6.39479 4.11721,10.4682 10.731,10.4682 2.8908,0 6.00061,-0.70081 8.9352,-2.1462 1.2702,-0.6132 1.8834,-1.2702 1.8834,-2.1462 0,-0.7884 -0.657,-1.4016 -1.4892,-1.4016 -1.92719,0 -4.6866,2.6718 -9.0228,2.6718 -4.42379,0 -7.0956,-2.32141 -7.3146,-6.4386"
         style="font-size:43.79999924px;fill:#00ff00"
         id="path3058" />
      <path
         d="m 493.14729,788.11216 0,9.7674 c 0,1.40159 0.6132,2.1462 1.7958,2.1462 l 2.5842,0 c 1.0074,0 1.533,-0.52561 1.533,-1.533 0,-1.2264 -0.6132,-1.4892 -2.2338,-1.4892 -0.1314,0 -0.2628,0 -0.3942,0 l 0,-9.6798 c 0,-4.9932 -1.314,-7.6212 -5.256,-7.6212 -2.05859,0 -3.5916,0.876 -4.7742,2.628 -0.6132,-1.752 -1.9272,-2.628 -3.8982,-2.628 -1.6644,0 -2.9784,0.5694 -4.1172,1.8396 -0.0876,-1.0512 -0.3066,-1.2702 -1.2264,-1.2702 l -3.285,0 c -1.1388,0 -1.6644,0.4818 -1.6644,1.4892 0,1.095 0.6132,1.533 1.971,1.533 0.3066,0 0.657,0 0.9636,0 l 0,13.7094 c -0.1752,0 -0.3066,0 -0.438,0 -1.75199,0 -2.4966,0.2628 -2.4966,1.4892 0,1.00739 0.5256,1.533 1.6644,1.533 l 5.694,0 c 1.2702,0 1.752,-0.30661 1.752,-1.533 0,-1.1826 -0.5694,-1.533 -2.0586,-1.533 -0.2628,0 -0.5694,0.0438 -0.9198,0.0438 l 0,-11.7822 c 0.7884,-1.4892 1.8396,-2.2338 3.1536,-2.2338 1.6206,0 2.8032,1.2702 2.8032,3.4602 0,0.2628 0,0.8322 0,1.6644 l 0,9.0228 c 0,0.219 0,0.3942 0,0.5694 0,1.66439 0.0876,2.3214 1.4892,2.3214 l 2.7156,0 c 1.0074,0 1.4892,-0.52561 1.4892,-1.533 0,-1.2264 -0.6132,-1.4892 -2.2338,-1.4892 -0.1314,0 -0.2628,0 -0.3942,0 l 0,-8.8914 c 0,-3.4164 1.4892,-5.1246 3.4602,-5.1246 2.1462,0 2.3214,1.8834 2.3214,5.1246"
         style="font-size:43.79999924px;fill:#00ff00"
         id="path3060" />
    </g>
    <g
       style="font-size:25.04329872px;font-style:normal;font-variant:normal;font-weight:normal;font-stretch:normal;line-height:125%;letter-spacing:0px;word-spacing:0px;fill:#999999;fill-opacity:1;stroke:none;font-family:Ubuntu;-inkscape-font-specification:Ubuntu"
       id="text2991">
      <path
         d="m 34.117252,1035.076 c -0.350007,0 -0.73334,-0.01 -1.15,-0.025 -0.400006,-0.017 -0.808339,-0.042 -1.225,-0.075 -0.400004,-0.033 -0.800004,-0.075 -1.2,-0.125 -0.400003,-0.05 -0.76667,-0.1166 -1.1,-0.2 l 0,-16.8 c 0.33333,-0.083 0.699997,-0.15 1.1,-0.2 0.399996,-0.05 0.799996,-0.092 1.2,-0.125 0.416661,-0.033 0.824994,-0.058 1.225,-0.075 0.399994,-0.017 0.774993,-0.025 1.125,-0.025 0.999992,0 1.933324,0.075 2.8,0.225 0.883322,0.15 1.641655,0.4084 2.275,0.775 0.649987,0.35 1.15832,0.8167 1.525,1.4 0.366652,0.5834 0.549986,1.3 0.55,2.15 -1.4e-5,0.95 -0.225014,1.7334 -0.675,2.35 -0.450013,0.6 -1.050013,1.05 -1.8,1.35 1.016654,0.3 1.824986,0.775 2.425,1.425 0.599985,0.65 0.899985,1.5667 0.9,2.75 -1.5e-5,1.7334 -0.641681,3.0417 -1.925,3.925 -1.266679,0.8667 -3.283343,1.3 -6.05,1.3 m -2.275,-8.225 0,6.1 c 0.183328,0.017 0.399995,0.033 0.65,0.05 0.216661,0.017 0.466661,0.033 0.75,0.05 0.299993,0 0.64166,0 1.025,0 0.716659,0 1.391658,-0.042 2.025,-0.125 0.64999,-0.1 1.216656,-0.2666 1.7,-0.5 0.483322,-0.2333 0.866655,-0.5583 1.15,-0.975 0.299987,-0.4166 0.449987,-0.9416 0.45,-1.575 -1.3e-5,-0.5666 -0.108346,-1.0416 -0.325,-1.425 -0.216679,-0.4 -0.533345,-0.7166 -0.95,-0.95 -0.400011,-0.2333 -0.883344,-0.4 -1.45,-0.5 -0.566676,-0.1 -1.200009,-0.15 -1.9,-0.15 l -3.125,0 m 0,-1.95 2.55,0 c 0.599992,0 1.166658,-0.042 1.7,-0.125 0.533324,-0.083 0.991656,-0.2333 1.375,-0.45 0.399989,-0.2166 0.708322,-0.5 0.925,-0.85 0.233322,-0.35 0.349988,-0.7916 0.35,-1.325 -1.2e-5,-0.5 -0.116678,-0.9166 -0.35,-1.25 -0.233345,-0.35 -0.558344,-0.625 -0.975,-0.825 -0.40001,-0.2166 -0.87501,-0.375 -1.425,-0.475 -0.550009,-0.1 -1.133341,-0.15 -1.75,-0.15 -0.616673,0 -1.100006,0.01 -1.45,0.025 -0.350006,0.017 -0.666672,0.042 -0.95,0.075 l 0,5.35"
         style="font-size:25px;fill:#999999"
         id="path3063" />
      <path
         d="m 44.631705,1028.451 c -2e-6,-1.15 0.166665,-2.15 0.5,-3 0.333331,-0.8666 0.774997,-1.5833 1.325,-2.15 0.549996,-0.5666 1.183329,-0.9916 1.9,-1.275 0.716661,-0.2833 1.449993,-0.425 2.2,-0.425 1.749991,0 3.091656,0.55 4.025,1.65 0.933321,1.0834 1.399987,2.7417 1.4,4.975 -1.3e-5,0.1 -1.3e-5,0.2334 0,0.4 -1.3e-5,0.15 -0.0083,0.2917 -0.025,0.425 l -8.9,0 c 0.1,1.35 0.491662,2.375 1.175,3.075 0.683327,0.7 1.749993,1.05 3.2,1.05 0.816657,0 1.49999,-0.067 2.05,-0.2 0.566656,-0.15 0.991655,-0.2916 1.275,-0.425 l 0.325,1.95 c -0.283345,0.15 -0.783345,0.3084 -1.5,0.475 -0.70001,0.1667 -1.500009,0.25 -2.4,0.25 -1.13334,0 -2.116673,-0.1666 -2.95,-0.5 -0.816671,-0.35 -1.49167,-0.825 -2.025,-1.425 -0.533336,-0.6 -0.933336,-1.3083 -1.2,-2.125 -0.250002,-0.8333 -0.375002,-1.7416 -0.375,-2.725 m 8.925,-1.275 c 0.01666,-1.05 -0.25001,-1.9083 -0.8,-2.575 -0.533342,-0.6833 -1.275008,-1.025 -2.225,-1.025 -0.53334,0 -1.00834,0.1084 -1.425,0.325 -0.400006,0.2 -0.741672,0.4667 -1.025,0.8 -0.283338,0.3334 -0.508338,0.7167 -0.675,1.15 -0.150004,0.4334 -0.250004,0.875 -0.3,1.325 l 6.45,0"
         style="font-size:25px;fill:#999999"
         id="path3065" />
      <path
         d="m 57.796548,1037.351 c 0.183333,0.083 0.416666,0.1584 0.7,0.225 0.299999,0.083 0.591665,0.125 0.875,0.125 0.916664,0 1.63333,-0.2083 2.15,-0.625 0.516662,-0.4 0.983329,-1.0583 1.4,-1.975 -1.050004,-2 -2.033336,-4.1166 -2.95,-6.35 -0.900001,-2.25 -1.650001,-4.525 -2.25,-6.825 l 2.5,0 c 0.183331,0.75 0.399997,1.5584 0.65,2.425 0.266663,0.8667 0.55833,1.7584 0.875,2.675 0.316662,0.9167 0.658329,1.8334 1.025,2.75 0.366661,0.9167 0.749994,1.8 1.15,2.65 0.633327,-1.75 1.183326,-3.4833 1.65,-5.2 0.466658,-1.7166 0.908325,-3.4833 1.325,-5.3 l 2.4,0 c -0.600011,2.45 -1.266677,4.8084 -2,7.075 -0.733342,2.25 -1.525008,4.3584 -2.375,6.325 -0.33334,0.75 -0.68334,1.3917 -1.05,1.925 -0.350006,0.55 -0.741672,1 -1.175,1.35 -0.433338,0.35 -0.925004,0.6084 -1.475,0.775 -0.533336,0.1667 -1.141669,0.25 -1.825,0.25 -0.183335,0 -0.375001,-0.017 -0.575,-0.05 -0.200001,-0.017 -0.400001,-0.05 -0.6,-0.1 -0.183334,-0.033 -0.358333,-0.075 -0.525,-0.125 -0.15,-0.05 -0.258333,-0.092 -0.325,-0.125 l 0.425,-1.875"
         style="font-size:25px;fill:#999999"
         id="path3067" />
      <path
         d="m 83.198892,1028.426 c -1.3e-5,1.0334 -0.150013,1.9667 -0.45,2.8 -0.300013,0.8334 -0.725012,1.55 -1.275,2.15 -0.533344,0.6 -1.17501,1.0667 -1.925,1.4 -0.750009,0.3167 -1.566675,0.475 -2.45,0.475 -0.88334,0 -1.700005,-0.1583 -2.45,-0.475 -0.750004,-0.3333 -1.400003,-0.8 -1.95,-1.4 -0.533336,-0.6 -0.950002,-1.3166 -1.25,-2.15 -0.300001,-0.8333 -0.450001,-1.7666 -0.45,-2.8 -10e-7,-1.0166 0.149999,-1.9416 0.45,-2.775 0.299998,-0.85 0.716664,-1.575 1.25,-2.175 0.549997,-0.6 1.199996,-1.0583 1.95,-1.375 0.749995,-0.3333 1.56666,-0.5 2.45,-0.5 0.883325,0 1.699991,0.1667 2.45,0.5 0.74999,0.3167 1.391656,0.775 1.925,1.375 0.549988,0.6 0.974987,1.325 1.275,2.175 0.299987,0.8334 0.449987,1.7584 0.45,2.775 m -2.425,0 c -1.1e-5,-1.4666 -0.333344,-2.625 -1,-3.475 -0.650009,-0.8666 -1.541675,-1.3 -2.675,-1.3 -1.133339,0 -2.033338,0.4334 -2.7,1.3 -0.650004,0.85 -0.975003,2.0084 -0.975,3.475 -3e-6,1.4667 0.324996,2.6334 0.975,3.5 0.666662,0.85 1.566661,1.275 2.7,1.275 1.133325,0 2.024991,-0.425 2.675,-1.275 0.666656,-0.8666 0.999989,-2.0333 1,-3.5"
         style="font-size:25px;fill:#999999"
         id="path3069" />
      <path
         d="m 86.469986,1022.301 c 0.533331,-0.1333 1.241663,-0.275 2.125,-0.425 0.883328,-0.15 1.899994,-0.225 3.05,-0.225 1.033325,0 1.891658,0.15 2.575,0.45 0.683323,0.2834 1.224989,0.6917 1.625,1.225 0.416655,0.5167 0.708321,1.1417 0.875,1.875 0.166654,0.7334 0.249987,1.5417 0.25,2.425 l 0,7.3 -2.325,0 0,-6.8 c -1e-5,-0.8 -0.05834,-1.4833 -0.175,-2.05 -0.10001,-0.5666 -0.27501,-1.025 -0.525,-1.375 -0.250009,-0.35 -0.583342,-0.6 -1,-0.75 -0.416675,-0.1666 -0.933341,-0.25 -1.55,-0.25 -0.250007,0 -0.50834,0.01 -0.775,0.025 -0.266673,0.017 -0.525006,0.042 -0.775,0.075 -0.233339,0.017 -0.450005,0.042 -0.65,0.075 -0.183338,0.033 -0.316671,0.058 -0.4,0.075 l 0,10.975 -2.325,0 0,-12.625"
         style="font-size:25px;fill:#999999"
         id="path3071" />
      <path
         d="m 109.22545,1024.676 c -0.28334,-0.2333 -0.69167,-0.4583 -1.225,-0.675 -0.53334,-0.2166 -1.11667,-0.325 -1.75,-0.325 -0.66667,0 -1.24167,0.125 -1.725,0.375 -0.46667,0.2334 -0.85,0.5667 -1.15,1 -0.3,0.4167 -0.51667,0.9167 -0.65,1.5 -0.13333,0.5834 -0.2,1.2084 -0.2,1.875 0,1.5167 0.375,2.6917 1.125,3.525 0.75,0.8167 1.75,1.225 3,1.225 0.63333,0 1.15833,-0.025 1.575,-0.075 0.43333,-0.067 0.76666,-0.1333 1,-0.2 l 0,-8.225 m 0,-8.75 2.325,-0.4 0,19.025 c -0.53334,0.15 -1.21667,0.3 -2.05,0.45 -0.83334,0.15 -1.79167,0.225 -2.875,0.225 -1,0 -1.9,-0.1583 -2.7,-0.475 -0.8,-0.3166 -1.48333,-0.7666 -2.05,-1.35 -0.56666,-0.5833 -1.00833,-1.2916 -1.325,-2.125 -0.3,-0.85 -0.45,-1.8 -0.45,-2.85 0,-1 0.125,-1.9166 0.375,-2.75 0.26667,-0.8333 0.65,-1.55 1.15,-2.15 0.5,-0.6 1.10833,-1.0666 1.825,-1.4 0.73333,-0.3333 1.56667,-0.5 2.5,-0.5 0.75,0 1.40833,0.1 1.975,0.3 0.58333,0.2 1.01666,0.3917 1.3,0.575 l 0,-6.575"
         style="font-size:25px;fill:#999999"
         id="path3073" />
      <path
         d="m 123.50827,1021.926 4.925,0 0,1.95 -4.925,0 0,6 c -10e-6,0.65 0.05,1.1917 0.15,1.625 0.1,0.4167 0.24999,0.75 0.45,1 0.19999,0.2334 0.44999,0.4 0.75,0.5 0.29999,0.1 0.64999,0.15 1.05,0.15 0.69999,0 1.25832,-0.075 1.675,-0.225 0.43332,-0.1666 0.73332,-0.2833 0.9,-0.35 l 0.45,1.925 c -0.23335,0.1167 -0.64168,0.2584 -1.225,0.425 -0.58334,0.1834 -1.25001,0.275 -2,0.275 -0.88334,0 -1.61667,-0.1083 -2.2,-0.325 -0.56667,-0.2333 -1.02501,-0.575 -1.375,-1.025 -0.35001,-0.45 -0.6,-1 -0.75,-1.65 -0.13334,-0.6666 -0.2,-1.4333 -0.2,-2.3 l 0,-11.6 2.325,-0.4 0,4.025"
         style="font-size:25px;fill:#999999"
         id="path3075" />
      <path
         d="m 131.39186,1034.926 0,-19 2.325,-0.4 0,6.65 c 0.43333,-0.1666 0.89166,-0.2916 1.375,-0.375 0.49999,-0.1 0.99166,-0.15 1.475,-0.15 1.03333,0 1.89166,0.15 2.575,0.45 0.68332,0.2834 1.22499,0.6917 1.625,1.225 0.41666,0.5167 0.70832,1.1417 0.875,1.875 0.16666,0.7334 0.24999,1.5417 0.25,2.425 l 0,7.3 -2.325,0 0,-6.8 c -1e-5,-0.8 -0.0583,-1.4833 -0.175,-2.05 -0.10001,-0.5666 -0.27501,-1.025 -0.525,-1.375 -0.25001,-0.35 -0.58334,-0.6 -1,-0.75 -0.41667,-0.1666 -0.93334,-0.25 -1.55,-0.25 -0.25001,0 -0.50834,0.017 -0.775,0.05 -0.26667,0.033 -0.525,0.075 -0.775,0.125 -0.23334,0.033 -0.45,0.075 -0.65,0.125 -0.18334,0.05 -0.31667,0.092 -0.4,0.125 l 0,10.8 -2.325,0"
         style="font-size:25px;fill:#999999"
         id="path3077" />
      <path
         d="m 144.92467,1028.451 c 0,-1.15 0.16667,-2.15 0.5,-3 0.33333,-0.8666 0.775,-1.5833 1.325,-2.15 0.55,-0.5666 1.18333,-0.9916 1.9,-1.275 0.71666,-0.2833 1.45,-0.425 2.2,-0.425 1.74999,0 3.09166,0.55 4.025,1.65 0.93332,1.0834 1.39999,2.7417 1.4,4.975 -10e-6,0.1 -10e-6,0.2334 0,0.4 -10e-6,0.15 -0.008,0.2917 -0.025,0.425 l -8.9,0 c 0.1,1.35 0.49167,2.375 1.175,3.075 0.68333,0.7 1.75,1.05 3.2,1.05 0.81666,0 1.49999,-0.067 2.05,-0.2 0.56666,-0.15 0.99166,-0.2916 1.275,-0.425 l 0.325,1.95 c -0.28334,0.15 -0.78334,0.3084 -1.5,0.475 -0.70001,0.1667 -1.50001,0.25 -2.4,0.25 -1.13334,0 -2.11667,-0.1666 -2.95,-0.5 -0.81667,-0.35 -1.49167,-0.825 -2.025,-1.425 -0.53333,-0.6 -0.93333,-1.3083 -1.2,-2.125 -0.25,-0.8333 -0.375,-1.7416 -0.375,-2.725 m 8.925,-1.275 c 0.0167,-1.05 -0.25001,-1.9083 -0.8,-2.575 -0.53334,-0.6833 -1.275,-1.025 -2.225,-1.025 -0.53334,0 -1.00834,0.1084 -1.425,0.325 -0.4,0.2 -0.74167,0.4667 -1.025,0.8 -0.28333,0.3334 -0.50833,0.7167 -0.675,1.15 -0.15,0.4334 -0.25,0.875 -0.3,1.325 l 6.45,0"
         style="font-size:25px;fill:#999999"
         id="path3079" />
      <path
         d="m 165.37624,1022.301 c 0.53333,-0.1333 1.23333,-0.275 2.1,-0.425 0.88332,-0.15 1.89999,-0.225 3.05,-0.225 0.83332,0 1.53332,0.1167 2.1,0.35 0.56665,0.2167 1.04165,0.5417 1.425,0.975 0.11665,-0.083 0.29998,-0.2 0.55,-0.35 0.24998,-0.15 0.55832,-0.2916 0.925,-0.425 0.36665,-0.15 0.77498,-0.275 1.225,-0.375 0.44998,-0.1166 0.93331,-0.175 1.45,-0.175 0.99998,0 1.81665,0.15 2.45,0.45 0.63331,0.2834 1.12498,0.6917 1.475,1.225 0.36664,0.5334 0.60831,1.1667 0.725,1.9 0.13331,0.7334 0.19998,1.5334 0.2,2.4 l 0,7.3 -2.325,0 0,-6.8 c -2e-5,-0.7666 -0.0417,-1.425 -0.125,-1.975 -0.0667,-0.55 -0.20835,-1.0083 -0.425,-1.375 -0.20002,-0.3666 -0.48335,-0.6333 -0.85,-0.8 -0.35002,-0.1833 -0.80835,-0.275 -1.375,-0.275 -0.78335,0 -1.43335,0.1084 -1.95,0.325 -0.50002,0.2 -0.84168,0.3834 -1.025,0.55 0.13332,0.4334 0.23332,0.9084 0.3,1.425 0.0667,0.5167 0.1,1.0584 0.1,1.625 l 0,7.3 -2.325,0 0,-6.8 c -1e-5,-0.7666 -0.0417,-1.425 -0.125,-1.975 -0.0833,-0.55 -0.23335,-1.0083 -0.45,-1.375 -0.20001,-0.3666 -0.48335,-0.6333 -0.85,-0.8 -0.35001,-0.1833 -0.80001,-0.275 -1.35,-0.275 -0.23334,0 -0.48334,0.01 -0.75,0.025 -0.26668,0.017 -0.52501,0.042 -0.775,0.075 -0.23334,0.017 -0.45001,0.042 -0.65,0.075 -0.20001,0.033 -0.33334,0.058 -0.4,0.075 l 0,10.975 -2.325,0 0,-12.625"
         style="font-size:25px;fill:#999999"
         id="path3081" />
      <path
         d="m 191.30944,1033.251 c 0.54999,0 1.03332,-0.01 1.45,-0.025 0.43332,-0.033 0.79166,-0.083 1.075,-0.15 l 0,-3.875 c -0.16668,-0.083 -0.44168,-0.15 -0.825,-0.2 -0.36668,-0.067 -0.81667,-0.1 -1.35,-0.1 -0.35001,0 -0.72501,0.025 -1.125,0.075 -0.38334,0.05 -0.74167,0.1584 -1.075,0.325 -0.31667,0.15 -0.58334,0.3667 -0.8,0.65 -0.21667,0.2667 -0.325,0.625 -0.325,1.075 0,0.8334 0.26666,1.4167 0.8,1.75 0.53333,0.3167 1.25833,0.475 2.175,0.475 m -0.2,-11.65 c 0.93333,0 1.71666,0.125 2.35,0.375 0.64999,0.2334 1.16666,0.575 1.55,1.025 0.39999,0.4334 0.68332,0.9584 0.85,1.575 0.16665,0.6 0.24999,1.2667 0.25,2 l 0,8.125 c -0.20001,0.033 -0.48334,0.083 -0.85,0.15 -0.35001,0.05 -0.75001,0.1 -1.2,0.15 -0.45001,0.05 -0.94168,0.092 -1.475,0.125 -0.51667,0.05 -1.03334,0.075 -1.55,0.075 -0.73334,0 -1.40834,-0.075 -2.025,-0.225 -0.61667,-0.15 -1.15,-0.3833 -1.6,-0.7 -0.45,-0.3333 -0.8,-0.7666 -1.05,-1.3 -0.25,-0.5333 -0.375,-1.175 -0.375,-1.925 0,-0.7166 0.14166,-1.3333 0.425,-1.85 0.3,-0.5166 0.7,-0.9333 1.2,-1.25 0.5,-0.3166 1.08333,-0.55 1.75,-0.7 0.66666,-0.15 1.36666,-0.225 2.1,-0.225 0.23333,0 0.47499,0.017 0.725,0.05 0.24999,0.017 0.48332,0.05 0.7,0.1 0.23332,0.033 0.43332,0.067 0.6,0.1 0.16666,0.033 0.28332,0.058 0.35,0.075 l 0,-0.65 c -1e-5,-0.3833 -0.0417,-0.7583 -0.125,-1.125 -0.0833,-0.3833 -0.23334,-0.7166 -0.45,-1 -0.21668,-0.3 -0.51668,-0.5333 -0.9,-0.7 -0.36667,-0.1833 -0.85001,-0.275 -1.45,-0.275 -0.76667,0 -1.44167,0.058 -2.025,0.175 -0.56667,0.1 -0.99167,0.2084 -1.275,0.325 l -0.275,-1.925 c 0.3,-0.1333 0.8,-0.2583 1.5,-0.375 0.69999,-0.1333 1.45833,-0.2 2.275,-0.2"
         style="font-size:25px;fill:#999999"
         id="path3083" />
      <path
         d="m 202.12155,1021.926 4.925,0 0,1.95 -4.925,0 0,6 c -1e-5,0.65 0.05,1.1917 0.15,1.625 0.1,0.4167 0.24999,0.75 0.45,1 0.19999,0.2334 0.44999,0.4 0.75,0.5 0.29999,0.1 0.64999,0.15 1.05,0.15 0.69999,0 1.25832,-0.075 1.675,-0.225 0.43332,-0.1666 0.73332,-0.2833 0.9,-0.35 l 0.45,1.925 c -0.23334,0.1167 -0.64168,0.2584 -1.225,0.425 -0.58334,0.1834 -1.25001,0.275 -2,0.275 -0.88334,0 -1.61667,-0.1083 -2.2,-0.325 -0.56667,-0.2333 -1.025,-0.575 -1.375,-1.025 -0.35,-0.45 -0.6,-1 -0.75,-1.65 -0.13334,-0.6666 -0.2,-1.4333 -0.2,-2.3 l 0,-11.6 2.325,-0.4 0,4.025"
         style="font-size:25px;fill:#999999"
         id="path3085" />
      <path
         d="m 214.80514,1021.651 c 0.2,0 0.42499,0.017 0.675,0.05 0.26666,0.017 0.52499,0.05 0.775,0.1 0.24999,0.033 0.47499,0.075 0.675,0.125 0.21666,0.033 0.37499,0.067 0.475,0.1 l -0.4,2.025 c -0.18334,-0.067 -0.49167,-0.1416 -0.925,-0.225 -0.41667,-0.1 -0.95834,-0.15 -1.625,-0.15 -0.43334,0 -0.86667,0.05 -1.3,0.15 -0.41667,0.083 -0.69167,0.1417 -0.825,0.175 l 0,10.925 -2.325,0 0,-12.45 c 0.55,-0.2 1.23333,-0.3833 2.05,-0.55 0.81666,-0.1833 1.73333,-0.275 2.75,-0.275"
         style="font-size:25px;fill:#999999"
         id="path3087" />
      <path
         d="m 221.99811,1034.926 -2.325,0 0,-13 2.325,0 0,13 m -1.175,-15.35 c -0.41667,0 -0.775,-0.1333 -1.075,-0.4 -0.28333,-0.2833 -0.425,-0.6583 -0.425,-1.125 0,-0.4666 0.14167,-0.8333 0.425,-1.1 0.3,-0.2833 0.65833,-0.425 1.075,-0.425 0.41666,0 0.76666,0.1417 1.05,0.425 0.3,0.2667 0.45,0.6334 0.45,1.1 0,0.4667 -0.15,0.8417 -0.45,1.125 -0.28334,0.2667 -0.63334,0.4 -1.05,0.4"
         style="font-size:25px;fill:#999999"
         id="path3089" />
      <path
         d="m 233.79577,1034.926 c -0.18335,-0.3666 -0.40835,-0.775 -0.675,-1.225 -0.26668,-0.45 -0.55834,-0.9083 -0.875,-1.375 -0.31668,-0.4833 -0.64168,-0.9583 -0.975,-1.425 -0.33334,-0.4666 -0.65834,-0.9083 -0.975,-1.325 -0.31668,0.4167 -0.64168,0.8667 -0.975,1.35 -0.33334,0.4667 -0.65834,0.9417 -0.975,1.425 -0.30001,0.4667 -0.58334,0.925 -0.85,1.375 -0.26667,0.45 -0.49167,0.85 -0.675,1.2 l -2.4,0 c 0.58333,-1.1333 1.275,-2.2833 2.075,-3.45 0.81666,-1.1833 1.62499,-2.3083 2.425,-3.375 l -4.3,-6.175 2.625,0 3.1,4.55 3.125,-4.55 2.475,0 -4.2,6.025 c 0.79999,1.0834 1.61665,2.2334 2.45,3.45 0.84999,1.2 1.56665,2.375 2.15,3.525 l -2.55,0"
         style="font-size:25px;fill:#999999"
         id="path3091" />
    </g>
    <g
       style="font-size:24.28185844px;font-style:normal;font-variant:normal;font-weight:normal;font-stretch:normal;line-height:125%;letter-spacing:0px;word-spacing:0px;fill:#4d4d4d;fill-opacity:1;stroke:none;font-family:Ubuntu;-inkscape-font-specification:Ubuntu"
       id="text2995">
      <path
         d="m 370.06859,1015.714 c 0.68333,0 1.26666,0.05 1.75,0.15 0.49999,0.1 0.84999,0.1917 1.05,0.275 l -0.425,2 c -0.20001,-0.1 -0.48334,-0.1916 -0.85,-0.275 -0.36667,-0.1 -0.81667,-0.15 -1.35,-0.15 -1.08334,0 -1.84167,0.3 -2.275,0.9 -0.43334,0.5834 -0.65,1.375 -0.65,2.375 l 0,1.125 5,0 0,1.95 -5,0 0,11.05 -2.325,0 0,-14.175 c 0,-1.6666 0.40833,-2.95 1.225,-3.85 0.81666,-0.9166 2.1,-1.375 3.85,-1.375"
         style="font-size:25px;fill:#4d4d4d"
         id="path3094" />
      <path
         d="m 379.06156,1033.439 c 0.54999,0 1.03333,-0.01 1.45,-0.025 0.43333,-0.033 0.79166,-0.083 1.075,-0.15 l 0,-3.875 c -0.16668,-0.083 -0.44168,-0.15 -0.825,-0.2 -0.36667,-0.067 -0.81667,-0.1 -1.35,-0.1 -0.35001,0 -0.72501,0.025 -1.125,0.075 -0.38334,0.05 -0.74167,0.1584 -1.075,0.325 -0.31667,0.15 -0.58334,0.3667 -0.8,0.65 -0.21667,0.2667 -0.325,0.625 -0.325,1.075 0,0.8334 0.26666,1.4167 0.8,1.75 0.53333,0.3167 1.25833,0.475 2.175,0.475 m -0.2,-11.65 c 0.93333,0 1.71666,0.125 2.35,0.375 0.64999,0.2334 1.16666,0.575 1.55,1.025 0.39999,0.4334 0.68332,0.9584 0.85,1.575 0.16666,0.6 0.24999,1.2667 0.25,2 l 0,8.125 c -0.20001,0.033 -0.48334,0.083 -0.85,0.15 -0.35001,0.05 -0.75001,0.1 -1.2,0.15 -0.45001,0.05 -0.94167,0.092 -1.475,0.125 -0.51667,0.05 -1.03334,0.075 -1.55,0.075 -0.73334,0 -1.40834,-0.075 -2.025,-0.225 -0.61667,-0.15 -1.15,-0.3833 -1.6,-0.7 -0.45,-0.3333 -0.8,-0.7667 -1.05,-1.3 -0.25,-0.5333 -0.375,-1.175 -0.375,-1.925 0,-0.7166 0.14167,-1.3333 0.425,-1.85 0.3,-0.5166 0.7,-0.9333 1.2,-1.25 0.5,-0.3166 1.08333,-0.55 1.75,-0.7 0.66666,-0.15 1.36666,-0.225 2.1,-0.225 0.23333,0 0.47499,0.017 0.725,0.05 0.24999,0.017 0.48333,0.05 0.7,0.1 0.23333,0.033 0.43332,0.067 0.6,0.1 0.16666,0.033 0.28332,0.058 0.35,0.075 l 0,-0.65 c -1e-5,-0.3833 -0.0417,-0.7583 -0.125,-1.125 -0.0833,-0.3833 -0.23334,-0.7166 -0.45,-1 -0.21667,-0.3 -0.51667,-0.5333 -0.9,-0.7 -0.36667,-0.1833 -0.85001,-0.275 -1.45,-0.275 -0.76667,0 -1.44167,0.058 -2.025,0.175 -0.56667,0.1 -0.99167,0.2084 -1.275,0.325 l -0.275,-1.925 c 0.3,-0.1333 0.8,-0.2583 1.5,-0.375 0.7,-0.1333 1.45833,-0.2 2.275,-0.2"
         style="font-size:25px;fill:#4d4d4d"
         id="path3096" />
      <path
         d="m 391.59867,1035.364 c -1.43334,-0.033 -2.45,-0.3417 -3.05,-0.925 -0.6,-0.5833 -0.9,-1.4917 -0.9,-2.725 l 0,-15.6 2.325,-0.4 0,15.625 c 0,0.3834 0.0333,0.7 0.1,0.95 0.0667,0.25 0.17499,0.45 0.325,0.6 0.14999,0.15 0.34999,0.2667 0.6,0.35 0.24999,0.067 0.55833,0.125 0.925,0.175 l -0.325,1.95"
         style="font-size:25px;fill:#4d4d4d"
         id="path3098" />
      <path
         d="m 398.93461,1033.439 c 0.54999,0 1.03332,-0.01 1.45,-0.025 0.43332,-0.033 0.79165,-0.083 1.075,-0.15 l 0,-3.875 c -0.16668,-0.083 -0.44168,-0.15 -0.825,-0.2 -0.36668,-0.067 -0.81668,-0.1 -1.35,-0.1 -0.35001,0 -0.72501,0.025 -1.125,0.075 -0.38334,0.05 -0.74167,0.1584 -1.075,0.325 -0.31667,0.15 -0.58334,0.3667 -0.8,0.65 -0.21667,0.2667 -0.32501,0.625 -0.325,1.075 -10e-6,0.8334 0.26666,1.4167 0.8,1.75 0.53333,0.3167 1.25832,0.475 2.175,0.475 m -0.2,-11.65 c 0.93332,0 1.71666,0.125 2.35,0.375 0.64999,0.2334 1.16665,0.575 1.55,1.025 0.39999,0.4334 0.68332,0.9584 0.85,1.575 0.16665,0.6 0.24999,1.2667 0.25,2 l 0,8.125 c -0.20001,0.033 -0.48335,0.083 -0.85,0.15 -0.35001,0.05 -0.75001,0.1 -1.2,0.15 -0.45001,0.05 -0.94168,0.092 -1.475,0.125 -0.51668,0.05 -1.03334,0.075 -1.55,0.075 -0.73334,0 -1.40834,-0.075 -2.025,-0.225 -0.61667,-0.15 -1.15001,-0.3833 -1.6,-0.7 -0.45001,-0.3333 -0.8,-0.7667 -1.05,-1.3 -0.25,-0.5333 -0.375,-1.175 -0.375,-1.925 0,-0.7166 0.14166,-1.3333 0.425,-1.85 0.3,-0.5166 0.69999,-0.9333 1.2,-1.25 0.49999,-0.3166 1.08333,-0.55 1.75,-0.7 0.66666,-0.15 1.36666,-0.225 2.1,-0.225 0.23332,0 0.47499,0.017 0.725,0.05 0.24999,0.017 0.48332,0.05 0.7,0.1 0.23332,0.033 0.43332,0.067 0.6,0.1 0.16665,0.033 0.28332,0.058 0.35,0.075 l 0,-0.65 c -10e-6,-0.3833 -0.0417,-0.7583 -0.125,-1.125 -0.0833,-0.3833 -0.23334,-0.7166 -0.45,-1 -0.21668,-0.3 -0.51668,-0.5333 -0.9,-0.7 -0.36668,-0.1833 -0.85001,-0.275 -1.45,-0.275 -0.76667,0 -1.44167,0.058 -2.025,0.175 -0.56667,0.1 -0.99167,0.2084 -1.275,0.325 l -0.275,-1.925 c 0.29999,-0.1333 0.79999,-0.2583 1.5,-0.375 0.69999,-0.1333 1.45832,-0.2 2.275,-0.2"
         style="font-size:25px;fill:#4d4d4d"
         id="path3100" />
      <path
         d="m 407.57172,1022.489 c 0.53333,-0.1333 1.24166,-0.275 2.125,-0.425 0.88332,-0.15 1.89999,-0.225 3.05,-0.225 1.03332,0 1.89165,0.15 2.575,0.45 0.68332,0.2834 1.22499,0.6917 1.625,1.225 0.41665,0.5167 0.70832,1.1417 0.875,1.875 0.16665,0.7334 0.24998,1.5417 0.25,2.425 l 0,7.3 -2.325,0 0,-6.8 c -10e-6,-0.8 -0.0583,-1.4833 -0.175,-2.05 -0.10001,-0.5666 -0.27501,-1.025 -0.525,-1.375 -0.25001,-0.35 -0.58335,-0.6 -1,-0.75 -0.41668,-0.1666 -0.93334,-0.25 -1.55,-0.25 -0.25001,0 -0.50834,0.01 -0.775,0.025 -0.26668,0.017 -0.52501,0.042 -0.775,0.075 -0.23334,0.017 -0.45001,0.042 -0.65,0.075 -0.18334,0.033 -0.31667,0.058 -0.4,0.075 l 0,10.975 -2.325,0 0,-12.625"
         style="font-size:25px;fill:#4d4d4d"
         id="path3102" />
      <path
         d="m 424.95219,1033.439 c 0.94999,0 1.64999,-0.125 2.1,-0.375 0.46665,-0.25 0.69999,-0.65 0.7,-1.2 -10e-6,-0.5666 -0.22501,-1.0166 -0.675,-1.35 -0.45001,-0.3333 -1.19168,-0.7083 -2.225,-1.125 -0.50001,-0.2 -0.98334,-0.4 -1.45,-0.6 -0.45001,-0.2166 -0.84167,-0.4666 -1.175,-0.75 -0.33334,-0.2833 -0.60001,-0.625 -0.8,-1.025 -0.20001,-0.4 -0.30001,-0.8916 -0.3,-1.475 -10e-6,-1.15 0.42499,-2.0583 1.275,-2.725 0.84999,-0.6833 2.00832,-1.025 3.475,-1.025 0.36666,0 0.73332,0.025 1.1,0.075 0.36665,0.033 0.70832,0.083 1.025,0.15 0.31665,0.05 0.59165,0.1084 0.825,0.175 0.24999,0.067 0.44165,0.125 0.575,0.175 l -0.425,2 c -0.25001,-0.1333 -0.64168,-0.2666 -1.175,-0.4 -0.53335,-0.15 -1.17501,-0.225 -1.925,-0.225 -0.65001,0 -1.21668,0.1334 -1.7,0.4 -0.48334,0.25 -0.72501,0.65 -0.725,1.2 -10e-6,0.2834 0.05,0.5334 0.15,0.75 0.11666,0.2167 0.28332,0.4167 0.5,0.6 0.23332,0.1667 0.51666,0.325 0.85,0.475 0.33332,0.15 0.73332,0.3084 1.2,0.475 0.61665,0.2334 1.16665,0.4667 1.65,0.7 0.48332,0.2167 0.89165,0.475 1.225,0.775 0.34999,0.3 0.61665,0.6667 0.8,1.1 0.18332,0.4167 0.27498,0.9334 0.275,1.55 -2e-5,1.2 -0.45001,2.1083 -1.35,2.725 -0.88335,0.6167 -2.15001,0.925 -3.8,0.925 -1.15001,0 -2.05001,-0.1 -2.7,-0.3 -0.65001,-0.1833 -1.09167,-0.325 -1.325,-0.425 l 0.425,-2 c 0.26666,0.1 0.69166,0.25 1.275,0.45 0.58333,0.2 1.35832,0.3 2.325,0.3"
         style="font-size:25px;fill:#4d4d4d"
         id="path3104" />
      <path
         d="m 435.235,1022.114 4.925,0 0,1.95 -4.925,0 0,6 c -1e-5,0.65 0.05,1.1917 0.15,1.625 0.1,0.4167 0.24999,0.75 0.45,1 0.19999,0.2333 0.44999,0.4 0.75,0.5 0.29999,0.1 0.64999,0.15 1.05,0.15 0.69999,0 1.25832,-0.075 1.675,-0.225 0.43332,-0.1667 0.73332,-0.2833 0.9,-0.35 l 0.45,1.925 c -0.23335,0.1167 -0.64168,0.2583 -1.225,0.425 -0.58334,0.1833 -1.25001,0.275 -2,0.275 -0.88334,0 -1.61667,-0.1083 -2.2,-0.325 -0.56667,-0.2333 -1.02501,-0.575 -1.375,-1.025 -0.35,-0.45 -0.6,-1 -0.75,-1.65 -0.13334,-0.6666 -0.2,-1.4333 -0.2,-2.3 l 0,-11.6 2.325,-0.4 0,4.025"
         style="font-size:25px;fill:#4d4d4d"
         id="path3106" />
      <path
         d="m 442.14945,1028.639 c 0,-1.15 0.16667,-2.15 0.5,-3 0.33333,-0.8666 0.775,-1.5833 1.325,-2.15 0.55,-0.5666 1.18333,-0.9916 1.9,-1.275 0.71666,-0.2833 1.44999,-0.425 2.2,-0.425 1.74999,0 3.09166,0.55 4.025,1.65 0.93332,1.0834 1.39999,2.7417 1.4,4.975 -1e-5,0.1 -1e-5,0.2334 0,0.4 -1e-5,0.15 -0.008,0.2917 -0.025,0.425 l -8.9,0 c 0.1,1.35 0.49166,2.375 1.175,3.075 0.68333,0.7 1.74999,1.05 3.2,1.05 0.81666,0 1.49999,-0.067 2.05,-0.2 0.56666,-0.15 0.99166,-0.2917 1.275,-0.425 l 0.325,1.95 c -0.28334,0.15 -0.78334,0.3083 -1.5,0.475 -0.70001,0.1667 -1.50001,0.25 -2.4,0.25 -1.13334,0 -2.11667,-0.1667 -2.95,-0.5 -0.81667,-0.35 -1.49167,-0.825 -2.025,-1.425 -0.53333,-0.6 -0.93333,-1.3083 -1.2,-2.125 -0.25,-0.8333 -0.375,-1.7416 -0.375,-2.725 m 8.925,-1.275 c 0.0167,-1.05 -0.25001,-1.9083 -0.8,-2.575 -0.53334,-0.6833 -1.27501,-1.025 -2.225,-1.025 -0.53334,0 -1.00834,0.1084 -1.425,0.325 -0.4,0.2 -0.74167,0.4667 -1.025,0.8 -0.28334,0.3334 -0.50834,0.7167 -0.675,1.15 -0.15,0.4334 -0.25,0.875 -0.3,1.325 l 6.45,0"
         style="font-size:25px;fill:#4d4d4d"
         id="path3108" />
      <path
         d="m 461.63929,1021.839 c 0.2,0 0.425,0.017 0.675,0.05 0.26666,0.017 0.525,0.05 0.775,0.1 0.25,0.033 0.475,0.075 0.675,0.125 0.21666,0.033 0.375,0.067 0.475,0.1 l -0.4,2.025 c -0.18334,-0.067 -0.49167,-0.1416 -0.925,-0.225 -0.41667,-0.1 -0.95834,-0.15 -1.625,-0.15 -0.43333,0 -0.86667,0.05 -1.3,0.15 -0.41667,0.083 -0.69167,0.1417 -0.825,0.175 l 0,10.925 -2.325,0 0,-12.45 c 0.55,-0.2 1.23333,-0.3833 2.05,-0.55 0.81667,-0.1833 1.73333,-0.275 2.75,-0.275"
         style="font-size:25px;fill:#4d4d4d"
         id="path3110" />
      <path
         d="m 467.89008,1033.764 c -1e-5,0.45 -0.15001,0.8417 -0.45,1.175 -0.30001,0.3333 -0.70834,0.5 -1.225,0.5 -0.51667,0 -0.92501,-0.1667 -1.225,-0.5 -0.30001,-0.3333 -0.45001,-0.725 -0.45,-1.175 -10e-6,-0.45 0.14999,-0.8417 0.45,-1.175 0.29999,-0.3333 0.70833,-0.5 1.225,-0.5 0.51666,0 0.92499,0.1667 1.225,0.5 0.29999,0.3333 0.44999,0.725 0.45,1.175"
         style="font-size:25px;fill:#4d4d4d"
         id="path3112" />
      <path
         d="m 473.61742,1022.689 c 0.28333,-0.1833 0.70833,-0.375 1.275,-0.575 0.58333,-0.2 1.24999,-0.3 2,-0.3 0.93332,0 1.75832,0.1667 2.475,0.5 0.73332,0.3334 1.34999,0.8 1.85,1.4 0.49999,0.6 0.87499,1.3167 1.125,2.15 0.26665,0.8334 0.39999,1.75 0.4,2.75 -10e-6,1.05 -0.15835,2 -0.475,2.85 -0.30001,0.8333 -0.73335,1.5417 -1.3,2.125 -0.56668,0.5833 -1.25001,1.0333 -2.05,1.35 -0.80001,0.3167 -1.70001,0.475 -2.7,0.475 -1.08334,0 -2.04167,-0.075 -2.875,-0.225 -0.83334,-0.15 -1.51667,-0.3 -2.05,-0.45 l 0,-18.625 2.325,-0.4 0,6.975 m 0,10.4 c 0.23333,0.067 0.55833,0.1333 0.975,0.2 0.43333,0.05 0.96666,0.075 1.6,0.075 1.24999,0 2.24999,-0.4083 3,-1.225 0.74999,-0.8333 1.12499,-2.0083 1.125,-3.525 -1e-5,-0.6666 -0.0667,-1.2916 -0.2,-1.875 -0.13334,-0.5833 -0.35001,-1.0833 -0.65,-1.5 -0.30001,-0.4333 -0.69168,-0.7666 -1.175,-1 -0.46668,-0.25 -1.03334,-0.375 -1.7,-0.375 -0.63334,0 -1.21667,0.1084 -1.75,0.325 -0.53334,0.2167 -0.94167,0.4417 -1.225,0.675 l 0,8.225"
         style="font-size:25px;fill:#4d4d4d"
         id="path3114" />
      <path
         d="m 484.17172,1037.539 c 0.18333,0.083 0.41666,0.1583 0.7,0.225 0.29999,0.083 0.59166,0.125 0.875,0.125 0.91666,0 1.63333,-0.2083 2.15,-0.625 0.51666,-0.4 0.98332,-1.0583 1.4,-1.975 -1.05001,-2 -2.03334,-4.1166 -2.95,-6.35 -0.90001,-2.25 -1.65,-4.525 -2.25,-6.825 l 2.5,0 c 0.18333,0.75 0.39999,1.5584 0.65,2.425 0.26666,0.8667 0.55833,1.7584 0.875,2.675 0.31666,0.9167 0.65832,1.8334 1.025,2.75 0.36666,0.9167 0.74999,1.8 1.15,2.65 0.63332,-1.75 1.18332,-3.4833 1.65,-5.2 0.46665,-1.7166 0.90832,-3.4833 1.325,-5.3 l 2.4,0 c -0.60002,2.45 -1.26668,4.8084 -2,7.075 -0.73335,2.25 -1.52501,4.3583 -2.375,6.325 -0.33334,0.75 -0.68334,1.3917 -1.05,1.925 -0.35001,0.55 -0.74168,1 -1.175,1.35 -0.43334,0.35 -0.92501,0.6083 -1.475,0.775 -0.53334,0.1667 -1.14167,0.25 -1.825,0.25 -0.18334,0 -0.37501,-0.017 -0.575,-0.05 -0.2,-0.017 -0.4,-0.05 -0.6,-0.1 -0.18334,-0.033 -0.35834,-0.075 -0.525,-0.125 -0.15,-0.05 -0.25834,-0.092 -0.325,-0.125 l 0.425,-1.875"
         style="font-size:25px;fill:#4d4d4d"
         id="path3116" />
    </g>
  </g>
</svg>
