<?xml version="1.0" encoding="UTF-8" standalone="no"?>
<!-- Created with Inkscape (http://www.inkscape.org/) -->

<svg
   xmlns:dc="http://purl.org/dc/elements/1.1/"
   xmlns:cc="http://creativecommons.org/ns#"
   xmlns:rdf="http://www.w3.org/1999/02/22-rdf-syntax-ns#"
   xmlns:svg="http://www.w3.org/2000/svg"
   xmlns="http://www.w3.org/2000/svg"
   xmlns:sodipodi="http://sodipodi.sourceforge.net/DTD/sodipodi-0.dtd"
   xmlns:inkscape="http://www.inkscape.org/namespaces/inkscape"
   width="538.5827"
   height="386.22046"
   id="svg2"
   version="1.1"
   inkscape:version="0.48.4 r9939"
   sodipodi:docname="postcard_7_path.svg"
   inkscape:export-filename="/home/svet/Dropbox/falanster/design/postcards/console/postcard_7_path.png"
   inkscape:export-xdpi="300"
   inkscape:export-ydpi="300">
  <defs
     id="defs4" />
  <sodipodi:namedview
     id="base"
     pagecolor="#ffffff"
     bordercolor="#666666"
     borderopacity="1.0"
     inkscape:pageopacity="0.0"
     inkscape:pageshadow="2"
     inkscape:zoom="1.4"
     inkscape:cx="294.27349"
     inkscape:cy="182.94414"
     inkscape:document-units="px"
     inkscape:current-layer="layer1"
     showgrid="false"
     inkscape:window-width="1301"
     inkscape:window-height="744"
     inkscape:window-x="65"
     inkscape:window-y="24"
     inkscape:window-maximized="1"
     showguides="true"
     inkscape:guide-bbox="true"
     fit-margin-top="0"
     fit-margin-left="0"
     fit-margin-right="0"
     fit-margin-bottom="0">
    <sodipodi:guide
       orientation="0,1"
       position="285.81226,26.16239"
       id="guide2999" />
    <sodipodi:guide
       orientation="1,0"
       position="32.263966,447.396"
       id="guide3001" />
    <sodipodi:guide
       orientation="1,0"
       position="501.9849,314.05587"
       id="guide3003" />
  </sodipodi:namedview>
  <metadata
     id="metadata7">
    <rdf:RDF>
      <cc:Work
         rdf:about="">
        <dc:format>image/svg+xml</dc:format>
        <dc:type
           rdf:resource="http://purl.org/dc/dcmitype/StillImage" />
        <dc:title />
      </cc:Work>
    </rdf:RDF>
  </metadata>
  <g
     inkscape:label="Layer 1"
     inkscape:groupmode="layer"
     id="layer1"
     transform="translate(6,-676.14163)">
    <path
       style="fill:#1a1a1a;fill-opacity:1;fill-rule:nonzero;stroke:none"
       d="m -6,676.14163 538.58268,0 0,386.22047 -538.58268,0 z"
       id="rect2985"
       inkscape:connector-curvature="0" />
    <path
       inkscape:connector-curvature="0"
       id="path3098"
       style="font-size:57px;font-style:normal;font-variant:normal;font-weight:normal;font-stretch:normal;line-height:125%;letter-spacing:0px;word-spacing:0px;fill:#5599ff;fill-opacity:1;stroke:none;font-family:Courier 10 Pitch;-inkscape-font-specification:Courier 10 Pitch"
       d="m 34.322662,746.81476 0.684,-12.027 4.047,0 -0.57,11.856 c 0,0.057 0,0.114 0,0.114 0,1.14 0.684001,1.824 1.653,1.824 1.139999,0 1.767,-0.627 1.824,-1.767 l 0.627,-12.027 4.104,0 c 1.196999,0 1.824,-0.684 1.824,-1.881 0,-1.197 -0.627001,-1.881 -1.824,-1.881 l -3.876,0 0.342,-6.612 3.534,0 c 1.196999,0 1.824,-0.684 1.824,-1.881 0,-1.197 -0.627001,-1.824 -1.824,-1.824 l -3.42,0 0.684,-11.913 c 0,-0.057 0,-0.114 0,-0.114 0,-1.14 -0.741001,-1.767 -1.767,-1.767 -1.025999,0 -1.653,0.57 -1.71,1.71 l -0.684,12.084 -4.047,0 0.57,-11.913 c 0,-0.057 0,-0.114 0,-0.114 0,-1.14 -0.684001,-1.767 -1.71,-1.767 -1.025999,0 -1.653,0.57 -1.71,1.71 l -0.684,12.084 -4.161,0 c -1.196999,0 -1.824,0.627 -1.824,1.824 0,1.197 0.627001,1.881 1.824,1.881 l 3.99,0 -0.285,6.612 -3.705,0 c -1.196999,0 -1.824,0.684 -1.824,1.881 0,1.197 0.627001,1.881 1.824,1.881 l 3.477,0 -0.627,11.856 c 0,0.057 0,0.114 0,0.171 0,1.083 0.627001,1.767 1.596,1.767 1.139999,0 1.767,-0.627 1.824,-1.767 m 0.855,-15.789 0.342,-6.612 4.161,0 -0.399,6.612 -4.104,0" />
    <path
       inkscape:connector-curvature="0"
       id="path3100"
       style="font-size:57px;font-style:normal;font-variant:normal;font-weight:normal;font-stretch:normal;line-height:125%;letter-spacing:0px;word-spacing:0px;fill:#5599ff;fill-opacity:1;stroke:none;font-family:Courier 10 Pitch;-inkscape-font-specification:Courier 10 Pitch"
       d="m 107.40379,741.22876 c -5.187,0 -8.778003,-3.70501 -8.778003,-8.721 0,-5.016 3.591003,-8.721 8.778003,-8.721 5.24399,0 8.835,3.705 8.835,8.721 0,5.18699 -3.70501,8.721 -8.835,8.721 m -8.664003,11.172 0,-11.115 c 2.279993,2.62199 5.700003,4.047 9.633003,4.047 7.29599,0 12.654,-5.13001 12.654,-12.54 0,-7.809 -5.81401,-13.281 -13.11,-13.281 -3.534,0 -6.61201,1.311 -9.120003,3.876 l 0,-2.679 c 0,-0.798 -0.513001,-1.14 -1.596,-1.14 l -4.275,0 c -1.481999,0 -2.223,0.627 -2.223,1.938 0,1.425 0.855002,1.995 2.622,1.995 0.398999,0 0.855,0 1.254,0 l 0,28.899 c -0.171,0 -0.342,0 -0.513,0 -2.336998,0 -3.363,0.399 -3.363,1.995 0,1.311 0.741001,1.995 2.223,1.995 l 12.312003,0 c 1.653,0 2.337,-0.456 2.337,-1.995 0,-1.311 -0.684,-1.995 -2.109,-1.995 l -6.726003,0" />
    <path
       inkscape:connector-curvature="0"
       id="path3102"
       style="font-size:57px;font-style:normal;font-variant:normal;font-weight:normal;font-stretch:normal;line-height:125%;letter-spacing:0px;word-spacing:0px;fill:#5599ff;fill-opacity:1;stroke:none;font-family:Courier 10 Pitch;-inkscape-font-specification:Courier 10 Pitch"
       d="m 142.83285,741.34276 0,-20.634 c 0,-0.684 -0.513,-1.14 -1.596,-1.14 l -8.151,0 c -1.482,0 -2.223,0.627 -2.223,1.938 0,1.311 0.798,1.995 2.337,1.995 l 5.415,0 0,17.841 -8.493,0 c -1.539,0 -2.337,0.627 -2.337,1.938 0,1.311 0.741,1.995 2.223,1.995 l 21.603,0 c 1.653,0 2.28,-0.399 2.28,-1.995 0,-1.368 -0.684,-1.938 -2.109,-1.938 l -8.949,0 m -5.187,-29.811 c 0,2.27999 0.57,2.736 2.907,2.736 2.679,0 2.85,-0.62701 2.85,-3.534 0,-2.907 -0.285,-3.762 -2.85,-3.762 -2.565,0 -2.907,0.855 -2.907,4.56" />
    <path
       inkscape:connector-curvature="0"
       id="path3104"
       style="font-size:57px;font-style:normal;font-variant:normal;font-weight:normal;font-stretch:normal;line-height:125%;letter-spacing:0px;word-spacing:0px;fill:#5599ff;fill-opacity:1;stroke:none;font-family:Courier 10 Pitch;-inkscape-font-specification:Courier 10 Pitch"
       d="m 164.18291,741.34276 c -0.228,0 -0.399,0 -0.57,0 -2.28,0 -3.249,0.342 -3.249,1.938 0,1.311 0.741,1.995 2.337,1.995 0.741,0 1.254,0 1.482,0 l 5.073,0 c 2.109,0 2.964,-0.11401 2.964,-1.995 0,-1.539 -0.741,-1.995 -2.679,-1.995 -0.342,0 -0.741,0.057 -1.197,0.057 l 0,-11.571 c 0,-4.161 3.87601,-6.669 7.239,-6.669 3.648,0 5.7,2.223 5.7,6.669 l 0,11.571 c -0.342,0 -0.627,0 -0.912,0 -1.995,0 -2.793,0.399 -2.793,1.938 0,1.824 0.798,1.995 2.793,1.995 l 6.156,0 c 1.995,0 2.964,-0.399 2.964,-1.995 0,-1.425 -0.855,-1.938 -2.622,-1.938 -0.399,0 -0.855,0 -1.254,0 l 0,-12.597 c 0,-6.441 -3.762,-9.918 -9.063,-9.918 -2.907,0 -5.472,1.254 -8.151,3.762 l 0,-1.881 c 0,-0.684 -0.513,-1.14 -1.596,-1.14 l -2.622,0 c -2.565,0 -3.819,0 -3.819,1.938 0,1.425 0.798,1.995 2.565,1.995 0.399,0 0.855,0 1.254,0 l 0,17.841" />
    <path
       inkscape:connector-curvature="0"
       id="path3106"
       style="font-size:57px;font-style:normal;font-variant:normal;font-weight:normal;font-stretch:normal;line-height:125%;letter-spacing:0px;word-spacing:0px;fill:#5599ff;fill-opacity:1;stroke:none;font-family:Courier 10 Pitch;-inkscape-font-specification:Courier 10 Pitch"
       d="m 220.13197,743.79376 0,-20.292 c 0.171,0 0.342,0 0.513,0 2.337,0 3.306,-0.399 3.306,-1.995 0,-1.311 -0.741,-1.938 -2.223,-1.938 l -4.218,0 c -1.08299,0 -1.596,0.342 -1.596,1.14 l 0,1.995 c -2.67899,-2.109 -5.358,-3.192 -8.208,-3.192 -6.72599,0 -12.255,5.073 -12.255,12.255 0,7.29599 5.13001,12.369 12.027,12.369 3.591,0 6.21301,-1.19701 8.493,-3.819 l 0,3.363 c 0,5.75699 -1.767,8.379 -7.581,8.379 -1.48199,0 -3.021,-0.399 -4.674,-0.399 -1.31099,0 -2.394,1.026 -2.394,2.166 0,1.824 1.99501,2.565 6.099,2.565 5.187,0 8.94901,-1.53901 11.001,-4.218 1.653,-2.166 1.71,-4.61701 1.71,-7.752 0,-0.228 0,-0.399 0,-0.627 m -12.084,-20.121 c 4.902,0 8.265,3.42 8.265,8.094 0,4.73099 -3.42,8.094 -8.265,8.094 -4.90199,0 -8.265,-3.42001 -8.265,-8.094 0,-4.788 3.42001,-8.094 8.265,-8.094" />
    <path
       inkscape:connector-curvature="0"
       id="path3108"
       style="font-size:57px;font-style:normal;font-variant:normal;font-weight:normal;font-stretch:normal;line-height:125%;letter-spacing:0px;word-spacing:0px;fill:#5599ff;fill-opacity:1;stroke:none;font-family:Courier 10 Pitch;-inkscape-font-specification:Courier 10 Pitch"
       d="m 271.8381,727.26376 c -3.705,1.596 -5.757,4.674 -5.757,8.436 0,6.15599 4.56001,10.488 11.343,10.488 6.72599,0 11.343,-4.27501 11.343,-10.374 0,-3.933 -2.052,-7.011 -5.814,-8.55 3.591,-1.71 5.472,-4.50301 5.472,-8.151 0,-5.472 -4.44601,-9.861 -11.001,-9.861 -6.55499,0 -11.001,4.218 -11.001,9.861 0,3.64799 1.767,6.327 5.415,8.151 m -0.912,-8.151 c 0,-3.591 2.622,-6.213 6.498,-6.213 3.933,0 6.498,2.736 6.498,6.156 0,3.76199 -2.736,6.327 -6.498,6.327 -3.819,0 -6.498,-2.62201 -6.498,-6.27 m -0.285,16.701 c 0,-3.99 2.793,-6.498 6.783,-6.498 3.99,0 6.783,2.565 6.783,6.498 0,3.93299 -2.679,6.498 -6.783,6.498 -4.161,0 -6.783,-2.79301 -6.783,-6.498" />
    <path
       inkscape:connector-curvature="0"
       id="path3110"
       style="font-size:57px;font-style:normal;font-variant:normal;font-weight:normal;font-stretch:normal;line-height:125%;letter-spacing:0px;word-spacing:0px;fill:#5599ff;fill-opacity:1;stroke:none;font-family:Courier 10 Pitch;-inkscape-font-specification:Courier 10 Pitch"
       d="m 306.24116,740.71576 c 0,2.84999 2.16601,4.959 5.472,4.959 3.306,0 5.472,-2.05201 5.472,-4.959 0,-2.907 -2.166,-4.959 -5.472,-4.959 -3.30599,0 -5.472,2.109 -5.472,4.959" />
    <path
       inkscape:connector-curvature="0"
       id="path3112"
       style="font-size:52px;font-style:normal;font-variant:normal;font-weight:normal;font-stretch:normal;line-height:125%;letter-spacing:0px;word-spacing:0px;fill:#ff0000;fill-opacity:1;stroke:none;font-family:Courier 10 Pitch;-inkscape-font-specification:Courier 10 Pitch"
       d="m 340.41622,727.26376 c -3.70499,1.596 -5.757,4.674 -5.757,8.436 0,6.15599 4.56001,10.488 11.343,10.488 6.726,0 11.343,-4.27501 11.343,-10.374 0,-3.933 -2.052,-7.011 -5.814,-8.55 3.591,-1.71 5.472,-4.50301 5.472,-8.151 0,-5.472 -4.446,-9.861 -11.001,-9.861 -6.55499,0 -11.001,4.218 -11.001,9.861 0,3.64799 1.76701,6.327 5.415,8.151 m -0.912,-8.151 c 0,-3.591 2.62201,-6.213 6.498,-6.213 3.933,0 6.498,2.736 6.498,6.156 0,3.76199 -2.736,6.327 -6.498,6.327 -3.81899,0 -6.498,-2.62201 -6.498,-6.27 m -0.285,16.701 c 0,-3.99 2.79301,-6.498 6.783,-6.498 3.99,0 6.783,2.565 6.783,6.498 0,3.93299 -2.679,6.498 -6.783,6.498 -4.16099,0 -6.783,-2.79301 -6.783,-6.498" />
    <path
       inkscape:connector-curvature="0"
       id="path3114"
       style="font-size:57px;font-style:normal;font-variant:normal;font-weight:normal;font-stretch:normal;line-height:125%;letter-spacing:0px;word-spacing:0px;fill:#5599ff;fill-opacity:1;stroke:none;font-family:Courier 10 Pitch;-inkscape-font-specification:Courier 10 Pitch"
       d="m 374.81929,740.71576 c 0,2.84999 2.166,4.959 5.472,4.959 3.30599,0 5.472,-2.05201 5.472,-4.959 0,-2.907 -2.16601,-4.959 -5.472,-4.959 -3.306,0 -5.472,2.109 -5.472,4.959" />
    <path
       inkscape:connector-curvature="0"
       id="path3116"
       style="font-size:52px;font-style:normal;font-variant:normal;font-weight:normal;font-stretch:normal;line-height:125%;letter-spacing:0px;word-spacing:0px;fill:#ffff00;fill-opacity:1;stroke:none;font-family:Courier 10 Pitch;-inkscape-font-specification:Courier 10 Pitch"
       d="m 408.99435,727.26376 c -3.705,1.596 -5.757,4.674 -5.757,8.436 0,6.15599 4.56001,10.488 11.343,10.488 6.72599,0 11.343,-4.27501 11.343,-10.374 0,-3.933 -2.052,-7.011 -5.814,-8.55 3.591,-1.71 5.472,-4.50301 5.472,-8.151 0,-5.472 -4.44601,-9.861 -11.001,-9.861 -6.55499,0 -11.001,4.218 -11.001,9.861 0,3.64799 1.767,6.327 5.415,8.151 m -0.912,-8.151 c 0,-3.591 2.622,-6.213 6.498,-6.213 3.933,0 6.498,2.736 6.498,6.156 0,3.76199 -2.736,6.327 -6.498,6.327 -3.819,0 -6.498,-2.62201 -6.498,-6.27 m -0.285,16.701 c 0,-3.99 2.793,-6.498 6.783,-6.498 3.99,0 6.783,2.565 6.783,6.498 0,3.93299 -2.679,6.498 -6.783,6.498 -4.161,0 -6.783,-2.79301 -6.783,-6.498" />
    <path
       inkscape:connector-curvature="0"
       id="path3118"
       style="font-size:57px;font-style:normal;font-variant:normal;font-weight:normal;font-stretch:normal;line-height:125%;letter-spacing:0px;word-spacing:0px;fill:#5599ff;fill-opacity:1;stroke:none;font-family:Courier 10 Pitch;-inkscape-font-specification:Courier 10 Pitch"
       d="m 443.39741,740.71576 c 0,2.84999 2.16601,4.959 5.472,4.959 3.306,0 5.472,-2.05201 5.472,-4.959 0,-2.907 -2.166,-4.959 -5.472,-4.959 -3.30599,0 -5.472,2.109 -5.472,4.959" />
    <path
       inkscape:connector-curvature="0"
       id="path3120"
       style="font-size:52px;font-style:normal;font-variant:normal;font-weight:normal;font-stretch:normal;line-height:125%;letter-spacing:0px;word-spacing:0px;fill:#44aa00;fill-opacity:1;stroke:none;font-family:Courier 10 Pitch;-inkscape-font-specification:Courier 10 Pitch"
       d="m 477.57247,727.26376 c -3.70499,1.596 -5.757,4.674 -5.757,8.436 0,6.15599 4.56001,10.488 11.343,10.488 6.726,0 11.343,-4.27501 11.343,-10.374 0,-3.933 -2.052,-7.011 -5.814,-8.55 3.591,-1.71 5.472,-4.50301 5.472,-8.151 0,-5.472 -4.446,-9.861 -11.001,-9.861 -6.55499,0 -11.001,4.218 -11.001,9.861 0,3.64799 1.76701,6.327 5.415,8.151 m -0.912,-8.151 c 0,-3.591 2.62201,-6.213 6.498,-6.213 3.933,0 6.498,2.736 6.498,6.156 0,3.76199 -2.736,6.327 -6.498,6.327 -3.81899,0 -6.498,-2.62201 -6.498,-6.27 m -0.285,16.701 c 0,-3.99 2.79301,-6.498 6.783,-6.498 3.99,0 6.783,2.565 6.783,6.498 0,3.93299 -2.679,6.498 -6.783,6.498 -4.16099,0 -6.783,-2.79301 -6.783,-6.498" />
    <g
       style="font-size:25.04329872px;font-style:normal;font-variant:normal;font-weight:normal;font-stretch:normal;line-height:100%;letter-spacing:0px;word-spacing:0px;fill:#999999;fill-opacity:1;stroke:none;font-family:Ubuntu;-inkscape-font-specification:Ubuntu"
       id="text2991">
      <path
         d="m 40.617252,1032.851 2.175,0 0,6.7 -2.3,0 0,-4.625 -13.05,0 0,-17.325 2.425,0 0,15.25 8.325,0 0,-15.25 2.425,0 0,15.25"
         style="font-size:25px;line-height:100%;fill:#999999"
         id="path3051"
         inkscape:connector-curvature="0" />
      <path
         d="m 54.436002,1028.376 c -1.2e-5,1 -0.133345,1.9167 -0.4,2.75 -0.250011,0.8334 -0.641677,1.5584 -1.175,2.175 -0.533343,0.6 -1.200009,1.075 -2,1.425 -0.800007,0.3334 -1.73334,0.5 -2.8,0.5 -0.933338,0 -1.758337,-0.075 -2.475,-0.225 -0.716669,-0.15 -1.208335,-0.3 -1.475,-0.45 l 0.325,-1.975 c 0.149998,0.083 0.349998,0.1584 0.6,0.225 0.249998,0.067 0.524997,0.1334 0.825,0.2 0.316663,0.05 0.641663,0.092 0.975,0.125 0.333329,0.033 0.666662,0.05 1,0.05 1.349994,0 2.358326,-0.35 3.025,-1.05 0.683325,-0.7166 1.074991,-1.7 1.175,-2.95 l -5.3,0 0,-1.875 5.25,0 c -0.150009,-1.1166 -0.550009,-2 -1.2,-2.65 -0.633341,-0.6666 -1.575006,-1 -2.825,-1 -0.683338,0 -1.283337,0.058 -1.8,0.175 -0.516669,0.1 -0.916669,0.2167 -1.2,0.35 l -0.5,-1.875 c 0.166665,-0.083 0.383331,-0.1666 0.65,-0.25 0.283331,-0.083 0.58333,-0.1583 0.9,-0.225 0.33333,-0.067 0.674996,-0.1166 1.025,-0.15 0.349995,-0.05 0.691662,-0.075 1.025,-0.075 1.049994,0 1.966659,0.175 2.75,0.525 0.799991,0.35 1.466657,0.8334 2,1.45 0.533323,0.6167 0.933322,1.3334 1.2,2.15 0.283322,0.8167 0.424988,1.7 0.425,2.65"
         style="font-size:25px;line-height:100%;fill:#999999"
         id="path3053"
         inkscape:connector-curvature="0" />
      <path
         d="m 68.362173,1034.926 -2.325,0 0,-5.75 -6,0 0,5.75 -2.325,0 0,-13 2.325,0 0,5.3 6,0 0,-5.3 2.325,0 0,13"
         style="font-size:25px;line-height:100%;fill:#999999"
         id="path3055"
         inkscape:connector-curvature="0" />
      <path
         d="m 81.535611,1021.926 0,1.95 -4.225,0 0,11.05 -2.325,0 0,-11.05 -4.225,0 0,-1.95 10.775,0"
         style="font-size:25px;line-height:100%;fill:#999999"
         id="path3057"
         inkscape:connector-curvature="0" />
      <path
         d="m 92.957877,1028.451 c -1.1e-5,-1.5166 -0.375011,-2.6833 -1.125,-3.5 -0.75001,-0.8166 -1.750009,-1.225 -3,-1.225 -0.700007,0 -1.250006,0.025 -1.65,0.075 -0.383339,0.05 -0.691672,0.1084 -0.925,0.175 l 0,8.2 c 0.283328,0.2334 0.691661,0.4584 1.225,0.675 0.533327,0.2167 1.11666,0.325 1.75,0.325 0.666658,0 1.233324,-0.1166 1.7,-0.35 0.483323,-0.25 0.87499,-0.5833 1.175,-1 0.299989,-0.4333 0.516656,-0.9333 0.65,-1.5 0.133322,-0.5833 0.199989,-1.2083 0.2,-1.875 m 2.425,0 c -1.4e-5,0.9834 -0.133347,1.8917 -0.4,2.725 -0.250013,0.8334 -0.625013,1.55 -1.125,2.15 -0.500012,0.6 -1.116678,1.0667 -1.85,1.4 -0.716676,0.3334 -1.541676,0.5 -2.475,0.5 -0.750007,0 -1.416673,-0.1 -2,-0.3 -0.566672,-0.2 -0.991672,-0.3916 -1.275,-0.575 l 0,5.2 -2.325,0 0,-17.225 c 0.549997,-0.1333 1.23333,-0.275 2.05,-0.425 0.833328,-0.1666 1.79166,-0.25 2.875,-0.25 0.999992,0 1.899991,0.1584 2.7,0.475 0.799989,0.3167 1.483322,0.7667 2.05,1.35 0.566654,0.5834 0.999987,1.3 1.3,2.15 0.316653,0.8334 0.474986,1.775 0.475,2.825"
         style="font-size:25px;line-height:100%;fill:#999999"
         id="path3059"
         inkscape:connector-curvature="0" />
      <path
         d="m 103.07897,1033.251 c 0.54999,0 1.03333,-0.01 1.45,-0.025 0.43333,-0.033 0.79166,-0.083 1.075,-0.15 l 0,-3.875 c -0.16668,-0.083 -0.44167,-0.15 -0.825,-0.2 -0.36667,-0.067 -0.81667,-0.1 -1.35,-0.1 -0.35001,0 -0.72501,0.025 -1.125,0.075 -0.38334,0.05 -0.74167,0.1584 -1.075,0.325 -0.31667,0.15 -0.58334,0.3667 -0.8,0.65 -0.21667,0.2667 -0.325,0.625 -0.325,1.075 0,0.8334 0.26666,1.4167 0.8,1.75 0.53333,0.3167 1.25833,0.475 2.175,0.475 m -0.2,-11.65 c 0.93333,0 1.71666,0.125 2.35,0.375 0.64999,0.2334 1.16666,0.575 1.55,1.025 0.39999,0.4334 0.68332,0.9584 0.85,1.575 0.16666,0.6 0.24999,1.2667 0.25,2 l 0,8.125 c -0.20001,0.033 -0.48334,0.083 -0.85,0.15 -0.35001,0.05 -0.75001,0.1 -1.2,0.15 -0.45001,0.05 -0.94167,0.092 -1.475,0.125 -0.51667,0.05 -1.03334,0.075 -1.55,0.075 -0.73334,0 -1.40834,-0.075 -2.025,-0.225 -0.61667,-0.15 -1.150003,-0.3833 -1.6,-0.7 -0.450002,-0.3333 -0.800001,-0.7666 -1.05,-1.3 -0.250001,-0.5333 -0.375001,-1.175 -0.375,-1.925 -10e-7,-0.7166 0.141666,-1.3333 0.425,-1.85 0.299999,-0.5166 0.699998,-0.9333 1.2,-1.25 0.499997,-0.3166 1.08333,-0.55 1.75,-0.7 0.66666,-0.15 1.36666,-0.225 2.1,-0.225 0.23333,0 0.47499,0.017 0.725,0.05 0.24999,0.017 0.48333,0.05 0.7,0.1 0.23333,0.033 0.43333,0.067 0.6,0.1 0.16666,0.033 0.28332,0.058 0.35,0.075 l 0,-0.65 c -1e-5,-0.3833 -0.0417,-0.7583 -0.125,-1.125 -0.0833,-0.3833 -0.23334,-0.7166 -0.45,-1 -0.21667,-0.3 -0.51667,-0.5333 -0.9,-0.7 -0.36667,-0.1833 -0.85001,-0.275 -1.45,-0.275 -0.76667,0 -1.44167,0.058 -2.025,0.175 -0.56667,0.1 -0.991669,0.2084 -1.275,0.325 l -0.275,-1.925 c 0.299998,-0.1333 0.799997,-0.2583 1.5,-0.375 0.7,-0.1333 1.45833,-0.2 2.275,-0.2"
         style="font-size:25px;line-height:100%;fill:#999999"
         id="path3061"
         inkscape:connector-curvature="0" />
      <path
         d="m 116.24108,1023.876 c -1e-5,0.55 -0.0167,1.1417 -0.05,1.775 -0.0167,0.6167 -0.0583,1.2417 -0.125,1.875 -0.0667,0.6167 -0.15834,1.2334 -0.275,1.85 -0.11667,0.6 -0.26667,1.1667 -0.45,1.7 -0.18334,0.5334 -0.41667,1.0334 -0.7,1.5 -0.26667,0.4667 -0.6,0.8834 -1,1.25 -0.4,0.35 -0.86667,0.65 -1.4,0.9 -0.53334,0.2334 -1.15833,0.3834 -1.875,0.45 l -0.325,-1.95 c 0.81667,-0.1666 1.45833,-0.475 1.925,-0.925 0.48333,-0.45 0.86666,-1 1.15,-1.65 0.25,-0.5666 0.43333,-1.2083 0.55,-1.925 0.11666,-0.7166 0.2,-1.4583 0.25,-2.225 0.05,-0.7833 0.075,-1.5666 0.075,-2.35 0.0167,-0.7833 0.025,-1.525 0.025,-2.225 l 8.65,0 0,13 -2.325,0 0,-11.05 -4.1,0"
         style="font-size:25px;line-height:100%;fill:#999999"
         id="path3063"
         inkscape:connector-curvature="0" />
      <path
         d="m 128.98249,1034.926 -2.325,0 0,-13 2.325,0 0,13 m -1.175,-15.35 c -0.41667,0 -0.77501,-0.1333 -1.075,-0.4 -0.28334,-0.2833 -0.42501,-0.6583 -0.425,-1.125 -1e-5,-0.4666 0.14166,-0.8333 0.425,-1.1 0.29999,-0.2833 0.65833,-0.425 1.075,-0.425 0.41666,0 0.76666,0.1417 1.05,0.425 0.29999,0.2667 0.44999,0.6334 0.45,1.1 -1e-5,0.4667 -0.15001,0.8417 -0.45,1.125 -0.28334,0.2667 -0.63334,0.4 -1.05,0.4"
         style="font-size:25px;line-height:100%;fill:#999999"
         id="path3065"
         inkscape:connector-curvature="0" />
      <path
         d="m 136.30514,1021.601 c 0.75,0 1.45,0.075 2.1,0.225 0.64999,0.15 1.20833,0.375 1.675,0.675 0.46666,0.3 0.83333,0.675 1.1,1.125 0.26666,0.45 0.39999,0.975 0.4,1.575 -1e-5,0.3834 -0.0667,0.7334 -0.2,1.05 -0.13334,0.3167 -0.30001,0.6 -0.5,0.85 -0.20001,0.25 -0.42501,0.4667 -0.675,0.65 -0.23334,0.1667 -0.45834,0.2834 -0.675,0.35 0.76666,0.2334 1.36666,0.65 1.8,1.25 0.44999,0.5834 0.67499,1.325 0.675,2.225 -1e-5,1.2334 -0.50001,2.15 -1.5,2.75 -1.00001,0.6 -2.35834,0.9 -4.075,0.9 -1.05,0 -1.95833,-0.083 -2.725,-0.25 -0.75,-0.1666 -1.28333,-0.325 -1.6,-0.475 l 0.4,-1.975 c 0.26667,0.1 0.74167,0.2417 1.425,0.425 0.7,0.1667 1.53333,0.25 2.5,0.25 1.05,0 1.84999,-0.1583 2.4,-0.475 0.54999,-0.3333 0.82499,-0.825 0.825,-1.475 -10e-6,-0.4666 -0.10834,-0.8416 -0.325,-1.125 -0.20001,-0.3 -0.45834,-0.525 -0.775,-0.675 -0.31667,-0.15 -0.65834,-0.25 -1.025,-0.3 -0.36667,-0.05 -0.70834,-0.075 -1.025,-0.075 l -2.175,0 0,-1.85 2.1,0 c 0.3,0 0.60833,-0.017 0.925,-0.05 0.33333,-0.05 0.63333,-0.1416 0.9,-0.275 0.28333,-0.1333 0.51666,-0.3166 0.7,-0.55 0.18333,-0.25 0.27499,-0.575 0.275,-0.975 -1e-5,-0.3166 -0.0833,-0.5833 -0.25,-0.8 -0.15001,-0.2333 -0.35834,-0.425 -0.625,-0.575 -0.26667,-0.15 -0.58334,-0.2583 -0.95,-0.325 -0.35,-0.083 -0.71667,-0.125 -1.1,-0.125 -0.3,0 -0.625,0.025 -0.975,0.075 -0.35,0.05 -0.69167,0.1167 -1.025,0.2 -0.33333,0.067 -0.63333,0.1417 -0.9,0.225 -0.26667,0.083 -0.45833,0.1584 -0.575,0.225 l -0.425,-2 c 0.13333,-0.05 0.34167,-0.1166 0.625,-0.2 0.28333,-0.083 0.6,-0.1583 0.95,-0.225 0.36667,-0.067 0.75,-0.125 1.15,-0.175 0.4,-0.05 0.79166,-0.075 1.175,-0.075"
         style="font-size:25px;line-height:100%;fill:#999999"
         id="path3067"
         inkscape:connector-curvature="0" />
      <path
         d="m 149.61217,1033.251 c 0.55,0 1.03333,-0.01 1.45,-0.025 0.43333,-0.033 0.79166,-0.083 1.075,-0.15 l 0,-3.875 c -0.16667,-0.083 -0.44167,-0.15 -0.825,-0.2 -0.36667,-0.067 -0.81667,-0.1 -1.35,-0.1 -0.35,0 -0.725,0.025 -1.125,0.075 -0.38334,0.05 -0.74167,0.1584 -1.075,0.325 -0.31667,0.15 -0.58333,0.3667 -0.8,0.65 -0.21667,0.2667 -0.325,0.625 -0.325,1.075 0,0.8334 0.26667,1.4167 0.8,1.75 0.53333,0.3167 1.25833,0.475 2.175,0.475 m -0.2,-11.65 c 0.93333,0 1.71666,0.125 2.35,0.375 0.64999,0.2334 1.16666,0.575 1.55,1.025 0.39999,0.4334 0.68333,0.9584 0.85,1.575 0.16666,0.6 0.24999,1.2667 0.25,2 l 0,8.125 c -0.20001,0.033 -0.48334,0.083 -0.85,0.15 -0.35001,0.05 -0.75001,0.1 -1.2,0.15 -0.45001,0.05 -0.94167,0.092 -1.475,0.125 -0.51667,0.05 -1.03334,0.075 -1.55,0.075 -0.73334,0 -1.40833,-0.075 -2.025,-0.225 -0.61667,-0.15 -1.15,-0.3833 -1.6,-0.7 -0.45,-0.3333 -0.8,-0.7666 -1.05,-1.3 -0.25,-0.5333 -0.375,-1.175 -0.375,-1.925 0,-0.7166 0.14167,-1.3333 0.425,-1.85 0.3,-0.5166 0.7,-0.9333 1.2,-1.25 0.5,-0.3166 1.08333,-0.55 1.75,-0.7 0.66667,-0.15 1.36666,-0.225 2.1,-0.225 0.23333,0 0.475,0.017 0.725,0.05 0.25,0.017 0.48333,0.05 0.7,0.1 0.23333,0.033 0.43333,0.067 0.6,0.1 0.16666,0.033 0.28333,0.058 0.35,0.075 l 0,-0.65 c -1e-5,-0.3833 -0.0417,-0.7583 -0.125,-1.125 -0.0833,-0.3833 -0.23334,-0.7166 -0.45,-1 -0.21667,-0.3 -0.51667,-0.5333 -0.9,-0.7 -0.36667,-0.1833 -0.85,-0.275 -1.45,-0.275 -0.76667,0 -1.44167,0.058 -2.025,0.175 -0.56667,0.1 -0.99167,0.2084 -1.275,0.325 l -0.275,-1.925 c 0.3,-0.1333 0.8,-0.2583 1.5,-0.375 0.7,-0.1333 1.45833,-0.2 2.275,-0.2"
         style="font-size:25px;line-height:100%;fill:#999999"
         id="path3069"
         inkscape:connector-curvature="0" />
      <path
         d="m 168.62428,1033.001 1.75,0 0,5.55 -2.2,0 0,-3.625 -9.925,0 0,-13 2.325,0 0,11.075 5.725,0 0,-11.075 2.325,0 0,11.075"
         style="font-size:25px;line-height:100%;fill:#999999"
         id="path3071"
         inkscape:connector-curvature="0" />
      <path
         d="m 177.67272,1028.501 c -0.45001,0 -0.89167,0.017 -1.325,0.05 -0.41667,0.017 -0.79167,0.067 -1.125,0.15 l 0,4.475 c 0.1,0.017 0.24166,0.033 0.425,0.05 0.2,0.017 0.40833,0.033 0.625,0.05 0.23333,0 0.46666,0.01 0.7,0.025 0.23333,0 0.44166,0 0.625,0 1.01666,0 1.79999,-0.1916 2.35,-0.575 0.54999,-0.3833 0.82499,-1 0.825,-1.85 -1e-5,-0.4166 -0.0917,-0.775 -0.275,-1.075 -0.16668,-0.3 -0.40001,-0.5416 -0.7,-0.725 -0.28334,-0.2 -0.60834,-0.3416 -0.975,-0.425 -0.36667,-0.1 -0.75001,-0.15 -1.15,-0.15 m -4.775,-6.575 2.325,0 0,4.975 c 0.28333,-0.067 0.69166,-0.1333 1.225,-0.2 0.54999,-0.067 1.07499,-0.1 1.575,-0.1 0.68333,0 1.33333,0.083 1.95,0.25 0.61666,0.15 1.15832,0.4 1.625,0.75 0.46666,0.3334 0.83332,0.775 1.1,1.325 0.28332,0.5334 0.42499,1.175 0.425,1.925 -10e-6,0.7834 -0.13335,1.45 -0.4,2 -0.26668,0.55 -0.64168,1 -1.125,1.35 -0.48334,0.35 -1.06668,0.6 -1.75,0.75 -0.68334,0.1667 -1.43334,0.25 -2.25,0.25 -0.78334,0 -1.575,-0.05 -2.375,-0.15 -0.8,-0.083 -1.575,-0.2166 -2.325,-0.4 l 0,-12.725 m 14.95,13 -2.325,0 0,-13 2.325,0 0,13"
         style="font-size:25px;line-height:100%;fill:#999999"
         id="path3073"
         inkscape:connector-curvature="0" />
      <path
         d="m 197.21803,1029.876 c -0.25,0 -0.49167,0 -0.725,0 -0.23334,-0.017 -0.45834,-0.033 -0.675,-0.05 -0.53334,0.8 -1.05,1.6584 -1.55,2.575 -0.48333,0.9 -0.91667,1.7417 -1.3,2.525 l -2.35,0 c 0.2,-0.4833 0.43333,-0.975 0.7,-1.475 0.26667,-0.5166 0.53333,-1.0166 0.8,-1.5 0.28333,-0.4833 0.56667,-0.9416 0.85,-1.375 0.28333,-0.4333 0.55,-0.825 0.8,-1.175 -0.46667,-0.1666 -0.85,-0.3666 -1.15,-0.6 -0.3,-0.25 -0.54167,-0.525 -0.725,-0.825 -0.18333,-0.3 -0.31667,-0.6166 -0.4,-0.95 -0.0667,-0.35 -0.1,-0.7 -0.1,-1.05 0,-0.7333 0.13333,-1.375 0.4,-1.925 0.28333,-0.55 0.66667,-1 1.15,-1.35 0.48333,-0.3666 1.05,-0.6416 1.7,-0.825 0.66666,-0.1833 1.39166,-0.275 2.175,-0.275 1.09999,0 2.03333,0.05 2.8,0.15 0.76666,0.1 1.40832,0.2167 1.925,0.35 l 0,12.825 -2.3,0 0,-5.05 -2.025,0 m 2.025,-6.225 c -0.18334,-0.033 -0.49167,-0.067 -0.925,-0.1 -0.41667,-0.033 -0.9,-0.05 -1.45,-0.05 -0.95,0 -1.71667,0.2 -2.3,0.6 -0.58333,0.3834 -0.875,1 -0.875,1.85 0,0.8334 0.3,1.4084 0.9,1.725 0.6,0.3167 1.375,0.475 2.325,0.475 l 2.325,0 0,-4.5"
         style="font-size:25px;line-height:100%;fill:#999999"
         id="path3075"
         inkscape:connector-curvature="0" />
      <path
         d="m 209.97545,1026.351 6.175,0 0,2.175 -6.175,0 0,-2.175"
         style="font-size:25px;line-height:100%;fill:#999999"
         id="path3077"
         inkscape:connector-curvature="0" />
      <path
         d="m 235.00788,1034.926 -2.325,0 0,-11.05 -5.8,0 0,11.05 -2.325,0 0,-13 10.45,0 0,13"
         style="font-size:25px;line-height:100%;fill:#999999"
         id="path3079"
         inkscape:connector-curvature="0" />
      <path
         d="m 243.411,1033.251 c 0.54999,0 1.03333,-0.01 1.45,-0.025 0.43333,-0.033 0.79166,-0.083 1.075,-0.15 l 0,-3.875 c -0.16667,-0.083 -0.44167,-0.15 -0.825,-0.2 -0.36667,-0.067 -0.81667,-0.1 -1.35,-0.1 -0.35,0 -0.725,0.025 -1.125,0.075 -0.38334,0.05 -0.74167,0.1584 -1.075,0.325 -0.31667,0.15 -0.58334,0.3667 -0.8,0.65 -0.21667,0.2667 -0.325,0.625 -0.325,1.075 0,0.8334 0.26666,1.4167 0.8,1.75 0.53333,0.3167 1.25833,0.475 2.175,0.475 m -0.2,-11.65 c 0.93333,0 1.71666,0.125 2.35,0.375 0.64999,0.2334 1.16666,0.575 1.55,1.025 0.39999,0.4334 0.68332,0.9584 0.85,1.575 0.16666,0.6 0.24999,1.2667 0.25,2 l 0,8.125 c -0.20001,0.033 -0.48334,0.083 -0.85,0.15 -0.35001,0.05 -0.75001,0.1 -1.2,0.15 -0.45001,0.05 -0.94167,0.092 -1.475,0.125 -0.51667,0.05 -1.03334,0.075 -1.55,0.075 -0.73334,0 -1.40834,-0.075 -2.025,-0.225 -0.61667,-0.15 -1.15,-0.3833 -1.6,-0.7 -0.45,-0.3333 -0.8,-0.7666 -1.05,-1.3 -0.25,-0.5333 -0.375,-1.175 -0.375,-1.925 0,-0.7166 0.14167,-1.3333 0.425,-1.85 0.3,-0.5166 0.7,-0.9333 1.2,-1.25 0.5,-0.3166 1.08333,-0.55 1.75,-0.7 0.66666,-0.15 1.36666,-0.225 2.1,-0.225 0.23333,0 0.47499,0.017 0.725,0.05 0.24999,0.017 0.48333,0.05 0.7,0.1 0.23333,0.033 0.43333,0.067 0.6,0.1 0.16666,0.033 0.28333,0.058 0.35,0.075 l 0,-0.65 c -1e-5,-0.3833 -0.0417,-0.7583 -0.125,-1.125 -0.0833,-0.3833 -0.23334,-0.7166 -0.45,-1 -0.21667,-0.3 -0.51667,-0.5333 -0.9,-0.7 -0.36667,-0.1833 -0.85001,-0.275 -1.45,-0.275 -0.76667,0 -1.44167,0.058 -2.025,0.175 -0.56667,0.1 -0.99167,0.2084 -1.275,0.325 l -0.275,-1.925 c 0.3,-0.1333 0.8,-0.2583 1.5,-0.375 0.7,-0.1333 1.45833,-0.2 2.275,-0.2"
         style="font-size:25px;line-height:100%;fill:#999999"
         id="path3081"
         inkscape:connector-curvature="0" />
      <path
         d="m 256.57311,1023.876 c -10e-6,0.55 -0.0167,1.1417 -0.05,1.775 -0.0167,0.6167 -0.0583,1.2417 -0.125,1.875 -0.0667,0.6167 -0.15834,1.2334 -0.275,1.85 -0.11667,0.6 -0.26667,1.1667 -0.45,1.7 -0.18334,0.5334 -0.41667,1.0334 -0.7,1.5 -0.26667,0.4667 -0.6,0.8834 -1,1.25 -0.4,0.35 -0.86667,0.65 -1.4,0.9 -0.53333,0.2334 -1.15833,0.3834 -1.875,0.45 l -0.325,-1.95 c 0.81667,-0.1666 1.45833,-0.475 1.925,-0.925 0.48333,-0.45 0.86666,-1 1.15,-1.65 0.25,-0.5666 0.43333,-1.2083 0.55,-1.925 0.11666,-0.7166 0.2,-1.4583 0.25,-2.225 0.05,-0.7833 0.075,-1.5666 0.075,-2.35 0.0167,-0.7833 0.025,-1.525 0.025,-2.225 l 8.65,0 0,13 -2.325,0 0,-11.05 -4.1,0"
         style="font-size:25px;line-height:100%;fill:#999999"
         id="path3083"
         inkscape:connector-curvature="0" />
      <path
         d="m 269.31452,1034.926 -2.325,0 0,-13 2.325,0 0,13 m -1.175,-15.35 c -0.41667,0 -0.77501,-0.1333 -1.075,-0.4 -0.28334,-0.2833 -0.425,-0.6583 -0.425,-1.125 0,-0.4666 0.14166,-0.8333 0.425,-1.1 0.29999,-0.2833 0.65833,-0.425 1.075,-0.425 0.41666,0 0.76666,0.1417 1.05,0.425 0.29999,0.2667 0.44999,0.6334 0.45,1.1 -1e-5,0.4667 -0.15001,0.8417 -0.45,1.125 -0.28334,0.2667 -0.63334,0.4 -1.05,0.4"
         style="font-size:25px;line-height:100%;fill:#999999"
         id="path3085"
         inkscape:connector-curvature="0" />
      <path
         d="m 282.51217,1021.926 0,1.95 -4.225,0 0,11.05 -2.325,0 0,-11.05 -4.225,0 0,-1.95 10.775,0"
         style="font-size:25px;line-height:100%;fill:#999999"
         id="path3087"
         inkscape:connector-curvature="0" />
      <path
         d="m 289.68444,1028.501 c -0.45001,0 -0.89167,0.017 -1.325,0.05 -0.41667,0.017 -0.79167,0.067 -1.125,0.15 l 0,4.475 c 0.1,0.017 0.24166,0.033 0.425,0.05 0.19999,0.017 0.40833,0.033 0.625,0.05 0.23333,0 0.46666,0.01 0.7,0.025 0.23333,0 0.44166,0 0.625,0 1.01666,0 1.79999,-0.1916 2.35,-0.575 0.54999,-0.3833 0.82499,-1 0.825,-1.85 -1e-5,-0.4166 -0.0917,-0.775 -0.275,-1.075 -0.16668,-0.3 -0.40001,-0.5416 -0.7,-0.725 -0.28334,-0.2 -0.60834,-0.3416 -0.975,-0.425 -0.36668,-0.1 -0.75001,-0.15 -1.15,-0.15 m -4.775,-6.575 2.325,0 0,4.975 c 0.28333,-0.067 0.69166,-0.1333 1.225,-0.2 0.54999,-0.067 1.07499,-0.1 1.575,-0.1 0.68332,0 1.33332,0.083 1.95,0.25 0.61666,0.15 1.15832,0.4 1.625,0.75 0.46665,0.3334 0.83332,0.775 1.1,1.325 0.28332,0.5334 0.42499,1.175 0.425,1.925 -10e-6,0.7834 -0.13335,1.45 -0.4,2 -0.26668,0.55 -0.64168,1 -1.125,1.35 -0.48334,0.35 -1.06668,0.6 -1.75,0.75 -0.68334,0.1667 -1.43334,0.25 -2.25,0.25 -0.78334,0 -1.57501,-0.05 -2.375,-0.15 -0.8,-0.083 -1.575,-0.2166 -2.325,-0.4 l 0,-12.725 m 14.95,13 -2.325,0 0,-13 2.325,0 0,13"
         style="font-size:25px;line-height:100%;fill:#999999"
         id="path3089"
         inkscape:connector-curvature="0" />
      <path
         d="m 305.32975,1021.926 0,3.825 c 0,0.9834 0.25,1.675 0.75,2.075 0.5,0.3834 1.18333,0.575 2.05,0.575 0.63333,0 1.15833,-0.033 1.575,-0.1 0.43333,-0.067 0.81666,-0.1416 1.15,-0.225 l 0,-6.15 2.325,0 0,13 -2.325,0 0,-5.05 c -0.13334,0.033 -0.30834,0.075 -0.525,0.125 -0.21667,0.05 -0.46667,0.1 -0.75,0.15 -0.26667,0.033 -0.55001,0.067 -0.85,0.1 -0.3,0.033 -0.59167,0.05 -0.875,0.05 -0.71667,0 -1.375,-0.075 -1.975,-0.225 -0.58334,-0.15 -1.09167,-0.4 -1.525,-0.75 -0.41667,-0.35 -0.75,-0.8083 -1,-1.375 -0.23333,-0.5833 -0.35,-1.3083 -0.35,-2.175 l 0,-3.85 2.325,0"
         style="font-size:25px;line-height:100%;fill:#999999"
         id="path3091"
         inkscape:connector-curvature="0" />
      <path
         d="m 327.83483,1034.926 -2.325,0 0,-5.75 -6,0 0,5.75 -2.325,0 0,-13 2.325,0 0,5.3 6,0 0,-5.3 2.325,0 0,13"
         style="font-size:25px;line-height:100%;fill:#999999"
         id="path3093"
         inkscape:connector-curvature="0" />
      <path
         d="m 336.23327,1033.251 c 0.54999,0 1.03332,-0.01 1.45,-0.025 0.43332,-0.033 0.79166,-0.083 1.075,-0.15 l 0,-3.875 c -0.16668,-0.083 -0.44168,-0.15 -0.825,-0.2 -0.36668,-0.067 -0.81668,-0.1 -1.35,-0.1 -0.35001,0 -0.72501,0.025 -1.125,0.075 -0.38334,0.05 -0.74167,0.1584 -1.075,0.325 -0.31667,0.15 -0.58334,0.3667 -0.8,0.65 -0.21667,0.2667 -0.32501,0.625 -0.325,1.075 -10e-6,0.8334 0.26666,1.4167 0.8,1.75 0.53333,0.3167 1.25833,0.475 2.175,0.475 m -0.2,-11.65 c 0.93332,0 1.71666,0.125 2.35,0.375 0.64999,0.2334 1.16665,0.575 1.55,1.025 0.39999,0.4334 0.68332,0.9584 0.85,1.575 0.16665,0.6 0.24999,1.2667 0.25,2 l 0,8.125 c -0.20001,0.033 -0.48335,0.083 -0.85,0.15 -0.35001,0.05 -0.75001,0.1 -1.2,0.15 -0.45001,0.05 -0.94168,0.092 -1.475,0.125 -0.51668,0.05 -1.03334,0.075 -1.55,0.075 -0.73334,0 -1.40834,-0.075 -2.025,-0.225 -0.61667,-0.15 -1.15001,-0.3833 -1.6,-0.7 -0.45,-0.3333 -0.8,-0.7666 -1.05,-1.3 -0.25,-0.5333 -0.375,-1.175 -0.375,-1.925 0,-0.7166 0.14166,-1.3333 0.425,-1.85 0.3,-0.5166 0.7,-0.9333 1.2,-1.25 0.49999,-0.3166 1.08333,-0.55 1.75,-0.7 0.66666,-0.15 1.36666,-0.225 2.1,-0.225 0.23332,0 0.47499,0.017 0.725,0.05 0.24999,0.017 0.48332,0.05 0.7,0.1 0.23332,0.033 0.43332,0.067 0.6,0.1 0.16666,0.033 0.28332,0.058 0.35,0.075 l 0,-0.65 c -10e-6,-0.3833 -0.0417,-0.7583 -0.125,-1.125 -0.0833,-0.3833 -0.23334,-0.7166 -0.45,-1 -0.21668,-0.3 -0.51668,-0.5333 -0.9,-0.7 -0.36668,-0.1833 -0.85001,-0.275 -1.45,-0.275 -0.76667,0 -1.44167,0.058 -2.025,0.175 -0.56667,0.1 -0.99167,0.2084 -1.275,0.325 l -0.275,-1.925 c 0.29999,-0.1333 0.79999,-0.2583 1.5,-0.375 0.69999,-0.1333 1.45833,-0.2 2.275,-0.2"
         style="font-size:25px;line-height:100%;fill:#999999"
         id="path3095"
         inkscape:connector-curvature="0" />
    </g>
    <g
       style="font-size:24.28185844px;font-style:normal;font-variant:normal;font-weight:normal;font-stretch:normal;line-height:125%;letter-spacing:0px;word-spacing:0px;fill:#4d4d4d;fill-opacity:1;stroke:none;font-family:Ubuntu;-inkscape-font-specification:Ubuntu"
       id="text2995">
      <path
         d="m 370.06859,1015.714 c 0.68333,0 1.26666,0.05 1.75,0.15 0.49999,0.1 0.84999,0.1917 1.05,0.275 l -0.425,2 c -0.20001,-0.1 -0.48334,-0.1916 -0.85,-0.275 -0.36667,-0.1 -0.81667,-0.15 -1.35,-0.15 -1.08334,0 -1.84167,0.3 -2.275,0.9 -0.43334,0.5834 -0.65,1.375 -0.65,2.375 l 0,1.125 5,0 0,1.95 -5,0 0,11.05 -2.325,0 0,-14.175 c 0,-1.6666 0.40833,-2.95 1.225,-3.85 0.81666,-0.9166 2.1,-1.375 3.85,-1.375"
         style="font-size:25px;fill:#4d4d4d"
         id="path3026"
         inkscape:connector-curvature="0" />
      <path
         d="m 379.06156,1033.439 c 0.54999,0 1.03333,-0.01 1.45,-0.025 0.43333,-0.033 0.79166,-0.083 1.075,-0.15 l 0,-3.875 c -0.16668,-0.083 -0.44168,-0.15 -0.825,-0.2 -0.36667,-0.067 -0.81667,-0.1 -1.35,-0.1 -0.35001,0 -0.72501,0.025 -1.125,0.075 -0.38334,0.05 -0.74167,0.1584 -1.075,0.325 -0.31667,0.15 -0.58334,0.3667 -0.8,0.65 -0.21667,0.2667 -0.325,0.625 -0.325,1.075 0,0.8334 0.26666,1.4167 0.8,1.75 0.53333,0.3167 1.25833,0.475 2.175,0.475 m -0.2,-11.65 c 0.93333,0 1.71666,0.125 2.35,0.375 0.64999,0.2334 1.16666,0.575 1.55,1.025 0.39999,0.4334 0.68332,0.9584 0.85,1.575 0.16666,0.6 0.24999,1.2667 0.25,2 l 0,8.125 c -0.20001,0.033 -0.48334,0.083 -0.85,0.15 -0.35001,0.05 -0.75001,0.1 -1.2,0.15 -0.45001,0.05 -0.94167,0.092 -1.475,0.125 -0.51667,0.05 -1.03334,0.075 -1.55,0.075 -0.73334,0 -1.40834,-0.075 -2.025,-0.225 -0.61667,-0.15 -1.15,-0.3833 -1.6,-0.7 -0.45,-0.3333 -0.8,-0.7667 -1.05,-1.3 -0.25,-0.5333 -0.375,-1.175 -0.375,-1.925 0,-0.7166 0.14167,-1.3333 0.425,-1.85 0.3,-0.5166 0.7,-0.9333 1.2,-1.25 0.5,-0.3166 1.08333,-0.55 1.75,-0.7 0.66666,-0.15 1.36666,-0.225 2.1,-0.225 0.23333,0 0.47499,0.017 0.725,0.05 0.24999,0.017 0.48333,0.05 0.7,0.1 0.23333,0.033 0.43332,0.067 0.6,0.1 0.16666,0.033 0.28332,0.058 0.35,0.075 l 0,-0.65 c -1e-5,-0.3833 -0.0417,-0.7583 -0.125,-1.125 -0.0833,-0.3833 -0.23334,-0.7166 -0.45,-1 -0.21667,-0.3 -0.51667,-0.5333 -0.9,-0.7 -0.36667,-0.1833 -0.85001,-0.275 -1.45,-0.275 -0.76667,0 -1.44167,0.058 -2.025,0.175 -0.56667,0.1 -0.99167,0.2084 -1.275,0.325 l -0.275,-1.925 c 0.3,-0.1333 0.8,-0.2583 1.5,-0.375 0.7,-0.1333 1.45833,-0.2 2.275,-0.2"
         style="font-size:25px;fill:#4d4d4d"
         id="path3028"
         inkscape:connector-curvature="0" />
      <path
         d="m 391.59867,1035.364 c -1.43334,-0.033 -2.45,-0.3417 -3.05,-0.925 -0.6,-0.5833 -0.9,-1.4917 -0.9,-2.725 l 0,-15.6 2.325,-0.4 0,15.625 c 0,0.3834 0.0333,0.7 0.1,0.95 0.0667,0.25 0.17499,0.45 0.325,0.6 0.14999,0.15 0.34999,0.2667 0.6,0.35 0.24999,0.067 0.55833,0.125 0.925,0.175 l -0.325,1.95"
         style="font-size:25px;fill:#4d4d4d"
         id="path3030"
         inkscape:connector-curvature="0" />
      <path
         d="m 398.93461,1033.439 c 0.54999,0 1.03332,-0.01 1.45,-0.025 0.43332,-0.033 0.79165,-0.083 1.075,-0.15 l 0,-3.875 c -0.16668,-0.083 -0.44168,-0.15 -0.825,-0.2 -0.36668,-0.067 -0.81668,-0.1 -1.35,-0.1 -0.35001,0 -0.72501,0.025 -1.125,0.075 -0.38334,0.05 -0.74167,0.1584 -1.075,0.325 -0.31667,0.15 -0.58334,0.3667 -0.8,0.65 -0.21667,0.2667 -0.32501,0.625 -0.325,1.075 -10e-6,0.8334 0.26666,1.4167 0.8,1.75 0.53333,0.3167 1.25832,0.475 2.175,0.475 m -0.2,-11.65 c 0.93332,0 1.71666,0.125 2.35,0.375 0.64999,0.2334 1.16665,0.575 1.55,1.025 0.39999,0.4334 0.68332,0.9584 0.85,1.575 0.16665,0.6 0.24999,1.2667 0.25,2 l 0,8.125 c -0.20001,0.033 -0.48335,0.083 -0.85,0.15 -0.35001,0.05 -0.75001,0.1 -1.2,0.15 -0.45001,0.05 -0.94168,0.092 -1.475,0.125 -0.51668,0.05 -1.03334,0.075 -1.55,0.075 -0.73334,0 -1.40834,-0.075 -2.025,-0.225 -0.61667,-0.15 -1.15001,-0.3833 -1.6,-0.7 -0.45001,-0.3333 -0.8,-0.7667 -1.05,-1.3 -0.25,-0.5333 -0.375,-1.175 -0.375,-1.925 0,-0.7166 0.14166,-1.3333 0.425,-1.85 0.3,-0.5166 0.69999,-0.9333 1.2,-1.25 0.49999,-0.3166 1.08333,-0.55 1.75,-0.7 0.66666,-0.15 1.36666,-0.225 2.1,-0.225 0.23332,0 0.47499,0.017 0.725,0.05 0.24999,0.017 0.48332,0.05 0.7,0.1 0.23332,0.033 0.43332,0.067 0.6,0.1 0.16665,0.033 0.28332,0.058 0.35,0.075 l 0,-0.65 c -10e-6,-0.3833 -0.0417,-0.7583 -0.125,-1.125 -0.0833,-0.3833 -0.23334,-0.7166 -0.45,-1 -0.21668,-0.3 -0.51668,-0.5333 -0.9,-0.7 -0.36668,-0.1833 -0.85001,-0.275 -1.45,-0.275 -0.76667,0 -1.44167,0.058 -2.025,0.175 -0.56667,0.1 -0.99167,0.2084 -1.275,0.325 l -0.275,-1.925 c 0.29999,-0.1333 0.79999,-0.2583 1.5,-0.375 0.69999,-0.1333 1.45832,-0.2 2.275,-0.2"
         style="font-size:25px;fill:#4d4d4d"
         id="path3032"
         inkscape:connector-curvature="0" />
      <path
         d="m 407.57172,1022.489 c 0.53333,-0.1333 1.24166,-0.275 2.125,-0.425 0.88332,-0.15 1.89999,-0.225 3.05,-0.225 1.03332,0 1.89165,0.15 2.575,0.45 0.68332,0.2834 1.22499,0.6917 1.625,1.225 0.41665,0.5167 0.70832,1.1417 0.875,1.875 0.16665,0.7334 0.24998,1.5417 0.25,2.425 l 0,7.3 -2.325,0 0,-6.8 c -10e-6,-0.8 -0.0583,-1.4833 -0.175,-2.05 -0.10001,-0.5666 -0.27501,-1.025 -0.525,-1.375 -0.25001,-0.35 -0.58335,-0.6 -1,-0.75 -0.41668,-0.1666 -0.93334,-0.25 -1.55,-0.25 -0.25001,0 -0.50834,0.01 -0.775,0.025 -0.26668,0.017 -0.52501,0.042 -0.775,0.075 -0.23334,0.017 -0.45001,0.042 -0.65,0.075 -0.18334,0.033 -0.31667,0.058 -0.4,0.075 l 0,10.975 -2.325,0 0,-12.625"
         style="font-size:25px;fill:#4d4d4d"
         id="path3034"
         inkscape:connector-curvature="0" />
      <path
         d="m 424.95219,1033.439 c 0.94999,0 1.64999,-0.125 2.1,-0.375 0.46665,-0.25 0.69999,-0.65 0.7,-1.2 -10e-6,-0.5666 -0.22501,-1.0166 -0.675,-1.35 -0.45001,-0.3333 -1.19168,-0.7083 -2.225,-1.125 -0.50001,-0.2 -0.98334,-0.4 -1.45,-0.6 -0.45001,-0.2166 -0.84167,-0.4666 -1.175,-0.75 -0.33334,-0.2833 -0.60001,-0.625 -0.8,-1.025 -0.20001,-0.4 -0.30001,-0.8916 -0.3,-1.475 -10e-6,-1.15 0.42499,-2.0583 1.275,-2.725 0.84999,-0.6833 2.00832,-1.025 3.475,-1.025 0.36666,0 0.73332,0.025 1.1,0.075 0.36665,0.033 0.70832,0.083 1.025,0.15 0.31665,0.05 0.59165,0.1084 0.825,0.175 0.24999,0.067 0.44165,0.125 0.575,0.175 l -0.425,2 c -0.25001,-0.1333 -0.64168,-0.2666 -1.175,-0.4 -0.53335,-0.15 -1.17501,-0.225 -1.925,-0.225 -0.65001,0 -1.21668,0.1334 -1.7,0.4 -0.48334,0.25 -0.72501,0.65 -0.725,1.2 -10e-6,0.2834 0.05,0.5334 0.15,0.75 0.11666,0.2167 0.28332,0.4167 0.5,0.6 0.23332,0.1667 0.51666,0.325 0.85,0.475 0.33332,0.15 0.73332,0.3084 1.2,0.475 0.61665,0.2334 1.16665,0.4667 1.65,0.7 0.48332,0.2167 0.89165,0.475 1.225,0.775 0.34999,0.3 0.61665,0.6667 0.8,1.1 0.18332,0.4167 0.27498,0.9334 0.275,1.55 -2e-5,1.2 -0.45001,2.1083 -1.35,2.725 -0.88335,0.6167 -2.15001,0.925 -3.8,0.925 -1.15001,0 -2.05001,-0.1 -2.7,-0.3 -0.65001,-0.1833 -1.09167,-0.325 -1.325,-0.425 l 0.425,-2 c 0.26666,0.1 0.69166,0.25 1.275,0.45 0.58333,0.2 1.35832,0.3 2.325,0.3"
         style="font-size:25px;fill:#4d4d4d"
         id="path3036"
         inkscape:connector-curvature="0" />
      <path
         d="m 435.235,1022.114 4.925,0 0,1.95 -4.925,0 0,6 c -1e-5,0.65 0.05,1.1917 0.15,1.625 0.1,0.4167 0.24999,0.75 0.45,1 0.19999,0.2333 0.44999,0.4 0.75,0.5 0.29999,0.1 0.64999,0.15 1.05,0.15 0.69999,0 1.25832,-0.075 1.675,-0.225 0.43332,-0.1667 0.73332,-0.2833 0.9,-0.35 l 0.45,1.925 c -0.23335,0.1167 -0.64168,0.2583 -1.225,0.425 -0.58334,0.1833 -1.25001,0.275 -2,0.275 -0.88334,0 -1.61667,-0.1083 -2.2,-0.325 -0.56667,-0.2333 -1.02501,-0.575 -1.375,-1.025 -0.35,-0.45 -0.6,-1 -0.75,-1.65 -0.13334,-0.6666 -0.2,-1.4333 -0.2,-2.3 l 0,-11.6 2.325,-0.4 0,4.025"
         style="font-size:25px;fill:#4d4d4d"
         id="path3038"
         inkscape:connector-curvature="0" />
      <path
         d="m 442.14945,1028.639 c 0,-1.15 0.16667,-2.15 0.5,-3 0.33333,-0.8666 0.775,-1.5833 1.325,-2.15 0.55,-0.5666 1.18333,-0.9916 1.9,-1.275 0.71666,-0.2833 1.44999,-0.425 2.2,-0.425 1.74999,0 3.09166,0.55 4.025,1.65 0.93332,1.0834 1.39999,2.7417 1.4,4.975 -1e-5,0.1 -1e-5,0.2334 0,0.4 -1e-5,0.15 -0.008,0.2917 -0.025,0.425 l -8.9,0 c 0.1,1.35 0.49166,2.375 1.175,3.075 0.68333,0.7 1.74999,1.05 3.2,1.05 0.81666,0 1.49999,-0.067 2.05,-0.2 0.56666,-0.15 0.99166,-0.2917 1.275,-0.425 l 0.325,1.95 c -0.28334,0.15 -0.78334,0.3083 -1.5,0.475 -0.70001,0.1667 -1.50001,0.25 -2.4,0.25 -1.13334,0 -2.11667,-0.1667 -2.95,-0.5 -0.81667,-0.35 -1.49167,-0.825 -2.025,-1.425 -0.53333,-0.6 -0.93333,-1.3083 -1.2,-2.125 -0.25,-0.8333 -0.375,-1.7416 -0.375,-2.725 m 8.925,-1.275 c 0.0167,-1.05 -0.25001,-1.9083 -0.8,-2.575 -0.53334,-0.6833 -1.27501,-1.025 -2.225,-1.025 -0.53334,0 -1.00834,0.1084 -1.425,0.325 -0.4,0.2 -0.74167,0.4667 -1.025,0.8 -0.28334,0.3334 -0.50834,0.7167 -0.675,1.15 -0.15,0.4334 -0.25,0.875 -0.3,1.325 l 6.45,0"
         style="font-size:25px;fill:#4d4d4d"
         id="path3040"
         inkscape:connector-curvature="0" />
      <path
         d="m 461.63929,1021.839 c 0.2,0 0.425,0.017 0.675,0.05 0.26666,0.017 0.525,0.05 0.775,0.1 0.25,0.033 0.475,0.075 0.675,0.125 0.21666,0.033 0.375,0.067 0.475,0.1 l -0.4,2.025 c -0.18334,-0.067 -0.49167,-0.1416 -0.925,-0.225 -0.41667,-0.1 -0.95834,-0.15 -1.625,-0.15 -0.43333,0 -0.86667,0.05 -1.3,0.15 -0.41667,0.083 -0.69167,0.1417 -0.825,0.175 l 0,10.925 -2.325,0 0,-12.45 c 0.55,-0.2 1.23333,-0.3833 2.05,-0.55 0.81667,-0.1833 1.73333,-0.275 2.75,-0.275"
         style="font-size:25px;fill:#4d4d4d"
         id="path3042"
         inkscape:connector-curvature="0" />
      <path
         d="m 467.89008,1033.764 c -1e-5,0.45 -0.15001,0.8417 -0.45,1.175 -0.30001,0.3333 -0.70834,0.5 -1.225,0.5 -0.51667,0 -0.92501,-0.1667 -1.225,-0.5 -0.30001,-0.3333 -0.45001,-0.725 -0.45,-1.175 -10e-6,-0.45 0.14999,-0.8417 0.45,-1.175 0.29999,-0.3333 0.70833,-0.5 1.225,-0.5 0.51666,0 0.92499,0.1667 1.225,0.5 0.29999,0.3333 0.44999,0.725 0.45,1.175"
         style="font-size:25px;fill:#4d4d4d"
         id="path3044"
         inkscape:connector-curvature="0" />
      <path
         d="m 473.61742,1022.689 c 0.28333,-0.1833 0.70833,-0.375 1.275,-0.575 0.58333,-0.2 1.24999,-0.3 2,-0.3 0.93332,0 1.75832,0.1667 2.475,0.5 0.73332,0.3334 1.34999,0.8 1.85,1.4 0.49999,0.6 0.87499,1.3167 1.125,2.15 0.26665,0.8334 0.39999,1.75 0.4,2.75 -10e-6,1.05 -0.15835,2 -0.475,2.85 -0.30001,0.8333 -0.73335,1.5417 -1.3,2.125 -0.56668,0.5833 -1.25001,1.0333 -2.05,1.35 -0.80001,0.3167 -1.70001,0.475 -2.7,0.475 -1.08334,0 -2.04167,-0.075 -2.875,-0.225 -0.83334,-0.15 -1.51667,-0.3 -2.05,-0.45 l 0,-18.625 2.325,-0.4 0,6.975 m 0,10.4 c 0.23333,0.067 0.55833,0.1333 0.975,0.2 0.43333,0.05 0.96666,0.075 1.6,0.075 1.24999,0 2.24999,-0.4083 3,-1.225 0.74999,-0.8333 1.12499,-2.0083 1.125,-3.525 -1e-5,-0.6666 -0.0667,-1.2916 -0.2,-1.875 -0.13334,-0.5833 -0.35001,-1.0833 -0.65,-1.5 -0.30001,-0.4333 -0.69168,-0.7666 -1.175,-1 -0.46668,-0.25 -1.03334,-0.375 -1.7,-0.375 -0.63334,0 -1.21667,0.1084 -1.75,0.325 -0.53334,0.2167 -0.94167,0.4417 -1.225,0.675 l 0,8.225"
         style="font-size:25px;fill:#4d4d4d"
         id="path3046"
         inkscape:connector-curvature="0" />
      <path
         d="m 484.17172,1037.539 c 0.18333,0.083 0.41666,0.1583 0.7,0.225 0.29999,0.083 0.59166,0.125 0.875,0.125 0.91666,0 1.63333,-0.2083 2.15,-0.625 0.51666,-0.4 0.98332,-1.0583 1.4,-1.975 -1.05001,-2 -2.03334,-4.1166 -2.95,-6.35 -0.90001,-2.25 -1.65,-4.525 -2.25,-6.825 l 2.5,0 c 0.18333,0.75 0.39999,1.5584 0.65,2.425 0.26666,0.8667 0.55833,1.7584 0.875,2.675 0.31666,0.9167 0.65832,1.8334 1.025,2.75 0.36666,0.9167 0.74999,1.8 1.15,2.65 0.63332,-1.75 1.18332,-3.4833 1.65,-5.2 0.46665,-1.7166 0.90832,-3.4833 1.325,-5.3 l 2.4,0 c -0.60002,2.45 -1.26668,4.8084 -2,7.075 -0.73335,2.25 -1.52501,4.3583 -2.375,6.325 -0.33334,0.75 -0.68334,1.3917 -1.05,1.925 -0.35001,0.55 -0.74168,1 -1.175,1.35 -0.43334,0.35 -0.92501,0.6083 -1.475,0.775 -0.53334,0.1667 -1.14167,0.25 -1.825,0.25 -0.18334,0 -0.37501,-0.017 -0.575,-0.05 -0.2,-0.017 -0.4,-0.05 -0.6,-0.1 -0.18334,-0.033 -0.35834,-0.075 -0.525,-0.125 -0.15,-0.05 -0.25834,-0.092 -0.325,-0.125 l 0.425,-1.875"
         style="font-size:25px;fill:#4d4d4d"
         id="path3048"
         inkscape:connector-curvature="0" />
    </g>
  </g>
</svg>
