<?xml version="1.0" encoding="UTF-8" standalone="no"?>
<!-- Created with Inkscape (http://www.inkscape.org/) -->

<svg
   xmlns:dc="http://purl.org/dc/elements/1.1/"
   xmlns:cc="http://creativecommons.org/ns#"
   xmlns:rdf="http://www.w3.org/1999/02/22-rdf-syntax-ns#"
   xmlns:svg="http://www.w3.org/2000/svg"
   xmlns="http://www.w3.org/2000/svg"
   xmlns:sodipodi="http://sodipodi.sourceforge.net/DTD/sodipodi-0.dtd"
   xmlns:inkscape="http://www.inkscape.org/namespaces/inkscape"
   width="524.40942"
   height="372.04724"
   id="svg2"
   version="1.1"
   inkscape:version="0.48.4 r9939"
   sodipodi:docname="postcard_4_en_path.svg"
   inkscape:export-filename="/home/svet/Dropbox/falanster/design/postcards/console/postcard_4_en_path.png"
   inkscape:export-xdpi="300"
   inkscape:export-ydpi="300">
  <defs
     id="defs4" />
  <sodipodi:namedview
     id="base"
     pagecolor="#ffffff"
     bordercolor="#666666"
     borderopacity="1.0"
     inkscape:pageopacity="0.0"
     inkscape:pageshadow="2"
     inkscape:zoom="1.4"
     inkscape:cx="348.1008"
     inkscape:cy="209.58817"
     inkscape:document-units="px"
     inkscape:current-layer="layer1"
     showgrid="false"
     inkscape:window-width="1301"
     inkscape:window-height="744"
     inkscape:window-x="65"
     inkscape:window-y="24"
     inkscape:window-maximized="1"
     showguides="true"
     inkscape:guide-bbox="true">
    <sodipodi:guide
       orientation="0,1"
       position="279.81226,16.162441"
       id="guide2999" />
    <sodipodi:guide
       orientation="1,0"
       position="26.263966,437.39605"
       id="guide3001" />
    <sodipodi:guide
       orientation="1,0"
       position="495.9849,304.05592"
       id="guide3003" />
  </sodipodi:namedview>
  <metadata
     id="metadata7">
    <rdf:RDF>
      <cc:Work
         rdf:about="">
        <dc:format>image/svg+xml</dc:format>
        <dc:type
           rdf:resource="http://purl.org/dc/dcmitype/StillImage" />
        <dc:title></dc:title>
      </cc:Work>
    </rdf:RDF>
  </metadata>
  <g
     inkscape:label="Layer 1"
     inkscape:groupmode="layer"
     id="layer1"
     transform="translate(0,-680.31491)">
    <path
       style="fill:#1a1a1a;fill-opacity:1;fill-rule:nonzero;stroke:none"
       d="m 0,680.31488 524.40942,0 0,372.04722 -524.40942,0 z"
       id="rect2985" />
    <g
       style="font-size:52px;font-style:normal;font-variant:normal;font-weight:normal;font-stretch:normal;line-height:125%;letter-spacing:0px;word-spacing:0px;fill:#ffff00;fill-opacity:1;stroke:none;font-family:Courier 10 Pitch;-inkscape-font-specification:Courier 10 Pitch"
       id="text2983">
      <path
         d="m 35.729162,746.53126 0.558,-9.8115 3.3015,0 -0.465,9.672 c 0,0.0465 0,0.093 0,0.093 0,0.93 0.558001,1.488 1.3485,1.488 0.929999,0 1.4415,-0.5115 1.488,-1.4415 l 0.5115,-9.8115 3.348,0 c 0.976499,0 1.488,-0.558 1.488,-1.5345 0,-0.9765 -0.511501,-1.5345 -1.488,-1.5345 l -3.162,0 0.279,-5.394 2.883,0 c 0.976499,0 1.488,-0.558 1.488,-1.5345 0,-0.9765 -0.511501,-1.488 -1.488,-1.488 l -2.79,0 0.558,-9.7185 c 0,-0.0465 0,-0.093 0,-0.093 0,-0.93 -0.604501,-1.4415 -1.4415,-1.4415 -0.836999,0 -1.3485,0.465 -1.395,1.395 l -0.558,9.858 -3.3015,0 0.465,-9.7185 c 0,-0.0465 0,-0.093 0,-0.093 0,-0.93 -0.558001,-1.4415 -1.395,-1.4415 -0.836999,0 -1.3485,0.465 -1.395,1.395 l -0.558,9.858 -3.3945,0 c -0.976499,0 -1.488,0.5115 -1.488,1.488 0,0.9765 0.511501,1.5345 1.488,1.5345 l 3.255,0 -0.2325,5.394 -3.0225,0 c -0.976499,0 -1.488,0.558 -1.488,1.5345 0,0.9765 0.511501,1.5345 1.488,1.5345 l 2.8365,0 -0.5115,9.672 c 0,0.0465 0,0.093 0,0.1395 0,0.8835 0.511501,1.4415 1.302,1.4415 0.929999,0 1.4415,-0.5115 1.488,-1.4415 m 0.6975,-12.8805 0.279,-5.394 3.3945,0 -0.3255,5.394 -3.348,0"
         style="font-size:46.5px;fill:#ffff00"
         id="path3014" />
      <path
         d="m 84.234474,743.64826 c 0,1.4415 0.604501,2.1855 1.674,2.1855 0.5115,0 1.255501,-0.372 2.325,-1.0695 2.557498,0.651 4.836002,1.023 6.882,1.023 5.672996,0 8.881496,-2.83651 8.881496,-6.7425 0,-4.464 -3.1155,-6.231 -9.113996,-6.3705 -4.463995,-0.093 -7.068,-0.32551 -7.068,-2.7435 0,-1.8135 1.720503,-3.348 4.743,-3.348 2.371498,0 4.045502,0.558 5.766,2.0925 1.348499,1.209 1.813506,2.3715 2.836496,2.3715 1.116,0 1.5345,-0.7905 1.5345,-2.2785 l 0,-2.6505 c 0,-1.5345 -0.5115,-2.2785 -1.5345,-2.2785 -1.208994,0 -1.673996,0.8835 -2.324996,0.8835 -0.650999,0 -2.464503,-1.023 -5.766,-1.023 -5.626494,0 -8.742,2.604 -8.742,6.3705 0,4.04549 3.301507,6.2775 9.486,6.2775 0.651,0 1.069501,0 1.302,0 3.440997,0 5.114996,0.651 5.114996,2.976 0,2.04599 -2.045999,3.534 -5.347496,3.534 -3.068997,0 -5.673001,-1.116 -6.882,-2.697 -0.883499,-1.1625 -0.744001,-2.418 -2.139,-2.418 -1.208998,0 -1.6275,0.651 -1.6275,1.86 l 0,4.0455"
         style="font-size:46.5px;fill:#ffff00"
         id="path3016" />
      <path
         d="m 116.39213,736.90576 0,-10.881 c 0,-0.093 0,-0.1395 0,-0.2325 0,-1.023 -0.0465,-1.488 -1.302,-1.488 l -3.441,0 c -1.209,0 -1.8135,0.5115 -1.8135,1.581 0,1.1625 0.651,1.6275 2.0925,1.6275 0.3255,0 0.6975,0 1.023,0 l 0,10.23 c 0,5.30099 2.51101,7.998 7.4865,7.998 2.7435,0 4.6965,-1.06951 7.068,-2.9295 l 0,1.5345 c 0,0.558 0.4185,0.93 1.302,0.93 l 3.441,0 c 1.209,0 1.8135,-0.558 1.8135,-1.6275 0,-1.1625 -0.651,-1.581 -2.0925,-1.581 -0.3255,0 -0.6975,0 -1.023,0 l 0,-15.5775 c 0,-1.3485 0,-2.1855 -1.581,-2.1855 l -4.836,0 c -1.2555,0 -1.8135,0.465 -1.8135,1.581 0,1.116 0.465,1.6275 1.674,1.6275 l 3.1155,0 0,9.393 c 0,3.34799 -2.9295,5.487 -5.9985,5.487 -3.534,0 -5.115,-1.76701 -5.115,-5.487"
         style="font-size:46.5px;fill:#ffff00"
         id="path3018" />
      <path
         d="m 142.08629,735.09226 c 0,-4.5105 2.883,-7.4865 7.161,-7.4865 4.23149,0 7.161,3.069 7.161,7.254 0,4.18499 -3.02251,7.347 -7.2075,7.347 -4.0455,0 -7.1145,-2.83651 -7.1145,-7.1145 m 14.88,10.1835 4.3245,0 c 0.9765,0 1.6275,-0.6045 1.6275,-1.6275 0,-1.1625 -0.651,-1.581 -2.0925,-1.581 -0.3255,0 -0.6975,0 -1.023,0 l 0,-25.575 c 0,-0.651 -0.4185,-0.93 -1.302,-0.93 l -4.65,0 c -1.209,0 -1.8135,0.558 -1.8135,1.6275 0,1.488 0.9765,1.6275 3.1155,1.6275 l 1.209,0 0,8.6955 c -1.767,-2.1855 -4.27801,-3.255 -7.3935,-3.255 -6.138,0 -10.788,4.743 -10.788,10.7415 0,6.37049 4.371,10.8345 10.0905,10.8345 3.20849,0 5.9985,-1.30201 7.812,-3.5805 l 0,1.86 c 0,0.7905 0.186,1.1625 0.8835,1.1625"
         style="font-size:46.5px;fill:#ffff00"
         id="path3020" />
      <path
         d="m 189.96094,734.81326 c 0,-6.2775 -4.65,-11.0205 -11.8575,-11.0205 -7.20749,0 -11.904,4.6965 -11.904,11.0205 0,6.32399 4.69651,11.0205 11.904,11.0205 7.2075,0 11.8575,-4.69651 11.8575,-11.0205 m -11.8575,7.8585 c -4.69649,0 -7.9515,-3.34801 -7.9515,-7.8585 0,-4.5105 3.25501,-7.905 7.9515,-7.905 4.6965,0 7.9515,3.3945 7.9515,7.905 0,4.55699 -3.255,7.8585 -7.9515,7.8585"
         style="font-size:46.5px;fill:#ffff00"
         id="path3022" />
      <path
         d="m 239.21026,742.39276 0.2325,1.395 c 0.186,0.9765 0.744,1.488 1.581,1.488 l 3.5805,0 c 1.20899,0 1.8135,-0.558 1.8135,-1.6275 0,-1.3485 -0.79051,-1.581 -2.697,-1.581 l -1.1625,0 0,-10.2765 c 0,-5.487 -2.69701,-8.0445 -8.5095,-8.0445 -5.115,0 -8.463,1.6275 -8.463,3.2085 0,1.1625 0.6975,1.9065 1.5345,1.9065 1.76699,0 3.627,-1.9065 6.8355,-1.9065 3.48749,0 5.115,1.6275 5.115,5.115 0,0.0465 0,0.093 0,0.1395 -1.86,-0.465 -3.62701,-0.6975 -5.394,-0.6975 -6.7425,0 -10.509,2.8365 -10.509,7.533 0,3.99899 2.976,6.789 7.533,6.789 3.11549,0 6.045,-1.20901 8.5095,-3.441 m -0.1395,-7.161 0,2.4645 c 0,2.04599 -3.72001,4.65 -7.812,4.65 -2.6505,0 -4.464,-1.53451 -4.464,-3.534 0,-2.5575 2.6505,-4.371 7.4865,-4.371 1.67399,0 3.255,0.279 4.7895,0.7905"
         style="font-size:46.5px;fill:#ffff00"
         id="path3024" />
      <path
         d="m 263.18391,741.97426 c -4.23149,0 -7.161,-3.02251 -7.161,-7.1145 0,-4.092 2.92951,-7.1145 7.161,-7.1145 4.278,0 7.2075,3.0225 7.2075,7.1145 0,4.23149 -3.0225,7.1145 -7.2075,7.1145 m -7.068,9.114 0,-9.0675 c 1.86,2.13899 4.65001,3.3015 7.8585,3.3015 5.952,0 10.323,-4.18501 10.323,-10.23 0,-6.3705 -4.743,-10.8345 -10.695,-10.8345 -2.883,0 -5.394,1.0695 -7.44,3.162 l 0,-2.1855 c 0,-0.651 -0.4185,-0.93 -1.302,-0.93 l -3.4875,0 c -1.209,0 -1.8135,0.5115 -1.8135,1.581 0,1.1625 0.6975,1.6275 2.139,1.6275 0.3255,0 0.6975,0 1.023,0 l 0,23.5755 c -0.1395,0 -0.279,0 -0.4185,0 -1.9065,0 -2.7435,0.3255 -2.7435,1.6275 0,1.0695 0.6045,1.6275 1.8135,1.6275 l 10.044,0 c 1.3485,0 1.9065,-0.372 1.9065,-1.6275 0,-1.0695 -0.558,-1.6275 -1.7205,-1.6275 l -5.487,0"
         style="font-size:46.5px;fill:#ffff00"
         id="path3026" />
      <path
         d="m 296.17857,725.55976 -8.928,0 0,-4.6035 c 0,-2.232 -0.186,-3.162 -1.8135,-3.162 -1.209,0 -1.767,0.651 -1.767,1.9065 0,0.6045 0,1.023 0,1.209 l 0,4.65 -2.511,0 c -2.1855,0 -3.1155,0.1395 -3.1155,1.6275 0,1.116 0.558,1.581 1.8135,1.581 l 3.813,0 0,7.5795 c 0,0.2325 0,0.465 0,0.6975 0,2.09249 0.0465,3.906 0.837,5.2545 1.302,2.27849 3.72,3.3945 7.2075,3.3945 2.139,0 4.5105,-0.6045 7.347,-1.7205 1.674,-0.651 2.511,-1.302 2.511,-2.3715 0,-0.837 -0.744,-1.6275 -1.581,-1.6275 -1.8135,0 -4.83601,2.418 -8.5095,2.418 -3.999,0 -4.278,-2.41801 -4.278,-6.045 l 0,-7.5795 9.207,0 c 1.2555,0 1.9065,-0.5115 1.9065,-1.581 0,-1.1625 -0.6975,-1.6275 -2.139,-1.6275"
         style="font-size:46.5px;fill:#ffff00"
         id="path3028" />
      <path
         d="m 308.48072,736.99876 18.8325,0 c 0.558,0 1.0695,-0.5115 1.0695,-1.0695 l 0,-2.418 c 0,-0.558 -0.372,-0.93 -1.0695,-0.93 l -18.8325,0 c -0.6045,0 -0.9765,0.372 -0.9765,0.93 l 0,2.418 c 0,0.651 0.372,1.0695 0.9765,1.0695"
         style="font-size:46.5px;fill:#ffff00"
         id="path3030" />
      <path
         d="m 355.14638,744.06676 0,-16.554 c 0.1395,0 0.279,0 0.4185,0 1.9065,0 2.697,-0.3255 2.697,-1.6275 0,-1.0695 -0.6045,-1.581 -1.8135,-1.581 l -3.441,0 c -0.8835,0 -1.302,0.279 -1.302,0.93 l 0,1.6275 c -2.1855,-1.7205 -4.371,-2.604 -6.696,-2.604 -5.48699,0 -9.9975,4.1385 -9.9975,9.9975 0,5.95199 4.18501,10.0905 9.8115,10.0905 2.9295,0 5.0685,-0.97651 6.9285,-3.1155 l 0,2.7435 c 0,4.69649 -1.4415,6.8355 -6.1845,6.8355 -1.209,0 -2.4645,-0.3255 -3.813,-0.3255 -1.0695,0 -1.953,0.837 -1.953,1.767 0,1.488 1.6275,2.0925 4.9755,2.0925 4.2315,0 7.3005,-1.25551 8.9745,-3.441 1.3485,-1.767 1.395,-3.76651 1.395,-6.324 0,-0.186 0,-0.3255 0,-0.5115 m -9.858,-16.4145 c 3.999,0 6.7425,2.79 6.7425,6.603 0,3.85949 -2.79,6.603 -6.7425,6.603 -3.999,0 -6.7425,-2.79001 -6.7425,-6.603 0,-3.906 2.79,-6.603 6.7425,-6.603"
         style="font-size:46.5px;fill:#ffff00"
         id="path3032" />
      <path
         d="m 366.33254,732.81376 c 0.8835,-3.7665 3.813,-5.9985 7.812,-5.9985 3.67349,0 6.5565,2.3715 6.975,5.9985 l -14.787,0 m -0.093,2.976 15.252,0 c 2.78999,0 3.7665,-10e-6 3.7665,-2.139 0,-5.0685 -4.23151,-9.951 -11.1135,-9.951 -7.0215,0 -11.8575,4.5105 -11.8575,11.0205 0,6.78899 4.371,11.1135 11.3925,11.1135 3.06899,0 6.3705,-0.744 9.486,-2.2785 1.3485,-0.651 1.9995,-1.3485 1.9995,-2.2785 0,-0.837 -0.6975,-1.488 -1.581,-1.488 -2.046,0 -4.97551,2.8365 -9.579,2.8365 -4.6965,0 -7.533,-2.46451 -7.7655,-6.8355"
         style="font-size:46.5px;fill:#ffff00"
         id="path3034" />
      <path
         d="m 408.06919,725.55976 -8.928,0 0,-4.6035 c 0,-2.232 -0.186,-3.162 -1.8135,-3.162 -1.209,0 -1.767,0.651 -1.767,1.9065 0,0.6045 0,1.023 0,1.209 l 0,4.65 -2.511,0 c -2.18549,0 -3.1155,0.1395 -3.1155,1.6275 0,1.116 0.558,1.581 1.8135,1.581 l 3.813,0 0,7.5795 c 0,0.2325 0,0.465 0,0.6975 0,2.09249 0.0465,3.906 0.837,5.2545 1.302,2.27849 3.72001,3.3945 7.2075,3.3945 2.139,0 4.51051,-0.6045 7.347,-1.7205 1.674,-0.651 2.511,-1.302 2.511,-2.3715 0,-0.837 -0.744,-1.6275 -1.581,-1.6275 -1.8135,0 -4.836,2.418 -8.5095,2.418 -3.99899,0 -4.278,-2.41801 -4.278,-6.045 l 0,-7.5795 9.207,0 c 1.2555,0 1.9065,-0.5115 1.9065,-1.581 0,-1.1625 -0.6975,-1.6275 -2.139,-1.6275"
         style="font-size:46.5px;fill:#ffff00"
         id="path3036" />
      <path
         d="m 40.332662,800.19226 0,-16.833 c 0,-0.558 -0.418501,-0.93 -1.302,-0.93 l -6.6495,0 c -1.208999,0 -1.8135,0.5115 -1.8135,1.581 0,1.0695 0.651001,1.6275 1.9065,1.6275 l 4.4175,0 0,14.5545 -6.9285,0 c -1.255499,0 -1.9065,0.5115 -1.9065,1.581 0,1.0695 0.604501,1.6275 1.8135,1.6275 l 17.6235,0 c 1.348499,0 1.86,-0.3255 1.86,-1.6275 0,-1.116 -0.558001,-1.581 -1.7205,-1.581 l -7.3005,0 m -4.2315,-24.3195 c 0,1.85999 0.465002,2.232 2.3715,2.232 2.185498,0 2.325,-0.51151 2.325,-2.883 0,-2.3715 -0.232502,-3.069 -2.325,-3.069 -2.092498,0 -2.3715,0.6975 -2.3715,3.72"
         style="font-size:46.5px;fill:#ffff00"
         id="path3038" />
      <path
         d="m 57.749818,800.19226 c -0.186,0 -0.3255,0 -0.465,0 -1.859998,0 -2.6505,0.279 -2.6505,1.581 0,1.0695 0.604501,1.6275 1.9065,1.6275 0.6045,0 1.023,0 1.209,0 l 4.1385,0 c 1.720498,0 2.418,-0.093 2.418,-1.6275 0,-1.2555 -0.604501,-1.6275 -2.1855,-1.6275 -0.279,0 -0.6045,0.0465 -0.9765,0.0465 l 0,-9.4395 c 0,-3.3945 3.162003,-5.4405 5.9055,-5.4405 2.975997,0 4.65,1.8135 4.65,5.4405 l 0,9.4395 c -0.279,0 -0.5115,0 -0.744,0 -1.627498,0 -2.2785,0.3255 -2.2785,1.581 0,1.488 0.651002,1.6275 2.2785,1.6275 l 5.022,0 c 1.627499,0 2.418,-0.3255 2.418,-1.6275 0,-1.1625 -0.697501,-1.581 -2.139,-1.581 -0.3255,0 -0.6975,0 -1.023,0 l 0,-10.2765 c 0,-5.2545 -3.069004,-8.091 -7.3935,-8.091 -2.371497,0 -4.464002,1.023 -6.6495,3.069 l 0,-1.5345 c 0,-0.558 -0.418501,-0.93 -1.302,-0.93 l -2.139,0 c -2.092498,0 -3.1155,0 -3.1155,1.581 0,1.1625 0.651002,1.6275 2.0925,1.6275 0.3255,0 0.6975,0 1.023,0 l 0,14.5545"
         style="font-size:46.5px;fill:#ffff00"
         id="path3040" />
      <path
         d="m 84.234474,801.77326 c 0,1.4415 0.604501,2.1855 1.674,2.1855 0.5115,0 1.255501,-0.372 2.325,-1.0695 2.557498,0.651 4.836002,1.023 6.882,1.023 5.672996,0 8.881496,-2.83651 8.881496,-6.7425 0,-4.464 -3.1155,-6.231 -9.113996,-6.3705 -4.463995,-0.093 -7.068,-0.32551 -7.068,-2.7435 0,-1.8135 1.720503,-3.348 4.743,-3.348 2.371498,0 4.045502,0.558 5.766,2.0925 1.348499,1.209 1.813506,2.3715 2.836496,2.3715 1.116,0 1.5345,-0.7905 1.5345,-2.2785 l 0,-2.6505 c 0,-1.5345 -0.5115,-2.2785 -1.5345,-2.2785 -1.208994,0 -1.673996,0.8835 -2.324996,0.8835 -0.650999,0 -2.464503,-1.023 -5.766,-1.023 -5.626494,0 -8.742,2.604 -8.742,6.3705 0,4.04549 3.301507,6.2775 9.486,6.2775 0.651,0 1.069501,0 1.302,0 3.440997,0 5.114996,0.651 5.114996,2.976 0,2.04599 -2.045999,3.534 -5.347496,3.534 -3.068997,0 -5.673001,-1.116 -6.882,-2.697 -0.883499,-1.1625 -0.744001,-2.418 -2.139,-2.418 -1.208998,0 -1.6275,0.651 -1.6275,1.86 l 0,4.0455"
         style="font-size:46.5px;fill:#ffff00"
         id="path3042" />
      <path
         d="m 128.34263,783.68476 -8.928,0 0,-4.6035 c 0,-2.232 -0.186,-3.162 -1.8135,-3.162 -1.209,0 -1.767,0.651 -1.767,1.9065 0,0.6045 0,1.023 0,1.209 l 0,4.65 -2.511,0 c -2.1855,0 -3.1155,0.1395 -3.1155,1.6275 0,1.116 0.558,1.581 1.8135,1.581 l 3.813,0 0,7.5795 c 0,0.2325 0,0.465 0,0.6975 0,2.09249 0.0465,3.906 0.837,5.2545 1.302,2.27849 3.72,3.3945 7.2075,3.3945 2.139,0 4.5105,-0.6045 7.347,-1.7205 1.674,-0.651 2.511,-1.302 2.511,-2.3715 0,-0.837 -0.744,-1.6275 -1.581,-1.6275 -1.8135,0 -4.836,2.418 -8.5095,2.418 -3.999,0 -4.278,-2.41801 -4.278,-6.045 l 0,-7.5795 9.207,0 c 1.2555,0 1.9065,-0.5115 1.9065,-1.581 0,-1.1625 -0.6975,-1.6275 -2.139,-1.6275"
         style="font-size:46.5px;fill:#ffff00"
         id="path3044" />
      <path
         d="m 155.29229,800.51776 0.2325,1.395 c 0.186,0.9765 0.744,1.488 1.581,1.488 l 3.5805,0 c 1.209,0 1.8135,-0.558 1.8135,-1.6275 0,-1.3485 -0.79051,-1.581 -2.697,-1.581 l -1.1625,0 0,-10.2765 c 0,-5.487 -2.69701,-8.0445 -8.5095,-8.0445 -5.115,0 -8.463,1.6275 -8.463,3.2085 0,1.1625 0.6975,1.9065 1.5345,1.9065 1.767,0 3.627,-1.9065 6.8355,-1.9065 3.48749,0 5.115,1.6275 5.115,5.115 0,0.0465 0,0.093 0,0.1395 -1.86,-0.465 -3.627,-0.6975 -5.394,-0.6975 -6.7425,0 -10.509,2.8365 -10.509,7.533 0,3.99899 2.976,6.789 7.533,6.789 3.11549,0 6.045,-1.20901 8.5095,-3.441 m -0.1395,-7.161 0,2.4645 c 0,2.04599 -3.72001,4.65 -7.812,4.65 -2.6505,0 -4.464,-1.53451 -4.464,-3.534 0,-2.5575 2.6505,-4.371 7.4865,-4.371 1.674,0 3.255,0.279 4.7895,0.7905"
         style="font-size:46.5px;fill:#ffff00"
         id="path3046" />
      <path
         d="m 176.56894,776.94226 0,23.25 -6.2775,0 c -1.2555,0 -1.9065,0.5115 -1.9065,1.581 0,1.0695 0.6045,1.6275 1.8135,1.6275 l 16.74,0 c 1.3485,0 1.86,-0.3255 1.86,-1.6275 0,-1.116 -0.558,-1.581 -1.7205,-1.581 l -7.068,0 0,-25.575 c 0,-0.558 -0.4185,-0.93 -1.302,-0.93 l -7.4865,0 c -1.209,0 -1.8135,0.558 -1.8135,1.6275 0,1.1625 0.651,1.581 2.139,1.581 0.2325,0 0.651,0.0465 1.1625,0.0465 l 3.8595,0"
         style="font-size:46.5px;fill:#ffff00"
         id="path3048" />
      <path
         d="m 204.5416,776.94226 0,23.25 -6.2775,0 c -1.2555,0 -1.9065,0.5115 -1.9065,1.581 0,1.0695 0.6045,1.6275 1.8135,1.6275 l 16.74,0 c 1.3485,0 1.86,-0.3255 1.86,-1.6275 0,-1.116 -0.558,-1.581 -1.7205,-1.581 l -7.068,0 0,-25.575 c 0,-0.558 -0.4185,-0.93 -1.302,-0.93 l -7.4865,0 c -1.209,0 -1.8135,0.558 -1.8135,1.6275 0,1.1625 0.651,1.581 2.139,1.581 0.2325,0 0.651,0.0465 1.1625,0.0465 l 3.8595,0"
         style="font-size:46.5px;fill:#ffff00"
         id="path3050" />
      <path
         d="m 251.93091,786.84676 c -1.5345,0.6975 -2.325,0.9765 -2.325,2.1855 0,1.209 0.8835,1.5345 2.325,2.1855 l 18.042,8.4165 c 0.744,0.3255 1.2555,0.558 1.8135,0.558 0.93,0 1.488,-0.558 1.488,-1.4415 0,-0.93 -0.651,-1.488 -1.86,-2.046 l -16.0425,-7.626 16.0425,-7.626 c 1.209,-0.558 1.86,-1.0695 1.86,-1.9995 0,-0.8835 -0.558,-1.4415 -1.488,-1.4415 -0.5115,0 -1.0695,0.186 -1.8135,0.558 l -18.042,8.277"
         style="font-size:46.5px;fill:#ffff00"
         id="path3052" />
      <path
         d="m 281.53107,800.19226 c -0.186,0 -0.3255,0 -0.465,0 -1.86,0 -2.6505,0.279 -2.6505,1.581 0,1.0695 0.6045,1.6275 1.9065,1.6275 0.6045,0 1.023,0 1.209,0 l 4.1385,0 c 1.7205,0 2.418,-0.093 2.418,-1.6275 0,-1.2555 -0.6045,-1.6275 -2.1855,-1.6275 -0.279,0 -0.6045,0.0465 -0.9765,0.0465 l 0,-9.4395 c 0,-3.3945 3.162,-5.4405 5.9055,-5.4405 2.976,0 4.65,1.8135 4.65,5.4405 l 0,9.4395 c -0.279,0 -0.5115,0 -0.744,0 -1.6275,0 -2.2785,0.3255 -2.2785,1.581 0,1.488 0.651,1.6275 2.2785,1.6275 l 5.022,0 c 1.6275,0 2.418,-0.3255 2.418,-1.6275 0,-1.1625 -0.6975,-1.581 -2.139,-1.581 -0.3255,0 -0.6975,0 -1.023,0 l 0,-10.2765 c 0,-5.2545 -3.06901,-8.091 -7.3935,-8.091 -2.3715,0 -4.464,1.023 -6.6495,3.069 l 0,-1.5345 c 0,-0.558 -0.4185,-0.93 -1.302,-0.93 l -2.139,0 c -2.0925,0 -3.1155,0 -3.1155,1.581 0,1.1625 0.651,1.6275 2.0925,1.6275 0.3255,0 0.6975,0 1.023,0 l 0,14.5545"
         style="font-size:46.5px;fill:#ffff00"
         id="path3054" />
      <path
         d="m 310.38722,790.93876 c 0.8835,-3.7665 3.81301,-5.9985 7.812,-5.9985 3.6735,0 6.5565,2.3715 6.975,5.9985 l -14.787,0 m -0.093,2.976 15.252,0 c 2.79,0 3.7665,-10e-6 3.7665,-2.139 0,-5.0685 -4.2315,-9.951 -11.1135,-9.951 -7.02149,0 -11.8575,4.5105 -11.8575,11.0205 0,6.78899 4.37101,11.1135 11.3925,11.1135 3.069,0 6.37051,-0.744 9.486,-2.2785 1.3485,-0.651 1.9995,-1.3485 1.9995,-2.2785 0,-0.837 -0.6975,-1.488 -1.581,-1.488 -2.04599,0 -4.9755,2.8365 -9.579,2.8365 -4.69649,0 -7.533,-2.46451 -7.7655,-6.8355"
         style="font-size:46.5px;fill:#ffff00"
         id="path3056" />
      <path
         d="m 345.75338,791.86876 3.0225,10.323 c 0.4185,1.395 0.8835,1.9995 2.232,1.9995 1.0695,0 1.581,-0.4185 1.9065,-1.5345 l 5.115,-17.019 c 1.4415,0 1.953,-0.4185 1.953,-1.6275 0,-1.0695 -0.5115,-1.581 -1.395,-1.581 l -6.0915,0 c -1.4415,0 -1.9995,0.279 -1.9995,1.581 0,1.3485 0.744,1.674 2.6505,1.674 0.465,0 0.9765,0 1.581,-0.0465 l -3.813,13.6245 -2.8365,-9.4395 c -0.4185,-1.395 -0.8835,-1.9995 -2.232,-1.9995 -1.0695,0 -1.581,0.465 -1.9065,1.5345 l -2.9295,9.9045 -3.906,-13.6245 c 0.558,0.0465 1.023,0.0465 1.488,0.0465 1.9995,0 2.79,-0.3255 2.79,-1.674 0,-1.3485 -0.6045,-1.581 -2.046,-1.581 l -6.0915,0 c -1.1625,0 -1.7205,0.558 -1.7205,1.581 0,1.209 0.558,1.6275 1.9995,1.6275 l 5.208,16.554 c 0.4185,1.395 0.8835,1.9995 2.232,1.9995 1.023,0 1.6275,-0.465 1.9065,-1.5345 l 2.883,-10.788"
         style="font-size:46.5px;fill:#ffff00"
         id="path3058" />
      <path
         d="m 383.81654,787.45126 -8.2305,0 0,-8.556 c 0,-1.0695 -0.651,-1.8135 -1.674,-1.8135 -1.023,0 -1.7205,0.744 -1.7205,1.8135 l 0,8.556 -8.184,0 c -0.9765,0 -1.8135,0.744 -1.8135,1.674 0,0.9765 0.744,1.6275 1.8135,1.6275 l 8.184,0 0,8.5095 c 0,0.9765 0.7905,1.8135 1.7205,1.8135 1.023,0 1.674,-0.744 1.674,-1.8135 l 0,-8.5095 8.2305,0 c 1.0695,0 1.8135,-0.651 1.8135,-1.6275 0,-1.023 -0.744,-1.674 -1.8135,-1.674"
         style="font-size:46.5px;fill:#ffff00"
         id="path3060" />
      <path
         d="m 407.04619,800.51776 0.2325,1.395 c 0.186,0.9765 0.744,1.488 1.581,1.488 l 3.5805,0 c 1.209,0 1.8135,-0.558 1.8135,-1.6275 0,-1.3485 -0.7905,-1.581 -2.697,-1.581 l -1.1625,0 0,-10.2765 c 0,-5.487 -2.697,-8.0445 -8.5095,-8.0445 -5.11499,0 -8.463,1.6275 -8.463,3.2085 0,1.1625 0.6975,1.9065 1.5345,1.9065 1.767,0 3.62701,-1.9065 6.8355,-1.9065 3.4875,0 5.115,1.6275 5.115,5.115 0,0.0465 0,0.093 0,0.1395 -1.86,-0.465 -3.627,-0.6975 -5.394,-0.6975 -6.74249,0 -10.509,2.8365 -10.509,7.533 0,3.99899 2.97601,6.789 7.533,6.789 3.1155,0 6.04501,-1.20901 8.5095,-3.441 m -0.1395,-7.161 0,2.4645 c 0,2.04599 -3.72,4.65 -7.812,4.65 -2.65049,0 -4.464,-1.53451 -4.464,-3.534 0,-2.5575 2.65051,-4.371 7.4865,-4.371 1.674,0 3.255,0.279 4.7895,0.7905"
         style="font-size:46.5px;fill:#ffff00"
         id="path3062" />
      <path
         d="m 431.01985,800.09926 c -4.2315,0 -7.161,-3.02251 -7.161,-7.1145 0,-4.092 2.9295,-7.1145 7.161,-7.1145 4.278,0 7.2075,3.0225 7.2075,7.1145 0,4.23149 -3.0225,7.1145 -7.2075,7.1145 m -7.068,9.114 0,-9.0675 c 1.86,2.13899 4.65,3.3015 7.8585,3.3015 5.95199,0 10.323,-4.18501 10.323,-10.23 0,-6.3705 -4.74301,-10.8345 -10.695,-10.8345 -2.883,0 -5.394,1.0695 -7.44,3.162 l 0,-2.1855 c 0,-0.651 -0.4185,-0.93 -1.302,-0.93 l -3.4875,0 c -1.209,0 -1.8135,0.5115 -1.8135,1.581 0,1.1625 0.6975,1.6275 2.139,1.6275 0.3255,0 0.6975,0 1.023,0 l 0,23.5755 c -0.1395,0 -0.279,0 -0.4185,0 -1.9065,0 -2.7435,0.3255 -2.7435,1.6275 0,1.0695 0.6045,1.6275 1.8135,1.6275 l 10.044,0 c 1.3485,0 1.9065,-0.372 1.9065,-1.6275 0,-1.0695 -0.558,-1.6275 -1.7205,-1.6275 l -5.487,0"
         style="font-size:46.5px;fill:#ffff00"
         id="path3064" />
      <path
         d="m 458.99251,800.09926 c -4.2315,0 -7.161,-3.02251 -7.161,-7.1145 0,-4.092 2.9295,-7.1145 7.161,-7.1145 4.27799,0 7.2075,3.0225 7.2075,7.1145 0,4.23149 -3.02251,7.1145 -7.2075,7.1145 m -7.068,9.114 0,-9.0675 c 1.85999,2.13899 4.65,3.3015 7.8585,3.3015 5.95199,0 10.323,-4.18501 10.323,-10.23 0,-6.3705 -4.74301,-10.8345 -10.695,-10.8345 -2.883,0 -5.39401,1.0695 -7.44,3.162 l 0,-2.1855 c 0,-0.651 -0.41851,-0.93 -1.302,-0.93 l -3.4875,0 c -1.209,0 -1.8135,0.5115 -1.8135,1.581 0,1.1625 0.6975,1.6275 2.139,1.6275 0.3255,0 0.6975,0 1.023,0 l 0,23.5755 c -0.1395,0 -0.279,0 -0.4185,0 -1.9065,0 -2.7435,0.3255 -2.7435,1.6275 0,1.0695 0.6045,1.6275 1.8135,1.6275 l 10.044,0 c 1.34849,0 1.9065,-0.372 1.9065,-1.6275 0,-1.0695 -0.55801,-1.6275 -1.7205,-1.6275 l -5.487,0"
         style="font-size:46.5px;fill:#ffff00"
         id="path3066" />
      <path
         d="m 495.89316,791.35726 c 1.5345,-0.6975 2.325,-0.9765 2.325,-2.1855 0,-1.209 -0.8835,-1.5345 -2.325,-2.1855 l -18.042,-8.4165 c -0.744,-0.3255 -1.2555,-0.558 -1.8135,-0.558 -0.93,0 -1.488,0.558 -1.488,1.4415 0,0.93 0.6975,1.4415 1.9065,1.9995 l 15.996,7.6725 -15.996,7.5795 c -1.209,0.558 -1.9065,1.116 -1.9065,2.046 0,0.8835 0.558,1.4415 1.488,1.4415 0.5115,0 1.0695,-0.186 1.8135,-0.558 l 18.042,-8.277"
         style="font-size:46.5px;fill:#ffff00"
         id="path3068" />
    </g>
    <g
       style="font-size:25.04329872px;font-style:normal;font-variant:normal;font-weight:normal;font-stretch:normal;line-height:125%;letter-spacing:0px;word-spacing:0px;fill:#999999;fill-opacity:1;stroke:none;font-family:Ubuntu;-inkscape-font-specification:Ubuntu"
       id="text2991">
      <path
         d="m 41.317252,1034.926 c -0.366681,-0.6166 -0.79168,-1.3083 -1.275,-2.075 -0.466679,-0.7666 -0.975012,-1.5583 -1.525,-2.375 -0.550011,-0.8333 -1.125011,-1.675 -1.725,-2.525 -0.583343,-0.85 -1.166675,-1.6666 -1.75,-2.45 -0.583341,-0.8 -1.150007,-1.55 -1.7,-2.25 -0.550006,-0.7 -1.058339,-1.3166 -1.525,-1.85 l 0,13.525 -2.375,0 0,-17.325 1.925,0 c 0.783328,0.8334 1.616661,1.8084 2.5,2.925 0.899992,1.1 1.783325,2.2417 2.65,3.425 0.883323,1.1667 1.708322,2.3167 2.475,3.45 0.78332,1.1334 1.441653,2.1417 1.975,3.025 l 0,-12.825 2.375,0 0,17.325 -2.025,0"
         style="font-size:25px;fill:#999999"
         id="path3071" />
      <path
         d="m 46.780142,1028.451 c -10e-7,-1.15 0.166665,-2.15 0.5,-3 0.333331,-0.8666 0.774998,-1.5833 1.325,-2.15 0.549997,-0.5666 1.183329,-0.9916 1.9,-1.275 0.716661,-0.2833 1.449994,-0.425 2.2,-0.425 1.749991,0 3.091657,0.55 4.025,1.65 0.933321,1.0834 1.399988,2.7417 1.4,4.975 -1.2e-5,0.1 -1.2e-5,0.2334 0,0.4 -1.2e-5,0.15 -0.0083,0.2917 -0.025,0.425 l -8.9,0 c 0.1,1.35 0.491663,2.375 1.175,3.075 0.683328,0.7 1.749994,1.05 3.2,1.05 0.816658,0 1.499991,-0.067 2.05,-0.2 0.566656,-0.15 0.991656,-0.2916 1.275,-0.425 l 0.325,1.95 c -0.283345,0.15 -0.783344,0.3084 -1.5,0.475 -0.700009,0.1667 -1.500009,0.25 -2.4,0.25 -1.13334,0 -2.116672,-0.1666 -2.95,-0.5 -0.816671,-0.35 -1.49167,-0.825 -2.025,-1.425 -0.533335,-0.6 -0.933335,-1.3083 -1.2,-2.125 -0.250001,-0.8333 -0.375001,-1.7416 -0.375,-2.725 m 8.925,-1.275 c 0.01666,-1.05 -0.25001,-1.9083 -0.8,-2.575 -0.533342,-0.6833 -1.275008,-1.025 -2.225,-1.025 -0.53334,0 -1.008339,0.1084 -1.425,0.325 -0.400005,0.2 -0.741671,0.4667 -1.025,0.8 -0.283338,0.3334 -0.508337,0.7167 -0.675,1.15 -0.150004,0.4334 -0.250004,0.875 -0.3,1.325 l 6.45,0"
         style="font-size:25px;fill:#999999"
         id="path3073" />
      <path
         d="m 72.094986,1034.926 c -0.466679,-1.2 -0.966678,-2.5666 -1.5,-4.1 -0.516677,-1.55 -0.991677,-3.1583 -1.425,-4.825 -0.433343,1.6667 -0.908342,3.275 -1.425,4.825 -0.516674,1.5334 -1.008341,2.9 -1.475,4.1 l -2.025,0 c -0.766671,-1.7166 -1.51667,-3.675 -2.25,-5.875 -0.733335,-2.2 -1.425001,-4.575 -2.075,-7.125 l 2.5,0 c 0.166664,0.7834 0.366663,1.6334 0.6,2.55 0.23333,0.9167 0.474996,1.8334 0.725,2.75 0.266662,0.9167 0.541662,1.8 0.825,2.65 0.283328,0.85 0.549994,1.5917 0.8,2.225 0.283327,-0.7833 0.558327,-1.6083 0.825,-2.475 0.283326,-0.8833 0.549993,-1.7666 0.8,-2.65 0.249992,-0.9 0.483325,-1.775 0.7,-2.625 0.233325,-0.8666 0.433325,-1.675 0.6,-2.425 l 1.925,0 c 0.149989,0.75 0.333322,1.5584 0.55,2.425 0.216655,0.85 0.449988,1.725 0.7,2.625 0.249988,0.8834 0.508321,1.7667 0.775,2.65 0.28332,0.8667 0.566653,1.6917 0.85,2.475 0.249986,-0.6333 0.508319,-1.375 0.775,-2.225 0.283319,-0.85 0.558318,-1.7333 0.825,-2.65 0.266651,-0.9166 0.516651,-1.8333 0.75,-2.75 0.233317,-0.9166 0.433317,-1.7666 0.6,-2.55 l 2.4,0 c -0.650018,2.55 -1.341684,4.925 -2.075,7.125 -0.73335,2.2 -1.483349,4.1584 -2.25,5.875 l -2.025,0"
         style="font-size:25px;fill:#999999"
         id="path3075" />
      <path
         d="m 98.140298,1028.426 c -1.3e-5,1.0334 -0.150013,1.9667 -0.45,2.8 -0.300012,0.8334 -0.725012,1.55 -1.275,2.15 -0.533344,0.6 -1.17501,1.0667 -1.925,1.4 -0.750009,0.3167 -1.566674,0.475 -2.45,0.475 -0.883339,0 -1.700005,-0.1583 -2.45,-0.475 -0.750004,-0.3333 -1.400003,-0.8 -1.95,-1.4 -0.533335,-0.6 -0.950002,-1.3166 -1.25,-2.15 -0.300001,-0.8333 -0.450001,-1.7666 -0.45,-2.8 -10e-7,-1.0166 0.149999,-1.9416 0.45,-2.775 0.299998,-0.85 0.716665,-1.575 1.25,-2.175 0.549997,-0.6 1.199996,-1.0583 1.95,-1.375 0.749995,-0.3333 1.566661,-0.5 2.45,-0.5 0.883326,0 1.699991,0.1667 2.45,0.5 0.74999,0.3167 1.391656,0.775 1.925,1.375 0.549988,0.6 0.974988,1.325 1.275,2.175 0.299987,0.8334 0.449987,1.7584 0.45,2.775 m -2.425,0 c -1.1e-5,-1.4666 -0.333344,-2.625 -1,-3.475 -0.650009,-0.8666 -1.541675,-1.3 -2.675,-1.3 -1.133339,0 -2.033338,0.4334 -2.7,1.3 -0.650004,0.85 -0.975003,2.0084 -0.975,3.475 -3e-6,1.4667 0.324996,2.6334 0.975,3.5 0.666662,0.85 1.566661,1.275 2.7,1.275 1.133325,0 2.024991,-0.425 2.675,-1.275 0.666656,-0.8666 0.999989,-2.0333 1,-3.5"
         style="font-size:25px;fill:#999999"
         id="path3077" />
      <path
         d="m 110.43639,1028.451 c -1e-5,-1.5166 -0.37501,-2.6833 -1.125,-3.5 -0.75001,-0.8166 -1.75001,-1.225 -3,-1.225 -0.7,0 -1.25,0.025 -1.65,0.075 -0.38334,0.05 -0.69167,0.1084 -0.925,0.175 l 0,8.2 c 0.28333,0.2334 0.69166,0.4584 1.225,0.675 0.53333,0.2167 1.11666,0.325 1.75,0.325 0.66666,0 1.23333,-0.1166 1.7,-0.35 0.48333,-0.25 0.87499,-0.5833 1.175,-1 0.29999,-0.4333 0.51666,-0.9333 0.65,-1.5 0.13332,-0.5833 0.19999,-1.2083 0.2,-1.875 m 2.425,0 c -1e-5,0.9834 -0.13334,1.8917 -0.4,2.725 -0.25001,0.8334 -0.62501,1.55 -1.125,2.15 -0.50001,0.6 -1.11668,1.0667 -1.85,1.4 -0.71667,0.3334 -1.54167,0.5 -2.475,0.5 -0.75,0 -1.41667,-0.1 -2,-0.3 -0.56667,-0.2 -0.99167,-0.3916 -1.275,-0.575 l 0,5.2 -2.325,0 0,-17.225 c 0.55,-0.1333 1.23333,-0.275 2.05,-0.425 0.83333,-0.1666 1.79166,-0.25 2.875,-0.25 0.99999,0 1.89999,0.1584 2.7,0.475 0.79999,0.3167 1.48332,0.7667 2.05,1.35 0.56666,0.5834 0.99999,1.3 1.3,2.15 0.31666,0.8334 0.47499,1.775 0.475,2.825"
         style="font-size:25px;fill:#999999"
         id="path3079" />
      <path
         d="m 125.18249,1028.451 c -2e-5,-1.5166 -0.37501,-2.6833 -1.125,-3.5 -0.75001,-0.8166 -1.75001,-1.225 -3,-1.225 -0.70001,0 -1.25001,0.025 -1.65,0.075 -0.38334,0.05 -0.69168,0.1084 -0.925,0.175 l 0,8.2 c 0.28332,0.2334 0.69166,0.4584 1.225,0.675 0.53332,0.2167 1.11666,0.325 1.75,0.325 0.66665,0 1.23332,-0.1166 1.7,-0.35 0.48332,-0.25 0.87499,-0.5833 1.175,-1 0.29999,-0.4333 0.51665,-0.9333 0.65,-1.5 0.13332,-0.5833 0.19998,-1.2083 0.2,-1.875 m 2.425,0 c -2e-5,0.9834 -0.13335,1.8917 -0.4,2.725 -0.25002,0.8334 -0.62502,1.55 -1.125,2.15 -0.50002,0.6 -1.11668,1.0667 -1.85,1.4 -0.71668,0.3334 -1.54168,0.5 -2.475,0.5 -0.75001,0 -1.41668,-0.1 -2,-0.3 -0.56668,-0.2 -0.99168,-0.3916 -1.275,-0.575 l 0,5.2 -2.325,0 0,-17.225 c 0.54999,-0.1333 1.23333,-0.275 2.05,-0.425 0.83332,-0.1666 1.79166,-0.25 2.875,-0.25 0.99999,0 1.89999,0.1584 2.7,0.475 0.79999,0.3167 1.48332,0.7667 2.05,1.35 0.56665,0.5834 0.99998,1.3 1.3,2.15 0.31665,0.8334 0.47498,1.775 0.475,2.825"
         style="font-size:25px;fill:#999999"
         id="path3081" />
      <path
         d="m 142.37858,1028.426 c -1e-5,1.0334 -0.15001,1.9667 -0.45,2.8 -0.30001,0.8334 -0.72501,1.55 -1.275,2.15 -0.53334,0.6 -1.17501,1.0667 -1.925,1.4 -0.75001,0.3167 -1.56668,0.475 -2.45,0.475 -0.88334,0 -1.70001,-0.1583 -2.45,-0.475 -0.75,-0.3333 -1.4,-0.8 -1.95,-1.4 -0.53334,-0.6 -0.95,-1.3166 -1.25,-2.15 -0.3,-0.8333 -0.45,-1.7666 -0.45,-2.8 0,-1.0166 0.15,-1.9416 0.45,-2.775 0.3,-0.85 0.71666,-1.575 1.25,-2.175 0.55,-0.6 1.2,-1.0583 1.95,-1.375 0.74999,-0.3333 1.56666,-0.5 2.45,-0.5 0.88332,0 1.69999,0.1667 2.45,0.5 0.74999,0.3167 1.39166,0.775 1.925,1.375 0.54999,0.6 0.97499,1.325 1.275,2.175 0.29999,0.8334 0.44999,1.7584 0.45,2.775 m -2.425,0 c -10e-6,-1.4666 -0.33334,-2.625 -1,-3.475 -0.65001,-0.8666 -1.54168,-1.3 -2.675,-1.3 -1.13334,0 -2.03334,0.4334 -2.7,1.3 -0.65,0.85 -0.975,2.0084 -0.975,3.475 0,1.4667 0.325,2.6334 0.975,3.5 0.66666,0.85 1.56666,1.275 2.7,1.275 1.13332,0 2.02499,-0.425 2.675,-1.275 0.66666,-0.8666 0.99999,-2.0333 1,-3.5"
         style="font-size:25px;fill:#999999"
         id="path3083" />
      <path
         d="m 150.44967,1021.651 c 0.2,0 0.425,0.017 0.675,0.05 0.26666,0.017 0.525,0.05 0.775,0.1 0.24999,0.033 0.47499,0.075 0.675,0.125 0.21666,0.033 0.37499,0.067 0.475,0.1 l -0.4,2.025 c -0.18334,-0.067 -0.49167,-0.1416 -0.925,-0.225 -0.41667,-0.1 -0.95834,-0.15 -1.625,-0.15 -0.43334,0 -0.86667,0.05 -1.3,0.15 -0.41667,0.083 -0.69167,0.1417 -0.825,0.175 l 0,10.925 -2.325,0 0,-12.45 c 0.55,-0.2 1.23333,-0.3833 2.05,-0.55 0.81667,-0.1833 1.73333,-0.275 2.75,-0.275"
         style="font-size:25px;fill:#999999"
         id="path3085" />
      <path
         d="m 157.49264,1021.926 4.925,0 0,1.95 -4.925,0 0,6 c 0,0.65 0.05,1.1917 0.15,1.625 0.1,0.4167 0.25,0.75 0.45,1 0.2,0.2334 0.45,0.4 0.75,0.5 0.3,0.1 0.65,0.15 1.05,0.15 0.69999,0 1.25833,-0.075 1.675,-0.225 0.43333,-0.1666 0.73333,-0.2833 0.9,-0.35 l 0.45,1.925 c -0.23334,0.1167 -0.64167,0.2584 -1.225,0.425 -0.58334,0.1834 -1.25,0.275 -2,0.275 -0.88334,0 -1.61667,-0.1083 -2.2,-0.325 -0.56667,-0.2333 -1.025,-0.575 -1.375,-1.025 -0.35,-0.45 -0.6,-1 -0.75,-1.65 -0.13333,-0.6666 -0.2,-1.4333 -0.2,-2.3 l 0,-11.6 2.325,-0.4 0,4.025"
         style="font-size:25px;fill:#999999"
         id="path3087" />
      <path
         d="m 175.72624,1034.551 c -0.53335,0.1334 -1.24168,0.275 -2.125,0.425 -0.86668,0.15 -1.87501,0.225 -3.025,0.225 -1.00001,0 -1.84168,-0.1416 -2.525,-0.425 -0.68334,-0.3 -1.23334,-0.7166 -1.65,-1.25 -0.41667,-0.5333 -0.71667,-1.1583 -0.9,-1.875 -0.18334,-0.7333 -0.27501,-1.5416 -0.275,-2.425 l 0,-7.3 2.325,0 0,6.8 c -1e-5,1.5834 0.24999,2.7167 0.75,3.4 0.49999,0.6834 1.34166,1.025 2.525,1.025 0.24999,0 0.50832,-0.01 0.775,-0.025 0.26665,-0.017 0.51665,-0.033 0.75,-0.05 0.23332,-0.033 0.44165,-0.058 0.625,-0.075 0.19999,-0.033 0.34165,-0.067 0.425,-0.1 l 0,-10.975 2.325,0 0,12.625"
         style="font-size:25px;fill:#999999"
         id="path3089" />
      <path
         d="m 179.7317,1022.301 c 0.53334,-0.1333 1.24167,-0.275 2.125,-0.425 0.88333,-0.15 1.9,-0.225 3.05,-0.225 1.03333,0 1.89166,0.15 2.575,0.45 0.68333,0.2834 1.22499,0.6917 1.625,1.225 0.41666,0.5167 0.70833,1.1417 0.875,1.875 0.16666,0.7334 0.24999,1.5417 0.25,2.425 l 0,7.3 -2.325,0 0,-6.8 c -1e-5,-0.8 -0.0583,-1.4833 -0.175,-2.05 -0.10001,-0.5666 -0.27501,-1.025 -0.525,-1.375 -0.25,-0.35 -0.58334,-0.6 -1,-0.75 -0.41667,-0.1666 -0.93334,-0.25 -1.55,-0.25 -0.25,0 -0.50834,0.01 -0.775,0.025 -0.26667,0.017 -0.525,0.042 -0.775,0.075 -0.23333,0.017 -0.45,0.042 -0.65,0.075 -0.18333,0.033 -0.31667,0.058 -0.4,0.075 l 0,10.975 -2.325,0 0,-12.625"
         style="font-size:25px;fill:#999999"
         id="path3091" />
      <path
         d="m 196.41217,1034.926 -2.325,0 0,-13 2.325,0 0,13 m -1.175,-15.35 c -0.41667,0 -0.775,-0.1333 -1.075,-0.4 -0.28333,-0.2833 -0.425,-0.6583 -0.425,-1.125 0,-0.4666 0.14167,-0.8333 0.425,-1.1 0.3,-0.2833 0.65833,-0.425 1.075,-0.425 0.41667,0 0.76667,0.1417 1.05,0.425 0.3,0.2667 0.45,0.6334 0.45,1.1 0,0.4667 -0.15,0.8417 -0.45,1.125 -0.28333,0.2667 -0.63333,0.4 -1.05,0.4"
         style="font-size:25px;fill:#999999"
         id="path3093" />
      <path
         d="m 202.60983,1021.926 4.925,0 0,1.95 -4.925,0 0,6 c 0,0.65 0.05,1.1917 0.15,1.625 0.1,0.4167 0.25,0.75 0.45,1 0.19999,0.2334 0.44999,0.4 0.75,0.5 0.29999,0.1 0.64999,0.15 1.05,0.15 0.69999,0 1.25833,-0.075 1.675,-0.225 0.43332,-0.1666 0.73332,-0.2833 0.9,-0.35 l 0.45,1.925 c -0.23334,0.1167 -0.64168,0.2584 -1.225,0.425 -0.58334,0.1834 -1.25001,0.275 -2,0.275 -0.88334,0 -1.61667,-0.1083 -2.2,-0.325 -0.56667,-0.2333 -1.025,-0.575 -1.375,-1.025 -0.35,-0.45 -0.6,-1 -0.75,-1.65 -0.13334,-0.6666 -0.2,-1.4333 -0.2,-2.3 l 0,-11.6 2.325,-0.4 0,4.025"
         style="font-size:25px;fill:#999999"
         id="path3095" />
      <path
         d="m 212.81842,1034.926 -2.325,0 0,-13 2.325,0 0,13 m -1.175,-15.35 c -0.41667,0 -0.775,-0.1333 -1.075,-0.4 -0.28333,-0.2833 -0.425,-0.6583 -0.425,-1.125 0,-0.4666 0.14167,-0.8333 0.425,-1.1 0.3,-0.2833 0.65833,-0.425 1.075,-0.425 0.41667,0 0.76667,0.1417 1.05,0.425 0.3,0.2667 0.45,0.6334 0.45,1.1 0,0.4667 -0.15,0.8417 -0.45,1.125 -0.28333,0.2667 -0.63333,0.4 -1.05,0.4"
         style="font-size:25px;fill:#999999"
         id="path3097" />
      <path
         d="m 216.11608,1028.451 c 0,-1.15 0.16666,-2.15 0.5,-3 0.33333,-0.8666 0.775,-1.5833 1.325,-2.15 0.55,-0.5666 1.18333,-0.9916 1.9,-1.275 0.71666,-0.2833 1.44999,-0.425 2.2,-0.425 1.74999,0 3.09166,0.55 4.025,1.65 0.93332,1.0834 1.39999,2.7417 1.4,4.975 -1e-5,0.1 -1e-5,0.2334 0,0.4 -1e-5,0.15 -0.008,0.2917 -0.025,0.425 l -8.9,0 c 0.1,1.35 0.49166,2.375 1.175,3.075 0.68333,0.7 1.74999,1.05 3.2,1.05 0.81666,0 1.49999,-0.067 2.05,-0.2 0.56666,-0.15 0.99166,-0.2916 1.275,-0.425 l 0.325,1.95 c -0.28335,0.15 -0.78334,0.3084 -1.5,0.475 -0.70001,0.1667 -1.50001,0.25 -2.4,0.25 -1.13334,0 -2.11667,-0.1666 -2.95,-0.5 -0.81667,-0.35 -1.49167,-0.825 -2.025,-1.425 -0.53334,-0.6 -0.93334,-1.3083 -1.2,-2.125 -0.25,-0.8333 -0.375,-1.7416 -0.375,-2.725 m 8.925,-1.275 c 0.0167,-1.05 -0.25001,-1.9083 -0.8,-2.575 -0.53334,-0.6833 -1.27501,-1.025 -2.225,-1.025 -0.53334,0 -1.00834,0.1084 -1.425,0.325 -0.40001,0.2 -0.74167,0.4667 -1.025,0.8 -0.28334,0.3334 -0.50834,0.7167 -0.675,1.15 -0.15,0.4334 -0.25,0.875 -0.3,1.325 l 6.45,0"
         style="font-size:25px;fill:#999999"
         id="path3099" />
      <path
         d="m 233.83092,1033.251 c 0.95,0 1.65,-0.125 2.1,-0.375 0.46666,-0.25 0.7,-0.65 0.7,-1.2 0,-0.5666 -0.225,-1.0166 -0.675,-1.35 -0.45,-0.3333 -1.19167,-0.7083 -2.225,-1.125 -0.5,-0.2 -0.98333,-0.4 -1.45,-0.6 -0.45,-0.2166 -0.84167,-0.4666 -1.175,-0.75 -0.33333,-0.2833 -0.6,-0.625 -0.8,-1.025 -0.2,-0.4 -0.3,-0.8916 -0.3,-1.475 0,-1.15 0.425,-2.0583 1.275,-2.725 0.85,-0.6833 2.00833,-1.025 3.475,-1.025 0.36666,0 0.73333,0.025 1.1,0.075 0.36666,0.033 0.70833,0.083 1.025,0.15 0.31666,0.05 0.59166,0.1084 0.825,0.175 0.24999,0.067 0.44166,0.125 0.575,0.175 l -0.425,2 c -0.25001,-0.1333 -0.64167,-0.2666 -1.175,-0.4 -0.53334,-0.15 -1.175,-0.225 -1.925,-0.225 -0.65,0 -1.21667,0.1334 -1.7,0.4 -0.48333,0.25 -0.725,0.65 -0.725,1.2 0,0.2834 0.05,0.5334 0.15,0.75 0.11667,0.2167 0.28333,0.4167 0.5,0.6 0.23333,0.1667 0.51667,0.325 0.85,0.475 0.33333,0.15 0.73333,0.3084 1.2,0.475 0.61666,0.2334 1.16666,0.4667 1.65,0.7 0.48333,0.2167 0.89166,0.475 1.225,0.775 0.34999,0.3 0.61666,0.6667 0.8,1.1 0.18333,0.4167 0.27499,0.9334 0.275,1.55 -1e-5,1.2 -0.45001,2.1084 -1.35,2.725 -0.88334,0.6167 -2.15,0.925 -3.8,0.925 -1.15,0 -2.05,-0.1 -2.7,-0.3 -0.65,-0.1833 -1.09166,-0.325 -1.325,-0.425 l 0.425,-2 c 0.26667,0.1 0.69167,0.25 1.275,0.45 0.58333,0.2 1.35833,0.3 2.325,0.3"
         style="font-size:25px;fill:#999999"
         id="path3101" />
    </g>
    <g
       style="font-size:24.28185844px;font-style:normal;font-variant:normal;font-weight:normal;font-stretch:normal;line-height:125%;letter-spacing:0px;word-spacing:0px;fill:#4d4d4d;fill-opacity:1;stroke:none;font-family:Ubuntu;-inkscape-font-specification:Ubuntu"
       id="text2995">
      <path
         d="m 370.06859,1015.714 c 0.68333,0 1.26666,0.05 1.75,0.15 0.49999,0.1 0.84999,0.1917 1.05,0.275 l -0.425,2 c -0.20001,-0.1 -0.48334,-0.1916 -0.85,-0.275 -0.36667,-0.1 -0.81667,-0.15 -1.35,-0.15 -1.08334,0 -1.84167,0.3 -2.275,0.9 -0.43334,0.5834 -0.65,1.375 -0.65,2.375 l 0,1.125 5,0 0,1.95 -5,0 0,11.05 -2.325,0 0,-14.175 c 0,-1.6666 0.40833,-2.95 1.225,-3.85 0.81666,-0.9166 2.1,-1.375 3.85,-1.375"
         style="font-size:25px;fill:#4d4d4d"
         id="path3104" />
      <path
         d="m 379.06156,1033.439 c 0.54999,0 1.03333,-0.01 1.45,-0.025 0.43333,-0.033 0.79166,-0.083 1.075,-0.15 l 0,-3.875 c -0.16668,-0.083 -0.44168,-0.15 -0.825,-0.2 -0.36667,-0.067 -0.81667,-0.1 -1.35,-0.1 -0.35001,0 -0.72501,0.025 -1.125,0.075 -0.38334,0.05 -0.74167,0.1584 -1.075,0.325 -0.31667,0.15 -0.58334,0.3667 -0.8,0.65 -0.21667,0.2667 -0.325,0.625 -0.325,1.075 0,0.8334 0.26666,1.4167 0.8,1.75 0.53333,0.3167 1.25833,0.475 2.175,0.475 m -0.2,-11.65 c 0.93333,0 1.71666,0.125 2.35,0.375 0.64999,0.2334 1.16666,0.575 1.55,1.025 0.39999,0.4334 0.68332,0.9584 0.85,1.575 0.16666,0.6 0.24999,1.2667 0.25,2 l 0,8.125 c -0.20001,0.033 -0.48334,0.083 -0.85,0.15 -0.35001,0.05 -0.75001,0.1 -1.2,0.15 -0.45001,0.05 -0.94167,0.092 -1.475,0.125 -0.51667,0.05 -1.03334,0.075 -1.55,0.075 -0.73334,0 -1.40834,-0.075 -2.025,-0.225 -0.61667,-0.15 -1.15,-0.3833 -1.6,-0.7 -0.45,-0.3333 -0.8,-0.7667 -1.05,-1.3 -0.25,-0.5333 -0.375,-1.175 -0.375,-1.925 0,-0.7166 0.14167,-1.3333 0.425,-1.85 0.3,-0.5166 0.7,-0.9333 1.2,-1.25 0.5,-0.3166 1.08333,-0.55 1.75,-0.7 0.66666,-0.15 1.36666,-0.225 2.1,-0.225 0.23333,0 0.47499,0.017 0.725,0.05 0.24999,0.017 0.48333,0.05 0.7,0.1 0.23333,0.033 0.43332,0.067 0.6,0.1 0.16666,0.033 0.28332,0.058 0.35,0.075 l 0,-0.65 c -1e-5,-0.3833 -0.0417,-0.7583 -0.125,-1.125 -0.0833,-0.3833 -0.23334,-0.7166 -0.45,-1 -0.21667,-0.3 -0.51667,-0.5333 -0.9,-0.7 -0.36667,-0.1833 -0.85001,-0.275 -1.45,-0.275 -0.76667,0 -1.44167,0.058 -2.025,0.175 -0.56667,0.1 -0.99167,0.2084 -1.275,0.325 l -0.275,-1.925 c 0.3,-0.1333 0.8,-0.2583 1.5,-0.375 0.7,-0.1333 1.45833,-0.2 2.275,-0.2"
         style="font-size:25px;fill:#4d4d4d"
         id="path3106" />
      <path
         d="m 391.59867,1035.364 c -1.43334,-0.033 -2.45,-0.3417 -3.05,-0.925 -0.6,-0.5833 -0.9,-1.4917 -0.9,-2.725 l 0,-15.6 2.325,-0.4 0,15.625 c 0,0.3834 0.0333,0.7 0.1,0.95 0.0667,0.25 0.17499,0.45 0.325,0.6 0.14999,0.15 0.34999,0.2667 0.6,0.35 0.24999,0.067 0.55833,0.125 0.925,0.175 l -0.325,1.95"
         style="font-size:25px;fill:#4d4d4d"
         id="path3108" />
      <path
         d="m 398.93461,1033.439 c 0.54999,0 1.03332,-0.01 1.45,-0.025 0.43332,-0.033 0.79165,-0.083 1.075,-0.15 l 0,-3.875 c -0.16668,-0.083 -0.44168,-0.15 -0.825,-0.2 -0.36668,-0.067 -0.81668,-0.1 -1.35,-0.1 -0.35001,0 -0.72501,0.025 -1.125,0.075 -0.38334,0.05 -0.74167,0.1584 -1.075,0.325 -0.31667,0.15 -0.58334,0.3667 -0.8,0.65 -0.21667,0.2667 -0.32501,0.625 -0.325,1.075 -10e-6,0.8334 0.26666,1.4167 0.8,1.75 0.53333,0.3167 1.25832,0.475 2.175,0.475 m -0.2,-11.65 c 0.93332,0 1.71666,0.125 2.35,0.375 0.64999,0.2334 1.16665,0.575 1.55,1.025 0.39999,0.4334 0.68332,0.9584 0.85,1.575 0.16665,0.6 0.24999,1.2667 0.25,2 l 0,8.125 c -0.20001,0.033 -0.48335,0.083 -0.85,0.15 -0.35001,0.05 -0.75001,0.1 -1.2,0.15 -0.45001,0.05 -0.94168,0.092 -1.475,0.125 -0.51668,0.05 -1.03334,0.075 -1.55,0.075 -0.73334,0 -1.40834,-0.075 -2.025,-0.225 -0.61667,-0.15 -1.15001,-0.3833 -1.6,-0.7 -0.45001,-0.3333 -0.8,-0.7667 -1.05,-1.3 -0.25,-0.5333 -0.375,-1.175 -0.375,-1.925 0,-0.7166 0.14166,-1.3333 0.425,-1.85 0.3,-0.5166 0.69999,-0.9333 1.2,-1.25 0.49999,-0.3166 1.08333,-0.55 1.75,-0.7 0.66666,-0.15 1.36666,-0.225 2.1,-0.225 0.23332,0 0.47499,0.017 0.725,0.05 0.24999,0.017 0.48332,0.05 0.7,0.1 0.23332,0.033 0.43332,0.067 0.6,0.1 0.16665,0.033 0.28332,0.058 0.35,0.075 l 0,-0.65 c -10e-6,-0.3833 -0.0417,-0.7583 -0.125,-1.125 -0.0833,-0.3833 -0.23334,-0.7166 -0.45,-1 -0.21668,-0.3 -0.51668,-0.5333 -0.9,-0.7 -0.36668,-0.1833 -0.85001,-0.275 -1.45,-0.275 -0.76667,0 -1.44167,0.058 -2.025,0.175 -0.56667,0.1 -0.99167,0.2084 -1.275,0.325 l -0.275,-1.925 c 0.29999,-0.1333 0.79999,-0.2583 1.5,-0.375 0.69999,-0.1333 1.45832,-0.2 2.275,-0.2"
         style="font-size:25px;fill:#4d4d4d"
         id="path3110" />
      <path
         d="m 407.57172,1022.489 c 0.53333,-0.1333 1.24166,-0.275 2.125,-0.425 0.88332,-0.15 1.89999,-0.225 3.05,-0.225 1.03332,0 1.89165,0.15 2.575,0.45 0.68332,0.2834 1.22499,0.6917 1.625,1.225 0.41665,0.5167 0.70832,1.1417 0.875,1.875 0.16665,0.7334 0.24998,1.5417 0.25,2.425 l 0,7.3 -2.325,0 0,-6.8 c -10e-6,-0.8 -0.0583,-1.4833 -0.175,-2.05 -0.10001,-0.5666 -0.27501,-1.025 -0.525,-1.375 -0.25001,-0.35 -0.58335,-0.6 -1,-0.75 -0.41668,-0.1666 -0.93334,-0.25 -1.55,-0.25 -0.25001,0 -0.50834,0.01 -0.775,0.025 -0.26668,0.017 -0.52501,0.042 -0.775,0.075 -0.23334,0.017 -0.45001,0.042 -0.65,0.075 -0.18334,0.033 -0.31667,0.058 -0.4,0.075 l 0,10.975 -2.325,0 0,-12.625"
         style="font-size:25px;fill:#4d4d4d"
         id="path3112" />
      <path
         d="m 424.95219,1033.439 c 0.94999,0 1.64999,-0.125 2.1,-0.375 0.46665,-0.25 0.69999,-0.65 0.7,-1.2 -10e-6,-0.5666 -0.22501,-1.0166 -0.675,-1.35 -0.45001,-0.3333 -1.19168,-0.7083 -2.225,-1.125 -0.50001,-0.2 -0.98334,-0.4 -1.45,-0.6 -0.45001,-0.2166 -0.84167,-0.4666 -1.175,-0.75 -0.33334,-0.2833 -0.60001,-0.625 -0.8,-1.025 -0.20001,-0.4 -0.30001,-0.8916 -0.3,-1.475 -10e-6,-1.15 0.42499,-2.0583 1.275,-2.725 0.84999,-0.6833 2.00832,-1.025 3.475,-1.025 0.36666,0 0.73332,0.025 1.1,0.075 0.36665,0.033 0.70832,0.083 1.025,0.15 0.31665,0.05 0.59165,0.1084 0.825,0.175 0.24999,0.067 0.44165,0.125 0.575,0.175 l -0.425,2 c -0.25001,-0.1333 -0.64168,-0.2666 -1.175,-0.4 -0.53335,-0.15 -1.17501,-0.225 -1.925,-0.225 -0.65001,0 -1.21668,0.1334 -1.7,0.4 -0.48334,0.25 -0.72501,0.65 -0.725,1.2 -10e-6,0.2834 0.05,0.5334 0.15,0.75 0.11666,0.2167 0.28332,0.4167 0.5,0.6 0.23332,0.1667 0.51666,0.325 0.85,0.475 0.33332,0.15 0.73332,0.3084 1.2,0.475 0.61665,0.2334 1.16665,0.4667 1.65,0.7 0.48332,0.2167 0.89165,0.475 1.225,0.775 0.34999,0.3 0.61665,0.6667 0.8,1.1 0.18332,0.4167 0.27498,0.9334 0.275,1.55 -2e-5,1.2 -0.45001,2.1083 -1.35,2.725 -0.88335,0.6167 -2.15001,0.925 -3.8,0.925 -1.15001,0 -2.05001,-0.1 -2.7,-0.3 -0.65001,-0.1833 -1.09167,-0.325 -1.325,-0.425 l 0.425,-2 c 0.26666,0.1 0.69166,0.25 1.275,0.45 0.58333,0.2 1.35832,0.3 2.325,0.3"
         style="font-size:25px;fill:#4d4d4d"
         id="path3114" />
      <path
         d="m 435.235,1022.114 4.925,0 0,1.95 -4.925,0 0,6 c -1e-5,0.65 0.05,1.1917 0.15,1.625 0.1,0.4167 0.24999,0.75 0.45,1 0.19999,0.2333 0.44999,0.4 0.75,0.5 0.29999,0.1 0.64999,0.15 1.05,0.15 0.69999,0 1.25832,-0.075 1.675,-0.225 0.43332,-0.1667 0.73332,-0.2833 0.9,-0.35 l 0.45,1.925 c -0.23335,0.1167 -0.64168,0.2583 -1.225,0.425 -0.58334,0.1833 -1.25001,0.275 -2,0.275 -0.88334,0 -1.61667,-0.1083 -2.2,-0.325 -0.56667,-0.2333 -1.02501,-0.575 -1.375,-1.025 -0.35,-0.45 -0.6,-1 -0.75,-1.65 -0.13334,-0.6666 -0.2,-1.4333 -0.2,-2.3 l 0,-11.6 2.325,-0.4 0,4.025"
         style="font-size:25px;fill:#4d4d4d"
         id="path3116" />
      <path
         d="m 442.14945,1028.639 c 0,-1.15 0.16667,-2.15 0.5,-3 0.33333,-0.8666 0.775,-1.5833 1.325,-2.15 0.55,-0.5666 1.18333,-0.9916 1.9,-1.275 0.71666,-0.2833 1.44999,-0.425 2.2,-0.425 1.74999,0 3.09166,0.55 4.025,1.65 0.93332,1.0834 1.39999,2.7417 1.4,4.975 -1e-5,0.1 -1e-5,0.2334 0,0.4 -1e-5,0.15 -0.008,0.2917 -0.025,0.425 l -8.9,0 c 0.1,1.35 0.49166,2.375 1.175,3.075 0.68333,0.7 1.74999,1.05 3.2,1.05 0.81666,0 1.49999,-0.067 2.05,-0.2 0.56666,-0.15 0.99166,-0.2917 1.275,-0.425 l 0.325,1.95 c -0.28334,0.15 -0.78334,0.3083 -1.5,0.475 -0.70001,0.1667 -1.50001,0.25 -2.4,0.25 -1.13334,0 -2.11667,-0.1667 -2.95,-0.5 -0.81667,-0.35 -1.49167,-0.825 -2.025,-1.425 -0.53333,-0.6 -0.93333,-1.3083 -1.2,-2.125 -0.25,-0.8333 -0.375,-1.7416 -0.375,-2.725 m 8.925,-1.275 c 0.0167,-1.05 -0.25001,-1.9083 -0.8,-2.575 -0.53334,-0.6833 -1.27501,-1.025 -2.225,-1.025 -0.53334,0 -1.00834,0.1084 -1.425,0.325 -0.4,0.2 -0.74167,0.4667 -1.025,0.8 -0.28334,0.3334 -0.50834,0.7167 -0.675,1.15 -0.15,0.4334 -0.25,0.875 -0.3,1.325 l 6.45,0"
         style="font-size:25px;fill:#4d4d4d"
         id="path3118" />
      <path
         d="m 461.63929,1021.839 c 0.2,0 0.425,0.017 0.675,0.05 0.26666,0.017 0.525,0.05 0.775,0.1 0.25,0.033 0.475,0.075 0.675,0.125 0.21666,0.033 0.375,0.067 0.475,0.1 l -0.4,2.025 c -0.18334,-0.067 -0.49167,-0.1416 -0.925,-0.225 -0.41667,-0.1 -0.95834,-0.15 -1.625,-0.15 -0.43333,0 -0.86667,0.05 -1.3,0.15 -0.41667,0.083 -0.69167,0.1417 -0.825,0.175 l 0,10.925 -2.325,0 0,-12.45 c 0.55,-0.2 1.23333,-0.3833 2.05,-0.55 0.81667,-0.1833 1.73333,-0.275 2.75,-0.275"
         style="font-size:25px;fill:#4d4d4d"
         id="path3120" />
      <path
         d="m 467.89008,1033.764 c -1e-5,0.45 -0.15001,0.8417 -0.45,1.175 -0.30001,0.3333 -0.70834,0.5 -1.225,0.5 -0.51667,0 -0.92501,-0.1667 -1.225,-0.5 -0.30001,-0.3333 -0.45001,-0.725 -0.45,-1.175 -10e-6,-0.45 0.14999,-0.8417 0.45,-1.175 0.29999,-0.3333 0.70833,-0.5 1.225,-0.5 0.51666,0 0.92499,0.1667 1.225,0.5 0.29999,0.3333 0.44999,0.725 0.45,1.175"
         style="font-size:25px;fill:#4d4d4d"
         id="path3122" />
      <path
         d="m 473.61742,1022.689 c 0.28333,-0.1833 0.70833,-0.375 1.275,-0.575 0.58333,-0.2 1.24999,-0.3 2,-0.3 0.93332,0 1.75832,0.1667 2.475,0.5 0.73332,0.3334 1.34999,0.8 1.85,1.4 0.49999,0.6 0.87499,1.3167 1.125,2.15 0.26665,0.8334 0.39999,1.75 0.4,2.75 -10e-6,1.05 -0.15835,2 -0.475,2.85 -0.30001,0.8333 -0.73335,1.5417 -1.3,2.125 -0.56668,0.5833 -1.25001,1.0333 -2.05,1.35 -0.80001,0.3167 -1.70001,0.475 -2.7,0.475 -1.08334,0 -2.04167,-0.075 -2.875,-0.225 -0.83334,-0.15 -1.51667,-0.3 -2.05,-0.45 l 0,-18.625 2.325,-0.4 0,6.975 m 0,10.4 c 0.23333,0.067 0.55833,0.1333 0.975,0.2 0.43333,0.05 0.96666,0.075 1.6,0.075 1.24999,0 2.24999,-0.4083 3,-1.225 0.74999,-0.8333 1.12499,-2.0083 1.125,-3.525 -1e-5,-0.6666 -0.0667,-1.2916 -0.2,-1.875 -0.13334,-0.5833 -0.35001,-1.0833 -0.65,-1.5 -0.30001,-0.4333 -0.69168,-0.7666 -1.175,-1 -0.46668,-0.25 -1.03334,-0.375 -1.7,-0.375 -0.63334,0 -1.21667,0.1084 -1.75,0.325 -0.53334,0.2167 -0.94167,0.4417 -1.225,0.675 l 0,8.225"
         style="font-size:25px;fill:#4d4d4d"
         id="path3124" />
      <path
         d="m 484.17172,1037.539 c 0.18333,0.083 0.41666,0.1583 0.7,0.225 0.29999,0.083 0.59166,0.125 0.875,0.125 0.91666,0 1.63333,-0.2083 2.15,-0.625 0.51666,-0.4 0.98332,-1.0583 1.4,-1.975 -1.05001,-2 -2.03334,-4.1166 -2.95,-6.35 -0.90001,-2.25 -1.65,-4.525 -2.25,-6.825 l 2.5,0 c 0.18333,0.75 0.39999,1.5584 0.65,2.425 0.26666,0.8667 0.55833,1.7584 0.875,2.675 0.31666,0.9167 0.65832,1.8334 1.025,2.75 0.36666,0.9167 0.74999,1.8 1.15,2.65 0.63332,-1.75 1.18332,-3.4833 1.65,-5.2 0.46665,-1.7166 0.90832,-3.4833 1.325,-5.3 l 2.4,0 c -0.60002,2.45 -1.26668,4.8084 -2,7.075 -0.73335,2.25 -1.52501,4.3583 -2.375,6.325 -0.33334,0.75 -0.68334,1.3917 -1.05,1.925 -0.35001,0.55 -0.74168,1 -1.175,1.35 -0.43334,0.35 -0.92501,0.6083 -1.475,0.775 -0.53334,0.1667 -1.14167,0.25 -1.825,0.25 -0.18334,0 -0.37501,-0.017 -0.575,-0.05 -0.2,-0.017 -0.4,-0.05 -0.6,-0.1 -0.18334,-0.033 -0.35834,-0.075 -0.525,-0.125 -0.15,-0.05 -0.25834,-0.092 -0.325,-0.125 l 0.425,-1.875"
         style="font-size:25px;fill:#4d4d4d"
         id="path3126" />
    </g>
  </g>
</svg>
