<?xml version="1.0" encoding="UTF-8" standalone="no"?>
<!-- Created with Inkscape (http://www.inkscape.org/) -->

<svg
   xmlns:dc="http://purl.org/dc/elements/1.1/"
   xmlns:cc="http://creativecommons.org/ns#"
   xmlns:rdf="http://www.w3.org/1999/02/22-rdf-syntax-ns#"
   xmlns:svg="http://www.w3.org/2000/svg"
   xmlns="http://www.w3.org/2000/svg"
   xmlns:xlink="http://www.w3.org/1999/xlink"
   xmlns:sodipodi="http://sodipodi.sourceforge.net/DTD/sodipodi-0.dtd"
   xmlns:inkscape="http://www.inkscape.org/namespaces/inkscape"
   width="524.40942"
   height="372.04724"
   id="svg2"
   version="1.1"
   inkscape:version="0.48.4 r9939"
   sodipodi:docname="postcard_2_path.svg"
   inkscape:export-filename="/home/svet/Dropbox/falanster/design/postcards/console/postcard_2_path.png"
   inkscape:export-xdpi="300"
   inkscape:export-ydpi="300">
  <defs
     id="defs4">
    <pattern
       inkscape:collect="always"
       xlink:href="#Checkerboard"
       id="pattern5243"
       patternTransform="matrix(10,0,0,10,0,162)" />
    <pattern
       inkscape:stockid="Checkerboard"
       id="Checkerboard"
       patternTransform="translate(0,0) scale(10,10)"
       height="2"
       width="2"
       patternUnits="userSpaceOnUse"
       inkscape:collect="always">
      <rect
         id="rect4555"
         height="1"
         width="1"
         y="0"
         x="0"
         style="fill:black;stroke:none" />
      <rect
         id="rect4557"
         height="1"
         width="1"
         y="1"
         x="1"
         style="fill:black;stroke:none" />
    </pattern>
  </defs>
  <sodipodi:namedview
     id="base"
     pagecolor="#ffffff"
     bordercolor="#666666"
     borderopacity="1.0"
     inkscape:pageopacity="0.0"
     inkscape:pageshadow="2"
     inkscape:zoom="1.4"
     inkscape:cx="292.43116"
     inkscape:cy="209.58817"
     inkscape:document-units="px"
     inkscape:current-layer="layer1"
     showgrid="false"
     inkscape:window-width="1301"
     inkscape:window-height="744"
     inkscape:window-x="65"
     inkscape:window-y="24"
     inkscape:window-maximized="1"
     showguides="true"
     inkscape:guide-bbox="true">
    <sodipodi:guide
       orientation="0,1"
       position="279.81226,16.162441"
       id="guide2999" />
    <sodipodi:guide
       orientation="1,0"
       position="26.263966,437.39605"
       id="guide3001" />
    <sodipodi:guide
       orientation="1,0"
       position="495.9849,304.05592"
       id="guide3003" />
  </sodipodi:namedview>
  <metadata
     id="metadata7">
    <rdf:RDF>
      <cc:Work
         rdf:about="">
        <dc:format>image/svg+xml</dc:format>
        <dc:type
           rdf:resource="http://purl.org/dc/dcmitype/StillImage" />
        <dc:title></dc:title>
      </cc:Work>
    </rdf:RDF>
  </metadata>
  <g
     inkscape:label="Layer 1"
     inkscape:groupmode="layer"
     id="layer1"
     transform="translate(0,-680.31491)">
    <path
       style="fill:#1a1a1a;fill-opacity:1;fill-rule:nonzero;stroke:none"
       d="m 0,680.31488 524.40942,0 0,372.04722 -524.40942,0 z"
       id="rect2985" />
    <g
       style="font-size:66px;font-style:normal;font-variant:normal;font-weight:normal;font-stretch:normal;line-height:125%;letter-spacing:0px;word-spacing:0px;fill:#ffffff;fill-opacity:1;stroke:none;font-family:Courier 10 Pitch;-inkscape-font-specification:Courier 10 Pitch"
       id="text2983">
      <path
         d="m 36.545662,747.05776 0.792,-13.926 4.686,0 -0.66,13.728 c 0,0.066 0,0.132 0,0.132 0,1.32 0.792001,2.112 1.914,2.112 1.319999,0 2.046,-0.726 2.112,-2.046 l 0.726,-13.926 4.752,0 c 1.385998,0 2.112,-0.792 2.112,-2.178 0,-1.386 -0.726002,-2.178 -2.112,-2.178 l -4.488,0 0.396,-7.656 4.092,0 c 1.385998,0 2.112,-0.792 2.112,-2.178 0,-1.386 -0.726002,-2.112 -2.112,-2.112 l -3.96,0 0.792,-13.794 c 0,-0.066 0,-0.132 0,-0.132 0,-1.32 -0.858001,-2.046 -2.046,-2.046 -1.187999,0 -1.914,0.66 -1.98,1.98 l -0.792,13.992 -4.686,0 0.66,-13.794 c 0,-0.066 0,-0.132 0,-0.132 0,-1.32 -0.792001,-2.046 -1.98,-2.046 -1.187999,0 -1.914,0.66 -1.98,1.98 l -0.792,13.992 -4.818,0 c -1.385999,0 -2.112,0.726 -2.112,2.112 0,1.386 0.726001,2.178 2.112,2.178 l 4.62,0 -0.33,7.656 -4.29,0 c -1.385999,0 -2.112,0.792 -2.112,2.178 0,1.386 0.726001,2.178 2.112,2.178 l 4.026,0 -0.726,13.728 c 0,0.066 0,0.132 0,0.198 0,1.254 0.726001,2.046 1.848,2.046 1.319999,0 2.046,-0.726 2.112,-2.046 m 0.99,-18.282 0.396,-7.656 4.818,0 -0.462,7.656 -4.752,0"
         style=""
         id="path3021" />
      <path
         d="m 105.39191,742.96576 c 0,2.04599 0.858,3.102 2.376,3.102 0.726,0 1.782,-0.528 3.3,-1.518 3.63,0.924 6.864,1.452 9.768,1.452 8.05199,0 12.606,-4.02601 12.606,-9.57 0,-6.336 -4.42201,-8.844 -12.936,-9.042 -6.33599,-0.132 -10.032,-0.46201 -10.032,-3.894 0,-2.574 2.44201,-4.752 6.732,-4.752 3.366,0 5.742,0.792 8.184,2.97 1.914,1.716 2.574,3.366 4.026,3.366 1.584,0 2.178,-1.12201 2.178,-3.234 l 0,-3.762 c 0,-2.178 -0.726,-3.234 -2.178,-3.234 -1.716,0 -2.376,1.254 -3.3,1.254 -0.924,0 -3.498,-1.452 -8.184,-1.452 -7.98599,0 -12.408,3.696 -12.408,9.042 0,5.74199 4.68601,8.91 13.464,8.91 0.924,0 1.518,0 1.848,0 4.884,0 7.26,0.924 7.26,4.224 0,2.90399 -2.904,5.016 -7.59,5.016 -4.35599,0 -8.052,-1.58401 -9.768,-3.828 -1.254,-1.65 -1.056,-3.432 -3.036,-3.432 -1.716,0 -2.31,0.924 -2.31,2.64 l 0,5.742"
         style=""
         id="path3023" />
      <path
         d="m 151.03504,733.39576 0,-15.444 c 0,-0.132 0,-0.198 0,-0.33 0,-1.452 -0.066,-2.112 -1.848,-2.112 l -4.884,0 c -1.716,0 -2.574,0.726 -2.574,2.244 0,1.65 0.924,2.31 2.97,2.31 0.462,0 0.99,0 1.452,0 l 0,14.52 c 0,7.52399 3.564,11.352 10.626,11.352 3.89399,0 6.666,-1.51801 10.032,-4.158 l 0,2.178 c 0,0.792 0.594,1.32 1.848,1.32 l 4.884,0 c 1.716,0 2.574,-0.792 2.574,-2.31 0,-1.65 -0.92401,-2.244 -2.97,-2.244 -0.462,0 -0.99,0 -1.452,0 l 0,-22.11 c 0,-1.914 -1e-5,-3.102 -2.244,-3.102 l -6.864,0 c -1.782,0 -2.574,0.66 -2.574,2.244 0,1.584 0.66,2.31 2.376,2.31 l 4.422,0 0,13.332 c 0,4.75199 -4.15801,7.788 -8.514,7.788 -5.016,0 -7.26,-2.50801 -7.26,-7.788"
         style=""
         id="path3025" />
      <path
         d="m 187.50416,730.82176 c 0,-6.402 4.09201,-10.626 10.164,-10.626 6.006,0 10.164,4.356 10.164,10.296 0,5.93999 -4.29,10.428 -10.23,10.428 -5.74199,0 -10.098,-4.02601 -10.098,-10.098 m 21.12,14.454 6.138,0 c 1.386,0 2.31,-0.858 2.31,-2.31 0,-1.65 -0.924,-2.244 -2.97,-2.244 -0.462,0 -0.99,0 -1.452,0 l 0,-36.3 c 0,-0.924 -0.594,-1.32 -1.848,-1.32 l -6.6,0 c -1.716,0 -2.574,0.792 -2.574,2.31 0,2.11199 1.386,2.31 4.422,2.31 l 1.716,0 0,12.342 c -2.508,-3.102 -6.072,-4.62 -10.494,-4.62 -8.71199,0 -15.312,6.73201 -15.312,15.246 0,9.04199 6.20401,15.378 14.322,15.378 4.554,0 8.514,-1.84801 11.088,-5.082 l 0,2.64 c 0,1.122 0.264,1.65 1.254,1.65"
         style=""
         id="path3027" />
      <path
         d="m 255.45529,730.42576 c 0,-8.90999 -6.60001,-15.642 -16.83,-15.642 -10.22999,0 -16.896,6.66601 -16.896,15.642 0,8.97599 6.66601,15.642 16.896,15.642 10.22999,0 16.83,-6.66601 16.83,-15.642 m -16.83,11.154 c -6.666,0 -11.286,-4.75201 -11.286,-11.154 0,-6.402 4.62,-11.22 11.286,-11.22 6.66599,0 11.286,4.818 11.286,11.22 0,6.46799 -4.62001,11.154 -11.286,11.154"
         style=""
         id="path3029" />
      <path
         d="m 332.55154,725.21176 0,-6.006 c 0,-2.772 -0.33001,-3.96 -2.31,-3.96 -1.65,0 -2.508,0.594 -2.508,2.046 0,0 0,0.066 0,0.132 -3.564,-1.782 -6.79801,-2.706 -10.164,-2.706 -9.23999,0 -16.236,6.79801 -16.236,15.708 0,8.90999 6.93001,15.642 16.302,15.642 7.78799,0 15.048,-4.81801 15.048,-7.854 0,-1.32 -0.924,-2.244 -2.244,-2.244 -1.716,0 -2.97001,1.584 -4.95,2.904 -2.31,1.518 -4.95001,2.376 -7.524,2.376 -6.732,0 -11.022,-4.48801 -11.022,-10.89 0,-6.204 4.62,-10.626 11.286,-10.626 3.82799,0 6.864,1.782 8.844,5.28 0.99,1.782 1.65,2.574 3.036,2.574 1.584,0 2.442,-0.792 2.442,-2.376"
         style=""
         id="path3031" />
      <path
         d="m 345.59066,740.72176 c -0.264,0 -0.462,0 -0.66,0 -2.64,0 -3.762,0.396 -3.762,2.244 0,1.518 0.858,2.31 2.574,2.31 l 8.58,0 c 1.914,0 2.574,-0.46201 2.574,-2.31 0,-1.782 -0.858,-2.31 -3.102,-2.31 -0.396,0 -0.858,0.066 -1.386,0.066 l 0,-13.398 c 0,-4.818 4.48801,-7.722 8.382,-7.722 4.224,0 6.798,2.574 6.798,7.722 l 0,13.398 c -0.594,0 -0.924,0 -1.254,0 -2.31,0 -3.168,0.462 -3.168,2.244 0,1.84799 0.66,2.31 2.574,2.31 l 8.58,0 c 1.716,0 2.574,-0.792 2.574,-2.31 0,-1.65 -0.99,-2.244 -3.036,-2.244 -0.462,0 -0.924,0 -1.386,0 l 0,-14.586 c 0,-7.458 -4.422,-11.484 -10.56,-11.484 -3.36599,0 -6.336,1.452 -9.438,4.356 l 0,-14.586 c 0,-0.792 -0.594,-1.32 -1.848,-1.32 l -4.884,0 c -1.716,0 -2.574,0.792 -2.574,2.31 0,1.65 0.924,2.244 2.97,2.244 0.462,0 0.99,0.066 1.452,0.066 l 0,33"
         style=""
         id="path3033" />
      <path
         d="m 409.18579,727.32376 0,14.718 c 0,2.11199 0.924,3.234 2.706,3.234 l 3.894,0 c 1.518,0 2.31,-0.792 2.31,-2.31 0,-1.848 -0.92401,-2.244 -3.366,-2.244 -0.198,0 -0.396,0 -0.594,0 l 0,-14.586 c 0,-7.524 -1.98001,-11.484 -7.92,-11.484 -3.102,0 -5.412,1.32 -7.194,3.96 -0.924,-2.64 -2.90401,-3.96 -5.874,-3.96 -2.508,0 -4.488,0.858 -6.204,2.772 -0.132,-1.584 -0.462,-1.914 -1.848,-1.914 l -4.95,0 c -1.716,0 -2.508,0.726 -2.508,2.244 0,1.65 0.924,2.31 2.97,2.31 0.462,0 0.99,0 1.452,0 l 0,20.658 c -0.264,0 -0.462,0 -0.66,0 -2.64,0 -3.762,0.396 -3.762,2.244 0,1.518 0.792,2.31 2.508,2.31 l 8.58,0 c 1.91399,0 2.64,-0.46201 2.64,-2.31 0,-1.782 -0.85801,-2.31 -3.102,-2.31 -0.396,0 -0.858,0.066 -1.386,0.066 l 0,-17.754 c 1.188,-2.244 2.772,-3.366 4.752,-3.366 2.44199,0 4.224,1.914 4.224,5.214 0,0.396 0,1.254 0,2.508 l 0,13.596 c 0,0.33 0,0.594 0,0.858 0,2.50799 0.132,3.498 2.244,3.498 l 4.092,0 c 1.518,0 2.244,-0.792 2.244,-2.31 0,-1.848 -0.92401,-2.244 -3.366,-2.244 -0.198,0 -0.396,0 -0.594,0 l 0,-13.398 c 0,-5.148 2.244,-7.722 5.214,-7.722 3.23399,0 3.498,2.838 3.498,7.722"
         style=""
         id="path3035" />
      <path
         d="m 453.97091,730.42576 c 0,-8.90999 -6.60001,-15.642 -16.83,-15.642 -10.22999,0 -16.896,6.66601 -16.896,15.642 0,8.97599 6.66601,15.642 16.896,15.642 10.22999,0 16.83,-6.66601 16.83,-15.642 m -16.83,11.154 c -6.66599,0 -11.286,-4.75201 -11.286,-11.154 0,-6.402 4.62001,-11.22 11.286,-11.22 6.666,0 11.286,4.818 11.286,11.22 0,6.46799 -4.62,11.154 -11.286,11.154"
         style=""
         id="path3037" />
      <path
         d="m 465.42604,730.82176 c 0,-6.402 4.092,-10.626 10.164,-10.626 6.00599,0 10.164,4.356 10.164,10.296 0,5.93999 -4.29001,10.428 -10.23,10.428 -5.742,0 -10.098,-4.02601 -10.098,-10.098 m 21.12,14.454 6.138,0 c 1.386,0 2.31,-0.858 2.31,-2.31 0,-1.65 -0.92401,-2.244 -2.97,-2.244 -0.462,0 -0.99,0 -1.452,0 l 0,-36.3 c 0,-0.924 -0.594,-1.32 -1.848,-1.32 l -6.6,0 c -1.716,0 -2.574,0.792 -2.574,2.31 0,2.11199 1.386,2.31 4.422,2.31 l 1.716,0 0,12.342 c -2.508,-3.102 -6.07201,-4.62 -10.494,-4.62 -8.71199,0 -15.312,6.73201 -15.312,15.246 0,9.04199 6.204,15.378 14.322,15.378 4.55399,0 8.514,-1.84801 11.088,-5.082 l 0,2.64 c 0,1.122 0.264,1.65 1.254,1.65"
         style=""
         id="path3039" />
      <path
         d="m 26.645662,816.02776 26.73,0 c 0.791999,0 1.518,-0.726 1.518,-1.518 l 0,-3.432 c 0,-0.792 -0.528001,-1.32 -1.518,-1.32 l -26.73,0 c -0.857999,0 -1.386,0.528 -1.386,1.32 l 0,3.432 c 0,0.924 0.528001,1.518 1.386,1.518"
         style=""
         id="path3041" />
      <path
         d="m 72.618787,823.22176 0,-12.012 4.224,0 c 2.969997,0 4.092002,1.056 6.402,4.554 l 6.27,9.372 c 1.121999,1.65 1.650002,2.64 3.366,2.64 l 3.564,0 c 1.517998,0 2.244,-0.792 2.244,-2.31 0,-1.782 -0.858002,-2.244 -3.102,-2.244 -0.33,0 -0.660001,0 -1.056,0 l -6.468,-9.9 c -0.725999,-1.056 -1.518001,-1.914 -2.772,-2.706 5.477994,-1.386 8.58,-5.14801 8.58,-10.032 0,-3.234 -1.386002,-6.27001 -3.63,-8.25 -2.969997,-2.574 -6.996006,-2.772 -12.474,-2.772 l -13.596,0 c -1.451999,0 -2.244,0.726 -2.244,2.178 0,1.518 0.792002,2.178 2.64,2.178 0.264,0 0.594,0 1.188,0 l 1.848,0 0,29.304 -1.848,0 c -0.594,0 -0.924,0 -1.056,0 -1.979998,0 -2.772,0.528 -2.772,2.244 0,1.518 0.792001,2.31 2.244,2.31 l 10.824,0 c 2.243998,0 3.234,-0.33001 3.234,-2.31 0,-1.716 -1.056002,-2.31 -3.432,-2.31 -1.451999,0 -2.178,0.066 -2.178,0.066 m 0,-29.304 6.864,0 c 5.939994,0 8.844,2.178 8.844,6.534 0,4.22399 -3.036006,6.468 -9.042,6.468 l -6.666,0 0,-13.002"
         style=""
         id="path3043" />
      <path
         d="m 159.21904,828.83176 c 7.85399,0 13.2,-7.72202 13.2,-21.384 0,-13.66199 -5.34601,-21.384 -13.2,-21.384 -7.854,0 -13.2,7.72201 -13.2,21.384 0,13.66198 5.346,21.384 13.2,21.384 m 0,-38.148 c 4.75199,0 7.788,5.67601 7.788,16.764 0,11.08799 -3.03601,16.83 -7.788,16.83 -4.752,0 -7.854,-5.74201 -7.854,-16.83 0,-11.08799 3.102,-16.764 7.854,-16.764"
         style=""
         id="path3045" />
      <path
         d="m 199.38416,827.11576 11.418,-34.518 c 0.396,-1.188 0.66,-2.046 0.66,-2.706 l 0,-1.122 c 0,-1.188 -0.594,-1.65 -1.782,-1.65 l -21.318,0 c -1.254,0 -2.046,0.66 -2.178,1.848 l -0.33,2.904 c -0.066,0.33 -0.066,0.594 -0.066,0.858 0,1.452 0.66,2.178 2.178,2.178 1.518,0 2.244,-0.99001 2.376,-2.97 l 16.368,0 -12.672,34.386 c -0.132,0.396 -0.198,0.792 -0.198,1.056 0,0.594 0.528,0.99 1.386,0.99 l 2.31,0 c 0.198,0 0.33,0 0.528,0 0.726,0 0.924,-0.066 1.32,-1.254"
         style=""
         id="path3047" />
      <path
         d="m 239.08729,827.11576 11.418,-34.518 c 0.396,-1.188 0.66,-2.046 0.66,-2.706 l 0,-1.122 c 0,-1.188 -0.594,-1.65 -1.782,-1.65 l -21.318,0 c -1.254,0 -2.046,0.66 -2.178,1.848 l -0.33,2.904 c -0.066,0.33 -0.066,0.594 -0.066,0.858 0,1.452 0.66,2.178 2.178,2.178 1.518,0 2.244,-0.99001 2.376,-2.97 l 16.368,0 -12.672,34.386 c -0.132,0.396 -0.198,0.792 -0.198,1.056 0,0.594 0.528,0.99 1.386,0.99 l 2.31,0 c 0.198,0 0.33,0 0.528,0 0.726,0 0.924,-0.066 1.32,-1.254"
         style=""
         id="path3049" />
      <path
         d="m 278.79041,827.11576 11.418,-34.518 c 0.396,-1.188 0.66,-2.046 0.66,-2.706 l 0,-1.122 c 0,-1.188 -0.594,-1.65 -1.782,-1.65 l -21.318,0 c -1.254,0 -2.046,0.66 -2.178,1.848 l -0.33,2.904 c -0.066,0.33 -0.066,0.594 -0.066,0.858 0,1.452 0.66,2.178 2.178,2.178 1.518,0 2.244,-0.99001 2.376,-2.97 l 16.368,0 -12.672,34.386 c -0.132,0.396 -0.198,0.792 -0.198,1.056 0,0.594 0.528,0.99 1.386,0.99 l 2.31,0 c 0.198,0 0.33,0 0.528,0 0.726,0 0.924,-0.066 1.32,-1.254"
         style=""
         id="path3051" />
      <path
         d="m 351.39866,822.49576 c 0,3.29999 2.50801,5.742 6.336,5.742 3.828,0 6.336,-2.37601 6.336,-5.742 0,-3.366 -2.508,-5.742 -6.336,-5.742 -3.82799,0 -6.336,2.442 -6.336,5.742"
         style=""
         id="path3053" />
    </g>
    <g
       style="font-size:66px;font-style:normal;font-variant:normal;font-weight:normal;font-stretch:normal;line-height:125%;letter-spacing:0px;word-spacing:0px;opacity:0.6;fill:url(#pattern5243);fill-opacity:1;stroke:none;font-family:Courier 10 Pitch;-inkscape-font-specification:Courier 10 Pitch"
       id="text2983-3">
      <path
         d="m 36.545999,747.05812 0.792,-13.926 4.686,0 -0.66,13.728 c 0,0.066 0,0.132 0,0.132 0,1.32 0.792002,2.112 1.914,2.112 1.319999,0 2.046001,-0.726 2.112,-2.046 l 0.726,-13.926 4.752,0 c 1.385999,0 2.112,-0.792 2.112,-2.178 0,-1.386 -0.726001,-2.178 -2.112,-2.178 l -4.488,0 0.396,-7.656 4.092,0 c 1.385999,0 2.112,-0.792 2.112,-2.178 0,-1.386 -0.726001,-2.112 -2.112,-2.112 l -3.96,0 0.792,-13.794 c 0,-0.066 0,-0.132 0,-0.132 0,-1.32 -0.858001,-2.046 -2.046,-2.046 -1.187998,0 -1.914,0.66 -1.98,1.98 l -0.792,13.992 -4.686,0 0.66,-13.794 c 0,-0.066 0,-0.132 0,-0.132 0,-1.32 -0.792001,-2.046 -1.98,-2.046 -1.187998,0 -1.914,0.66 -1.98,1.98 l -0.792,13.992 -4.818,0 c -1.385998,0 -2.112,0.726 -2.112,2.112 0,1.386 0.726002,2.178 2.112,2.178 l 4.62,0 -0.33,7.656 -4.29,0 c -1.385998,0 -2.112,0.792 -2.112,2.178 0,1.386 0.726002,2.178 2.112,2.178 l 4.026,0 -0.726,13.728 c 0,0.066 0,0.132 0,0.198 0,1.254 0.726002,2.046 1.848,2.046 1.319999,0 2.046001,-0.726 2.112,-2.046 m 0.99,-18.282 0.396,-7.656 4.818,0 -0.462,7.656 -4.752,0"
         style=""
         id="path3056" />
      <path
         d="m 105.39225,742.96612 c 0,2.046 0.858,3.102 2.376,3.102 0.726,0 1.782,-0.528 3.3,-1.518 3.63,0.924 6.864,1.452 9.768,1.452 8.05199,0 12.606,-4.026 12.606,-9.57 0,-6.33599 -4.42201,-8.844 -12.936,-9.042 -6.33599,-0.132 -10.032,-0.462 -10.032,-3.894 0,-2.57399 2.442,-4.752 6.732,-4.752 3.366,0 5.742,0.79201 8.184,2.97 1.914,1.716 2.574,3.366 4.026,3.366 1.584,0 2.178,-1.122 2.178,-3.234 l 0,-3.762 c 0,-2.17799 -0.726,-3.234 -2.178,-3.234 -1.716,0 -2.376,1.254 -3.3,1.254 -0.924,0 -3.49801,-1.452 -8.184,-1.452 -7.98599,0 -12.408,3.69601 -12.408,9.042 0,5.742 4.68601,8.91 13.464,8.91 0.924,0 1.518,0 1.848,0 4.88399,0 7.26,0.92401 7.26,4.224 0,2.904 -2.90401,5.016 -7.59,5.016 -4.356,0 -8.052,-1.584 -9.768,-3.828 -1.254,-1.65 -1.056,-3.432 -3.036,-3.432 -1.716,0 -2.31,0.924 -2.31,2.64 l 0,5.742"
         style=""
         id="path3058" />
      <path
         d="m 151.03537,733.39612 0,-15.444 c 0,-0.132 0,-0.198 0,-0.33 0,-1.452 -0.066,-2.112 -1.848,-2.112 l -4.884,0 c -1.71599,0 -2.574,0.726 -2.574,2.244 0,1.65 0.92401,2.31 2.97,2.31 0.462,0 0.99,0 1.452,0 l 0,14.52 c 0,7.524 3.56401,11.352 10.626,11.352 3.894,0 6.66601,-1.518 10.032,-4.158 l 0,2.178 c 0,0.792 0.59401,1.32 1.848,1.32 l 4.884,0 c 1.716,0 2.574,-0.792 2.574,-2.31 0,-1.65 -0.924,-2.244 -2.97,-2.244 -0.462,0 -0.99,0 -1.452,0 l 0,-22.11 c 0,-1.914 0,-3.102 -2.244,-3.102 l -6.864,0 c -1.78199,0 -2.574,0.66 -2.574,2.244 0,1.584 0.66001,2.31 2.376,2.31 l 4.422,0 0,13.332 c 0,4.752 -4.158,7.788 -8.514,7.788 -5.01599,0 -7.26,-2.508 -7.26,-7.788"
         style=""
         id="path3060" />
      <path
         d="m 187.5045,730.82212 c 0,-6.40199 4.09201,-10.626 10.164,-10.626 6.00599,0 10.164,4.35601 10.164,10.296 0,5.94 -4.29001,10.428 -10.23,10.428 -5.74199,0 -10.098,-4.026 -10.098,-10.098 m 21.12,14.454 6.138,0 c 1.386,0 2.31,-0.858 2.31,-2.31 0,-1.65 -0.924,-2.244 -2.97,-2.244 -0.462,0 -0.99,0 -1.452,0 l 0,-36.3 c 0,-0.924 -0.594,-1.32 -1.848,-1.32 l -6.6,0 c -1.716,0 -2.574,0.792 -2.574,2.31 0,2.112 1.386,2.31 4.422,2.31 l 1.716,0 0,12.342 c -2.508,-3.10199 -6.072,-4.62 -10.494,-4.62 -8.71199,0 -15.312,6.73201 -15.312,15.246 0,9.04199 6.20401,15.378 14.322,15.378 4.55399,0 8.514,-1.848 11.088,-5.082 l 0,2.64 c 0,1.122 0.264,1.65 1.254,1.65"
         style=""
         id="path3062" />
      <path
         d="m 255.45562,730.42612 c 0,-8.90999 -6.60001,-15.642 -16.83,-15.642 -10.22999,0 -16.896,6.66601 -16.896,15.642 0,8.97599 6.66601,15.642 16.896,15.642 10.22999,0 16.83,-6.66601 16.83,-15.642 m -16.83,11.154 c -6.66599,0 -11.286,-4.752 -11.286,-11.154 0,-6.40199 4.62001,-11.22 11.286,-11.22 6.666,0 11.286,4.81801 11.286,11.22 0,6.468 -4.62,11.154 -11.286,11.154"
         style=""
         id="path3064" />
      <path
         d="m 332.55187,725.21212 0,-6.006 c 0,-2.77199 -0.33,-3.96 -2.31,-3.96 -1.64999,0 -2.508,0.594 -2.508,2.046 0,0 0,0.066 0,0.132 -3.56399,-1.782 -6.798,-2.706 -10.164,-2.706 -9.23999,0 -16.236,6.79801 -16.236,15.708 0,8.90999 6.93001,15.642 16.302,15.642 7.788,0 15.048,-4.818 15.048,-7.854 0,-1.32 -0.924,-2.244 -2.244,-2.244 -1.71599,0 -2.97,1.584 -4.95,2.904 -2.30999,1.518 -4.95,2.376 -7.524,2.376 -6.73199,0 -11.022,-4.488 -11.022,-10.89 0,-6.20399 4.62001,-10.626 11.286,-10.626 3.828,0 6.86401,1.78201 8.844,5.28 0.99,1.782 1.65001,2.574 3.036,2.574 1.584,0 2.442,-0.792 2.442,-2.376"
         style=""
         id="path3066" />
      <path
         d="m 345.591,740.72212 c -0.264,0 -0.462,0 -0.66,0 -2.64,0 -3.762,0.396 -3.762,2.244 0,1.518 0.858,2.31 2.574,2.31 l 8.58,0 c 1.914,0 2.574,-0.462 2.574,-2.31 0,-1.782 -0.858,-2.31 -3.102,-2.31 -0.396,0 -0.858,0.066 -1.386,0.066 l 0,-13.398 c 0,-4.81799 4.488,-7.722 8.382,-7.722 4.224,0 6.798,2.57401 6.798,7.722 l 0,13.398 c -0.594,0 -0.924,0 -1.254,0 -2.31,0 -3.168,0.462 -3.168,2.244 0,1.848 0.66,2.31 2.574,2.31 l 8.58,0 c 1.716,0 2.574,-0.792 2.574,-2.31 0,-1.65 -0.99,-2.244 -3.036,-2.244 -0.462,0 -0.924,0 -1.386,0 l 0,-14.586 c 0,-7.45799 -4.42201,-11.484 -10.56,-11.484 -3.366,0 -6.336,1.45201 -9.438,4.356 l 0,-14.586 c 0,-0.792 -0.594,-1.32 -1.848,-1.32 l -4.884,0 c -1.716,0 -2.574,0.792 -2.574,2.31 0,1.65 0.924,2.244 2.97,2.244 0.462,0 0.99,0.066 1.452,0.066 l 0,33"
         style=""
         id="path3068" />
      <path
         d="m 409.18612,727.32412 0,14.718 c 0,2.112 0.92401,3.234 2.706,3.234 l 3.894,0 c 1.518,0 2.31,-0.792 2.31,-2.31 0,-1.848 -0.924,-2.244 -3.366,-2.244 -0.198,0 -0.396,0 -0.594,0 l 0,-14.586 c 0,-7.52399 -1.98,-11.484 -7.92,-11.484 -3.10199,0 -5.412,1.32001 -7.194,3.96 -0.92399,-2.63999 -2.904,-3.96 -5.874,-3.96 -2.50799,0 -4.488,0.858 -6.204,2.772 -0.132,-1.584 -0.462,-1.914 -1.848,-1.914 l -4.95,0 c -1.71599,0 -2.508,0.726 -2.508,2.244 0,1.65 0.92401,2.31 2.97,2.31 0.462,0 0.99,0 1.452,0 l 0,20.658 c -0.264,0 -0.462,0 -0.66,0 -2.63999,0 -3.762,0.396 -3.762,2.244 0,1.518 0.79201,2.31 2.508,2.31 l 8.58,0 c 1.914,0 2.64,-0.462 2.64,-2.31 0,-1.782 -0.858,-2.31 -3.102,-2.31 -0.396,0 -0.858,0.066 -1.386,0.066 l 0,-17.754 c 1.188,-2.24399 2.77201,-3.366 4.752,-3.366 2.442,0 4.224,1.91401 4.224,5.214 0,0.396 0,1.254 0,2.508 l 0,13.596 c 0,0.33 0,0.594 0,0.858 0,2.508 0.13201,3.498 2.244,3.498 l 4.092,0 c 1.518,0 2.244,-0.792 2.244,-2.31 0,-1.848 -0.924,-2.244 -3.366,-2.244 -0.198,0 -0.396,0 -0.594,0 l 0,-13.398 c 0,-5.14799 2.24401,-7.722 5.214,-7.722 3.234,0 3.498,2.83801 3.498,7.722"
         style=""
         id="path3070" />
      <path
         d="m 453.97125,730.42612 c 0,-8.90999 -6.60001,-15.642 -16.83,-15.642 -10.22999,0 -16.896,6.66601 -16.896,15.642 0,8.97599 6.66601,15.642 16.896,15.642 10.22999,0 16.83,-6.66601 16.83,-15.642 m -16.83,11.154 c -6.66599,0 -11.286,-4.752 -11.286,-11.154 0,-6.40199 4.62001,-11.22 11.286,-11.22 6.66599,0 11.286,4.81801 11.286,11.22 0,6.468 -4.62001,11.154 -11.286,11.154"
         style=""
         id="path3072" />
      <path
         d="m 465.42637,730.82212 c 0,-6.40199 4.09201,-10.626 10.164,-10.626 6.006,0 10.164,4.35601 10.164,10.296 0,5.94 -4.29,10.428 -10.23,10.428 -5.74199,0 -10.098,-4.026 -10.098,-10.098 m 21.12,14.454 6.138,0 c 1.386,0 2.31,-0.858 2.31,-2.31 0,-1.65 -0.924,-2.244 -2.97,-2.244 -0.462,0 -0.99,0 -1.452,0 l 0,-36.3 c 0,-0.924 -0.594,-1.32 -1.848,-1.32 l -6.6,0 c -1.71599,0 -2.574,0.792 -2.574,2.31 0,2.112 1.38601,2.31 4.422,2.31 l 1.716,0 0,12.342 c -2.50799,-3.10199 -6.072,-4.62 -10.494,-4.62 -8.71199,0 -15.312,6.73201 -15.312,15.246 0,9.04199 6.20401,15.378 14.322,15.378 4.554,0 8.51401,-1.848 11.088,-5.082 l 0,2.64 c 0,1.122 0.26401,1.65 1.254,1.65"
         style=""
         id="path3074" />
      <path
         d="m 26.645999,816.02812 26.73,0 c 0.792,0 1.518,-0.726 1.518,-1.518 l 0,-3.432 c 0,-0.792 -0.528001,-1.32 -1.518,-1.32 l -26.73,0 c -0.857999,0 -1.386,0.528 -1.386,1.32 l 0,3.432 c 0,0.924 0.528001,1.518 1.386,1.518"
         style=""
         id="path3076" />
      <path
         d="m 72.619124,823.22212 0,-12.012 4.224,0 c 2.969998,0 4.092003,1.05601 6.402,4.554 l 6.27,9.372 c 1.121999,1.65 1.650002,2.64 3.366,2.64 l 3.564,0 c 1.517999,0 2.244,-0.792 2.244,-2.31 0,-1.782 -0.858002,-2.244 -3.102,-2.244 -0.329999,0 -0.66,0 -1.056,0 l -6.468,-9.9 c -0.725999,-1.056 -1.518001,-1.914 -2.772,-2.706 5.477995,-1.386 8.58,-5.148 8.58,-10.032 0,-3.23399 -1.386002,-6.27 -3.63,-8.25 -2.969997,-2.57399 -6.996005,-2.772 -12.474,-2.772 l -13.596,0 c -1.451998,0 -2.244,0.726 -2.244,2.178 0,1.518 0.792002,2.178 2.64,2.178 0.264,0 0.594001,0 1.188,0 l 1.848,0 0,29.304 -1.848,0 c -0.593999,0 -0.924,0 -1.056,0 -1.979998,0 -2.772,0.528 -2.772,2.244 0,1.518 0.792002,2.31 2.244,2.31 l 10.824,0 c 2.243998,0 3.234,-0.33 3.234,-2.31 0,-1.716 -1.056002,-2.31 -3.432,-2.31 -1.451998,0 -2.178,0.066 -2.178,0.066 m 0,-29.304 6.864,0 c 5.939995,0 8.844,2.17801 8.844,6.534 0,4.224 -3.036006,6.468 -9.042,6.468 l -6.666,0 0,-13.002"
         style=""
         id="path3078" />
      <path
         d="m 159.21937,828.83212 c 7.854,0 13.2,-7.72201 13.2,-21.384 0,-13.66198 -5.346,-21.384 -13.2,-21.384 -7.85399,0 -13.2,7.72202 -13.2,21.384 0,13.66199 5.34601,21.384 13.2,21.384 m 0,-38.148 c 4.752,0 7.788,5.67601 7.788,16.764 0,11.08799 -3.036,16.83 -7.788,16.83 -4.75199,0 -7.854,-5.74201 -7.854,-16.83 0,-11.08799 3.10201,-16.764 7.854,-16.764"
         style=""
         id="path3080" />
      <path
         d="m 199.3845,827.11612 11.418,-34.518 c 0.396,-1.188 0.66,-2.046 0.66,-2.706 l 0,-1.122 c 0,-1.188 -0.594,-1.65 -1.782,-1.65 l -21.318,0 c -1.254,0 -2.046,0.66 -2.178,1.848 l -0.33,2.904 c -0.066,0.33 -0.066,0.594 -0.066,0.858 0,1.452 0.66,2.178 2.178,2.178 1.518,0 2.244,-0.99 2.376,-2.97 l 16.368,0 -12.672,34.386 c -0.132,0.396 -0.198,0.792 -0.198,1.056 0,0.594 0.528,0.99 1.386,0.99 l 2.31,0 c 0.198,0 0.33,0 0.528,0 0.726,0 0.924,-0.066 1.32,-1.254"
         style=""
         id="path3082" />
      <path
         d="m 239.08762,827.11612 11.418,-34.518 c 0.396,-1.188 0.66,-2.046 0.66,-2.706 l 0,-1.122 c 0,-1.188 -0.594,-1.65 -1.782,-1.65 l -21.318,0 c -1.25399,0 -2.046,0.66 -2.178,1.848 l -0.33,2.904 c -0.066,0.33 -0.066,0.594 -0.066,0.858 0,1.452 0.66001,2.178 2.178,2.178 1.518,0 2.244,-0.99 2.376,-2.97 l 16.368,0 -12.672,34.386 c -0.132,0.396 -0.198,0.792 -0.198,1.056 0,0.594 0.52801,0.99 1.386,0.99 l 2.31,0 c 0.198,0 0.33,0 0.528,0 0.726,0 0.924,-0.066 1.32,-1.254"
         style=""
         id="path3084" />
      <path
         d="m 278.79075,827.11612 11.418,-34.518 c 0.396,-1.188 0.66,-2.046 0.66,-2.706 l 0,-1.122 c 0,-1.188 -0.594,-1.65 -1.782,-1.65 l -21.318,0 c -1.254,0 -2.046,0.66 -2.178,1.848 l -0.33,2.904 c -0.066,0.33 -0.066,0.594 -0.066,0.858 0,1.452 0.66,2.178 2.178,2.178 1.518,0 2.244,-0.99 2.376,-2.97 l 16.368,0 -12.672,34.386 c -0.132,0.396 -0.198,0.792 -0.198,1.056 0,0.594 0.528,0.99 1.386,0.99 l 2.31,0 c 0.198,0 0.33,0 0.528,0 0.726,0 0.924,-0.066 1.32,-1.254"
         style=""
         id="path3086" />
      <path
         d="m 351.399,822.49612 c 0,3.3 2.508,5.742 6.336,5.742 3.828,0 6.336,-2.376 6.336,-5.742 0,-3.36599 -2.508,-5.742 -6.336,-5.742 -3.828,0 -6.336,2.44201 -6.336,5.742"
         style=""
         id="path3088" />
    </g>
    <g
       style="font-size:25.04329872px;font-style:normal;font-variant:normal;font-weight:normal;font-stretch:normal;line-height:125%;letter-spacing:0px;word-spacing:0px;fill:#999999;fill-opacity:1;stroke:none;font-family:Ubuntu;-inkscape-font-specification:Ubuntu"
       id="text2991">
      <path
         d="m 42.617252,1017.601 0,17.325 -2.425,0 0,-15.25 -8.325,0 0,15.25 -2.425,0 0,-17.325 13.175,0"
         style="font-size:25px;fill:#999999"
         id="path3091" />
      <path
         d="m 51.17272,1033.251 c 0.549993,0 1.033326,-0.01 1.45,-0.025 0.433325,-0.033 0.791658,-0.083 1.075,-0.15 l 0,-3.875 c -0.166675,-0.083 -0.441675,-0.15 -0.825,-0.2 -0.366674,-0.067 -0.816674,-0.1 -1.35,-0.1 -0.350006,0 -0.725006,0.025 -1.125,0.075 -0.383338,0.05 -0.741671,0.1584 -1.075,0.325 -0.316671,0.15 -0.583337,0.3667 -0.8,0.65 -0.21667,0.2667 -0.325003,0.625 -0.325,1.075 -3e-6,0.8334 0.266663,1.4167 0.8,1.75 0.533329,0.3167 1.258328,0.475 2.175,0.475 m -0.2,-11.65 c 0.933327,0 1.716659,0.125 2.35,0.375 0.649991,0.2334 1.166657,0.575 1.55,1.025 0.39999,0.4334 0.683323,0.9584 0.85,1.575 0.166656,0.6 0.249989,1.2667 0.25,2 l 0,8.125 c -0.200011,0.033 -0.483344,0.083 -0.85,0.15 -0.35001,0.05 -0.750009,0.1 -1.2,0.15 -0.450008,0.05 -0.941675,0.092 -1.475,0.125 -0.516673,0.05 -1.03334,0.075 -1.55,0.075 -0.733338,0 -1.408338,-0.075 -2.025,-0.225 -0.61667,-0.15 -1.150003,-0.3833 -1.6,-0.7 -0.450002,-0.3333 -0.800001,-0.7666 -1.05,-1.3 -0.250001,-0.5333 -0.375001,-1.175 -0.375,-1.925 -1e-6,-0.7166 0.141666,-1.3333 0.425,-1.85 0.299999,-0.5166 0.699998,-0.9333 1.2,-1.25 0.499997,-0.3166 1.08333,-0.55 1.75,-0.7 0.666662,-0.15 1.366661,-0.225 2.1,-0.225 0.233327,0 0.474993,0.017 0.725,0.05 0.249993,0.017 0.483326,0.05 0.7,0.1 0.233325,0.033 0.433325,0.067 0.6,0.1 0.166658,0.033 0.283325,0.058 0.35,0.075 l 0,-0.65 c -9e-6,-0.3833 -0.04167,-0.7583 -0.125,-1.125 -0.08334,-0.3833 -0.233342,-0.7166 -0.45,-1 -0.216674,-0.3 -0.516674,-0.5333 -0.9,-0.7 -0.366673,-0.1833 -0.850006,-0.275 -1.45,-0.275 -0.766672,0 -1.441671,0.058 -2.025,0.175 -0.56667,0.1 -0.991669,0.2084 -1.275,0.325 l -0.275,-1.925 c 0.299998,-0.1333 0.799997,-0.2583 1.5,-0.375 0.699996,-0.1333 1.458328,-0.2 2.275,-0.2"
         style="font-size:25px;fill:#999999"
         id="path3093" />
      <path
         d="m 64.33483,1023.876 c -7e-6,0.55 -0.01667,1.1417 -0.05,1.775 -0.01667,0.6167 -0.05834,1.2417 -0.125,1.875 -0.06667,0.6167 -0.15834,1.2334 -0.275,1.85 -0.116673,0.6 -0.266673,1.1667 -0.45,1.7 -0.183339,0.5334 -0.416672,1.0334 -0.7,1.5 -0.266672,0.4667 -0.600005,0.8834 -1,1.25 -0.400004,0.35 -0.86667,0.65 -1.4,0.9 -0.533336,0.2334 -1.158335,0.3834 -1.875,0.45 l -0.325,-1.95 c 0.816665,-0.1666 1.458331,-0.475 1.925,-0.925 0.48333,-0.45 0.866663,-1 1.15,-1.65 0.249996,-0.5666 0.433329,-1.2083 0.55,-1.925 0.116662,-0.7166 0.199996,-1.4583 0.25,-2.225 0.04999,-0.7833 0.075,-1.5666 0.075,-2.35 0.01666,-0.7833 0.025,-1.525 0.025,-2.225 l 8.65,0 0,13 -2.325,0 0,-11.05 -4.1,0"
         style="font-size:25px;fill:#999999"
         id="path3095" />
      <path
         d="m 80.126236,1029.876 c -0.250007,0 -0.491674,0 -0.725,0 -0.23334,-0.017 -0.45834,-0.033 -0.675,-0.05 -0.533339,0.8 -1.050005,1.6584 -1.55,2.575 -0.483337,0.9 -0.91667,1.7417 -1.3,2.525 l -2.35,0 c 0.199999,-0.4833 0.433332,-0.975 0.7,-1.475 0.266665,-0.5166 0.533331,-1.0166 0.8,-1.5 0.283331,-0.4833 0.566664,-0.9416 0.85,-1.375 0.28333,-0.4333 0.549996,-0.825 0.8,-1.175 -0.46667,-0.1666 -0.850003,-0.3666 -1.15,-0.6 -0.300003,-0.25 -0.541669,-0.525 -0.725,-0.825 -0.183335,-0.3 -0.316668,-0.6166 -0.4,-0.95 -0.06667,-0.35 -0.100002,-0.7 -0.1,-1.05 -2e-6,-0.7333 0.133332,-1.375 0.4,-1.925 0.283331,-0.55 0.666664,-1 1.15,-1.35 0.48333,-0.3666 1.049996,-0.6416 1.7,-0.825 0.666661,-0.1833 1.39166,-0.275 2.175,-0.275 1.099992,0 2.033324,0.05 2.8,0.15 0.766656,0.1 1.408322,0.2167 1.925,0.35 l 0,12.825 -2.3,0 0,-5.05 -2.025,0 m 2.025,-6.225 c -0.183343,-0.033 -0.491676,-0.067 -0.925,-0.1 -0.416675,-0.033 -0.900008,-0.05 -1.45,-0.05 -0.950006,0 -1.716672,0.2 -2.3,0.6 -0.583338,0.3834 -0.875004,1 -0.875,1.85 -4e-6,0.8334 0.299996,1.4084 0.9,1.725 0.599995,0.3167 1.374994,0.475 2.325,0.475 l 2.325,0 0,-4.5"
         style="font-size:25px;fill:#999999"
         id="path3097" />
      <path
         d="m 98.921939,1034.926 -2.325,0 0,-11.05 -5.8,0 0,11.05 -2.325,0 0,-13 10.45,0 0,13"
         style="font-size:25px;fill:#999999"
         id="path3099" />
      <path
         d="m 102.92506,1034.926 0,-13 2.325,0 0,11.075 4.8,0 0,-11.075 2.325,0 0,11.075 4.8,0 0,-11.075 2.325,0 0,13 -16.575,0"
         style="font-size:25px;fill:#999999"
         id="path3101" />
      <path
         d="m 127.8817,1033.251 c 0.55,0 1.03333,-0.01 1.45,-0.025 0.43333,-0.033 0.79166,-0.083 1.075,-0.15 l 0,-3.875 c -0.16667,-0.083 -0.44167,-0.15 -0.825,-0.2 -0.36667,-0.067 -0.81667,-0.1 -1.35,-0.1 -0.35,0 -0.725,0.025 -1.125,0.075 -0.38333,0.05 -0.74167,0.1584 -1.075,0.325 -0.31667,0.15 -0.58333,0.3667 -0.8,0.65 -0.21667,0.2667 -0.325,0.625 -0.325,1.075 0,0.8334 0.26667,1.4167 0.8,1.75 0.53333,0.3167 1.25833,0.475 2.175,0.475 m -0.2,-11.65 c 0.93333,0 1.71666,0.125 2.35,0.375 0.65,0.2334 1.16666,0.575 1.55,1.025 0.39999,0.4334 0.68333,0.9584 0.85,1.575 0.16666,0.6 0.24999,1.2667 0.25,2 l 0,8.125 c -0.20001,0.033 -0.48334,0.083 -0.85,0.15 -0.35001,0.05 -0.75,0.1 -1.2,0.15 -0.45,0.05 -0.94167,0.092 -1.475,0.125 -0.51667,0.05 -1.03334,0.075 -1.55,0.075 -0.73333,0 -1.40833,-0.075 -2.025,-0.225 -0.61667,-0.15 -1.15,-0.3833 -1.6,-0.7 -0.45,-0.3333 -0.8,-0.7666 -1.05,-1.3 -0.25,-0.5333 -0.375,-1.175 -0.375,-1.925 0,-0.7166 0.14167,-1.3333 0.425,-1.85 0.3,-0.5166 0.7,-0.9333 1.2,-1.25 0.5,-0.3166 1.08333,-0.55 1.75,-0.7 0.66667,-0.15 1.36667,-0.225 2.1,-0.225 0.23333,0 0.475,0.017 0.725,0.05 0.25,0.017 0.48333,0.05 0.7,0.1 0.23333,0.033 0.43333,0.067 0.6,0.1 0.16666,0.033 0.28333,0.058 0.35,0.075 l 0,-0.65 c 0,-0.3833 -0.0417,-0.7583 -0.125,-1.125 -0.0833,-0.3833 -0.23334,-0.7166 -0.45,-1 -0.21667,-0.3 -0.51667,-0.5333 -0.9,-0.7 -0.36667,-0.1833 -0.85,-0.275 -1.45,-0.275 -0.76667,0 -1.44167,0.058 -2.025,0.175 -0.56667,0.1 -0.99166,0.2084 -1.275,0.325 l -0.275,-1.925 c 0.3,-0.1333 0.8,-0.2583 1.5,-0.375 0.7,-0.1333 1.45833,-0.2 2.275,-0.2"
         style="font-size:25px;fill:#999999"
         id="path3103" />
      <path
         d="m 135.79381,1028.451 c 0,-1.15 0.16667,-2.15 0.5,-3 0.33334,-0.8666 0.775,-1.5833 1.325,-2.15 0.55,-0.5666 1.18333,-0.9916 1.9,-1.275 0.71667,-0.2833 1.45,-0.425 2.2,-0.425 1.75,0 3.09166,0.55 4.025,1.65 0.93333,1.0834 1.39999,2.7417 1.4,4.975 -1e-5,0.1 -1e-5,0.2334 0,0.4 -1e-5,0.15 -0.008,0.2917 -0.025,0.425 l -8.9,0 c 0.1,1.35 0.49167,2.375 1.175,3.075 0.68333,0.7 1.75,1.05 3.2,1.05 0.81666,0 1.49999,-0.067 2.05,-0.2 0.56666,-0.15 0.99166,-0.2916 1.275,-0.425 l 0.325,1.95 c -0.28334,0.15 -0.78334,0.3084 -1.5,0.475 -0.70001,0.1667 -1.5,0.25 -2.4,0.25 -1.13334,0 -2.11667,-0.1666 -2.95,-0.5 -0.81667,-0.35 -1.49167,-0.825 -2.025,-1.425 -0.53333,-0.6 -0.93333,-1.3083 -1.2,-2.125 -0.25,-0.8333 -0.375,-1.7416 -0.375,-2.725 m 8.925,-1.275 c 0.0167,-1.05 -0.25001,-1.9083 -0.8,-2.575 -0.53334,-0.6833 -1.275,-1.025 -2.225,-1.025 -0.53334,0 -1.00834,0.1084 -1.425,0.325 -0.4,0.2 -0.74167,0.4667 -1.025,0.8 -0.28333,0.3334 -0.50833,0.7167 -0.675,1.15 -0.15,0.4334 -0.25,0.875 -0.3,1.325 l 6.45,0"
         style="font-size:25px;fill:#999999"
         id="path3105" />
      <path
         d="m 160.64538,1033.251 c 0.54999,0 1.03332,-0.01 1.45,-0.025 0.43332,-0.033 0.79165,-0.083 1.075,-0.15 l 0,-3.875 c -0.16668,-0.083 -0.44168,-0.15 -0.825,-0.2 -0.36668,-0.067 -0.81668,-0.1 -1.35,-0.1 -0.35001,0 -0.72501,0.025 -1.125,0.075 -0.38334,0.05 -0.74167,0.1584 -1.075,0.325 -0.31667,0.15 -0.58334,0.3667 -0.8,0.65 -0.21667,0.2667 -0.32501,0.625 -0.325,1.075 -1e-5,0.8334 0.26666,1.4167 0.8,1.75 0.53333,0.3167 1.25832,0.475 2.175,0.475 m -0.2,-11.65 c 0.93332,0 1.71666,0.125 2.35,0.375 0.64999,0.2334 1.16665,0.575 1.55,1.025 0.39999,0.4334 0.68332,0.9584 0.85,1.575 0.16665,0.6 0.24999,1.2667 0.25,2 l 0,8.125 c -0.20001,0.033 -0.48335,0.083 -0.85,0.15 -0.35001,0.05 -0.75001,0.1 -1.2,0.15 -0.45001,0.05 -0.94168,0.092 -1.475,0.125 -0.51668,0.05 -1.03334,0.075 -1.55,0.075 -0.73334,0 -1.40834,-0.075 -2.025,-0.225 -0.61667,-0.15 -1.15001,-0.3833 -1.6,-0.7 -0.45001,-0.3333 -0.80001,-0.7666 -1.05,-1.3 -0.25,-0.5333 -0.375,-1.175 -0.375,-1.925 0,-0.7166 0.14166,-1.3333 0.425,-1.85 0.29999,-0.5166 0.69999,-0.9333 1.2,-1.25 0.49999,-0.3166 1.08333,-0.55 1.75,-0.7 0.66666,-0.15 1.36666,-0.225 2.1,-0.225 0.23332,0 0.47499,0.017 0.725,0.05 0.24999,0.017 0.48332,0.05 0.7,0.1 0.23332,0.033 0.43332,0.067 0.6,0.1 0.16665,0.033 0.28332,0.058 0.35,0.075 l 0,-0.65 c -1e-5,-0.3833 -0.0417,-0.7583 -0.125,-1.125 -0.0833,-0.3833 -0.23335,-0.7166 -0.45,-1 -0.21668,-0.3 -0.51668,-0.5333 -0.9,-0.7 -0.36668,-0.1833 -0.85001,-0.275 -1.45,-0.275 -0.76668,0 -1.44167,0.058 -2.025,0.175 -0.56667,0.1 -0.99167,0.2084 -1.275,0.325 l -0.275,-1.925 c 0.29999,-0.1333 0.79999,-0.2583 1.5,-0.375 0.69999,-0.1333 1.45832,-0.2 2.275,-0.2"
         style="font-size:25px;fill:#999999"
         id="path3107" />
      <path
         d="m 167.68249,1033.026 1.4,0 c 0.54999,-0.8 0.98333,-1.625 1.3,-2.475 0.33333,-0.85 0.58333,-1.725 0.75,-2.625 0.16666,-0.9166 0.27499,-1.8666 0.325,-2.85 0.05,-1 0.0833,-2.05 0.1,-3.15 l 8.525,0 0,11.1 1.75,0 0,5.525 -2.2,0 0,-3.625 -9.75,0 0,3.625 -2.2,0 0,-5.525 m 10.075,0 0,-9.15 -4.075,0 c -0.0167,0.7834 -0.0583,1.575 -0.125,2.375 -0.0667,0.7834 -0.17501,1.5667 -0.325,2.35 -0.15001,0.7667 -0.36668,1.525 -0.65,2.275 -0.26668,0.7334 -0.60834,1.45 -1.025,2.15 l 6.2,0"
         style="font-size:25px;fill:#999999"
         id="path3109" />
      <path
         d="m 189.12038,1027.851 c 0.51666,0.3667 1.07499,0.8334 1.675,1.4 0.59999,0.55 1.18332,1.15 1.75,1.8 0.58332,0.65 1.12499,1.3167 1.625,2 0.49998,0.6667 0.92498,1.2917 1.275,1.875 l -2.75,0 c -0.36668,-0.5666 -0.80001,-1.1416 -1.3,-1.725 -0.48335,-0.6 -0.99168,-1.175 -1.525,-1.725 -0.53334,-0.55 -1.07501,-1.0583 -1.625,-1.525 -0.55001,-0.4666 -1.06667,-0.8583 -1.55,-1.175 l 0,6.15 -2.325,0 0,-13 2.325,0 0,5.575 c 0.39999,-0.3833 0.85832,-0.825 1.375,-1.325 0.51666,-0.5166 1.03332,-1.0333 1.55,-1.55 0.53332,-0.5333 1.02499,-1.0333 1.475,-1.5 0.44999,-0.4833 0.81665,-0.8833 1.1,-1.2 l 2.7,0 c -0.36668,0.4 -0.80002,0.8584 -1.3,1.375 -0.48335,0.5 -0.99168,1.0167 -1.525,1.55 -0.51668,0.5334 -1.03335,1.0667 -1.55,1.6 -0.51668,0.5167 -0.98334,0.9834 -1.4,1.4"
         style="font-size:25px;fill:#999999"
         id="path3111" />
      <path
         d="m 206.82311,1028.451 c -1e-5,-1.5166 -0.37501,-2.6833 -1.125,-3.5 -0.75001,-0.8166 -1.75001,-1.225 -3,-1.225 -0.70001,0 -1.25,0.025 -1.65,0.075 -0.38334,0.05 -0.69167,0.1084 -0.925,0.175 l 0,8.2 c 0.28333,0.2334 0.69166,0.4584 1.225,0.675 0.53333,0.2167 1.11666,0.325 1.75,0.325 0.66666,0 1.23333,-0.1166 1.7,-0.35 0.48332,-0.25 0.87499,-0.5833 1.175,-1 0.29999,-0.4333 0.51666,-0.9333 0.65,-1.5 0.13332,-0.5833 0.19999,-1.2083 0.2,-1.875 m 2.425,0 c -1e-5,0.9834 -0.13335,1.8917 -0.4,2.725 -0.25001,0.8334 -0.62501,1.55 -1.125,2.15 -0.50001,0.6 -1.11668,1.0667 -1.85,1.4 -0.71668,0.3334 -1.54167,0.5 -2.475,0.5 -0.75001,0 -1.41667,-0.1 -2,-0.3 -0.56667,-0.2 -0.99167,-0.3916 -1.275,-0.575 l 0,5.2 -2.325,0 0,-17.225 c 0.55,-0.1333 1.23333,-0.275 2.05,-0.425 0.83333,-0.1666 1.79166,-0.25 2.875,-0.25 0.99999,0 1.89999,0.1584 2.7,0.475 0.79999,0.3167 1.48332,0.7667 2.05,1.35 0.56666,0.5834 0.99999,1.3 1.3,2.15 0.31665,0.8334 0.47499,1.775 0.475,2.825"
         style="font-size:25px;fill:#999999"
         id="path3113" />
      <path
         d="m 217.3192,1028.501 c -0.45,0 -0.89167,0.017 -1.325,0.05 -0.41667,0.017 -0.79167,0.067 -1.125,0.15 l 0,4.475 c 0.1,0.017 0.24167,0.033 0.425,0.05 0.2,0.017 0.40833,0.033 0.625,0.05 0.23333,0 0.46667,0.01 0.7,0.025 0.23333,0 0.44166,0 0.625,0 1.01666,0 1.8,-0.1916 2.35,-0.575 0.55,-0.3833 0.82499,-1 0.825,-1.85 -1e-5,-0.4166 -0.0917,-0.775 -0.275,-1.075 -0.16667,-0.3 -0.4,-0.5416 -0.7,-0.725 -0.28334,-0.2 -0.60834,-0.3416 -0.975,-0.425 -0.36667,-0.1 -0.75,-0.15 -1.15,-0.15 m -4.775,-6.575 2.325,0 0,4.975 c 0.28333,-0.067 0.69167,-0.1333 1.225,-0.2 0.55,-0.067 1.075,-0.1 1.575,-0.1 0.68333,0 1.33333,0.083 1.95,0.25 0.61666,0.15 1.15833,0.4 1.625,0.75 0.46666,0.3334 0.83333,0.775 1.1,1.325 0.28333,0.5334 0.42499,1.175 0.425,1.925 -1e-5,0.7834 -0.13334,1.45 -0.4,2 -0.26667,0.55 -0.64167,1 -1.125,1.35 -0.48334,0.35 -1.06667,0.6 -1.75,0.75 -0.68334,0.1667 -1.43334,0.25 -2.25,0.25 -0.78333,0 -1.575,-0.05 -2.375,-0.15 -0.8,-0.083 -1.575,-0.2166 -2.325,-0.4 l 0,-12.725 m 14.95,13 -2.325,0 0,-13 2.325,0 0,13"
         style="font-size:25px;fill:#999999"
         id="path3115" />
      <path
         d="m 240.66452,1021.926 0,1.95 -4.225,0 0,11.05 -2.325,0 0,-11.05 -4.225,0 0,-1.95 10.775,0"
         style="font-size:25px;fill:#999999"
         id="path3117" />
      <path
         d="m 247.46178,1033.251 c 0.55,0 1.03333,-0.01 1.45,-0.025 0.43333,-0.033 0.79166,-0.083 1.075,-0.15 l 0,-3.875 c -0.16667,-0.083 -0.44167,-0.15 -0.825,-0.2 -0.36667,-0.067 -0.81667,-0.1 -1.35,-0.1 -0.35,0 -0.725,0.025 -1.125,0.075 -0.38334,0.05 -0.74167,0.1584 -1.075,0.325 -0.31667,0.15 -0.58333,0.3667 -0.8,0.65 -0.21667,0.2667 -0.325,0.625 -0.325,1.075 0,0.8334 0.26667,1.4167 0.8,1.75 0.53333,0.3167 1.25833,0.475 2.175,0.475 m -0.2,-11.65 c 0.93333,0 1.71666,0.125 2.35,0.375 0.64999,0.2334 1.16666,0.575 1.55,1.025 0.39999,0.4334 0.68333,0.9584 0.85,1.575 0.16666,0.6 0.24999,1.2667 0.25,2 l 0,8.125 c -0.20001,0.033 -0.48334,0.083 -0.85,0.15 -0.35001,0.05 -0.75001,0.1 -1.2,0.15 -0.45001,0.05 -0.94167,0.092 -1.475,0.125 -0.51667,0.05 -1.03334,0.075 -1.55,0.075 -0.73334,0 -1.40834,-0.075 -2.025,-0.225 -0.61667,-0.15 -1.15,-0.3833 -1.6,-0.7 -0.45,-0.3333 -0.8,-0.7666 -1.05,-1.3 -0.25,-0.5333 -0.375,-1.175 -0.375,-1.925 0,-0.7166 0.14167,-1.3333 0.425,-1.85 0.3,-0.5166 0.7,-0.9333 1.2,-1.25 0.5,-0.3166 1.08333,-0.55 1.75,-0.7 0.66666,-0.15 1.36666,-0.225 2.1,-0.225 0.23333,0 0.475,0.017 0.725,0.05 0.25,0.017 0.48333,0.05 0.7,0.1 0.23333,0.033 0.43333,0.067 0.6,0.1 0.16666,0.033 0.28333,0.058 0.35,0.075 l 0,-0.65 c -1e-5,-0.3833 -0.0417,-0.7583 -0.125,-1.125 -0.0833,-0.3833 -0.23334,-0.7166 -0.45,-1 -0.21667,-0.3 -0.51667,-0.5333 -0.9,-0.7 -0.36667,-0.1833 -0.85,-0.275 -1.45,-0.275 -0.76667,0 -1.44167,0.058 -2.025,0.175 -0.56667,0.1 -0.99167,0.2084 -1.275,0.325 l -0.275,-1.925 c 0.3,-0.1333 0.8,-0.2583 1.5,-0.375 0.7,-0.1333 1.45833,-0.2 2.275,-0.2"
         style="font-size:25px;fill:#999999"
         id="path3119" />
      <path
         d="m 261.74889,1035.226 c -1.05,0 -1.975,-0.1666 -2.775,-0.5 -0.78334,-0.3333 -1.45,-0.8 -2,-1.4 -0.53333,-0.6 -0.93333,-1.3083 -1.2,-2.125 -0.26667,-0.8333 -0.4,-1.75 -0.4,-2.75 0,-1 0.14167,-1.9166 0.425,-2.75 0.3,-0.8333 0.71667,-1.55 1.25,-2.15 0.53333,-0.6166 1.18333,-1.0916 1.95,-1.425 0.78333,-0.35 1.65,-0.525 2.6,-0.525 0.58333,0 1.16666,0.05 1.75,0.15 0.58333,0.1 1.14166,0.2584 1.675,0.475 l -0.525,1.975 c -0.35001,-0.1666 -0.75834,-0.3 -1.225,-0.4 -0.45001,-0.1 -0.93334,-0.15 -1.45,-0.15 -1.3,0 -2.3,0.4084 -3,1.225 -0.68334,0.8167 -1.025,2.0084 -1.025,3.575 0,0.7 0.075,1.3417 0.225,1.925 0.16666,0.5834 0.41666,1.0834 0.75,1.5 0.35,0.4167 0.79166,0.7417 1.325,0.975 0.53333,0.2167 1.18333,0.325 1.95,0.325 0.61666,0 1.17499,-0.058 1.675,-0.175 0.49999,-0.1166 0.89166,-0.2416 1.175,-0.375 l 0.325,1.95 c -0.13334,0.083 -0.32501,0.1667 -0.575,0.25 -0.25001,0.067 -0.53334,0.125 -0.85,0.175 -0.31667,0.067 -0.65834,0.1167 -1.025,0.15 -0.35001,0.05 -0.69167,0.075 -1.025,0.075"
         style="font-size:25px;fill:#999999"
         id="path3121" />
      <path
         d="m 278.09499,1033.001 1.75,0 0,5.55 -2.2,0 0,-3.625 -9.925,0 0,-13 2.325,0 0,11.075 5.725,0 0,-11.075 2.325,0 0,11.075"
         style="font-size:25px;fill:#999999"
         id="path3123" />
      <path
         d="m 287.29342,1033.301 c 0.98333,0 1.75833,-0.1916 2.325,-0.575 0.56666,-0.3833 0.84999,-1 0.85,-1.85 -10e-6,-0.4166 -0.0833,-0.775 -0.25,-1.075 -0.16667,-0.3 -0.40001,-0.5416 -0.7,-0.725 -0.28334,-0.2 -0.61667,-0.3416 -1,-0.425 -0.38334,-0.1 -0.79167,-0.15 -1.225,-0.15 -0.45,0 -0.91667,0.017 -1.4,0.05 -0.46667,0.017 -0.86667,0.067 -1.2,0.15 l 0,4.475 c 0.1,0.017 0.25,0.033 0.45,0.05 0.2,0.017 0.41666,0.033 0.65,0.05 0.25,0 0.5,0.01 0.75,0.025 0.26666,0 0.51666,0 0.75,0 m -4.925,1.35 0,-12.725 2.325,0 0,4.975 c 0.13333,-0.033 0.30833,-0.067 0.525,-0.1 0.23333,-0.033 0.475,-0.067 0.725,-0.1 0.26666,-0.033 0.54166,-0.058 0.825,-0.075 0.28333,-0.017 0.55,-0.025 0.8,-0.025 0.71666,0 1.39166,0.083 2.025,0.25 0.63333,0.15 1.18333,0.4 1.65,0.75 0.48333,0.3334 0.86666,0.775 1.15,1.325 0.28332,0.5334 0.42499,1.175 0.425,1.925 -1e-5,0.7834 -0.13334,1.45 -0.4,2 -0.26667,0.55 -0.65001,1 -1.15,1.35 -0.50001,0.35 -1.10001,0.6 -1.8,0.75 -0.68334,0.1667 -1.45,0.25 -2.3,0.25 -0.83334,0 -1.65,-0.05 -2.45,-0.15 -0.8,-0.083 -1.58333,-0.2166 -2.35,-0.4"
         style="font-size:25px;fill:#999999"
         id="path3125" />
    </g>
    <g
       style="font-size:24.28185844px;font-style:normal;font-variant:normal;font-weight:normal;font-stretch:normal;line-height:125%;letter-spacing:0px;word-spacing:0px;fill:#4d4d4d;fill-opacity:1;stroke:none;font-family:Ubuntu;-inkscape-font-specification:Ubuntu"
       id="text2995">
      <path
         d="m 370.06859,1015.714 c 0.68333,0 1.26666,0.05 1.75,0.15 0.49999,0.1 0.84999,0.1917 1.05,0.275 l -0.425,2 c -0.20001,-0.1 -0.48334,-0.1916 -0.85,-0.275 -0.36667,-0.1 -0.81667,-0.15 -1.35,-0.15 -1.08334,0 -1.84167,0.3 -2.275,0.9 -0.43334,0.5834 -0.65,1.375 -0.65,2.375 l 0,1.125 5,0 0,1.95 -5,0 0,11.05 -2.325,0 0,-14.175 c 0,-1.6666 0.40833,-2.95 1.225,-3.85 0.81666,-0.9166 2.1,-1.375 3.85,-1.375"
         style="font-size:25px;fill:#4d4d4d"
         id="path3128" />
      <path
         d="m 379.06156,1033.439 c 0.54999,0 1.03333,-0.01 1.45,-0.025 0.43333,-0.033 0.79166,-0.083 1.075,-0.15 l 0,-3.875 c -0.16668,-0.083 -0.44168,-0.15 -0.825,-0.2 -0.36667,-0.067 -0.81667,-0.1 -1.35,-0.1 -0.35001,0 -0.72501,0.025 -1.125,0.075 -0.38334,0.05 -0.74167,0.1584 -1.075,0.325 -0.31667,0.15 -0.58334,0.3667 -0.8,0.65 -0.21667,0.2667 -0.325,0.625 -0.325,1.075 0,0.8334 0.26666,1.4167 0.8,1.75 0.53333,0.3167 1.25833,0.475 2.175,0.475 m -0.2,-11.65 c 0.93333,0 1.71666,0.125 2.35,0.375 0.64999,0.2334 1.16666,0.575 1.55,1.025 0.39999,0.4334 0.68332,0.9584 0.85,1.575 0.16666,0.6 0.24999,1.2667 0.25,2 l 0,8.125 c -0.20001,0.033 -0.48334,0.083 -0.85,0.15 -0.35001,0.05 -0.75001,0.1 -1.2,0.15 -0.45001,0.05 -0.94167,0.092 -1.475,0.125 -0.51667,0.05 -1.03334,0.075 -1.55,0.075 -0.73334,0 -1.40834,-0.075 -2.025,-0.225 -0.61667,-0.15 -1.15,-0.3833 -1.6,-0.7 -0.45,-0.3333 -0.8,-0.7667 -1.05,-1.3 -0.25,-0.5333 -0.375,-1.175 -0.375,-1.925 0,-0.7166 0.14167,-1.3333 0.425,-1.85 0.3,-0.5166 0.7,-0.9333 1.2,-1.25 0.5,-0.3166 1.08333,-0.55 1.75,-0.7 0.66666,-0.15 1.36666,-0.225 2.1,-0.225 0.23333,0 0.47499,0.017 0.725,0.05 0.24999,0.017 0.48333,0.05 0.7,0.1 0.23333,0.033 0.43332,0.067 0.6,0.1 0.16666,0.033 0.28332,0.058 0.35,0.075 l 0,-0.65 c -1e-5,-0.3833 -0.0417,-0.7583 -0.125,-1.125 -0.0833,-0.3833 -0.23334,-0.7166 -0.45,-1 -0.21667,-0.3 -0.51667,-0.5333 -0.9,-0.7 -0.36667,-0.1833 -0.85001,-0.275 -1.45,-0.275 -0.76667,0 -1.44167,0.058 -2.025,0.175 -0.56667,0.1 -0.99167,0.2084 -1.275,0.325 l -0.275,-1.925 c 0.3,-0.1333 0.8,-0.2583 1.5,-0.375 0.7,-0.1333 1.45833,-0.2 2.275,-0.2"
         style="font-size:25px;fill:#4d4d4d"
         id="path3130" />
      <path
         d="m 391.59867,1035.364 c -1.43334,-0.033 -2.45,-0.3417 -3.05,-0.925 -0.6,-0.5833 -0.9,-1.4917 -0.9,-2.725 l 0,-15.6 2.325,-0.4 0,15.625 c 0,0.3834 0.0333,0.7 0.1,0.95 0.0667,0.25 0.17499,0.45 0.325,0.6 0.14999,0.15 0.34999,0.2667 0.6,0.35 0.24999,0.067 0.55833,0.125 0.925,0.175 l -0.325,1.95"
         style="font-size:25px;fill:#4d4d4d"
         id="path3132" />
      <path
         d="m 398.93461,1033.439 c 0.54999,0 1.03332,-0.01 1.45,-0.025 0.43332,-0.033 0.79165,-0.083 1.075,-0.15 l 0,-3.875 c -0.16668,-0.083 -0.44168,-0.15 -0.825,-0.2 -0.36668,-0.067 -0.81668,-0.1 -1.35,-0.1 -0.35001,0 -0.72501,0.025 -1.125,0.075 -0.38334,0.05 -0.74167,0.1584 -1.075,0.325 -0.31667,0.15 -0.58334,0.3667 -0.8,0.65 -0.21667,0.2667 -0.32501,0.625 -0.325,1.075 -10e-6,0.8334 0.26666,1.4167 0.8,1.75 0.53333,0.3167 1.25832,0.475 2.175,0.475 m -0.2,-11.65 c 0.93332,0 1.71666,0.125 2.35,0.375 0.64999,0.2334 1.16665,0.575 1.55,1.025 0.39999,0.4334 0.68332,0.9584 0.85,1.575 0.16665,0.6 0.24999,1.2667 0.25,2 l 0,8.125 c -0.20001,0.033 -0.48335,0.083 -0.85,0.15 -0.35001,0.05 -0.75001,0.1 -1.2,0.15 -0.45001,0.05 -0.94168,0.092 -1.475,0.125 -0.51668,0.05 -1.03334,0.075 -1.55,0.075 -0.73334,0 -1.40834,-0.075 -2.025,-0.225 -0.61667,-0.15 -1.15001,-0.3833 -1.6,-0.7 -0.45001,-0.3333 -0.8,-0.7667 -1.05,-1.3 -0.25,-0.5333 -0.375,-1.175 -0.375,-1.925 0,-0.7166 0.14166,-1.3333 0.425,-1.85 0.3,-0.5166 0.69999,-0.9333 1.2,-1.25 0.49999,-0.3166 1.08333,-0.55 1.75,-0.7 0.66666,-0.15 1.36666,-0.225 2.1,-0.225 0.23332,0 0.47499,0.017 0.725,0.05 0.24999,0.017 0.48332,0.05 0.7,0.1 0.23332,0.033 0.43332,0.067 0.6,0.1 0.16665,0.033 0.28332,0.058 0.35,0.075 l 0,-0.65 c -10e-6,-0.3833 -0.0417,-0.7583 -0.125,-1.125 -0.0833,-0.3833 -0.23334,-0.7166 -0.45,-1 -0.21668,-0.3 -0.51668,-0.5333 -0.9,-0.7 -0.36668,-0.1833 -0.85001,-0.275 -1.45,-0.275 -0.76667,0 -1.44167,0.058 -2.025,0.175 -0.56667,0.1 -0.99167,0.2084 -1.275,0.325 l -0.275,-1.925 c 0.29999,-0.1333 0.79999,-0.2583 1.5,-0.375 0.69999,-0.1333 1.45832,-0.2 2.275,-0.2"
         style="font-size:25px;fill:#4d4d4d"
         id="path3134" />
      <path
         d="m 407.57172,1022.489 c 0.53333,-0.1333 1.24166,-0.275 2.125,-0.425 0.88332,-0.15 1.89999,-0.225 3.05,-0.225 1.03332,0 1.89165,0.15 2.575,0.45 0.68332,0.2834 1.22499,0.6917 1.625,1.225 0.41665,0.5167 0.70832,1.1417 0.875,1.875 0.16665,0.7334 0.24998,1.5417 0.25,2.425 l 0,7.3 -2.325,0 0,-6.8 c -10e-6,-0.8 -0.0583,-1.4833 -0.175,-2.05 -0.10001,-0.5666 -0.27501,-1.025 -0.525,-1.375 -0.25001,-0.35 -0.58335,-0.6 -1,-0.75 -0.41668,-0.1666 -0.93334,-0.25 -1.55,-0.25 -0.25001,0 -0.50834,0.01 -0.775,0.025 -0.26668,0.017 -0.52501,0.042 -0.775,0.075 -0.23334,0.017 -0.45001,0.042 -0.65,0.075 -0.18334,0.033 -0.31667,0.058 -0.4,0.075 l 0,10.975 -2.325,0 0,-12.625"
         style="font-size:25px;fill:#4d4d4d"
         id="path3136" />
      <path
         d="m 424.95219,1033.439 c 0.94999,0 1.64999,-0.125 2.1,-0.375 0.46665,-0.25 0.69999,-0.65 0.7,-1.2 -10e-6,-0.5666 -0.22501,-1.0166 -0.675,-1.35 -0.45001,-0.3333 -1.19168,-0.7083 -2.225,-1.125 -0.50001,-0.2 -0.98334,-0.4 -1.45,-0.6 -0.45001,-0.2166 -0.84167,-0.4666 -1.175,-0.75 -0.33334,-0.2833 -0.60001,-0.625 -0.8,-1.025 -0.20001,-0.4 -0.30001,-0.8916 -0.3,-1.475 -10e-6,-1.15 0.42499,-2.0583 1.275,-2.725 0.84999,-0.6833 2.00832,-1.025 3.475,-1.025 0.36666,0 0.73332,0.025 1.1,0.075 0.36665,0.033 0.70832,0.083 1.025,0.15 0.31665,0.05 0.59165,0.1084 0.825,0.175 0.24999,0.067 0.44165,0.125 0.575,0.175 l -0.425,2 c -0.25001,-0.1333 -0.64168,-0.2666 -1.175,-0.4 -0.53335,-0.15 -1.17501,-0.225 -1.925,-0.225 -0.65001,0 -1.21668,0.1334 -1.7,0.4 -0.48334,0.25 -0.72501,0.65 -0.725,1.2 -10e-6,0.2834 0.05,0.5334 0.15,0.75 0.11666,0.2167 0.28332,0.4167 0.5,0.6 0.23332,0.1667 0.51666,0.325 0.85,0.475 0.33332,0.15 0.73332,0.3084 1.2,0.475 0.61665,0.2334 1.16665,0.4667 1.65,0.7 0.48332,0.2167 0.89165,0.475 1.225,0.775 0.34999,0.3 0.61665,0.6667 0.8,1.1 0.18332,0.4167 0.27498,0.9334 0.275,1.55 -2e-5,1.2 -0.45001,2.1083 -1.35,2.725 -0.88335,0.6167 -2.15001,0.925 -3.8,0.925 -1.15001,0 -2.05001,-0.1 -2.7,-0.3 -0.65001,-0.1833 -1.09167,-0.325 -1.325,-0.425 l 0.425,-2 c 0.26666,0.1 0.69166,0.25 1.275,0.45 0.58333,0.2 1.35832,0.3 2.325,0.3"
         style="font-size:25px;fill:#4d4d4d"
         id="path3138" />
      <path
         d="m 435.235,1022.114 4.925,0 0,1.95 -4.925,0 0,6 c -1e-5,0.65 0.05,1.1917 0.15,1.625 0.1,0.4167 0.24999,0.75 0.45,1 0.19999,0.2333 0.44999,0.4 0.75,0.5 0.29999,0.1 0.64999,0.15 1.05,0.15 0.69999,0 1.25832,-0.075 1.675,-0.225 0.43332,-0.1667 0.73332,-0.2833 0.9,-0.35 l 0.45,1.925 c -0.23335,0.1167 -0.64168,0.2583 -1.225,0.425 -0.58334,0.1833 -1.25001,0.275 -2,0.275 -0.88334,0 -1.61667,-0.1083 -2.2,-0.325 -0.56667,-0.2333 -1.02501,-0.575 -1.375,-1.025 -0.35,-0.45 -0.6,-1 -0.75,-1.65 -0.13334,-0.6666 -0.2,-1.4333 -0.2,-2.3 l 0,-11.6 2.325,-0.4 0,4.025"
         style="font-size:25px;fill:#4d4d4d"
         id="path3140" />
      <path
         d="m 442.14945,1028.639 c 0,-1.15 0.16667,-2.15 0.5,-3 0.33333,-0.8666 0.775,-1.5833 1.325,-2.15 0.55,-0.5666 1.18333,-0.9916 1.9,-1.275 0.71666,-0.2833 1.44999,-0.425 2.2,-0.425 1.74999,0 3.09166,0.55 4.025,1.65 0.93332,1.0834 1.39999,2.7417 1.4,4.975 -1e-5,0.1 -1e-5,0.2334 0,0.4 -1e-5,0.15 -0.008,0.2917 -0.025,0.425 l -8.9,0 c 0.1,1.35 0.49166,2.375 1.175,3.075 0.68333,0.7 1.74999,1.05 3.2,1.05 0.81666,0 1.49999,-0.067 2.05,-0.2 0.56666,-0.15 0.99166,-0.2917 1.275,-0.425 l 0.325,1.95 c -0.28334,0.15 -0.78334,0.3083 -1.5,0.475 -0.70001,0.1667 -1.50001,0.25 -2.4,0.25 -1.13334,0 -2.11667,-0.1667 -2.95,-0.5 -0.81667,-0.35 -1.49167,-0.825 -2.025,-1.425 -0.53333,-0.6 -0.93333,-1.3083 -1.2,-2.125 -0.25,-0.8333 -0.375,-1.7416 -0.375,-2.725 m 8.925,-1.275 c 0.0167,-1.05 -0.25001,-1.9083 -0.8,-2.575 -0.53334,-0.6833 -1.27501,-1.025 -2.225,-1.025 -0.53334,0 -1.00834,0.1084 -1.425,0.325 -0.4,0.2 -0.74167,0.4667 -1.025,0.8 -0.28334,0.3334 -0.50834,0.7167 -0.675,1.15 -0.15,0.4334 -0.25,0.875 -0.3,1.325 l 6.45,0"
         style="font-size:25px;fill:#4d4d4d"
         id="path3142" />
      <path
         d="m 461.63929,1021.839 c 0.2,0 0.425,0.017 0.675,0.05 0.26666,0.017 0.525,0.05 0.775,0.1 0.25,0.033 0.475,0.075 0.675,0.125 0.21666,0.033 0.375,0.067 0.475,0.1 l -0.4,2.025 c -0.18334,-0.067 -0.49167,-0.1416 -0.925,-0.225 -0.41667,-0.1 -0.95834,-0.15 -1.625,-0.15 -0.43333,0 -0.86667,0.05 -1.3,0.15 -0.41667,0.083 -0.69167,0.1417 -0.825,0.175 l 0,10.925 -2.325,0 0,-12.45 c 0.55,-0.2 1.23333,-0.3833 2.05,-0.55 0.81667,-0.1833 1.73333,-0.275 2.75,-0.275"
         style="font-size:25px;fill:#4d4d4d"
         id="path3144" />
      <path
         d="m 467.89008,1033.764 c -1e-5,0.45 -0.15001,0.8417 -0.45,1.175 -0.30001,0.3333 -0.70834,0.5 -1.225,0.5 -0.51667,0 -0.92501,-0.1667 -1.225,-0.5 -0.30001,-0.3333 -0.45001,-0.725 -0.45,-1.175 -10e-6,-0.45 0.14999,-0.8417 0.45,-1.175 0.29999,-0.3333 0.70833,-0.5 1.225,-0.5 0.51666,0 0.92499,0.1667 1.225,0.5 0.29999,0.3333 0.44999,0.725 0.45,1.175"
         style="font-size:25px;fill:#4d4d4d"
         id="path3146" />
      <path
         d="m 473.61742,1022.689 c 0.28333,-0.1833 0.70833,-0.375 1.275,-0.575 0.58333,-0.2 1.24999,-0.3 2,-0.3 0.93332,0 1.75832,0.1667 2.475,0.5 0.73332,0.3334 1.34999,0.8 1.85,1.4 0.49999,0.6 0.87499,1.3167 1.125,2.15 0.26665,0.8334 0.39999,1.75 0.4,2.75 -10e-6,1.05 -0.15835,2 -0.475,2.85 -0.30001,0.8333 -0.73335,1.5417 -1.3,2.125 -0.56668,0.5833 -1.25001,1.0333 -2.05,1.35 -0.80001,0.3167 -1.70001,0.475 -2.7,0.475 -1.08334,0 -2.04167,-0.075 -2.875,-0.225 -0.83334,-0.15 -1.51667,-0.3 -2.05,-0.45 l 0,-18.625 2.325,-0.4 0,6.975 m 0,10.4 c 0.23333,0.067 0.55833,0.1333 0.975,0.2 0.43333,0.05 0.96666,0.075 1.6,0.075 1.24999,0 2.24999,-0.4083 3,-1.225 0.74999,-0.8333 1.12499,-2.0083 1.125,-3.525 -1e-5,-0.6666 -0.0667,-1.2916 -0.2,-1.875 -0.13334,-0.5833 -0.35001,-1.0833 -0.65,-1.5 -0.30001,-0.4333 -0.69168,-0.7666 -1.175,-1 -0.46668,-0.25 -1.03334,-0.375 -1.7,-0.375 -0.63334,0 -1.21667,0.1084 -1.75,0.325 -0.53334,0.2167 -0.94167,0.4417 -1.225,0.675 l 0,8.225"
         style="font-size:25px;fill:#4d4d4d"
         id="path3148" />
      <path
         d="m 484.17172,1037.539 c 0.18333,0.083 0.41666,0.1583 0.7,0.225 0.29999,0.083 0.59166,0.125 0.875,0.125 0.91666,0 1.63333,-0.2083 2.15,-0.625 0.51666,-0.4 0.98332,-1.0583 1.4,-1.975 -1.05001,-2 -2.03334,-4.1166 -2.95,-6.35 -0.90001,-2.25 -1.65,-4.525 -2.25,-6.825 l 2.5,0 c 0.18333,0.75 0.39999,1.5584 0.65,2.425 0.26666,0.8667 0.55833,1.7584 0.875,2.675 0.31666,0.9167 0.65832,1.8334 1.025,2.75 0.36666,0.9167 0.74999,1.8 1.15,2.65 0.63332,-1.75 1.18332,-3.4833 1.65,-5.2 0.46665,-1.7166 0.90832,-3.4833 1.325,-5.3 l 2.4,0 c -0.60002,2.45 -1.26668,4.8084 -2,7.075 -0.73335,2.25 -1.52501,4.3583 -2.375,6.325 -0.33334,0.75 -0.68334,1.3917 -1.05,1.925 -0.35001,0.55 -0.74168,1 -1.175,1.35 -0.43334,0.35 -0.92501,0.6083 -1.475,0.775 -0.53334,0.1667 -1.14167,0.25 -1.825,0.25 -0.18334,0 -0.37501,-0.017 -0.575,-0.05 -0.2,-0.017 -0.4,-0.05 -0.6,-0.1 -0.18334,-0.033 -0.35834,-0.075 -0.525,-0.125 -0.15,-0.05 -0.25834,-0.092 -0.325,-0.125 l 0.425,-1.875"
         style="font-size:25px;fill:#4d4d4d"
         id="path3150" />
    </g>
  </g>
</svg>
