<?xml version="1.0" encoding="UTF-8" standalone="no"?>
<!-- Created with Inkscape (http://www.inkscape.org/) -->

<svg
   xmlns:dc="http://purl.org/dc/elements/1.1/"
   xmlns:cc="http://creativecommons.org/ns#"
   xmlns:rdf="http://www.w3.org/1999/02/22-rdf-syntax-ns#"
   xmlns:svg="http://www.w3.org/2000/svg"
   xmlns="http://www.w3.org/2000/svg"
   xmlns:sodipodi="http://sodipodi.sourceforge.net/DTD/sodipodi-0.dtd"
   xmlns:inkscape="http://www.inkscape.org/namespaces/inkscape"
   width="538.5827"
   height="386.22046"
   id="svg2"
   version="1.1"
   inkscape:version="0.48.4 r9939"
   sodipodi:docname="postcard_6_path.svg"
   inkscape:export-filename="/home/svet/Dropbox/falanster/design/postcards/console/postcard_6_path.png"
   inkscape:export-xdpi="300"
   inkscape:export-ydpi="300">
  <defs
     id="defs4" />
  <sodipodi:namedview
     id="base"
     pagecolor="#ffffff"
     bordercolor="#666666"
     borderopacity="1.0"
     inkscape:pageopacity="0.0"
     inkscape:pageshadow="2"
     inkscape:zoom="1.4"
     inkscape:cx="366.4133"
     inkscape:cy="221.58812"
     inkscape:document-units="px"
     inkscape:current-layer="layer1"
     showgrid="false"
     inkscape:window-width="1301"
     inkscape:window-height="744"
     inkscape:window-x="65"
     inkscape:window-y="24"
     inkscape:window-maximized="1"
     showguides="true"
     inkscape:guide-bbox="true"
     fit-margin-top="0"
     fit-margin-left="0"
     fit-margin-right="0"
     fit-margin-bottom="0">
    <sodipodi:guide
       orientation="0,1"
       position="285.81226,28.16239"
       id="guide2999" />
    <sodipodi:guide
       orientation="1,0"
       position="32.263966,449.396"
       id="guide3001" />
    <sodipodi:guide
       orientation="1,0"
       position="501.9849,316.05587"
       id="guide3003" />
  </sodipodi:namedview>
  <metadata
     id="metadata7">
    <rdf:RDF>
      <cc:Work
         rdf:about="">
        <dc:format>image/svg+xml</dc:format>
        <dc:type
           rdf:resource="http://purl.org/dc/dcmitype/StillImage" />
        <dc:title />
      </cc:Work>
    </rdf:RDF>
  </metadata>
  <g
     inkscape:label="Layer 1"
     inkscape:groupmode="layer"
     id="layer1"
     transform="translate(6,-678.14163)">
    <path
       style="fill:#1a1a1a;fill-opacity:1;fill-rule:nonzero;stroke:none"
       d="m -6,678.14163 538.58268,0 0,386.22047 -538.58268,0 z"
       id="rect2985"
       inkscape:connector-curvature="0" />
    <g
       style="font-size:52px;font-style:normal;font-variant:normal;font-weight:normal;font-stretch:normal;line-height:125%;letter-spacing:0px;word-spacing:0px;fill:#00ff00;fill-opacity:1;stroke:none;font-family:Courier 10 Pitch;-inkscape-font-specification:Courier 10 Pitch"
       id="text2983">
      <path
         d="m 35.062262,746.45836 0.5256,-9.2418 3.1098,0 -0.438,9.1104 c 0,0.0438 0,0.0876 0,0.0876 0,0.876 0.5256,1.4016 1.2702,1.4016 0.875999,0 1.3578,-0.4818 1.4016,-1.3578 l 0.4818,-9.2418 3.1536,0 c 0.919799,0 1.4016,-0.5256 1.4016,-1.4454 0,-0.9198 -0.481801,-1.4454 -1.4016,-1.4454 l -2.9784,0 0.2628,-5.0808 2.7156,0 c 0.919799,0 1.4016,-0.5256 1.4016,-1.4454 0,-0.9198 -0.481801,-1.4016 -1.4016,-1.4016 l -2.628,0 0.5256,-9.1542 c 0,-0.0438 0,-0.0876 0,-0.0876 0,-0.876 -0.569401,-1.3578 -1.3578,-1.3578 -0.7884,0 -1.2702,0.438 -1.314,1.314 l -0.5256,9.2856 -3.1098,0 0.438,-9.1542 c 0,-0.0438 0,-0.0876 0,-0.0876 0,-0.876 -0.525601,-1.3578 -1.314,-1.3578 -0.7884,0 -1.2702,0.438 -1.314,1.314 l -0.5256,9.2856 -3.1974,0 c -0.919799,0 -1.4016,0.4818 -1.4016,1.4016 0,0.9198 0.481801,1.4454 1.4016,1.4454 l 3.066,0 -0.219,5.0808 -2.847,0 c -0.919799,0 -1.4016,0.5256 -1.4016,1.4454 0,0.9198 0.481801,1.4454 1.4016,1.4454 l 2.6718,0 -0.4818,9.1104 c 0,0.0438 0,0.0876 0,0.1314 0,0.8322 0.4818,1.3578 1.2264,1.3578 0.875999,0 1.3578,-0.4818 1.4016,-1.3578 m 0.657,-12.1326 0.2628,-5.0808 3.1974,0 -0.3066,5.0808 -3.1536,0"
         style="font-size:43.79999924px;fill:#00ff00"
         id="path3014"
         inkscape:connector-curvature="0" />
      <path
         d="m 84.693134,737.39176 0,-10.2492 c 0,-0.0876 0,-0.1314 0,-0.219 0,-0.9636 -0.0438,-1.4016 -1.2264,-1.4016 l -3.241199,0 c -1.138799,0 -1.7082,0.4818 -1.7082,1.4892 0,1.095 0.613201,1.533 1.971,1.533 0.306599,0 0.657,0 0.9636,0 l 0,9.636 c 0,4.99319 2.365204,7.5336 7.051799,7.5336 2.584198,0 4.423803,-1.0074 6.6576,-2.7594 l 0,1.4454 c 0,0.5256 0.394201,0.876 1.2264,0.876 l 3.2412,0 c 1.138796,0 1.708196,-0.5256 1.708196,-1.533 0,-1.095 -0.6132,-1.4892 -1.970996,-1.4892 -0.306599,0 -0.657,0 -0.9636,0 l 0,-14.673 c 0,-1.2702 -10e-7,-2.0586 -1.4892,-2.0586 l -4.5552,0 c -1.182598,0 -1.7082,0.438 -1.7082,1.4892 0,1.0512 0.438001,1.533 1.5768,1.533 l 2.9346,0 0,8.8476 c 0,3.15359 -2.759403,5.1684 -5.6502,5.1684 -3.328796,0 -4.818,-1.66441 -4.818,-5.1684"
         style="font-size:43.79999924px;fill:#00ff00"
         id="path3016"
         inkscape:connector-curvature="0" />
      <path
         d="m 108.50117,742.25356 c -0.1752,0 -0.3066,0 -0.438,0 -1.752,0 -2.4966,0.2628 -2.4966,1.4892 0,1.0074 0.5694,1.533 1.7958,1.533 0.5694,0 0.9636,0 1.1388,0 l 3.8982,0 c 1.6206,0 2.2776,-0.0876 2.2776,-1.533 0,-1.1826 -0.5694,-1.533 -2.0586,-1.533 -0.2628,0 -0.5694,0.0438 -0.9198,0.0438 l 0,-8.8914 c 0,-3.1974 2.97841,-5.1246 5.5626,-5.1246 2.8032,0 4.38,1.7082 4.38,5.1246 l 0,8.8914 c -0.2628,0 -0.4818,0 -0.7008,0 -1.533,0 -2.1462,0.3066 -2.1462,1.4892 0,1.4016 0.6132,1.533 2.1462,1.533 l 4.7304,0 c 1.533,0 2.2776,-0.3066 2.2776,-1.533 0,-1.095 -0.657,-1.4892 -2.0148,-1.4892 -0.3066,0 -0.657,0 -0.9636,0 l 0,-9.6798 c 0,-4.9494 -2.8908,-7.6212 -6.9642,-7.6212 -2.2338,0 -4.2048,0.9636 -6.2634,2.8908 l 0,-1.4454 c 0,-0.5256 -0.3942,-0.876 -1.2264,-0.876 l -2.0148,0 c -1.971,0 -2.9346,0 -2.9346,1.4892 0,1.095 0.6132,1.533 1.971,1.533 0.3066,0 0.657,0 0.9636,0 l 0,13.7094"
         style="font-size:43.79999924px;fill:#00ff00"
         id="path3018"
         inkscape:connector-curvature="0" />
      <path
         d="m 147.68301,742.56016 0.219,1.314 c 0.1752,0.9198 0.7008,1.4016 1.4892,1.4016 l 3.3726,0 c 1.1388,0 1.7082,-0.5256 1.7082,-1.533 0,-1.2702 -0.7446,-1.4892 -2.5404,-1.4892 l -1.095,0 0,-9.6798 c 0,-5.1684 -2.54041,-7.5774 -8.0154,-7.5774 -4.818,0 -7.9716,1.533 -7.9716,3.0222 0,1.095 0.657,1.7958 1.4454,1.7958 1.6644,0 3.4164,-1.7958 6.4386,-1.7958 3.28499,0 4.818,1.533 4.818,4.818 0,0.0438 0,0.0876 0,0.1314 -1.752,-0.438 -3.4164,-0.657 -5.0808,-0.657 -6.351,0 -9.8988,2.6718 -9.8988,7.0956 0,3.76679 2.8032,6.3948 7.0956,6.3948 2.93459,0 5.694,-1.13881 8.0154,-3.2412 m -0.1314,-6.7452 0,2.3214 c 0,1.92719 -3.50401,4.38 -7.3584,4.38 -2.4966,0 -4.2048,-1.4454 -4.2048,-3.3288 0,-2.409 2.4966,-4.1172 7.0518,-4.1172 1.5768,0 3.066,0.2628 4.5114,0.7446"
         style="font-size:43.79999924px;fill:#00ff00"
         id="path3020"
         inkscape:connector-curvature="0" />
      <path
         d="m 176.96605,733.36216 0,9.7674 c 0,1.4016 0.6132,2.1462 1.7958,2.1462 l 2.5842,0 c 1.0074,0 1.533,-0.5256 1.533,-1.533 0,-1.2264 -0.6132,-1.4892 -2.2338,-1.4892 -0.1314,0 -0.2628,0 -0.3942,0 l 0,-9.6798 c 0,-4.9932 -1.314,-7.6212 -5.256,-7.6212 -2.0586,0 -3.5916,0.876 -4.7742,2.628 -0.6132,-1.752 -1.9272,-2.628 -3.8982,-2.628 -1.6644,0 -2.9784,0.5694 -4.1172,1.8396 -0.0876,-1.0512 -0.3066,-1.2702 -1.2264,-1.2702 l -3.285,0 c -1.1388,0 -1.6644,0.4818 -1.6644,1.4892 0,1.095 0.6132,1.533 1.971,1.533 0.3066,0 0.657,0 0.9636,0 l 0,13.7094 c -0.1752,0 -0.3066,0 -0.438,0 -1.752,0 -2.4966,0.2628 -2.4966,1.4892 0,1.0074 0.5256,1.533 1.6644,1.533 l 5.694,0 c 1.2702,0 1.752,-0.3066 1.752,-1.533 0,-1.1826 -0.5694,-1.533 -2.0586,-1.533 -0.2628,0 -0.5694,0.0438 -0.9198,0.0438 l 0,-11.7822 c 0.7884,-1.4892 1.8396,-2.2338 3.1536,-2.2338 1.6206,0 2.8032,1.2702 2.8032,3.4602 0,0.2628 0,0.8322 0,1.6644 l 0,9.0228 c 0,0.219 0,0.3942 0,0.5694 0,1.6644 0.0876,2.3214 1.4892,2.3214 l 2.7156,0 c 1.0074,0 1.4892,-0.5256 1.4892,-1.533 0,-1.2264 -0.6132,-1.4892 -2.2338,-1.4892 -0.1314,0 -0.2628,0 -0.3942,0 l 0,-8.8914 c 0,-3.4164 1.4892,-5.1246 3.4602,-5.1246 2.1462,0 2.3214,1.8834 2.3214,5.1246"
         style="font-size:43.79999924px;fill:#00ff00"
         id="path3022"
         inkscape:connector-curvature="0" />
      <path
         d="m 188.37868,733.53736 c 0.8322,-3.5478 3.59161,-5.6502 7.3584,-5.6502 3.4602,0 6.1758,2.2338 6.57,5.6502 l -13.9284,0 m -0.0876,2.8032 14.3664,0 c 2.628,0 3.5478,-10e-6 3.5478,-2.0148 0,-4.7742 -3.9858,-9.3732 -10.4682,-9.3732 -6.61379,0 -11.169,4.2486 -11.169,10.3806 0,6.39479 4.11721,10.4682 10.731,10.4682 2.8908,0 6.00061,-0.7008 8.9352,-2.1462 1.2702,-0.6132 1.8834,-1.2702 1.8834,-2.1462 0,-0.7884 -0.657,-1.4016 -1.4892,-1.4016 -1.92719,0 -4.6866,2.6718 -9.0228,2.6718 -4.42379,0 -7.0956,-2.32141 -7.3146,-6.4386"
         style="font-size:43.79999924px;fill:#00ff00"
         id="path3024"
         inkscape:connector-curvature="0" />
      <path
         d="m 28.492262,792.22936 17.738999,0 c 0.5256,0 1.0074,-0.4818 1.0074,-1.0074 l 0,-2.2776 c 0,-0.5256 -0.3504,-0.876 -1.0074,-0.876 l -17.738999,0 c -0.5694,0 -0.9198,0.3504 -0.9198,0.876 l 0,2.2776 c 0,0.6132 0.3504,1.0074 0.9198,1.0074"
         style="font-size:43.79999924px;fill:#00ff00"
         id="path3026"
         inkscape:connector-curvature="0" />
      <path
         d="m 54.840698,792.22936 17.739,0 c 0.525599,0 1.0074,-0.4818 1.0074,-1.0074 l 0,-2.2776 c 0,-0.5256 -0.350401,-0.876 -1.0074,-0.876 l -17.739,0 c -0.569399,0 -0.9198,0.3504 -0.9198,0.876 l 0,2.2776 c 0,0.6132 0.350401,1.0074 0.9198,1.0074"
         style="font-size:43.79999924px;fill:#00ff00"
         id="path3028"
         inkscape:connector-curvature="0" />
      <path
         d="m 101.29333,790.17076 c 0,-5.913 -4.380003,-10.3806 -11.168996,-10.3806 -6.788993,0 -11.212799,4.4238 -11.212799,10.3806 0,5.95679 4.423806,10.3806 11.212799,10.3806 6.788993,0 11.168996,-4.42381 11.168996,-10.3806 m -11.168996,7.4022 c -4.423795,0 -7.4898,-3.15361 -7.4898,-7.4022 0,-4.2486 3.066005,-7.446 7.4898,-7.446 4.423796,0 7.4898,3.1974 7.4898,7.446 0,4.29239 -3.066004,7.4022 -7.4898,7.4022"
         style="font-size:43.79999924px;fill:#00ff00"
         id="path3030"
         inkscape:connector-curvature="0" />
      <path
         d="m 117.56777,796.91596 c -3.98579,0 -6.7452,-2.84701 -6.7452,-6.7014 0,-3.8544 2.75941,-6.7014 6.7452,-6.7014 4.0296,0 6.789,2.847 6.789,6.7014 0,3.98579 -2.847,6.7014 -6.789,6.7014 m -6.6576,8.5848 0,-8.541 c 1.752,2.01479 4.38001,3.1098 7.4022,3.1098 5.6064,0 9.7236,-3.94201 9.7236,-9.636 0,-6.0006 -4.4676,-10.2054 -10.074,-10.2054 -2.71559,0 -5.0808,1.0074 -7.008,2.9784 l 0,-2.0586 c 0,-0.6132 -0.3942,-0.876 -1.2264,-0.876 l -3.285,0 c -1.1388,0 -1.7082,0.4818 -1.7082,1.4892 0,1.095 0.657,1.533 2.0148,1.533 0.3066,0 0.657,0 0.9636,0 l 0,22.2066 c -0.1314,0 -0.2628,0 -0.3942,0 -1.7958,0 -2.5842,0.3066 -2.5842,1.533 0,1.00739 0.5694,1.533 1.7082,1.533 l 9.4608,0 c 1.2702,0 1.7958,-0.35041 1.7958,-1.533 0,-1.0074 -0.5256,-1.533 -1.6206,-1.533 l -5.1684,0"
         style="font-size:43.79999924px;fill:#00ff00"
         id="path3032"
         inkscape:connector-curvature="0" />
      <path
         d="m 135.68181,788.28736 c 0.8322,-3.5478 3.5916,-5.6502 7.3584,-5.6502 3.46019,0 6.1758,2.2338 6.57,5.6502 l -13.9284,0 m -0.0876,2.8032 14.3664,0 c 2.62799,0 3.5478,-10e-6 3.5478,-2.0148 0,-4.7742 -3.98581,-9.3732 -10.4682,-9.3732 -6.6138,0 -11.169,4.2486 -11.169,10.3806 0,6.39479 4.1172,10.4682 10.731,10.4682 2.89079,0 6.0006,-0.70081 8.9352,-2.1462 1.2702,-0.6132 1.8834,-1.2702 1.8834,-2.1462 0,-0.7884 -0.657,-1.4016 -1.4892,-1.4016 -1.9272,0 -4.68661,2.6718 -9.0228,2.6718 -4.4238,0 -7.0956,-2.32141 -7.3146,-6.4386"
         style="font-size:43.79999924px;fill:#00ff00"
         id="path3034"
         inkscape:connector-curvature="0" />
      <path
         d="m 167.06725,797.00356 0,-8.8476 c 2.847,-3.2412 5.256,-4.9494 7.6212,-4.9494 1.6644,0 2.5842,1.314 3.723,1.314 0.9198,0 1.8834,-0.9636 1.8834,-2.0148 0,-1.5768 -1.5768,-2.7594 -4.2486,-2.7594 -3.4164,0 -6.3072,1.6644 -8.979,5.037 l 0,-3.6354 c 0,-0.6132 -0.3942,-0.876 -1.1826,-0.876 l -4.8618,0 c -1.1388,0 -1.7082,0.4818 -1.7082,1.4892 0,1.095 0.6132,1.533 2.0148,1.533 0.219,0 0.6132,0 1.095,0 l 1.4454,0 0,13.7094 -3.7668,0 c -1.1826,0 -1.7958,0.4818 -1.7958,1.4892 0,1.00739 0.6132,1.533 1.752,1.533 l 13.9722,0 c 1.2702,0 1.752,-0.30661 1.752,-1.533 0,-1.0512 -0.5256,-1.4892 -1.6206,-1.4892 l -7.0956,0"
         style="font-size:43.79999924px;fill:#00ff00"
         id="path3036"
         inkscape:connector-curvature="0" />
      <path
         d="m 200.37988,797.31016 0.219,1.314 c 0.1752,0.91979 0.7008,1.4016 1.4892,1.4016 l 3.3726,0 c 1.1388,0 1.7082,-0.52561 1.7082,-1.533 0,-1.2702 -0.7446,-1.4892 -2.5404,-1.4892 l -1.095,0 0,-9.6798 c 0,-5.1684 -2.5404,-7.5774 -8.0154,-7.5774 -4.81799,0 -7.9716,1.533 -7.9716,3.0222 0,1.095 0.657,1.7958 1.4454,1.7958 1.6644,0 3.41641,-1.7958 6.4386,-1.7958 3.285,0 4.818,1.533 4.818,4.818 0,0.0438 0,0.0876 0,0.1314 -1.75199,-0.438 -3.4164,-0.657 -5.0808,-0.657 -6.35099,0 -9.8988,2.6718 -9.8988,7.0956 0,3.76679 2.80321,6.3948 7.0956,6.3948 2.9346,0 5.69401,-1.13881 8.0154,-3.2412 m -0.1314,-6.7452 0,2.3214 c 0,1.92719 -3.504,4.38 -7.3584,4.38 -2.49659,0 -4.2048,-1.44541 -4.2048,-3.3288 0,-2.409 2.49661,-4.1172 7.0518,-4.1172 1.5768,0 3.066,0.2628 4.5114,0.7446"
         style="font-size:43.79999924px;fill:#00ff00"
         id="path3038"
         inkscape:connector-curvature="0" />
      <path
         d="m 227.69192,781.45456 -8.4096,0 0,-4.3362 c 0,-2.1024 -0.1752,-2.9784 -1.7082,-2.9784 -1.1388,0 -1.6644,0.6132 -1.6644,1.7958 0,0.5694 0,0.9636 0,1.1388 l 0,4.38 -2.3652,0 c -2.0586,0 -2.9346,0.1314 -2.9346,1.533 0,1.0512 0.5256,1.4892 1.7082,1.4892 l 3.5916,0 0,7.1394 c 0,0.219 0,0.438 0,0.657 0,1.97099 0.0438,3.6792 0.7884,4.9494 1.2264,2.14619 3.504,3.1974 6.789,3.1974 2.0148,0 4.2486,-0.56941 6.9204,-1.6206 1.5768,-0.6132 2.3652,-1.22641 2.3652,-2.2338 0,-0.7884 -0.7008,-1.533 -1.4892,-1.533 -1.7082,0 -4.55521,2.2776 -8.0154,2.2776 -3.7668,0 -4.0296,-2.27761 -4.0296,-5.694 l 0,-7.1394 8.6724,0 c 1.1826,0 1.7958,-0.4818 1.7958,-1.4892 0,-1.095 -0.657,-1.533 -2.0148,-1.533"
         style="font-size:43.79999924px;fill:#00ff00"
         id="path3040"
         inkscape:connector-curvature="0" />
      <path
         d="m 250.18595,797.00356 0,-15.8556 c 0,-0.5256 -0.3942,-0.876 -1.2264,-0.876 l -6.2634,0 c -1.1388,0 -1.7082,0.4818 -1.7082,1.4892 0,1.0074 0.6132,1.533 1.7958,1.533 l 4.161,0 0,13.7094 -6.5262,0 c -1.1826,0 -1.7958,0.4818 -1.7958,1.4892 0,1.00739 0.5694,1.533 1.7082,1.533 l 16.6002,0 c 1.2702,0 1.752,-0.30661 1.752,-1.533 0,-1.0512 -0.5256,-1.4892 -1.6206,-1.4892 l -6.8766,0 m -3.9858,-22.9074 c 0,1.75199 0.438,2.1024 2.2338,2.1024 2.0586,0 2.19,-0.48181 2.19,-2.7156 0,-2.2338 -0.219,-2.8908 -2.19,-2.8908 -1.971,0 -2.2338,0.657 -2.2338,3.504"
         style="font-size:43.79999924px;fill:#00ff00"
         id="path3042"
         inkscape:connector-curvature="0" />
      <path
         d="m 266.59179,797.00356 c -0.1752,0 -0.3066,0 -0.438,0 -1.752,0 -2.4966,0.2628 -2.4966,1.4892 0,1.00739 0.5694,1.533 1.7958,1.533 0.5694,0 0.9636,0 1.1388,0 l 3.8982,0 c 1.6206,0 2.2776,-0.0876 2.2776,-1.533 0,-1.1826 -0.5694,-1.533 -2.0586,-1.533 -0.2628,0 -0.5694,0.0438 -0.9198,0.0438 l 0,-8.8914 c 0,-3.1974 2.9784,-5.1246 5.5626,-5.1246 2.80319,0 4.38,1.7082 4.38,5.1246 l 0,8.8914 c -0.2628,0 -0.4818,0 -0.7008,0 -1.533,0 -2.1462,0.3066 -2.1462,1.4892 0,1.40159 0.6132,1.533 2.1462,1.533 l 4.7304,0 c 1.533,0 2.2776,-0.30661 2.2776,-1.533 0,-1.095 -0.657,-1.4892 -2.0148,-1.4892 -0.3066,0 -0.657,0 -0.9636,0 l 0,-9.6798 c 0,-4.9494 -2.89081,-7.6212 -6.9642,-7.6212 -2.2338,0 -4.20481,0.9636 -6.2634,2.8908 l 0,-1.4454 c 0,-0.5256 -0.3942,-0.876 -1.2264,-0.876 l -2.0148,0 c -1.971,0 -2.9346,0 -2.9346,1.4892 0,1.095 0.6132,1.533 1.971,1.533 0.3066,0 0.657,0 0.9636,0 l 0,13.7094"
         style="font-size:43.79999924px;fill:#00ff00"
         id="path3044"
         inkscape:connector-curvature="0" />
      <path
         d="m 309.58424,798.88696 0,-15.5928 c 0.1314,0 0.2628,0 0.3942,0 1.79579,0 2.5404,-0.30661 2.5404,-1.533 0,-1.0074 -0.5694,-1.4892 -1.7082,-1.4892 l -3.2412,0 c -0.8322,0 -1.2264,0.2628 -1.2264,0.876 l 0,1.533 c -2.0586,-1.6206 -4.11721,-2.4528 -6.3072,-2.4528 -5.1684,0 -9.417,3.8982 -9.417,9.417 0,5.60639 3.942,9.5046 9.2418,9.5046 2.75939,0 4.7742,-0.91981 6.5262,-2.9346 l 0,2.5842 c 0,4.42379 -1.35781,6.4386 -5.8254,6.4386 -1.1388,0 -2.3214,-0.3066 -3.5916,-0.3066 -1.0074,0 -1.8396,0.7884 -1.8396,1.6644 0,1.40159 1.533,1.971 4.6866,1.971 3.98579,0 6.8766,-1.18261 8.4534,-3.2412 1.2702,-1.6644 1.314,-3.54781 1.314,-5.9568 0,-0.1752 0,-0.3066 0,-0.4818 m -9.2856,-15.4614 c 3.76679,0 6.351,2.628 6.351,6.2196 0,3.63539 -2.62801,6.2196 -6.351,6.2196 -3.7668,0 -6.351,-2.62801 -6.351,-6.2196 0,-3.6792 2.628,-6.2196 6.351,-6.2196"
         style="font-size:43.79999924px;fill:#00ff00"
         id="path3046"
         inkscape:connector-curvature="0" />
      <path
         d="m 318.32506,792.22936 17.739,0 c 0.5256,0 1.0074,-0.4818 1.0074,-1.0074 l 0,-2.2776 c 0,-0.5256 -0.3504,-0.876 -1.0074,-0.876 l -17.739,0 c -0.5694,0 -0.9198,0.3504 -0.9198,0.876 l 0,2.2776 c 0,0.6132 0.3504,1.0074 0.9198,1.0074"
         style="font-size:43.79999924px;fill:#00ff00"
         id="path3048"
         inkscape:connector-curvature="0" />
      <path
         d="m 344.23551,798.49276 c 0,1.35779 0.5694,2.0586 1.5768,2.0586 0.4818,0 1.1826,-0.3504 2.19,-1.0074 2.40899,0.6132 4.5552,0.9636 6.4824,0.9636 5.34359,0 8.3658,-2.67181 8.3658,-6.351 0,-4.2048 -2.93461,-5.8692 -8.5848,-6.0006 -4.2048,-0.0876 -6.6576,-0.30661 -6.6576,-2.5842 0,-1.7082 1.6206,-3.1536 4.4676,-3.1536 2.23379,0 3.8106,0.5256 5.4312,1.971 1.27019,1.13879 1.7082,2.2338 2.6718,2.2338 1.05119,0 1.4454,-0.74461 1.4454,-2.1462 l 0,-2.4966 c 0,-1.4454 -0.48181,-2.1462 -1.4454,-2.1462 -1.1388,0 -1.57681,0.8322 -2.19,0.8322 -0.6132,0 -2.32141,-0.9636 -5.4312,-0.9636 -5.2998,0 -8.2344,2.4528 -8.2344,6.0006 0,3.81059 3.1098,5.913 8.9352,5.913 0.61319,0 1.0074,0 1.2264,0 3.24119,0 4.818,0.6132 4.818,2.8032 0,1.92719 -1.92721,3.3288 -5.037,3.3288 -2.8908,0 -5.34361,-1.05121 -6.4824,-2.5404 -0.8322,-1.095 -0.70081,-2.2776 -2.0148,-2.2776 -1.1388,0 -1.533,0.6132 -1.533,1.752 l 0,3.8106"
         style="font-size:43.79999924px;fill:#00ff00"
         id="path3050"
         inkscape:connector-curvature="0" />
      <path
         d="m 378.33652,805.50076 11.2566,-22.2066 c 1.4892,-0.0438 2.1462,-0.3942 2.1462,-1.533 0,-1.0074 -0.5694,-1.4892 -1.7082,-1.4892 l -5.2998,0 c -1.40159,0 -2.0148,0.219 -2.0148,1.4892 0,1.22639 0.74461,1.533 2.5842,1.533 0.2628,0 0.5256,0 0.8322,0 l -5.9568,11.7822 -5.7378,-11.7822 c 0.2628,0 0.52561,0 0.7884,0 1.752,0 2.4966,-0.30661 2.4966,-1.533 0,-1.2702 -0.6132,-1.4892 -2.0148,-1.4892 l -5.9568,0 c -1.13879,0 -1.7082,0.4818 -1.7082,1.4892 0,1.22639 0.70081,1.533 2.4528,1.533 l 7.8402,15.3738 -3.504,6.8328 -4.6428,0 c -1.09499,0 -1.6206,0.5256 -1.6206,1.533 0,1.18259 0.52561,1.533 1.7958,1.533 l 9.8112,0 c 1.1388,0 1.752,-0.52561 1.752,-1.533 0,-1.2702 -0.7884,-1.533 -2.6718,-1.533 -0.26279,0 -0.5694,0 -0.9198,0"
         style="font-size:43.79999924px;fill:#00ff00"
         id="path3052"
         inkscape:connector-curvature="0" />
      <path
         d="m 396.93237,798.49276 c 0,1.35779 0.56941,2.0586 1.5768,2.0586 0.4818,0 1.18261,-0.3504 2.19,-1.0074 2.409,0.6132 4.55521,0.9636 6.4824,0.9636 5.3436,0 8.3658,-2.67181 8.3658,-6.351 0,-4.2048 -2.9346,-5.8692 -8.5848,-6.0006 -4.20479,-0.0876 -6.6576,-0.30661 -6.6576,-2.5842 0,-1.7082 1.62061,-3.1536 4.4676,-3.1536 2.2338,0 3.81061,0.5256 5.4312,1.971 1.2702,1.13879 1.70821,2.2338 2.6718,2.2338 1.0512,0 1.4454,-0.74461 1.4454,-2.1462 l 0,-2.4966 c 0,-1.4454 -0.4818,-2.1462 -1.4454,-2.1462 -1.13879,0 -1.5768,0.8322 -2.19,0.8322 -0.6132,0 -2.3214,-0.9636 -5.4312,-0.9636 -5.29979,0 -8.2344,2.4528 -8.2344,6.0006 0,3.81059 3.10981,5.913 8.9352,5.913 0.6132,0 1.0074,0 1.2264,0 3.2412,0 4.818,0.6132 4.818,2.8032 0,1.92719 -1.9272,3.3288 -5.037,3.3288 -2.89079,0 -5.3436,-1.05121 -6.4824,-2.5404 -0.83219,-1.095 -0.7008,-2.2776 -2.0148,-2.2776 -1.13879,0 -1.533,0.6132 -1.533,1.752 l 0,3.8106"
         style="font-size:43.79999924px;fill:#00ff00"
         id="path3054"
         inkscape:connector-curvature="0" />
      <path
         d="m 438.47939,781.45456 -8.4096,0 0,-4.3362 c 0,-2.1024 -0.1752,-2.9784 -1.7082,-2.9784 -1.1388,0 -1.6644,0.6132 -1.6644,1.7958 0,0.5694 0,0.9636 0,1.1388 l 0,4.38 -2.3652,0 c -2.05859,0 -2.9346,0.1314 -2.9346,1.533 0,1.0512 0.52561,1.4892 1.7082,1.4892 l 3.5916,0 0,7.1394 c 0,0.219 0,0.438 0,0.657 0,1.97099 0.0438,3.6792 0.7884,4.9494 1.2264,2.14619 3.50401,3.1974 6.789,3.1974 2.0148,0 4.24861,-0.56941 6.9204,-1.6206 1.5768,-0.6132 2.3652,-1.22641 2.3652,-2.2338 0,-0.7884 -0.7008,-1.533 -1.4892,-1.533 -1.70819,0 -4.5552,2.2776 -8.0154,2.2776 -3.76679,0 -4.0296,-2.27761 -4.0296,-5.694 l 0,-7.1394 8.6724,0 c 1.1826,0 1.7958,-0.4818 1.7958,-1.4892 0,-1.095 -0.657,-1.533 -2.0148,-1.533"
         style="font-size:43.79999924px;fill:#00ff00"
         id="path3056"
         inkscape:connector-curvature="0" />
      <path
         d="m 451.86304,788.28736 c 0.8322,-3.5478 3.59161,-5.6502 7.3584,-5.6502 3.4602,0 6.1758,2.2338 6.57,5.6502 l -13.9284,0 m -0.0876,2.8032 14.3664,0 c 2.628,0 3.5478,-10e-6 3.5478,-2.0148 0,-4.7742 -3.9858,-9.3732 -10.4682,-9.3732 -6.61379,0 -11.169,4.2486 -11.169,10.3806 0,6.39479 4.11721,10.4682 10.731,10.4682 2.8908,0 6.00061,-0.70081 8.9352,-2.1462 1.2702,-0.6132 1.8834,-1.2702 1.8834,-2.1462 0,-0.7884 -0.657,-1.4016 -1.4892,-1.4016 -1.92719,0 -4.6866,2.6718 -9.0228,2.6718 -4.42379,0 -7.0956,-2.32141 -7.3146,-6.4386"
         style="font-size:43.79999924px;fill:#00ff00"
         id="path3058"
         inkscape:connector-curvature="0" />
      <path
         d="m 493.14729,788.11216 0,9.7674 c 0,1.40159 0.6132,2.1462 1.7958,2.1462 l 2.5842,0 c 1.0074,0 1.533,-0.52561 1.533,-1.533 0,-1.2264 -0.6132,-1.4892 -2.2338,-1.4892 -0.1314,0 -0.2628,0 -0.3942,0 l 0,-9.6798 c 0,-4.9932 -1.314,-7.6212 -5.256,-7.6212 -2.05859,0 -3.5916,0.876 -4.7742,2.628 -0.6132,-1.752 -1.9272,-2.628 -3.8982,-2.628 -1.6644,0 -2.9784,0.5694 -4.1172,1.8396 -0.0876,-1.0512 -0.3066,-1.2702 -1.2264,-1.2702 l -3.285,0 c -1.1388,0 -1.6644,0.4818 -1.6644,1.4892 0,1.095 0.6132,1.533 1.971,1.533 0.3066,0 0.657,0 0.9636,0 l 0,13.7094 c -0.1752,0 -0.3066,0 -0.438,0 -1.75199,0 -2.4966,0.2628 -2.4966,1.4892 0,1.00739 0.5256,1.533 1.6644,1.533 l 5.694,0 c 1.2702,0 1.752,-0.30661 1.752,-1.533 0,-1.1826 -0.5694,-1.533 -2.0586,-1.533 -0.2628,0 -0.5694,0.0438 -0.9198,0.0438 l 0,-11.7822 c 0.7884,-1.4892 1.8396,-2.2338 3.1536,-2.2338 1.6206,0 2.8032,1.2702 2.8032,3.4602 0,0.2628 0,0.8322 0,1.6644 l 0,9.0228 c 0,0.219 0,0.3942 0,0.5694 0,1.66439 0.0876,2.3214 1.4892,2.3214 l 2.7156,0 c 1.0074,0 1.4892,-0.52561 1.4892,-1.533 0,-1.2264 -0.6132,-1.4892 -2.2338,-1.4892 -0.1314,0 -0.2628,0 -0.3942,0 l 0,-8.8914 c 0,-3.4164 1.4892,-5.1246 3.4602,-5.1246 2.1462,0 2.3214,1.8834 2.3214,5.1246"
         style="font-size:43.79999924px;fill:#00ff00"
         id="path3060"
         inkscape:connector-curvature="0" />
    </g>
    <g
       style="font-size:25.04329872px;font-style:normal;font-variant:normal;font-weight:normal;font-stretch:normal;line-height:125%;letter-spacing:0px;word-spacing:0px;fill:#999999;fill-opacity:1;stroke:none;font-family:Ubuntu;-inkscape-font-specification:Ubuntu"
       id="text2991">
      <path
         d="m 42.617252,1017.601 0,17.325 -2.425,0 0,-15.25 -8.325,0 0,15.25 -2.425,0 0,-17.325 13.175,0"
         style="font-size:25px;fill:#999999"
         id="path3063"
         inkscape:connector-curvature="0" />
      <path
         d="m 51.17272,1033.251 c 0.549993,0 1.033326,-0.01 1.45,-0.025 0.433325,-0.033 0.791658,-0.083 1.075,-0.15 l 0,-3.875 c -0.166675,-0.083 -0.441675,-0.15 -0.825,-0.2 -0.366674,-0.067 -0.816674,-0.1 -1.35,-0.1 -0.350006,0 -0.725006,0.025 -1.125,0.075 -0.383338,0.05 -0.741671,0.1584 -1.075,0.325 -0.316671,0.15 -0.583337,0.3667 -0.8,0.65 -0.21667,0.2667 -0.325003,0.625 -0.325,1.075 -3e-6,0.8334 0.266663,1.4167 0.8,1.75 0.533329,0.3167 1.258328,0.475 2.175,0.475 m -0.2,-11.65 c 0.933327,0 1.716659,0.125 2.35,0.375 0.649991,0.2334 1.166657,0.575 1.55,1.025 0.39999,0.4334 0.683323,0.9584 0.85,1.575 0.166656,0.6 0.249989,1.2667 0.25,2 l 0,8.125 c -0.200011,0.033 -0.483344,0.083 -0.85,0.15 -0.35001,0.05 -0.750009,0.1 -1.2,0.15 -0.450008,0.05 -0.941675,0.092 -1.475,0.125 -0.516673,0.05 -1.03334,0.075 -1.55,0.075 -0.733338,0 -1.408338,-0.075 -2.025,-0.225 -0.61667,-0.15 -1.150003,-0.3833 -1.6,-0.7 -0.450002,-0.3333 -0.800001,-0.7666 -1.05,-1.3 -0.250001,-0.5333 -0.375001,-1.175 -0.375,-1.925 -1e-6,-0.7166 0.141666,-1.3333 0.425,-1.85 0.299999,-0.5166 0.699998,-0.9333 1.2,-1.25 0.499997,-0.3166 1.08333,-0.55 1.75,-0.7 0.666662,-0.15 1.366661,-0.225 2.1,-0.225 0.233327,0 0.474993,0.017 0.725,0.05 0.249993,0.017 0.483326,0.05 0.7,0.1 0.233325,0.033 0.433325,0.067 0.6,0.1 0.166658,0.033 0.283325,0.058 0.35,0.075 l 0,-0.65 c -9e-6,-0.3833 -0.04167,-0.7583 -0.125,-1.125 -0.08334,-0.3833 -0.233342,-0.7166 -0.45,-1 -0.216674,-0.3 -0.516674,-0.5333 -0.9,-0.7 -0.366673,-0.1833 -0.850006,-0.275 -1.45,-0.275 -0.766672,0 -1.441671,0.058 -2.025,0.175 -0.56667,0.1 -0.991669,0.2084 -1.275,0.325 l -0.275,-1.925 c 0.299998,-0.1333 0.799997,-0.2583 1.5,-0.375 0.699996,-0.1333 1.458328,-0.2 2.275,-0.2"
         style="font-size:25px;fill:#999999"
         id="path3065"
         inkscape:connector-curvature="0" />
      <path
         d="m 58.45983,1026.351 6.175,0 0,2.175 -6.175,0 0,-2.175"
         style="font-size:25px;fill:#999999"
         id="path3067"
         inkscape:connector-curvature="0" />
      <path
         d="m 70.580533,1021.601 c 0.749994,0 1.449993,0.075 2.1,0.225 0.649992,0.15 1.208325,0.375 1.675,0.675 0.466657,0.3 0.833323,0.675 1.1,1.125 0.266656,0.45 0.399989,0.975 0.4,1.575 -1.1e-5,0.3834 -0.06668,0.7334 -0.2,1.05 -0.133344,0.3167 -0.30001,0.6 -0.5,0.85 -0.20001,0.25 -0.42501,0.4667 -0.675,0.65 -0.233342,0.1667 -0.458342,0.2834 -0.675,0.35 0.766657,0.2334 1.366657,0.65 1.8,1.25 0.449989,0.5834 0.674989,1.325 0.675,2.225 -1.1e-5,1.2334 -0.500011,2.15 -1.5,2.75 -1.000009,0.6 -2.358341,0.9 -4.075,0.9 -1.050005,0 -1.958337,-0.083 -2.725,-0.25 -0.750002,-0.1666 -1.283335,-0.325 -1.6,-0.475 l 0.4,-1.975 c 0.266665,0.1 0.741664,0.2417 1.425,0.425 0.699996,0.1667 1.533329,0.25 2.5,0.25 1.049993,0 1.849993,-0.1583 2.4,-0.475 0.549991,-0.3333 0.824991,-0.825 0.825,-1.475 -9e-6,-0.4666 -0.108342,-0.8416 -0.325,-1.125 -0.200008,-0.3 -0.458341,-0.525 -0.775,-0.675 -0.316674,-0.15 -0.65834,-0.25 -1.025,-0.3 -0.366673,-0.05 -0.708339,-0.075 -1.025,-0.075 l -2.175,0 0,-1.85 2.1,0 c 0.299994,0 0.608327,-0.017 0.925,-0.05 0.333326,-0.05 0.633326,-0.1416 0.9,-0.275 0.283326,-0.1333 0.516659,-0.3166 0.7,-0.55 0.183325,-0.25 0.274992,-0.575 0.275,-0.975 -8e-6,-0.3166 -0.08334,-0.5833 -0.25,-0.8 -0.150008,-0.2333 -0.358341,-0.425 -0.625,-0.575 -0.266674,-0.15 -0.58334,-0.2583 -0.95,-0.325 -0.350006,-0.083 -0.716673,-0.125 -1.1,-0.125 -0.300005,0 -0.625005,0.025 -0.975,0.075 -0.350004,0.05 -0.69167,0.1167 -1.025,0.2 -0.333336,0.067 -0.633336,0.1417 -0.9,0.225 -0.266669,0.083 -0.458335,0.1584 -0.575,0.225 l -0.425,-2 c 0.133332,-0.05 0.341665,-0.1166 0.625,-0.2 0.283331,-0.083 0.599997,-0.1583 0.95,-0.225 0.366663,-0.067 0.749996,-0.125 1.15,-0.175 0.399995,-0.05 0.791662,-0.075 1.175,-0.075"
         style="font-size:25px;fill:#999999"
         id="path3069"
         inkscape:connector-curvature="0" />
      <path
         d="m 83.887564,1033.251 c 0.549993,0 1.033326,-0.01 1.45,-0.025 0.433325,-0.033 0.791658,-0.083 1.075,-0.15 l 0,-3.875 c -0.166675,-0.083 -0.441675,-0.15 -0.825,-0.2 -0.366674,-0.067 -0.816674,-0.1 -1.35,-0.1 -0.350006,0 -0.725006,0.025 -1.125,0.075 -0.383338,0.05 -0.741671,0.1584 -1.075,0.325 -0.316671,0.15 -0.583337,0.3667 -0.8,0.65 -0.21667,0.2667 -0.325003,0.625 -0.325,1.075 -3e-6,0.8334 0.266663,1.4167 0.8,1.75 0.533329,0.3167 1.258328,0.475 2.175,0.475 m -0.2,-11.65 c 0.933326,0 1.716659,0.125 2.35,0.375 0.649991,0.2334 1.166657,0.575 1.55,1.025 0.39999,0.4334 0.683323,0.9584 0.85,1.575 0.166656,0.6 0.249989,1.2667 0.25,2 l 0,8.125 c -0.200011,0.033 -0.483344,0.083 -0.85,0.15 -0.35001,0.05 -0.75001,0.1 -1.2,0.15 -0.450009,0.05 -0.941675,0.092 -1.475,0.125 -0.516674,0.05 -1.03334,0.075 -1.55,0.075 -0.733339,0 -1.408338,-0.075 -2.025,-0.225 -0.61667,-0.15 -1.150003,-0.3833 -1.6,-0.7 -0.450002,-0.3333 -0.800002,-0.7666 -1.05,-1.3 -0.250001,-0.5333 -0.375001,-1.175 -0.375,-1.925 -10e-7,-0.7166 0.141666,-1.3333 0.425,-1.85 0.299998,-0.5166 0.699998,-0.9333 1.2,-1.25 0.499997,-0.3166 1.08333,-0.55 1.75,-0.7 0.666662,-0.15 1.366661,-0.225 2.1,-0.225 0.233327,0 0.474993,0.017 0.725,0.05 0.249993,0.017 0.483326,0.05 0.7,0.1 0.233325,0.033 0.433325,0.067 0.6,0.1 0.166658,0.033 0.283325,0.058 0.35,0.075 l 0,-0.65 c -9e-6,-0.3833 -0.04167,-0.7583 -0.125,-1.125 -0.08334,-0.3833 -0.233342,-0.7166 -0.45,-1 -0.216675,-0.3 -0.516674,-0.5333 -0.9,-0.7 -0.366674,-0.1833 -0.850007,-0.275 -1.45,-0.275 -0.766672,0 -1.441671,0.058 -2.025,0.175 -0.56667,0.1 -0.99167,0.2084 -1.275,0.325 l -0.275,-1.925 c 0.299997,-0.1333 0.799997,-0.2583 1.5,-0.375 0.699995,-0.1333 1.458328,-0.2 2.275,-0.2"
         style="font-size:25px;fill:#999999"
         id="path3071"
         inkscape:connector-curvature="0" />
      <path
         d="m 100.76139,1025.351 c -0.16667,1.65 -0.29167,3.3 -0.375,4.95 -0.0833,1.6334 -0.15,3.175 -0.2,4.625 l -2.224998,0 c 0.03333,-1.0166 0.08333,-2.075 0.15,-3.175 0.06667,-1.1166 0.141665,-2.2333 0.225,-3.35 0.08333,-1.1333 0.174998,-2.2416 0.275,-3.325 0.1,-1.1 0.208331,-2.15 0.325,-3.15 l 2.124998,0 c 0.53333,0.8667 1.15833,2.0584 1.875,3.575 0.71666,1.5 1.54166,3.2334 2.475,5.2 0.93333,-1.9666 1.75832,-3.7 2.475,-5.2 0.71666,-1.5166 1.34166,-2.7083 1.875,-3.575 l 2.15,0 c 0.11665,1 0.22499,2.05 0.325,3.15 0.1,1.0834 0.19165,2.1917 0.275,3.325 0.0833,1.1167 0.15832,2.2334 0.225,3.35 0.0666,1.1 0.11665,2.1584 0.15,3.175 l -2.3,0 c -0.05,-1.45 -0.11668,-2.9916 -0.2,-4.625 -0.0834,-1.65 -0.20835,-3.3 -0.375,-4.95 -0.26668,0.5167 -0.57501,1.1417 -0.925,1.875 -0.35001,0.7167 -0.70001,1.45 -1.05,2.2 -0.33334,0.75 -0.65001,1.4667 -0.95,2.15 -0.30001,0.6834 -0.53334,1.225 -0.7,1.625 l -1.95,0 c -0.18334,-0.4166 -0.43334,-0.9666 -0.75,-1.65 -0.3,-0.6833 -0.625,-1.4 -0.975,-2.15 -0.33334,-0.7666 -0.675,-1.5083 -1.025,-2.225 -0.35,-0.7333 -0.65834,-1.3416 -0.925,-1.825"
         style="font-size:25px;fill:#999999"
         id="path3073"
         inkscape:connector-curvature="0" />
      <path
         d="m 120.94811,1033.251 c 0.54999,0 1.03333,-0.01 1.45,-0.025 0.43333,-0.033 0.79166,-0.083 1.075,-0.15 l 0,-3.875 c -0.16667,-0.083 -0.44167,-0.15 -0.825,-0.2 -0.36667,-0.067 -0.81667,-0.1 -1.35,-0.1 -0.35001,0 -0.72501,0.025 -1.125,0.075 -0.38334,0.05 -0.74167,0.1584 -1.075,0.325 -0.31667,0.15 -0.58334,0.3667 -0.8,0.65 -0.21667,0.2667 -0.325,0.625 -0.325,1.075 0,0.8334 0.26666,1.4167 0.8,1.75 0.53333,0.3167 1.25833,0.475 2.175,0.475 m -0.2,-11.65 c 0.93333,0 1.71666,0.125 2.35,0.375 0.64999,0.2334 1.16666,0.575 1.55,1.025 0.39999,0.4334 0.68332,0.9584 0.85,1.575 0.16666,0.6 0.24999,1.2667 0.25,2 l 0,8.125 c -0.20001,0.033 -0.48334,0.083 -0.85,0.15 -0.35001,0.05 -0.75001,0.1 -1.2,0.15 -0.45001,0.05 -0.94167,0.092 -1.475,0.125 -0.51667,0.05 -1.03334,0.075 -1.55,0.075 -0.73334,0 -1.40834,-0.075 -2.025,-0.225 -0.61667,-0.15 -1.15,-0.3833 -1.6,-0.7 -0.45,-0.3333 -0.8,-0.7666 -1.05,-1.3 -0.25,-0.5333 -0.375,-1.175 -0.375,-1.925 0,-0.7166 0.14167,-1.3333 0.425,-1.85 0.3,-0.5166 0.7,-0.9333 1.2,-1.25 0.5,-0.3166 1.08333,-0.55 1.75,-0.7 0.66666,-0.15 1.36666,-0.225 2.1,-0.225 0.23333,0 0.47499,0.017 0.725,0.05 0.24999,0.017 0.48333,0.05 0.7,0.1 0.23333,0.033 0.43333,0.067 0.6,0.1 0.16666,0.033 0.28333,0.058 0.35,0.075 l 0,-0.65 c -1e-5,-0.3833 -0.0417,-0.7583 -0.125,-1.125 -0.0833,-0.3833 -0.23334,-0.7166 -0.45,-1 -0.21667,-0.3 -0.51667,-0.5333 -0.9,-0.7 -0.36667,-0.1833 -0.85001,-0.275 -1.45,-0.275 -0.76667,0 -1.44167,0.058 -2.025,0.175 -0.56667,0.1 -0.99167,0.2084 -1.275,0.325 l -0.275,-1.925 c 0.3,-0.1333 0.8,-0.2583 1.5,-0.375 0.7,-0.1333 1.45833,-0.2 2.275,-0.2"
         style="font-size:25px;fill:#999999"
         id="path3075"
         inkscape:connector-curvature="0" />
      <path
         d="m 138.76022,1021.926 0,1.95 -4.225,0 0,11.05 -2.325,0 0,-11.05 -4.225,0 0,-1.95 10.775,0"
         style="font-size:25px;fill:#999999"
         id="path3077"
         inkscape:connector-curvature="0" />
      <path
         d="m 150.18249,1028.451 c -2e-5,-1.5166 -0.37501,-2.6833 -1.125,-3.5 -0.75001,-0.8166 -1.75001,-1.225 -3,-1.225 -0.70001,0 -1.25001,0.025 -1.65,0.075 -0.38334,0.05 -0.69168,0.1084 -0.925,0.175 l 0,8.2 c 0.28332,0.2334 0.69166,0.4584 1.225,0.675 0.53332,0.2167 1.11666,0.325 1.75,0.325 0.66665,0 1.23332,-0.1166 1.7,-0.35 0.48332,-0.25 0.87499,-0.5833 1.175,-1 0.29999,-0.4333 0.51665,-0.9333 0.65,-1.5 0.13332,-0.5833 0.19998,-1.2083 0.2,-1.875 m 2.425,0 c -2e-5,0.9834 -0.13335,1.8917 -0.4,2.725 -0.25002,0.8334 -0.62502,1.55 -1.125,2.15 -0.50002,0.6 -1.11668,1.0667 -1.85,1.4 -0.71668,0.3334 -1.54168,0.5 -2.475,0.5 -0.75001,0 -1.41668,-0.1 -2,-0.3 -0.56668,-0.2 -0.99168,-0.3916 -1.275,-0.575 l 0,5.2 -2.325,0 0,-17.225 c 0.54999,-0.1333 1.23333,-0.275 2.05,-0.425 0.83332,-0.1666 1.79166,-0.25 2.875,-0.25 0.99999,0 1.89999,0.1584 2.7,0.475 0.79999,0.3167 1.48332,0.7667 2.05,1.35 0.56665,0.5834 0.99998,1.3 1.3,2.15 0.31665,0.8334 0.47498,1.775 0.475,2.825"
         style="font-size:25px;fill:#999999"
         id="path3079"
         inkscape:connector-curvature="0" />
      <path
         d="m 160.67858,1028.501 c -0.45001,0 -0.89167,0.017 -1.325,0.05 -0.41667,0.017 -0.79167,0.067 -1.125,0.15 l 0,4.475 c 0.1,0.017 0.24166,0.033 0.425,0.05 0.19999,0.017 0.40833,0.033 0.625,0.05 0.23333,0 0.46666,0.01 0.7,0.025 0.23333,0 0.44166,0 0.625,0 1.01666,0 1.79999,-0.1916 2.35,-0.575 0.54999,-0.3833 0.82499,-1 0.825,-1.85 -1e-5,-0.4166 -0.0917,-0.775 -0.275,-1.075 -0.16668,-0.3 -0.40001,-0.5416 -0.7,-0.725 -0.28334,-0.2 -0.60834,-0.3416 -0.975,-0.425 -0.36667,-0.1 -0.75001,-0.15 -1.15,-0.15 m -4.775,-6.575 2.325,0 0,4.975 c 0.28333,-0.067 0.69166,-0.1333 1.225,-0.2 0.54999,-0.067 1.07499,-0.1 1.575,-0.1 0.68333,0 1.33332,0.083 1.95,0.25 0.61666,0.15 1.15832,0.4 1.625,0.75 0.46666,0.3334 0.83332,0.775 1.1,1.325 0.28332,0.5334 0.42499,1.175 0.425,1.925 -1e-5,0.7834 -0.13335,1.45 -0.4,2 -0.26668,0.55 -0.64168,1 -1.125,1.35 -0.48334,0.35 -1.06668,0.6 -1.75,0.75 -0.68334,0.1667 -1.43334,0.25 -2.25,0.25 -0.78334,0 -1.57501,-0.05 -2.375,-0.15 -0.8,-0.083 -1.575,-0.2166 -2.325,-0.4 l 0,-12.725 m 14.95,13 -2.325,0 0,-13 2.325,0 0,13"
         style="font-size:25px;fill:#999999"
         id="path3081"
         inkscape:connector-curvature="0" />
      <path
         d="m 185.22389,1033.001 1.75,0 0,5.55 -2.2,0 0,-3.625 -9.925,0 0,-13 2.325,0 0,11.075 5.725,0 0,-11.075 2.325,0 0,11.075"
         style="font-size:25px;fill:#999999"
         id="path3083"
         inkscape:connector-curvature="0" />
      <path
         d="m 193.89733,1033.251 c 0.54999,0 1.03333,-0.01 1.45,-0.025 0.43332,-0.033 0.79166,-0.083 1.075,-0.15 l 0,-3.875 c -0.16668,-0.083 -0.44168,-0.15 -0.825,-0.2 -0.36667,-0.067 -0.81667,-0.1 -1.35,-0.1 -0.35001,0 -0.72501,0.025 -1.125,0.075 -0.38334,0.05 -0.74167,0.1584 -1.075,0.325 -0.31667,0.15 -0.58334,0.3667 -0.8,0.65 -0.21667,0.2667 -0.325,0.625 -0.325,1.075 0,0.8334 0.26666,1.4167 0.8,1.75 0.53333,0.3167 1.25833,0.475 2.175,0.475 m -0.2,-11.65 c 0.93333,0 1.71666,0.125 2.35,0.375 0.64999,0.2334 1.16666,0.575 1.55,1.025 0.39999,0.4334 0.68332,0.9584 0.85,1.575 0.16666,0.6 0.24999,1.2667 0.25,2 l 0,8.125 c -0.20001,0.033 -0.48334,0.083 -0.85,0.15 -0.35001,0.05 -0.75001,0.1 -1.2,0.15 -0.45001,0.05 -0.94168,0.092 -1.475,0.125 -0.51667,0.05 -1.03334,0.075 -1.55,0.075 -0.73334,0 -1.40834,-0.075 -2.025,-0.225 -0.61667,-0.15 -1.15,-0.3833 -1.6,-0.7 -0.45,-0.3333 -0.8,-0.7666 -1.05,-1.3 -0.25,-0.5333 -0.375,-1.175 -0.375,-1.925 0,-0.7166 0.14167,-1.3333 0.425,-1.85 0.3,-0.5166 0.7,-0.9333 1.2,-1.25 0.5,-0.3166 1.08333,-0.55 1.75,-0.7 0.66666,-0.15 1.36666,-0.225 2.1,-0.225 0.23333,0 0.47499,0.017 0.725,0.05 0.24999,0.017 0.48333,0.05 0.7,0.1 0.23332,0.033 0.43332,0.067 0.6,0.1 0.16666,0.033 0.28332,0.058 0.35,0.075 l 0,-0.65 c -10e-6,-0.3833 -0.0417,-0.7583 -0.125,-1.125 -0.0833,-0.3833 -0.23334,-0.7166 -0.45,-1 -0.21668,-0.3 -0.51667,-0.5333 -0.9,-0.7 -0.36667,-0.1833 -0.85001,-0.275 -1.45,-0.275 -0.76667,0 -1.44167,0.058 -2.025,0.175 -0.56667,0.1 -0.99167,0.2084 -1.275,0.325 l -0.275,-1.925 c 0.3,-0.1333 0.8,-0.2583 1.5,-0.375 0.7,-0.1333 1.45833,-0.2 2.275,-0.2"
         style="font-size:25px;fill:#999999"
         id="path3085"
         inkscape:connector-curvature="0" />
      <path
         d="m 213.45944,1021.926 0,13 -2.25,0 0,-9.9 c -0.50001,0.6334 -1.05001,1.375 -1.65,2.225 -0.60001,0.85 -1.20001,1.7334 -1.8,2.65 -0.60001,0.9 -1.17501,1.7917 -1.725,2.675 -0.55001,0.8834 -1.02501,1.6667 -1.425,2.35 l -2.075,0 0,-13 2.25,0 0,9.35 c 0.43333,-0.7166 0.92499,-1.5 1.475,-2.35 0.54999,-0.8666 1.11666,-1.7166 1.7,-2.55 0.59999,-0.85 1.19166,-1.6583 1.775,-2.425 0.59999,-0.7833 1.15832,-1.4583 1.675,-2.025 l 2.05,0 m -5.45,-2.1 c -1.05001,0 -1.90834,-0.2666 -2.575,-0.8 -0.65001,-0.5333 -1.04167,-1.275 -1.175,-2.225 l 1.775,-0.475 c 0.13333,0.5334 0.35833,0.9667 0.675,1.3 0.31666,0.3334 0.74999,0.5 1.3,0.5 0.54999,0 0.98332,-0.1666 1.3,-0.5 0.31666,-0.3333 0.54166,-0.7666 0.675,-1.3 l 1.75,0.475 c -0.13335,0.95 -0.52501,1.6917 -1.175,2.225 -0.65001,0.5334 -1.50001,0.8 -2.55,0.8"
         style="font-size:25px;fill:#999999"
         id="path3087"
         inkscape:connector-curvature="0" />
    </g>
    <g
       style="font-size:24.28185844px;font-style:normal;font-variant:normal;font-weight:normal;font-stretch:normal;line-height:125%;letter-spacing:0px;word-spacing:0px;fill:#4d4d4d;fill-opacity:1;stroke:none;font-family:Ubuntu;-inkscape-font-specification:Ubuntu"
       id="text2995">
      <path
         d="m 370.06859,1015.714 c 0.68333,0 1.26666,0.05 1.75,0.15 0.49999,0.1 0.84999,0.1917 1.05,0.275 l -0.425,2 c -0.20001,-0.1 -0.48334,-0.1916 -0.85,-0.275 -0.36667,-0.1 -0.81667,-0.15 -1.35,-0.15 -1.08334,0 -1.84167,0.3 -2.275,0.9 -0.43334,0.5834 -0.65,1.375 -0.65,2.375 l 0,1.125 5,0 0,1.95 -5,0 0,11.05 -2.325,0 0,-14.175 c 0,-1.6666 0.40833,-2.95 1.225,-3.85 0.81666,-0.9166 2.1,-1.375 3.85,-1.375"
         style="font-size:25px;fill:#4d4d4d"
         id="path3090"
         inkscape:connector-curvature="0" />
      <path
         d="m 379.06156,1033.439 c 0.54999,0 1.03333,-0.01 1.45,-0.025 0.43333,-0.033 0.79166,-0.083 1.075,-0.15 l 0,-3.875 c -0.16668,-0.083 -0.44168,-0.15 -0.825,-0.2 -0.36667,-0.067 -0.81667,-0.1 -1.35,-0.1 -0.35001,0 -0.72501,0.025 -1.125,0.075 -0.38334,0.05 -0.74167,0.1584 -1.075,0.325 -0.31667,0.15 -0.58334,0.3667 -0.8,0.65 -0.21667,0.2667 -0.325,0.625 -0.325,1.075 0,0.8334 0.26666,1.4167 0.8,1.75 0.53333,0.3167 1.25833,0.475 2.175,0.475 m -0.2,-11.65 c 0.93333,0 1.71666,0.125 2.35,0.375 0.64999,0.2334 1.16666,0.575 1.55,1.025 0.39999,0.4334 0.68332,0.9584 0.85,1.575 0.16666,0.6 0.24999,1.2667 0.25,2 l 0,8.125 c -0.20001,0.033 -0.48334,0.083 -0.85,0.15 -0.35001,0.05 -0.75001,0.1 -1.2,0.15 -0.45001,0.05 -0.94167,0.092 -1.475,0.125 -0.51667,0.05 -1.03334,0.075 -1.55,0.075 -0.73334,0 -1.40834,-0.075 -2.025,-0.225 -0.61667,-0.15 -1.15,-0.3833 -1.6,-0.7 -0.45,-0.3333 -0.8,-0.7667 -1.05,-1.3 -0.25,-0.5333 -0.375,-1.175 -0.375,-1.925 0,-0.7166 0.14167,-1.3333 0.425,-1.85 0.3,-0.5166 0.7,-0.9333 1.2,-1.25 0.5,-0.3166 1.08333,-0.55 1.75,-0.7 0.66666,-0.15 1.36666,-0.225 2.1,-0.225 0.23333,0 0.47499,0.017 0.725,0.05 0.24999,0.017 0.48333,0.05 0.7,0.1 0.23333,0.033 0.43332,0.067 0.6,0.1 0.16666,0.033 0.28332,0.058 0.35,0.075 l 0,-0.65 c -1e-5,-0.3833 -0.0417,-0.7583 -0.125,-1.125 -0.0833,-0.3833 -0.23334,-0.7166 -0.45,-1 -0.21667,-0.3 -0.51667,-0.5333 -0.9,-0.7 -0.36667,-0.1833 -0.85001,-0.275 -1.45,-0.275 -0.76667,0 -1.44167,0.058 -2.025,0.175 -0.56667,0.1 -0.99167,0.2084 -1.275,0.325 l -0.275,-1.925 c 0.3,-0.1333 0.8,-0.2583 1.5,-0.375 0.7,-0.1333 1.45833,-0.2 2.275,-0.2"
         style="font-size:25px;fill:#4d4d4d"
         id="path3092"
         inkscape:connector-curvature="0" />
      <path
         d="m 391.59867,1035.364 c -1.43334,-0.033 -2.45,-0.3417 -3.05,-0.925 -0.6,-0.5833 -0.9,-1.4917 -0.9,-2.725 l 0,-15.6 2.325,-0.4 0,15.625 c 0,0.3834 0.0333,0.7 0.1,0.95 0.0667,0.25 0.17499,0.45 0.325,0.6 0.14999,0.15 0.34999,0.2667 0.6,0.35 0.24999,0.067 0.55833,0.125 0.925,0.175 l -0.325,1.95"
         style="font-size:25px;fill:#4d4d4d"
         id="path3094"
         inkscape:connector-curvature="0" />
      <path
         d="m 398.93461,1033.439 c 0.54999,0 1.03332,-0.01 1.45,-0.025 0.43332,-0.033 0.79165,-0.083 1.075,-0.15 l 0,-3.875 c -0.16668,-0.083 -0.44168,-0.15 -0.825,-0.2 -0.36668,-0.067 -0.81668,-0.1 -1.35,-0.1 -0.35001,0 -0.72501,0.025 -1.125,0.075 -0.38334,0.05 -0.74167,0.1584 -1.075,0.325 -0.31667,0.15 -0.58334,0.3667 -0.8,0.65 -0.21667,0.2667 -0.32501,0.625 -0.325,1.075 -10e-6,0.8334 0.26666,1.4167 0.8,1.75 0.53333,0.3167 1.25832,0.475 2.175,0.475 m -0.2,-11.65 c 0.93332,0 1.71666,0.125 2.35,0.375 0.64999,0.2334 1.16665,0.575 1.55,1.025 0.39999,0.4334 0.68332,0.9584 0.85,1.575 0.16665,0.6 0.24999,1.2667 0.25,2 l 0,8.125 c -0.20001,0.033 -0.48335,0.083 -0.85,0.15 -0.35001,0.05 -0.75001,0.1 -1.2,0.15 -0.45001,0.05 -0.94168,0.092 -1.475,0.125 -0.51668,0.05 -1.03334,0.075 -1.55,0.075 -0.73334,0 -1.40834,-0.075 -2.025,-0.225 -0.61667,-0.15 -1.15001,-0.3833 -1.6,-0.7 -0.45001,-0.3333 -0.8,-0.7667 -1.05,-1.3 -0.25,-0.5333 -0.375,-1.175 -0.375,-1.925 0,-0.7166 0.14166,-1.3333 0.425,-1.85 0.3,-0.5166 0.69999,-0.9333 1.2,-1.25 0.49999,-0.3166 1.08333,-0.55 1.75,-0.7 0.66666,-0.15 1.36666,-0.225 2.1,-0.225 0.23332,0 0.47499,0.017 0.725,0.05 0.24999,0.017 0.48332,0.05 0.7,0.1 0.23332,0.033 0.43332,0.067 0.6,0.1 0.16665,0.033 0.28332,0.058 0.35,0.075 l 0,-0.65 c -10e-6,-0.3833 -0.0417,-0.7583 -0.125,-1.125 -0.0833,-0.3833 -0.23334,-0.7166 -0.45,-1 -0.21668,-0.3 -0.51668,-0.5333 -0.9,-0.7 -0.36668,-0.1833 -0.85001,-0.275 -1.45,-0.275 -0.76667,0 -1.44167,0.058 -2.025,0.175 -0.56667,0.1 -0.99167,0.2084 -1.275,0.325 l -0.275,-1.925 c 0.29999,-0.1333 0.79999,-0.2583 1.5,-0.375 0.69999,-0.1333 1.45832,-0.2 2.275,-0.2"
         style="font-size:25px;fill:#4d4d4d"
         id="path3096"
         inkscape:connector-curvature="0" />
      <path
         d="m 407.57172,1022.489 c 0.53333,-0.1333 1.24166,-0.275 2.125,-0.425 0.88332,-0.15 1.89999,-0.225 3.05,-0.225 1.03332,0 1.89165,0.15 2.575,0.45 0.68332,0.2834 1.22499,0.6917 1.625,1.225 0.41665,0.5167 0.70832,1.1417 0.875,1.875 0.16665,0.7334 0.24998,1.5417 0.25,2.425 l 0,7.3 -2.325,0 0,-6.8 c -10e-6,-0.8 -0.0583,-1.4833 -0.175,-2.05 -0.10001,-0.5666 -0.27501,-1.025 -0.525,-1.375 -0.25001,-0.35 -0.58335,-0.6 -1,-0.75 -0.41668,-0.1666 -0.93334,-0.25 -1.55,-0.25 -0.25001,0 -0.50834,0.01 -0.775,0.025 -0.26668,0.017 -0.52501,0.042 -0.775,0.075 -0.23334,0.017 -0.45001,0.042 -0.65,0.075 -0.18334,0.033 -0.31667,0.058 -0.4,0.075 l 0,10.975 -2.325,0 0,-12.625"
         style="font-size:25px;fill:#4d4d4d"
         id="path3098"
         inkscape:connector-curvature="0" />
      <path
         d="m 424.95219,1033.439 c 0.94999,0 1.64999,-0.125 2.1,-0.375 0.46665,-0.25 0.69999,-0.65 0.7,-1.2 -10e-6,-0.5666 -0.22501,-1.0166 -0.675,-1.35 -0.45001,-0.3333 -1.19168,-0.7083 -2.225,-1.125 -0.50001,-0.2 -0.98334,-0.4 -1.45,-0.6 -0.45001,-0.2166 -0.84167,-0.4666 -1.175,-0.75 -0.33334,-0.2833 -0.60001,-0.625 -0.8,-1.025 -0.20001,-0.4 -0.30001,-0.8916 -0.3,-1.475 -10e-6,-1.15 0.42499,-2.0583 1.275,-2.725 0.84999,-0.6833 2.00832,-1.025 3.475,-1.025 0.36666,0 0.73332,0.025 1.1,0.075 0.36665,0.033 0.70832,0.083 1.025,0.15 0.31665,0.05 0.59165,0.1084 0.825,0.175 0.24999,0.067 0.44165,0.125 0.575,0.175 l -0.425,2 c -0.25001,-0.1333 -0.64168,-0.2666 -1.175,-0.4 -0.53335,-0.15 -1.17501,-0.225 -1.925,-0.225 -0.65001,0 -1.21668,0.1334 -1.7,0.4 -0.48334,0.25 -0.72501,0.65 -0.725,1.2 -10e-6,0.2834 0.05,0.5334 0.15,0.75 0.11666,0.2167 0.28332,0.4167 0.5,0.6 0.23332,0.1667 0.51666,0.325 0.85,0.475 0.33332,0.15 0.73332,0.3084 1.2,0.475 0.61665,0.2334 1.16665,0.4667 1.65,0.7 0.48332,0.2167 0.89165,0.475 1.225,0.775 0.34999,0.3 0.61665,0.6667 0.8,1.1 0.18332,0.4167 0.27498,0.9334 0.275,1.55 -2e-5,1.2 -0.45001,2.1083 -1.35,2.725 -0.88335,0.6167 -2.15001,0.925 -3.8,0.925 -1.15001,0 -2.05001,-0.1 -2.7,-0.3 -0.65001,-0.1833 -1.09167,-0.325 -1.325,-0.425 l 0.425,-2 c 0.26666,0.1 0.69166,0.25 1.275,0.45 0.58333,0.2 1.35832,0.3 2.325,0.3"
         style="font-size:25px;fill:#4d4d4d"
         id="path3100"
         inkscape:connector-curvature="0" />
      <path
         d="m 435.235,1022.114 4.925,0 0,1.95 -4.925,0 0,6 c -1e-5,0.65 0.05,1.1917 0.15,1.625 0.1,0.4167 0.24999,0.75 0.45,1 0.19999,0.2333 0.44999,0.4 0.75,0.5 0.29999,0.1 0.64999,0.15 1.05,0.15 0.69999,0 1.25832,-0.075 1.675,-0.225 0.43332,-0.1667 0.73332,-0.2833 0.9,-0.35 l 0.45,1.925 c -0.23335,0.1167 -0.64168,0.2583 -1.225,0.425 -0.58334,0.1833 -1.25001,0.275 -2,0.275 -0.88334,0 -1.61667,-0.1083 -2.2,-0.325 -0.56667,-0.2333 -1.02501,-0.575 -1.375,-1.025 -0.35,-0.45 -0.6,-1 -0.75,-1.65 -0.13334,-0.6666 -0.2,-1.4333 -0.2,-2.3 l 0,-11.6 2.325,-0.4 0,4.025"
         style="font-size:25px;fill:#4d4d4d"
         id="path3102"
         inkscape:connector-curvature="0" />
      <path
         d="m 442.14945,1028.639 c 0,-1.15 0.16667,-2.15 0.5,-3 0.33333,-0.8666 0.775,-1.5833 1.325,-2.15 0.55,-0.5666 1.18333,-0.9916 1.9,-1.275 0.71666,-0.2833 1.44999,-0.425 2.2,-0.425 1.74999,0 3.09166,0.55 4.025,1.65 0.93332,1.0834 1.39999,2.7417 1.4,4.975 -1e-5,0.1 -1e-5,0.2334 0,0.4 -1e-5,0.15 -0.008,0.2917 -0.025,0.425 l -8.9,0 c 0.1,1.35 0.49166,2.375 1.175,3.075 0.68333,0.7 1.74999,1.05 3.2,1.05 0.81666,0 1.49999,-0.067 2.05,-0.2 0.56666,-0.15 0.99166,-0.2917 1.275,-0.425 l 0.325,1.95 c -0.28334,0.15 -0.78334,0.3083 -1.5,0.475 -0.70001,0.1667 -1.50001,0.25 -2.4,0.25 -1.13334,0 -2.11667,-0.1667 -2.95,-0.5 -0.81667,-0.35 -1.49167,-0.825 -2.025,-1.425 -0.53333,-0.6 -0.93333,-1.3083 -1.2,-2.125 -0.25,-0.8333 -0.375,-1.7416 -0.375,-2.725 m 8.925,-1.275 c 0.0167,-1.05 -0.25001,-1.9083 -0.8,-2.575 -0.53334,-0.6833 -1.27501,-1.025 -2.225,-1.025 -0.53334,0 -1.00834,0.1084 -1.425,0.325 -0.4,0.2 -0.74167,0.4667 -1.025,0.8 -0.28334,0.3334 -0.50834,0.7167 -0.675,1.15 -0.15,0.4334 -0.25,0.875 -0.3,1.325 l 6.45,0"
         style="font-size:25px;fill:#4d4d4d"
         id="path3104"
         inkscape:connector-curvature="0" />
      <path
         d="m 461.63929,1021.839 c 0.2,0 0.425,0.017 0.675,0.05 0.26666,0.017 0.525,0.05 0.775,0.1 0.25,0.033 0.475,0.075 0.675,0.125 0.21666,0.033 0.375,0.067 0.475,0.1 l -0.4,2.025 c -0.18334,-0.067 -0.49167,-0.1416 -0.925,-0.225 -0.41667,-0.1 -0.95834,-0.15 -1.625,-0.15 -0.43333,0 -0.86667,0.05 -1.3,0.15 -0.41667,0.083 -0.69167,0.1417 -0.825,0.175 l 0,10.925 -2.325,0 0,-12.45 c 0.55,-0.2 1.23333,-0.3833 2.05,-0.55 0.81667,-0.1833 1.73333,-0.275 2.75,-0.275"
         style="font-size:25px;fill:#4d4d4d"
         id="path3106"
         inkscape:connector-curvature="0" />
      <path
         d="m 467.89008,1033.764 c -1e-5,0.45 -0.15001,0.8417 -0.45,1.175 -0.30001,0.3333 -0.70834,0.5 -1.225,0.5 -0.51667,0 -0.92501,-0.1667 -1.225,-0.5 -0.30001,-0.3333 -0.45001,-0.725 -0.45,-1.175 -10e-6,-0.45 0.14999,-0.8417 0.45,-1.175 0.29999,-0.3333 0.70833,-0.5 1.225,-0.5 0.51666,0 0.92499,0.1667 1.225,0.5 0.29999,0.3333 0.44999,0.725 0.45,1.175"
         style="font-size:25px;fill:#4d4d4d"
         id="path3108"
         inkscape:connector-curvature="0" />
      <path
         d="m 473.61742,1022.689 c 0.28333,-0.1833 0.70833,-0.375 1.275,-0.575 0.58333,-0.2 1.24999,-0.3 2,-0.3 0.93332,0 1.75832,0.1667 2.475,0.5 0.73332,0.3334 1.34999,0.8 1.85,1.4 0.49999,0.6 0.87499,1.3167 1.125,2.15 0.26665,0.8334 0.39999,1.75 0.4,2.75 -10e-6,1.05 -0.15835,2 -0.475,2.85 -0.30001,0.8333 -0.73335,1.5417 -1.3,2.125 -0.56668,0.5833 -1.25001,1.0333 -2.05,1.35 -0.80001,0.3167 -1.70001,0.475 -2.7,0.475 -1.08334,0 -2.04167,-0.075 -2.875,-0.225 -0.83334,-0.15 -1.51667,-0.3 -2.05,-0.45 l 0,-18.625 2.325,-0.4 0,6.975 m 0,10.4 c 0.23333,0.067 0.55833,0.1333 0.975,0.2 0.43333,0.05 0.96666,0.075 1.6,0.075 1.24999,0 2.24999,-0.4083 3,-1.225 0.74999,-0.8333 1.12499,-2.0083 1.125,-3.525 -1e-5,-0.6666 -0.0667,-1.2916 -0.2,-1.875 -0.13334,-0.5833 -0.35001,-1.0833 -0.65,-1.5 -0.30001,-0.4333 -0.69168,-0.7666 -1.175,-1 -0.46668,-0.25 -1.03334,-0.375 -1.7,-0.375 -0.63334,0 -1.21667,0.1084 -1.75,0.325 -0.53334,0.2167 -0.94167,0.4417 -1.225,0.675 l 0,8.225"
         style="font-size:25px;fill:#4d4d4d"
         id="path3110"
         inkscape:connector-curvature="0" />
      <path
         d="m 484.17172,1037.539 c 0.18333,0.083 0.41666,0.1583 0.7,0.225 0.29999,0.083 0.59166,0.125 0.875,0.125 0.91666,0 1.63333,-0.2083 2.15,-0.625 0.51666,-0.4 0.98332,-1.0583 1.4,-1.975 -1.05001,-2 -2.03334,-4.1166 -2.95,-6.35 -0.90001,-2.25 -1.65,-4.525 -2.25,-6.825 l 2.5,0 c 0.18333,0.75 0.39999,1.5584 0.65,2.425 0.26666,0.8667 0.55833,1.7584 0.875,2.675 0.31666,0.9167 0.65832,1.8334 1.025,2.75 0.36666,0.9167 0.74999,1.8 1.15,2.65 0.63332,-1.75 1.18332,-3.4833 1.65,-5.2 0.46665,-1.7166 0.90832,-3.4833 1.325,-5.3 l 2.4,0 c -0.60002,2.45 -1.26668,4.8084 -2,7.075 -0.73335,2.25 -1.52501,4.3583 -2.375,6.325 -0.33334,0.75 -0.68334,1.3917 -1.05,1.925 -0.35001,0.55 -0.74168,1 -1.175,1.35 -0.43334,0.35 -0.92501,0.6083 -1.475,0.775 -0.53334,0.1667 -1.14167,0.25 -1.825,0.25 -0.18334,0 -0.37501,-0.017 -0.575,-0.05 -0.2,-0.017 -0.4,-0.05 -0.6,-0.1 -0.18334,-0.033 -0.35834,-0.075 -0.525,-0.125 -0.15,-0.05 -0.25834,-0.092 -0.325,-0.125 l 0.425,-1.875"
         style="font-size:25px;fill:#4d4d4d"
         id="path3112"
         inkscape:connector-curvature="0" />
    </g>
  </g>
</svg>
