<?xml version="1.0" encoding="UTF-8" standalone="no"?>
<!-- Created with Inkscape (http://www.inkscape.org/) -->

<svg
   xmlns:dc="http://purl.org/dc/elements/1.1/"
   xmlns:cc="http://creativecommons.org/ns#"
   xmlns:rdf="http://www.w3.org/1999/02/22-rdf-syntax-ns#"
   xmlns:svg="http://www.w3.org/2000/svg"
   xmlns="http://www.w3.org/2000/svg"
   xmlns:sodipodi="http://sodipodi.sourceforge.net/DTD/sodipodi-0.dtd"
   xmlns:inkscape="http://www.inkscape.org/namespaces/inkscape"
   width="524.40942"
   height="372.04724"
   id="svg2"
   version="1.1"
   inkscape:version="0.48.4 r9939"
   sodipodi:docname="postcard_1_path.svg"
   inkscape:export-filename="/home/svet/Dropbox/falanster/design/postcards/postcard_1_path.png"
   inkscape:export-xdpi="299.9946"
   inkscape:export-ydpi="299.9946">
  <defs
     id="defs4" />
  <sodipodi:namedview
     id="base"
     pagecolor="#ffffff"
     bordercolor="#666666"
     borderopacity="1.0"
     inkscape:pageopacity="0.0"
     inkscape:pageshadow="2"
     inkscape:zoom="1.4"
     inkscape:cx="259.70206"
     inkscape:cy="209.58817"
     inkscape:document-units="px"
     inkscape:current-layer="layer1"
     showgrid="false"
     inkscape:window-width="1301"
     inkscape:window-height="744"
     inkscape:window-x="65"
     inkscape:window-y="24"
     inkscape:window-maximized="1"
     showguides="true"
     inkscape:guide-bbox="true">
    <sodipodi:guide
       orientation="0,1"
       position="279.81226,16.162441"
       id="guide2999" />
    <sodipodi:guide
       orientation="1,0"
       position="26.263966,437.39605"
       id="guide3001" />
    <sodipodi:guide
       orientation="1,0"
       position="495.9849,304.05592"
       id="guide3003" />
  </sodipodi:namedview>
  <metadata
     id="metadata7">
    <rdf:RDF>
      <cc:Work
         rdf:about="">
        <dc:format>image/svg+xml</dc:format>
        <dc:type
           rdf:resource="http://purl.org/dc/dcmitype/StillImage" />
        <dc:title></dc:title>
      </cc:Work>
    </rdf:RDF>
  </metadata>
  <g
     inkscape:label="Layer 1"
     inkscape:groupmode="layer"
     id="layer1"
     transform="translate(0,-680.31491)">
    <path
       style="fill:#1a1a1a;fill-opacity:1;fill-rule:nonzero;stroke:none"
       d="m 0,680.31488 524.40942,0 0,372.04722 -524.40942,0 z"
       id="rect2985" />
    <g
       style="font-size:52px;font-style:normal;font-variant:normal;font-weight:normal;font-stretch:normal;line-height:125%;letter-spacing:0px;word-spacing:0px;fill:#ff0000;fill-opacity:1;stroke:none;font-family:Courier 10 Pitch;-inkscape-font-specification:Courier 10 Pitch"
       id="text2983">
      <path
         d="m 37.087662,746.67976 0.624,-10.972 3.692,0 -0.52,10.816 c 0,0.052 0,0.104 0,0.104 0,1.04 0.624001,1.664 1.508,1.664 1.039999,0 1.612,-0.572 1.664,-1.612 l 0.572,-10.972 3.744,0 c 1.091999,0 1.664,-0.624 1.664,-1.716 0,-1.092 -0.572001,-1.716 -1.664,-1.716 l -3.536,0 0.312,-6.032 3.224,0 c 1.091999,0 1.664,-0.624 1.664,-1.716 0,-1.092 -0.572001,-1.664 -1.664,-1.664 l -3.12,0 0.624,-10.868 c 0,-0.052 0,-0.104 0,-0.104 0,-1.04 -0.676001,-1.612 -1.612,-1.612 -0.935999,0 -1.508,0.52 -1.56,1.56 l -0.624,11.024 -3.692,0 0.52,-10.868 c 0,-0.052 0,-0.104 0,-0.104 0,-1.04 -0.624001,-1.612 -1.56,-1.612 -0.935999,0 -1.508,0.52 -1.56,1.56 l -0.624,11.024 -3.796,0 c -1.091999,0 -1.664,0.572 -1.664,1.664 0,1.092 0.572001,1.716 1.664,1.716 l 3.64,0 -0.26,6.032 -3.38,0 c -1.091999,0 -1.664,0.624 -1.664,1.716 0,1.092 0.572001,1.716 1.664,1.716 l 3.172,0 -0.572,10.816 c 0,0.052 0,0.104 0,0.156 0,0.988 0.572001,1.612 1.456,1.612 1.039999,0 1.612,-0.572 1.664,-1.612 m 0.78,-14.404 0.312,-6.032 3.796,0 -0.364,6.032 -3.744,0"
         style=""
         id="path3015" />
      <path
         d="m 91.330162,743.45576 c 0,1.612 0.676001,2.444 1.872,2.444 0.571999,0 1.404001,-0.416 2.6,-1.196 2.859997,0.728 5.407998,1.144 7.695998,1.144 6.344,0 9.932,-3.17201 9.932,-7.54 0,-4.992 -3.484,-6.968 -10.192,-7.124 -4.991993,-0.104 -7.903998,-0.36401 -7.903998,-3.068 0,-2.028 1.924003,-3.744 5.303998,-3.744 2.652,0 4.524,0.624 6.448,2.34 1.508,1.352 2.028,2.652 3.172,2.652 1.248,0 1.716,-0.884 1.716,-2.548 l 0,-2.964 c 0,-1.716 -0.572,-2.548 -1.716,-2.548 -1.352,0 -1.872,0.988 -2.6,0.988 -0.728,0 -2.756,-1.144 -6.448,-1.144 -6.291992,0 -9.775998,2.912 -9.775998,7.124 0,4.52399 3.692007,7.02 10.607998,7.02 0.728,0 1.196,0 1.456,0 3.848,0 5.72,0.728 5.72,3.328 0,2.28799 -2.288,3.952 -5.98,3.952 -3.431995,0 -6.343999,-1.248 -7.695998,-3.016 -0.987999,-1.3 -0.832002,-2.704 -2.392,-2.704 -1.351999,0 -1.82,0.728 -1.82,2.08 l 0,4.524"
         style=""
         id="path3017" />
      <path
         d="m 127.29141,735.91576 0,-12.168 c 0,-0.104 0,-0.156 0,-0.26 0,-1.144 -0.052,-1.664 -1.456,-1.664 l -3.848,0 c -1.352,0 -2.028,0.572 -2.028,1.768 0,1.3 0.728,1.82 2.34,1.82 0.364,0 0.78,0 1.144,0 l 0,11.44 c 0,5.92799 2.80801,8.944 8.372,8.944 3.068,0 5.252,-1.19601 7.904,-3.276 l 0,1.716 c 0,0.624 0.468,1.04 1.456,1.04 l 3.848,0 c 1.352,0 2.028,-0.624 2.028,-1.82 0,-1.3 -0.728,-1.768 -2.34,-1.768 -0.364,0 -0.78,0 -1.144,0 l 0,-17.42 c 0,-1.508 0,-2.444 -1.768,-2.444 l -5.408,0 c -1.404,0 -2.028,0.52 -2.028,1.768 0,1.248 0.52,1.82 1.872,1.82 l 3.484,0 0,10.504 c 0,3.74399 -3.276,6.136 -6.708,6.136 -3.95199,0 -5.72,-1.97601 -5.72,-6.136"
         style=""
         id="path3019" />
      <path
         d="m 156.02466,733.88776 c 0,-5.044 3.22401,-8.372 8.008,-8.372 4.732,0 8.008,3.432 8.008,8.112 0,4.67999 -3.38,8.216 -8.06,8.216 -4.52399,0 -7.956,-3.17201 -7.956,-7.956 m 16.64,11.388 4.836,0 c 1.092,0 1.82,-0.676 1.82,-1.82 0,-1.3 -0.728,-1.768 -2.34,-1.768 -0.364,0 -0.78,0 -1.144,0 l 0,-28.6 c 0,-0.728 -0.468,-1.04 -1.456,-1.04 l -5.2,0 c -1.352,0 -2.028,0.624 -2.028,1.82 0,1.664 1.092,1.82 3.484,1.82 l 1.352,0 0,9.724 c -1.976,-2.444 -4.784,-3.64 -8.268,-3.64 -6.86399,0 -12.064,5.304 -12.064,12.012 0,7.12399 4.88801,12.116 11.284,12.116 3.588,0 6.708,-1.45601 8.736,-4.004 l 0,2.08 c 0,0.884 0.208,1.3 0.988,1.3"
         style=""
         id="path3021" />
      <path
         d="m 209.56191,733.57576 c 0,-7.02 -5.20001,-12.324 -13.26,-12.324 -8.05999,0 -13.312,5.252 -13.312,12.324 0,7.07199 5.25201,12.324 13.312,12.324 8.05999,0 13.26,-5.25201 13.26,-12.324 m -13.26,8.788 c -5.25199,0 -8.892,-3.74401 -8.892,-8.788 0,-5.044 3.64001,-8.84 8.892,-8.84 5.252,0 8.892,3.796 8.892,8.84 0,5.09599 -3.64,8.788 -8.892,8.788"
         style=""
         id="path3023" />
      <path
         d="m 270.30441,729.46776 0,-4.732 c 0,-2.184 -0.26,-3.12 -1.82,-3.12 -1.3,0 -1.976,0.468 -1.976,1.612 0,0 0,0.052 0,0.104 -2.808,-1.404 -5.356,-2.132 -8.008,-2.132 -7.27999,0 -12.792,5.356 -12.792,12.376 0,7.01999 5.46001,12.324 12.844,12.324 6.136,0 11.856,-3.79601 11.856,-6.188 0,-1.04 -0.728,-1.768 -1.768,-1.768 -1.352,0 -2.34,1.248 -3.9,2.288 -1.82,1.196 -3.9,1.872 -5.928,1.872 -5.30399,0 -8.684,-3.53601 -8.684,-8.58 0,-4.888 3.64001,-8.372 8.892,-8.372 3.016,0 5.408,1.404 6.968,4.16 0.78,1.404 1.3,2.028 2.392,2.028 1.248,0 1.924,-0.624 1.924,-1.872"
         style=""
         id="path3025" />
      <path
         d="m 280.57766,741.68776 c -0.208,0 -0.364,0 -0.52,0 -2.08,0 -2.964,0.312 -2.964,1.768 0,1.196 0.676,1.82 2.028,1.82 l 6.76,0 c 1.508,0 2.028,-0.364 2.028,-1.82 0,-1.404 -0.676,-1.82 -2.444,-1.82 -0.312,0 -0.676,0.052 -1.092,0.052 l 0,-10.556 c 0,-3.796 3.536,-6.084 6.604,-6.084 3.328,0 5.356,2.028 5.356,6.084 l 0,10.556 c -0.468,0 -0.728,0 -0.988,0 -1.82,0 -2.496,0.364 -2.496,1.768 0,1.456 0.52,1.82 2.028,1.82 l 6.76,0 c 1.352,0 2.028,-0.624 2.028,-1.82 0,-1.3 -0.78,-1.768 -2.392,-1.768 -0.364,0 -0.728,0 -1.092,0 l 0,-11.492 c 0,-5.876 -3.484,-9.048 -8.32,-9.048 -2.652,0 -4.992,1.144 -7.436,3.432 l 0,-11.492 c 0,-0.624 -0.468,-1.04 -1.456,-1.04 l -3.848,0 c -1.352,0 -2.028,0.624 -2.028,1.82 0,1.3 0.728,1.768 2.34,1.768 0.364,0 0.78,0.052 1.144,0.052 l 0,26"
         style=""
         id="path3027" />
      <path
         d="m 334.68691,733.57576 c 0,-7.02 -5.20001,-12.324 -13.26,-12.324 -8.05999,0 -13.312,5.252 -13.312,12.324 0,7.07199 5.25201,12.324 13.312,12.324 8.05999,0 13.26,-5.25201 13.26,-12.324 m -13.26,8.788 c -5.25199,0 -8.892,-3.74401 -8.892,-8.788 0,-5.044 3.64001,-8.84 8.892,-8.84 5.252,0 8.892,3.796 8.892,8.84 0,5.09599 -3.64,8.788 -8.892,8.788"
         style=""
         id="path3029" />
      <path
         d="m 352.50016,732.37976 3.38,11.544 c 0.468,1.56 0.988,2.236 2.496,2.236 1.196,0 1.768,-0.468 2.132,-1.716 l 5.72,-19.032 c 1.612,0 2.184,-0.468 2.184,-1.82 0,-1.196 -0.572,-1.768 -1.56,-1.768 l -6.812,0 c -1.612,0 -2.236,0.312 -2.236,1.768 0,1.508 0.832,1.872 2.964,1.872 0.52,0 1.092,0 1.768,-0.052 l -4.264,15.236 -3.172,-10.556 c -0.468,-1.56 -0.988,-2.236 -2.496,-2.236 -1.196,0 -1.768,0.52 -2.132,1.716 l -3.276,11.076 -4.368,-15.236 c 0.624,0.052 1.144,0.052 1.664,0.052 2.236,0 3.12,-0.364 3.12,-1.872 0,-1.508 -0.676,-1.768 -2.288,-1.768 l -6.812,0 c -1.3,0 -1.924,0.624 -1.924,1.768 0,1.352 0.624,1.82 2.236,1.82 l 5.824,18.512 c 0.468,1.56 0.988,2.236 2.496,2.236 1.144,0 1.82,-0.52 2.132,-1.716 l 3.224,-12.064"
         style=""
         id="path3031" />
      <path
         d="m 374.52541,741.68776 c -0.208,0 -0.364,0 -0.52,0 -2.08,0 -2.964,0.312 -2.964,1.768 0,1.196 0.676,1.82 2.132,1.82 0.676,0 1.144,0 1.352,0 l 4.628,0 c 1.924,0 2.704,-0.104 2.704,-1.82 0,-1.404 -0.676,-1.82 -2.444,-1.82 -0.312,0 -0.676,0.052 -1.092,0.052 l 0,-10.556 c 0,-3.796 3.536,-6.084 6.604,-6.084 3.328,0 5.2,2.028 5.2,6.084 l 0,10.556 c -0.312,0 -0.572,0 -0.832,0 -1.82,0 -2.548,0.364 -2.548,1.768 0,1.664 0.728,1.82 2.548,1.82 l 5.616,0 c 1.82,0 2.704,-0.364 2.704,-1.82 0,-1.3 -0.78,-1.768 -2.392,-1.768 -0.364,0 -0.78,0 -1.144,0 l 0,-11.492 c 0,-5.876 -3.432,-9.048 -8.268,-9.048 -2.652,0 -4.992,1.144 -7.436,3.432 l 0,-1.716 c 0,-0.624 -0.468,-1.04 -1.456,-1.04 l -2.392,0 c -2.34,0 -3.484,0 -3.484,1.768 0,1.3 0.728,1.82 2.34,1.82 0.364,0 0.78,0 1.144,0 l 0,16.276"
         style=""
         id="path3033" />
      <path
         d="m 435.94391,736.01976 21.06,0 c 0.624,0 1.196,-0.572 1.196,-1.196 l 0,-2.704 c 0,-0.624 -0.416,-1.04 -1.196,-1.04 l -21.06,0 c -0.676,0 -1.092,0.416 -1.092,1.04 l 0,2.704 c 0,0.728 0.416,1.196 1.092,1.196"
         style=""
         id="path3035" />
      <path
         d="m 472.16516,741.68776 0,-9.464 3.328,0 c 2.34,0 3.224,0.832 5.044,3.588 l 4.94,7.384 c 0.884,1.3 1.3,2.08 2.652,2.08 l 2.808,0 c 1.196,0 1.768,-0.624 1.768,-1.82 0,-1.404 -0.676,-1.768 -2.444,-1.768 -0.26,0 -0.52,0 -0.832,0 l -5.096,-7.8 c -0.572,-0.832 -1.196,-1.508 -2.184,-2.132 4.316,-1.092 6.76,-4.05601 6.76,-7.904 0,-2.548 -1.092,-4.94 -2.86,-6.5 -2.34,-2.028 -5.512,-2.184 -9.828,-2.184 l -10.712,0 c -1.144,0 -1.768,0.572 -1.768,1.716 0,1.196 0.624,1.716 2.08,1.716 0.208,0 0.468,0 0.936,0 l 1.456,0 0,23.088 -1.456,0 c -0.468,0 -0.728,0 -0.832,0 -1.56,0 -2.184,0.416 -2.184,1.768 0,1.196 0.624,1.82 1.768,1.82 l 8.528,0 c 1.768,0 2.548,-0.26 2.548,-1.82 0,-1.352 -0.832,-1.82 -2.704,-1.82 -1.144,0 -1.716,0.052 -1.716,0.052 m 0,-23.088 5.408,0 c 4.68,0 6.968,1.716 6.968,5.148 0,3.32799 -2.392,5.096 -7.124,5.096 l -5.252,0 0,-10.244"
         style=""
         id="path3037" />
      <path
         d="m 28.611662,791.76376 c -1.715998,0.78 -2.6,1.092 -2.6,2.444 0,1.352 0.988001,1.716 2.6,2.444 l 20.176,9.412 c 0.831999,0.364 1.404001,0.624 2.028,0.624 1.039999,0 1.664,-0.624 1.664,-1.612 0,-1.04 -0.728001,-1.664 -2.08,-2.288 l -17.94,-8.528 17.94,-8.528 c 1.351999,-0.624 2.08,-1.196 2.08,-2.236 0,-0.988 -0.624001,-1.612 -1.664,-1.612 -0.572,0 -1.196001,0.208 -2.028,0.624 l -20.176,9.256"
         style=""
         id="path3039" />
      <path
         d="m 61.712912,806.68776 c -0.208,0 -0.364,0 -0.52,0 -2.079998,0 -2.964,0.312 -2.964,1.768 0,1.196 0.676001,1.82 2.132,1.82 0.675999,0 1.144,0 1.352,0 l 4.628,0 c 1.923998,0 2.704,-0.104 2.704,-1.82 0,-1.404 -0.676002,-1.82 -2.444,-1.82 -0.312,0 -0.676001,0.052 -1.092,0.052 l 0,-10.556 c 0,-3.796 3.536003,-6.084 6.604,-6.084 3.327997,0 5.2,2.028 5.2,6.084 l 0,10.556 c -0.312,0 -0.572,0 -0.832,0 -1.819998,0 -2.548,0.364 -2.548,1.768 0,1.664 0.728002,1.82 2.548,1.82 l 5.616,0 c 1.819998,0 2.704,-0.364 2.704,-1.82 0,-1.3 -0.780002,-1.768 -2.392,-1.768 -0.364,0 -0.78,0 -1.144,0 l 0,-11.492 c 0,-5.876 -3.432005,-9.048 -8.268,-9.048 -2.651997,0 -4.992003,1.144 -7.436,3.432 l 0,-1.716 c 0,-0.624 -0.468001,-1.04 -1.456,-1.04 l -2.392,0 c -2.339998,0 -3.484,0 -3.484,1.768 0,1.3 0.728001,1.82 2.34,1.82 0.364,0 0.78,0 1.144,0 l 0,16.276"
         style=""
         id="path3041" />
      <path
         d="m 93.982162,796.33976 c 0.987999,-4.212 4.264004,-6.708 8.735998,-6.708 4.108,0 7.332,2.652 7.8,6.708 l -16.535998,0 m -0.104,3.328 17.055998,0 c 3.12,0 4.212,-1e-5 4.212,-2.392 0,-5.668 -4.73201,-11.128 -12.428,-11.128 -7.85199,0 -13.259998,5.044 -13.259998,12.324 0,7.59199 4.888008,12.428 12.739998,12.428 3.432,0 7.12401,-0.832 10.608,-2.548 1.508,-0.728 2.236,-1.508 2.236,-2.548 0,-0.936 -0.78,-1.664 -1.768,-1.664 -2.288,0 -5.564,3.172 -10.712,3.172 -5.251993,0 -8.423998,-2.75601 -8.683998,-7.644"
         style=""
         id="path3043" />
      <path
         d="m 133.53141,797.37976 3.38,11.544 c 0.468,1.56 0.988,2.236 2.496,2.236 1.196,0 1.768,-0.468 2.132,-1.716 l 5.72,-19.032 c 1.612,0 2.184,-0.468 2.184,-1.82 0,-1.196 -0.572,-1.768 -1.56,-1.768 l -6.812,0 c -1.612,0 -2.236,0.312 -2.236,1.768 0,1.508 0.832,1.872 2.964,1.872 0.52,0 1.092,0 1.768,-0.052 l -4.264,15.236 -3.172,-10.556 c -0.468,-1.56 -0.988,-2.236 -2.496,-2.236 -1.196,0 -1.768,0.52 -2.132,1.716 l -3.276,11.076 -4.368,-15.236 c 0.624,0.052 1.144,0.052 1.664,0.052 2.236,0 3.12,-0.364 3.12,-1.872 0,-1.508 -0.676,-1.768 -2.288,-1.768 l -6.812,0 c -1.3,0 -1.924,0.624 -1.924,1.768 0,1.352 0.624,1.82 2.236,1.82 l 5.824,18.512 c 0.468,1.56 0.988,2.236 2.496,2.236 1.144,0 1.82,-0.52 2.132,-1.716 l 3.224,-12.064"
         style=""
         id="path3045" />
      <path
         d="m 180.67266,821.61176 -31.304,0 c -0.676,0 -1.144,0.416 -1.144,1.04 l 0,1.924 c 0,0.728 0.468,1.248 1.144,1.248 l 31.304,0 c 0.624,0 1.196,-0.572 1.196,-1.248 l 0,-1.924 c 0,-0.676 -0.416,-1.04 -1.196,-1.04"
         style=""
         id="path3047" />
      <path
         d="m 189.85391,800.91576 0,-12.168 c 0,-0.104 0,-0.156 0,-0.26 0,-1.144 -0.052,-1.664 -1.456,-1.664 l -3.848,0 c -1.352,0 -2.028,0.572 -2.028,1.768 0,1.3 0.728,1.82 2.34,1.82 0.364,0 0.78,0 1.144,0 l 0,11.44 c 0,5.92799 2.80801,8.944 8.372,8.944 3.068,0 5.252,-1.19601 7.904,-3.276 l 0,1.716 c 0,0.624 0.468,1.04 1.456,1.04 l 3.848,0 c 1.352,0 2.028,-0.624 2.028,-1.82 0,-1.3 -0.728,-1.768 -2.34,-1.768 -0.364,0 -0.78,0 -1.144,0 l 0,-17.42 c 0,-1.508 0,-2.444 -1.768,-2.444 l -5.408,0 c -1.404,0 -2.028,0.52 -2.028,1.768 0,1.248 0.52,1.82 1.872,1.82 l 3.484,0 0,10.504 c 0,3.74399 -3.276,6.136 -6.708,6.136 -3.95199,0 -5.72,-1.97601 -5.72,-6.136"
         style=""
         id="path3049" />
      <path
         d="m 216.45516,808.45576 c 0,1.612 0.676,2.444 1.872,2.444 0.572,0 1.404,-0.416 2.6,-1.196 2.86,0.728 5.408,1.144 7.696,1.144 6.344,0 9.932,-3.17201 9.932,-7.54 0,-4.992 -3.484,-6.968 -10.192,-7.124 -4.99199,-0.104 -7.904,-0.36401 -7.904,-3.068 0,-2.028 1.92401,-3.744 5.304,-3.744 2.652,0 4.524,0.624 6.448,2.34 1.508,1.352 2.028,2.652 3.172,2.652 1.248,0 1.716,-0.884 1.716,-2.548 l 0,-2.964 c 0,-1.716 -0.572,-2.548 -1.716,-2.548 -1.352,0 -1.872,0.988 -2.6,0.988 -0.728,0 -2.756,-1.144 -6.448,-1.144 -6.29199,0 -9.776,2.912 -9.776,7.124 0,4.52399 3.69201,7.02 10.608,7.02 0.728,0 1.196,0 1.456,0 3.848,0 5.72,0.728 5.72,3.328 0,2.28799 -2.288,3.952 -5.98,3.952 -3.43199,0 -6.344,-1.248 -7.696,-3.016 -0.988,-1.3 -0.832,-2.704 -2.392,-2.704 -1.352,0 -1.82,0.728 -1.82,2.08 l 0,4.524"
         style=""
         id="path3051" />
      <path
         d="m 250.38841,796.33976 c 0.988,-4.212 4.26401,-6.708 8.736,-6.708 4.108,0 7.332,2.652 7.8,6.708 l -16.536,0 m -0.104,3.328 17.056,0 c 3.12,0 4.212,-1e-5 4.212,-2.392 0,-5.668 -4.73201,-11.128 -12.428,-11.128 -7.85199,0 -13.26,5.044 -13.26,12.324 0,7.59199 4.88801,12.428 12.74,12.428 3.432,0 7.12401,-0.832 10.608,-2.548 1.508,-0.728 2.236,-1.508 2.236,-2.548 0,-0.936 -0.78,-1.664 -1.768,-1.664 -2.288,0 -5.564,3.172 -10.712,3.172 -5.25199,0 -8.424,-2.75601 -8.684,-7.644"
         style=""
         id="path3053" />
      <path
         d="m 287.64966,806.68776 0,-10.504 c 3.38,-3.848 6.24,-5.876 9.048,-5.876 1.976,0 3.068,1.56 4.42,1.56 1.092,0 2.236,-1.144 2.236,-2.392 0,-1.872 -1.872,-3.276 -5.044,-3.276 -4.05599,0 -7.488,1.976 -10.66,5.98 l 0,-4.316 c 0,-0.728 -0.468,-1.04 -1.404,-1.04 l -5.772,0 c -1.352,0 -2.028,0.572 -2.028,1.768 0,1.3 0.728,1.82 2.392,1.82 0.26,0 0.728,0 1.3,0 l 1.716,0 0,16.276 -4.472,0 c -1.404,0 -2.132,0.572 -2.132,1.768 0,1.196 0.728,1.82 2.08,1.82 l 16.588,0 c 1.508,0 2.08,-0.364 2.08,-1.82 0,-1.248 -0.624,-1.768 -1.924,-1.768 l -8.424,0"
         style=""
         id="path3055" />
      <path
         d="m 332.71091,796.80776 c 1.716,-0.78 2.6,-1.092 2.6,-2.444 0,-1.352 -0.988,-1.716 -2.6,-2.444 l -20.176,-9.412 c -0.832,-0.364 -1.404,-0.624 -2.028,-0.624 -1.04,0 -1.664,0.624 -1.664,1.612 0,1.04 0.78,1.612 2.132,2.236 l 17.888,8.58 -17.888,8.476 c -1.352,0.624 -2.132,1.248 -2.132,2.288 0,0.988 0.624,1.612 1.664,1.612 0.572,0 1.196,-0.208 2.028,-0.624 l 20.176,-9.256"
         style=""
         id="path3057" />
      <path
         d="m 347.71616,806.11576 c 0,2.59999 1.976,4.524 4.992,4.524 3.016,0 4.992,-1.87201 4.992,-4.524 0,-2.652 -1.976,-4.524 -4.992,-4.524 -3.016,0 -4.992,1.924 -4.992,4.524 m 0,-14.04 c 0,2.59999 1.976,4.524 4.992,4.524 3.016,0 4.992,-1.87201 4.992,-4.524 0,-2.652 -1.976,-4.524 -4.992,-4.524 -3.016,0 -4.992,1.924 -4.992,4.524"
         style=""
         id="path3059" />
      <path
         d="m 28.611662,856.76376 c -1.715998,0.78 -2.6,1.092 -2.6,2.444 0,1.352 0.988001,1.716 2.6,2.444 l 20.176,9.412 c 0.831999,0.364 1.404001,0.624 2.028,0.624 1.039999,0 1.664,-0.624 1.664,-1.612 0,-1.04 -0.728001,-1.664 -2.08,-2.288 l -17.94,-8.528 17.94,-8.528 c 1.351999,-0.624 2.08,-1.196 2.08,-2.236 0,-0.988 -0.624001,-1.612 -1.664,-1.612 -0.572,0 -1.196001,0.208 -2.028,0.624 l -20.176,9.256"
         style=""
         id="path3061" />
      <path
         d="m 61.712912,871.68776 c -0.208,0 -0.364,0 -0.52,0 -2.079998,0 -2.964,0.312 -2.964,1.768 0,1.196 0.676001,1.82 2.132,1.82 0.675999,0 1.144,0 1.352,0 l 4.628,0 c 1.923998,0 2.704,-0.104 2.704,-1.82 0,-1.404 -0.676002,-1.82 -2.444,-1.82 -0.312,0 -0.676001,0.052 -1.092,0.052 l 0,-10.556 c 0,-3.796 3.536003,-6.084 6.604,-6.084 3.327997,0 5.2,2.028 5.2,6.084 l 0,10.556 c -0.312,0 -0.572,0 -0.832,0 -1.819998,0 -2.548,0.364 -2.548,1.768 0,1.664 0.728002,1.82 2.548,1.82 l 5.616,0 c 1.819998,0 2.704,-0.364 2.704,-1.82 0,-1.3 -0.780002,-1.768 -2.392,-1.768 -0.364,0 -0.78,0 -1.144,0 l 0,-11.492 c 0,-5.876 -3.432005,-9.048 -8.268,-9.048 -2.651997,0 -4.992003,1.144 -7.436,3.432 l 0,-1.716 c 0,-0.624 -0.468001,-1.04 -1.456,-1.04 l -2.392,0 c -2.339998,0 -3.484,0 -3.484,1.768 0,1.3 0.728001,1.82 2.34,1.82 0.364,0 0.78,0 1.144,0 l 0,16.276"
         style=""
         id="path3063" />
      <path
         d="m 93.982162,861.33976 c 0.987999,-4.212 4.264004,-6.708 8.735998,-6.708 4.108,0 7.332,2.652 7.8,6.708 l -16.535998,0 m -0.104,3.328 17.055998,0 c 3.12,0 4.212,-1e-5 4.212,-2.392 0,-5.668 -4.73201,-11.128 -12.428,-11.128 -7.85199,0 -13.259998,5.044 -13.259998,12.324 0,7.59199 4.888008,12.428 12.739998,12.428 3.432,0 7.12401,-0.832 10.608,-2.548 1.508,-0.728 2.236,-1.508 2.236,-2.548 0,-0.936 -0.78,-1.664 -1.768,-1.664 -2.288,0 -5.564,3.172 -10.712,3.172 -5.251993,0 -8.423998,-2.75601 -8.683998,-7.644"
         style=""
         id="path3065" />
      <path
         d="m 133.53141,862.37976 3.38,11.544 c 0.468,1.56 0.988,2.236 2.496,2.236 1.196,0 1.768,-0.468 2.132,-1.716 l 5.72,-19.032 c 1.612,0 2.184,-0.468 2.184,-1.82 0,-1.196 -0.572,-1.768 -1.56,-1.768 l -6.812,0 c -1.612,0 -2.236,0.312 -2.236,1.768 0,1.508 0.832,1.872 2.964,1.872 0.52,0 1.092,0 1.768,-0.052 l -4.264,15.236 -3.172,-10.556 c -0.468,-1.56 -0.988,-2.236 -2.496,-2.236 -1.196,0 -1.768,0.52 -2.132,1.716 l -3.276,11.076 -4.368,-15.236 c 0.624,0.052 1.144,0.052 1.664,0.052 2.236,0 3.12,-0.364 3.12,-1.872 0,-1.508 -0.676,-1.768 -2.288,-1.768 l -6.812,0 c -1.3,0 -1.924,0.624 -1.924,1.768 0,1.352 0.624,1.82 2.236,1.82 l 5.824,18.512 c 0.468,1.56 0.988,2.236 2.496,2.236 1.144,0 1.82,-0.52 2.132,-1.716 l 3.224,-12.064"
         style=""
         id="path3067" />
      <path
         d="m 180.67266,886.61176 -31.304,0 c -0.676,0 -1.144,0.416 -1.144,1.04 l 0,1.924 c 0,0.728 0.468,1.248 1.144,1.248 l 31.304,0 c 0.624,0 1.196,-0.572 1.196,-1.248 l 0,-1.924 c 0,-0.676 -0.416,-1.04 -1.196,-1.04"
         style=""
         id="path3069" />
      <path
         d="m 206.59791,873.92376 0,-18.512 c 0.156,0 0.312,0 0.468,0 2.132,0 3.016,-0.364 3.016,-1.82 0,-1.196 -0.676,-1.768 -2.028,-1.768 l -3.848,0 c -0.988,0 -1.456,0.312 -1.456,1.04 l 0,1.82 c -2.444,-1.924 -4.888,-2.912 -7.488,-2.912 -6.13599,0 -11.18,4.628 -11.18,11.18 0,6.65599 4.68001,11.284 10.972,11.284 3.276,0 5.668,-1.09201 7.748,-3.484 l 0,3.068 c 0,5.25199 -1.612,7.644 -6.916,7.644 -1.352,0 -2.756,-0.364 -4.264,-0.364 -1.196,0 -2.184,0.936 -2.184,1.976 0,1.664 1.82001,2.34 5.564,2.34 4.732,0 8.164,-1.40401 10.036,-3.848 1.508,-1.976 1.56,-4.21201 1.56,-7.072 0,-0.208 0,-0.364 0,-0.572 m -11.024,-18.356 c 4.472,0 7.54,3.12 7.54,7.384 0,4.31599 -3.12,7.384 -7.54,7.384 -4.47199,0 -7.54,-3.12001 -7.54,-7.384 0,-4.368 3.12001,-7.384 7.54,-7.384"
         style=""
         id="path3071" />
      <path
         d="m 225.08716,871.68776 0,-10.504 c 3.38,-3.848 6.24,-5.876 9.048,-5.876 1.976,0 3.068,1.56 4.42,1.56 1.092,0 2.236,-1.144 2.236,-2.392 0,-1.872 -1.872,-3.276 -5.044,-3.276 -4.05599,0 -7.488,1.976 -10.66,5.98 l 0,-4.316 c 0,-0.728 -0.468,-1.04 -1.404,-1.04 l -5.772,0 c -1.352,0 -2.028,0.572 -2.028,1.768 0,1.3 0.728,1.82 2.392,1.82 0.26,0 0.728,0 1.3,0 l 1.716,0 0,16.276 -4.472,0 c -1.404,0 -2.132,0.572 -2.132,1.768 0,1.196 0.728,1.82 2.08,1.82 l 16.588,0 c 1.508,0 2.08,-0.364 2.08,-1.82 0,-1.248 -0.624,-1.768 -1.924,-1.768 l -8.424,0"
         style=""
         id="path3073" />
      <path
         d="m 272.12441,863.57576 c 0,-7.02 -5.20001,-12.324 -13.26,-12.324 -8.05999,0 -13.312,5.252 -13.312,12.324 0,7.07199 5.25201,12.324 13.312,12.324 8.05999,0 13.26,-5.25201 13.26,-12.324 m -13.26,8.788 c -5.25199,0 -8.892,-3.74401 -8.892,-8.788 0,-5.044 3.64001,-8.84 8.892,-8.84 5.252,0 8.892,3.796 8.892,8.84 0,5.09599 -3.64,8.788 -8.892,8.788"
         style=""
         id="path3075" />
      <path
         d="m 283.69766,865.91576 0,-12.168 c 0,-0.104 0,-0.156 0,-0.26 0,-1.144 -0.052,-1.664 -1.456,-1.664 l -3.848,0 c -1.352,0 -2.028,0.572 -2.028,1.768 0,1.3 0.728,1.82 2.34,1.82 0.364,0 0.78,0 1.144,0 l 0,11.44 c 0,5.92799 2.80801,8.944 8.372,8.944 3.068,0 5.252,-1.19601 7.904,-3.276 l 0,1.716 c 0,0.624 0.468,1.04 1.456,1.04 l 3.848,0 c 1.352,0 2.028,-0.624 2.028,-1.82 0,-1.3 -0.728,-1.768 -2.34,-1.768 -0.364,0 -0.78,0 -1.144,0 l 0,-17.42 c 0,-1.508 0,-2.444 -1.768,-2.444 l -5.408,0 c -1.404,0 -2.028,0.52 -2.028,1.768 0,1.248 0.52,1.82 1.872,1.82 l 3.484,0 0,10.504 c 0,3.74399 -3.276,6.136 -6.708,6.136 -3.95199,0 -5.72,-1.97601 -5.72,-6.136"
         style=""
         id="path3077" />
      <path
         d="m 322.72691,871.58376 c -4.73199,0 -8.008,-3.38001 -8.008,-7.956 0,-4.576 3.27601,-7.956 8.008,-7.956 4.784,0 8.06,3.38 8.06,7.956 0,4.73199 -3.38,7.956 -8.06,7.956 m -7.904,10.192 0,-10.14 c 2.08,2.39199 5.20001,3.692 8.788,3.692 6.656,0 11.544,-4.68001 11.544,-11.44 0,-7.124 -5.304,-12.116 -11.96,-12.116 -3.22399,0 -6.032,1.196 -8.32,3.536 l 0,-2.444 c 0,-0.728 -0.468,-1.04 -1.456,-1.04 l -3.9,0 c -1.352,0 -2.028,0.572 -2.028,1.768 0,1.3 0.78,1.82 2.392,1.82 0.364,0 0.78,0 1.144,0 l 0,26.364 c -0.156,0 -0.312,0 -0.468,0 -2.132,0 -3.068,0.364 -3.068,1.82 0,1.196 0.676,1.82 2.028,1.82 l 11.232,0 c 1.508,0 2.132,-0.416 2.132,-1.82 0,-1.196 -0.624,-1.82 -1.924,-1.82 l -6.136,0"
         style=""
         id="path3079" />
      <path
         d="m 363.99216,861.80776 c 1.716,-0.78 2.6,-1.092 2.6,-2.444 0,-1.352 -0.988,-1.716 -2.6,-2.444 l -20.176,-9.412 c -0.832,-0.364 -1.404,-0.624 -2.028,-0.624 -1.04,0 -1.664,0.624 -1.664,1.612 0,1.04 0.78,1.612 2.132,2.236 l 17.888,8.58 -17.888,8.476 c -1.352,0.624 -2.132,1.248 -2.132,2.288 0,0.988 0.624,1.612 1.664,1.612 0.572,0 1.196,-0.208 2.028,-0.624 l 20.176,-9.256"
         style=""
         id="path3081" />
      <path
         d="m 416.72666,853.48776 0.624,-7.28 c 0,-0.104 0,-0.208 0,-0.312 0,-0.624 -0.26,-0.728 -1.092,-0.728 l -2.028,0 c -0.832,0 -1.092,0.104 -1.092,0.728 0,0.104 0,0.208 0,0.312 l 0.676,7.28 -6.708,-2.912 c -0.26,-0.104 -0.468,-0.104 -0.624,-0.104 -0.312,0 -0.468,0.26 -0.676,0.884 l -0.676,1.924 c -0.104,0.364 -0.156,0.676 -0.156,0.78 0,0.26 0.312,0.468 0.832,0.572 l 7.072,1.612 -4.784,5.512 c -0.26,0.26 -0.364,0.468 -0.364,0.728 0,0.156 0.208,0.416 0.676,0.728 l 1.612,1.196 c 0.416,0.312 0.676,0.416 0.78,0.416 0.208,0 0.468,-0.208 0.676,-0.572 l 3.796,-6.292 3.744,6.292 c 0.208,0.416 0.416,0.572 0.676,0.572 0.156,0 0.364,-0.156 0.78,-0.416 l 1.664,-1.196 c 0.468,-0.312 0.624,-0.572 0.624,-0.728 0,-0.26 -0.156,-0.468 -0.364,-0.728 l -4.784,-5.512 7.124,-1.612 c 0.52,-0.104 0.78,-0.312 0.78,-0.624 0,-0.104 -0.052,-0.312 -0.156,-0.728 l -0.624,-1.924 c -0.208,-0.624 -0.312,-0.884 -0.676,-0.884 -0.104,0 -0.364,0.052 -0.624,0.156 l -6.708,2.86"
         style=""
         id="path3083" />
    </g>
    <g
       style="font-size:25.04329872px;font-style:normal;font-variant:normal;font-weight:normal;font-stretch:normal;line-height:125%;letter-spacing:0px;word-spacing:0px;fill:#999999;fill-opacity:1;stroke:none;font-family:Ubuntu;-inkscape-font-specification:Ubuntu"
       id="text2991">
      <path
         d="m 41.017252,1034.926 c -0.283347,-0.75 -0.550014,-1.4833 -0.8,-2.2 -0.250013,-0.7333 -0.508346,-1.475 -0.775,-2.225 l -7.85,0 -1.575,4.425 -2.525,0 c 0.666665,-1.8333 1.291665,-3.525 1.875,-5.075 0.58333,-1.5666 1.149996,-3.05 1.7,-4.45 0.566662,-1.4 1.124995,-2.7333 1.675,-4 0.549994,-1.2833 1.124993,-2.55 1.725,-3.8 l 2.225,0 c 0.59999,1.25 1.174989,2.5167 1.725,3.8 0.549988,1.2667 1.099987,2.6 1.65,4 0.566653,1.4 1.141652,2.8834 1.725,4.45 0.583318,1.55 1.208317,3.2417 1.875,5.075 l -2.65,0 m -2.275,-6.425 c -0.533345,-1.45 -1.066677,-2.85 -1.6,-4.2 -0.516676,-1.3666 -1.058343,-2.675 -1.625,-3.925 -0.583341,1.25 -1.141674,2.5584 -1.675,3.925 -0.516673,1.35 -1.033339,2.75 -1.55,4.2 l 6.45,0"
         style="font-size:25px;fill:#999999"
         id="path3086" />
      <path
         d="m 49.144986,1021.601 c 0.749994,0 1.449993,0.075 2.1,0.225 0.649992,0.15 1.208325,0.375 1.675,0.675 0.466657,0.3 0.833323,0.675 1.1,1.125 0.266656,0.45 0.399989,0.975 0.4,1.575 -1.1e-5,0.3834 -0.06668,0.7334 -0.2,1.05 -0.133344,0.3167 -0.30001,0.6 -0.5,0.85 -0.20001,0.25 -0.425009,0.4667 -0.675,0.65 -0.233342,0.1667 -0.458342,0.2834 -0.675,0.35 0.766657,0.2334 1.366657,0.65 1.8,1.25 0.449989,0.5834 0.674989,1.325 0.675,2.225 -1.1e-5,1.2334 -0.500011,2.15 -1.5,2.75 -1.000009,0.6 -2.358341,0.9 -4.075,0.9 -1.050004,0 -1.958337,-0.083 -2.725,-0.25 -0.750002,-0.1666 -1.283335,-0.325 -1.6,-0.475 l 0.4,-1.975 c 0.266665,0.1 0.741664,0.2417 1.425,0.425 0.699996,0.1667 1.533329,0.25 2.5,0.25 1.049993,0 1.849993,-0.1583 2.4,-0.475 0.549992,-0.3333 0.824991,-0.825 0.825,-1.475 -9e-6,-0.4666 -0.108342,-0.8416 -0.325,-1.125 -0.200008,-0.3 -0.458341,-0.525 -0.775,-0.675 -0.316674,-0.15 -0.65834,-0.25 -1.025,-0.3 -0.366673,-0.05 -0.708339,-0.075 -1.025,-0.075 l -2.175,0 0,-1.85 2.1,0 c 0.299994,0 0.608327,-0.017 0.925,-0.05 0.333327,-0.05 0.633326,-0.1416 0.9,-0.275 0.283326,-0.1333 0.516659,-0.3166 0.7,-0.55 0.183325,-0.25 0.274992,-0.575 0.275,-0.975 -8e-6,-0.3166 -0.08334,-0.5833 -0.25,-0.8 -0.150008,-0.2333 -0.358341,-0.425 -0.625,-0.575 -0.266674,-0.15 -0.58334,-0.2583 -0.95,-0.325 -0.350006,-0.083 -0.716672,-0.125 -1.1,-0.125 -0.300005,0 -0.625005,0.025 -0.975,0.075 -0.350004,0.05 -0.69167,0.1167 -1.025,0.2 -0.333336,0.067 -0.633336,0.1417 -0.9,0.225 -0.266669,0.083 -0.458335,0.1584 -0.575,0.225 l -0.425,-2 c 0.133332,-0.05 0.341665,-0.1166 0.625,-0.2 0.283331,-0.083 0.599997,-0.1583 0.95,-0.225 0.366663,-0.067 0.749996,-0.125 1.15,-0.175 0.399995,-0.05 0.791662,-0.075 1.175,-0.075"
         style="font-size:25px;fill:#999999"
         id="path3088" />
      <path
         d="m 68.702017,1034.926 -2.325,0 0,-5.75 -6,0 0,5.75 -2.325,0 0,-13 2.325,0 0,5.3 6,0 0,-5.3 2.325,0 0,13"
         style="font-size:25px;fill:#999999"
         id="path3090" />
      <path
         d="m 77.100455,1033.251 c 0.549993,0 1.033326,-0.01 1.45,-0.025 0.433325,-0.033 0.791658,-0.083 1.075,-0.15 l 0,-3.875 c -0.166676,-0.083 -0.441675,-0.15 -0.825,-0.2 -0.366675,-0.067 -0.816674,-0.1 -1.35,-0.1 -0.350007,0 -0.725006,0.025 -1.125,0.075 -0.383339,0.05 -0.741672,0.1584 -1.075,0.325 -0.316671,0.15 -0.583338,0.3667 -0.8,0.65 -0.21667,0.2667 -0.325004,0.625 -0.325,1.075 -4e-6,0.8334 0.266663,1.4167 0.8,1.75 0.533328,0.3167 1.258328,0.475 2.175,0.475 m -0.2,-11.65 c 0.933326,0 1.716658,0.125 2.35,0.375 0.649991,0.2334 1.166657,0.575 1.55,1.025 0.399989,0.4334 0.683322,0.9584 0.85,1.575 0.166655,0.6 0.249989,1.2667 0.25,2 l 0,8.125 c -0.200011,0.033 -0.483344,0.083 -0.85,0.15 -0.35001,0.05 -0.75001,0.1 -1.2,0.15 -0.450009,0.05 -0.941675,0.092 -1.475,0.125 -0.516674,0.05 -1.03334,0.075 -1.55,0.075 -0.733339,0 -1.408338,-0.075 -2.025,-0.225 -0.61667,-0.15 -1.150003,-0.3833 -1.6,-0.7 -0.450002,-0.3333 -0.800002,-0.7666 -1.05,-1.3 -0.250001,-0.5333 -0.375001,-1.175 -0.375,-1.925 -10e-7,-0.7166 0.141665,-1.3333 0.425,-1.85 0.299998,-0.5166 0.699998,-0.9333 1.2,-1.25 0.499997,-0.3166 1.083329,-0.55 1.75,-0.7 0.666661,-0.15 1.366661,-0.225 2.1,-0.225 0.233326,0 0.474993,0.017 0.725,0.05 0.249992,0.017 0.483325,0.05 0.7,0.1 0.233325,0.033 0.433325,0.067 0.6,0.1 0.166658,0.033 0.283324,0.058 0.35,0.075 l 0,-0.65 c -9e-6,-0.3833 -0.04168,-0.7583 -0.125,-1.125 -0.08334,-0.3833 -0.233342,-0.7166 -0.45,-1 -0.216675,-0.3 -0.516675,-0.5333 -0.9,-0.7 -0.366674,-0.1833 -0.850007,-0.275 -1.45,-0.275 -0.766672,0 -1.441672,0.058 -2.025,0.175 -0.56667,0.1 -0.99167,0.2084 -1.275,0.325 l -0.275,-1.925 c 0.299997,-0.1333 0.799996,-0.2583 1.5,-0.375 0.699995,-0.1333 1.458328,-0.2 2.275,-0.2"
         style="font-size:25px;fill:#999999"
         id="path3092" />
      <path
         d="m 87.212564,1021.926 0,3.825 c -3e-6,0.9834 0.249996,1.675 0.75,2.075 0.499995,0.3834 1.183328,0.575 2.05,0.575 0.633327,0 1.158326,-0.033 1.575,-0.1 0.433325,-0.067 0.816658,-0.1416 1.15,-0.225 l 0,-6.15 2.325,0 0,13 -2.325,0 0,-5.05 c -0.133342,0.033 -0.308342,0.075 -0.525,0.125 -0.216675,0.05 -0.466675,0.1 -0.75,0.15 -0.266674,0.033 -0.550007,0.067 -0.85,0.1 -0.300006,0.033 -0.591673,0.05 -0.875,0.05 -0.716672,0 -1.375005,-0.075 -1.975,-0.225 -0.583337,-0.15 -1.09167,-0.4 -1.525,-0.75 -0.416669,-0.35 -0.750002,-0.8083 -1,-1.375 -0.233335,-0.5833 -0.350001,-1.3083 -0.35,-2.175 l 0,-3.85 2.325,0"
         style="font-size:25px;fill:#999999"
         id="path3094" />
      <path
         d="m 103.46764,1033.251 c 0.55,0 1.03333,-0.01 1.45,-0.025 0.43333,-0.033 0.79166,-0.083 1.075,-0.15 l 0,-3.875 c -0.16667,-0.083 -0.44167,-0.15 -0.825,-0.2 -0.36667,-0.067 -0.81667,-0.1 -1.35,-0.1 -0.35,0 -0.725,0.025 -1.125,0.075 -0.38334,0.05 -0.74167,0.1584 -1.075,0.325 -0.31667,0.15 -0.58334,0.3667 -0.8,0.65 -0.21667,0.2667 -0.325,0.625 -0.325,1.075 0,0.8334 0.26667,1.4167 0.8,1.75 0.53333,0.3167 1.25833,0.475 2.175,0.475 m -0.2,-11.65 c 0.93333,0 1.71666,0.125 2.35,0.375 0.64999,0.2334 1.16666,0.575 1.55,1.025 0.39999,0.4334 0.68332,0.9584 0.85,1.575 0.16666,0.6 0.24999,1.2667 0.25,2 l 0,8.125 c -0.20001,0.033 -0.48334,0.083 -0.85,0.15 -0.35001,0.05 -0.75001,0.1 -1.2,0.15 -0.45001,0.05 -0.94167,0.092 -1.475,0.125 -0.51667,0.05 -1.03334,0.075 -1.55,0.075 -0.73334,0 -1.40834,-0.075 -2.025,-0.225 -0.61667,-0.15 -1.15,-0.3833 -1.599998,-0.7 -0.450002,-0.3333 -0.800001,-0.7666 -1.05,-1.3 -0.250001,-0.5333 -0.375001,-1.175 -0.375,-1.925 -10e-7,-0.7166 0.141666,-1.3333 0.425,-1.85 0.299998,-0.5166 0.699998,-0.9333 1.2,-1.25 0.499998,-0.3166 1.083328,-0.55 1.749998,-0.7 0.66666,-0.15 1.36666,-0.225 2.1,-0.225 0.23333,0 0.475,0.017 0.725,0.05 0.24999,0.017 0.48333,0.05 0.7,0.1 0.23333,0.033 0.43333,0.067 0.6,0.1 0.16666,0.033 0.28333,0.058 0.35,0.075 l 0,-0.65 c -10e-6,-0.3833 -0.0417,-0.7583 -0.125,-1.125 -0.0833,-0.3833 -0.23334,-0.7166 -0.45,-1 -0.21667,-0.3 -0.51667,-0.5333 -0.9,-0.7 -0.36667,-0.1833 -0.85,-0.275 -1.45,-0.275 -0.76667,0 -1.44167,0.058 -2.025,0.175 -0.56667,0.1 -0.99167,0.2084 -1.274998,0.325 l -0.275,-1.925 c 0.299997,-0.1333 0.799998,-0.2583 1.499998,-0.375 0.7,-0.1333 1.45833,-0.2 2.275,-0.2"
         style="font-size:25px;fill:#999999"
         id="path3096" />
      <path
         d="m 111.37975,1028.451 c 0,-1.15 0.16667,-2.15 0.5,-3 0.33333,-0.8666 0.775,-1.5833 1.325,-2.15 0.55,-0.5666 1.18333,-0.9916 1.9,-1.275 0.71666,-0.2833 1.45,-0.425 2.2,-0.425 1.74999,0 3.09166,0.55 4.025,1.65 0.93332,1.0834 1.39999,2.7417 1.4,4.975 -10e-6,0.1 -10e-6,0.2334 0,0.4 -10e-6,0.15 -0.008,0.2917 -0.025,0.425 l -8.9,0 c 0.1,1.35 0.49166,2.375 1.175,3.075 0.68333,0.7 1.74999,1.05 3.2,1.05 0.81666,0 1.49999,-0.067 2.05,-0.2 0.56666,-0.15 0.99166,-0.2916 1.275,-0.425 l 0.325,1.95 c -0.28334,0.15 -0.78334,0.3084 -1.5,0.475 -0.70001,0.1667 -1.50001,0.25 -2.4,0.25 -1.13334,0 -2.11667,-0.1666 -2.95,-0.5 -0.81667,-0.35 -1.49167,-0.825 -2.025,-1.425 -0.53333,-0.6 -0.93333,-1.3083 -1.2,-2.125 -0.25,-0.8333 -0.375,-1.7416 -0.375,-2.725 m 8.925,-1.275 c 0.0167,-1.05 -0.25001,-1.9083 -0.8,-2.575 -0.53334,-0.6833 -1.27501,-1.025 -2.225,-1.025 -0.53334,0 -1.00834,0.1084 -1.425,0.325 -0.4,0.2 -0.74167,0.4667 -1.025,0.8 -0.28334,0.3334 -0.50834,0.7167 -0.675,1.15 -0.15,0.4334 -0.25,0.875 -0.3,1.325 l 6.45,0"
         style="font-size:25px;fill:#999999"
         id="path3098" />
      <path
         d="m 140.85631,1028.451 c -1e-5,-1.5166 -0.37501,-2.6833 -1.125,-3.5 -0.75001,-0.8166 -1.75,-1.225 -3,-1.225 -0.7,0 -1.25,0.025 -1.65,0.075 -0.38333,0.05 -0.69167,0.1084 -0.925,0.175 l 0,8.2 c 0.28333,0.2334 0.69167,0.4584 1.225,0.675 0.53333,0.2167 1.11666,0.325 1.75,0.325 0.66666,0 1.23333,-0.1166 1.7,-0.35 0.48333,-0.25 0.87499,-0.5833 1.175,-1 0.29999,-0.4333 0.51666,-0.9333 0.65,-1.5 0.13333,-0.5833 0.19999,-1.2083 0.2,-1.875 m 2.425,0 c -1e-5,0.9834 -0.13334,1.8917 -0.4,2.725 -0.25001,0.8334 -0.62501,1.55 -1.125,2.15 -0.50001,0.6 -1.11667,1.0667 -1.85,1.4 -0.71667,0.3334 -1.54167,0.5 -2.475,0.5 -0.75,0 -1.41667,-0.1 -2,-0.3 -0.56667,-0.2 -0.99167,-0.3916 -1.275,-0.575 l 0,5.2 -2.325,0 0,-17.225 c 0.55,-0.1333 1.23333,-0.275 2.05,-0.425 0.83333,-0.1666 1.79166,-0.25 2.875,-0.25 1,0 1.9,0.1584 2.7,0.475 0.79999,0.3167 1.48333,0.7667 2.05,1.35 0.56666,0.5834 0.99999,1.3 1.3,2.15 0.31666,0.8334 0.47499,1.775 0.475,2.825"
         style="font-size:25px;fill:#999999"
         id="path3100" />
      <path
         d="m 155.75241,1028.376 c -1e-5,1 -0.13335,1.9167 -0.4,2.75 -0.25001,0.8334 -0.64168,1.5584 -1.175,2.175 -0.53334,0.6 -1.20001,1.075 -2,1.425 -0.80001,0.3334 -1.73334,0.5 -2.8,0.5 -0.93334,0 -1.75834,-0.075 -2.475,-0.225 -0.71667,-0.15 -1.20834,-0.3 -1.475,-0.45 l 0.325,-1.975 c 0.15,0.083 0.35,0.1584 0.6,0.225 0.25,0.067 0.525,0.1334 0.825,0.2 0.31666,0.05 0.64166,0.092 0.975,0.125 0.33333,0.033 0.66666,0.05 1,0.05 1.34999,0 2.35832,-0.35 3.025,-1.05 0.68332,-0.7166 1.07499,-1.7 1.175,-2.95 l -5.3,0 0,-1.875 5.25,0 c -0.15001,-1.1166 -0.55001,-2 -1.2,-2.65 -0.63334,-0.6666 -1.57501,-1 -2.825,-1 -0.68334,0 -1.28334,0.058 -1.8,0.175 -0.51667,0.1 -0.91667,0.2167 -1.2,0.35 l -0.5,-1.875 c 0.16666,-0.083 0.38333,-0.1666 0.65,-0.25 0.28333,-0.083 0.58333,-0.1583 0.9,-0.225 0.33333,-0.067 0.67499,-0.1166 1.025,-0.15 0.34999,-0.05 0.69166,-0.075 1.025,-0.075 1.04999,0 1.96666,0.175 2.75,0.525 0.79999,0.35 1.46666,0.8334 2,1.45 0.53332,0.6167 0.93332,1.3334 1.2,2.15 0.28332,0.8167 0.42499,1.7 0.425,2.65"
         style="font-size:25px;fill:#999999"
         id="path3102" />
      <path
         d="m 161.30358,1033.176 c 0.1,0.017 0.24166,0.033 0.425,0.05 0.18333,0.017 0.39166,0.033 0.625,0.05 0.23333,0 0.47499,0.01 0.725,0.025 0.26666,0 0.51666,0 0.75,0 0.48333,0 0.94166,-0.033 1.375,-0.1 0.44999,-0.067 0.83332,-0.1833 1.15,-0.35 0.33332,-0.1666 0.59166,-0.3833 0.775,-0.65 0.19999,-0.2833 0.29999,-0.6416 0.3,-1.075 -1e-5,-0.4166 -0.0917,-0.7583 -0.275,-1.025 -0.16668,-0.2833 -0.40001,-0.5083 -0.7,-0.675 -0.30001,-0.1666 -0.65834,-0.2833 -1.075,-0.35 -0.40001,-0.067 -0.83334,-0.1 -1.3,-0.1 l -2.775,0 0,4.2 m 2.475,-5.925 c 0.44999,0 0.85833,-0.025 1.225,-0.075 0.38332,-0.067 0.70832,-0.175 0.975,-0.325 0.28332,-0.15 0.49999,-0.35 0.65,-0.6 0.16666,-0.25 0.24999,-0.5666 0.25,-0.95 -1e-5,-0.4 -0.10001,-0.7166 -0.3,-0.95 -0.20001,-0.2333 -0.46668,-0.4083 -0.8,-0.525 -0.31668,-0.1333 -0.68334,-0.2166 -1.1,-0.25 -0.40001,-0.05 -0.80834,-0.075 -1.225,-0.075 -0.38334,0 -0.77501,0.01 -1.175,0.025 -0.38334,0.017 -0.70834,0.033 -0.975,0.05 l 0,3.675 2.475,0 m -0.05,7.9 c -0.98334,0 -1.89167,-0.05 -2.725,-0.15 -0.83334,-0.083 -1.49167,-0.1833 -1.975,-0.3 l 0,-12.65 c 0.48333,-0.1166 1.14166,-0.2166 1.975,-0.3 0.83333,-0.1 1.74166,-0.15 2.725,-0.15 0.68333,0 1.34999,0.058 2,0.175 0.64999,0.1167 1.22499,0.3167 1.725,0.6 0.49999,0.2667 0.89999,0.6417 1.2,1.125 0.31665,0.4667 0.47499,1.05 0.475,1.75 -1e-5,0.6334 -0.15835,1.175 -0.475,1.625 -0.31668,0.45 -0.74168,0.8 -1.275,1.05 0.71666,0.25 1.28332,0.625 1.7,1.125 0.43332,0.4834 0.64999,1.1667 0.65,2.05 -1e-5,0.7834 -0.15835,1.4334 -0.475,1.95 -0.30001,0.5167 -0.72501,0.9334 -1.275,1.25 -0.53334,0.3167 -1.16668,0.5334 -1.9,0.65 -0.73334,0.1334 -1.51667,0.2 -2.35,0.2"
         style="font-size:25px;fill:#999999"
         id="path3104" />
      <path
         d="m 177.14928,1033.251 c 0.55,0 1.03333,-0.01 1.45,-0.025 0.43333,-0.033 0.79166,-0.083 1.075,-0.15 l 0,-3.875 c -0.16667,-0.083 -0.44167,-0.15 -0.825,-0.2 -0.36667,-0.067 -0.81667,-0.1 -1.35,-0.1 -0.35,0 -0.725,0.025 -1.125,0.075 -0.38334,0.05 -0.74167,0.1584 -1.075,0.325 -0.31667,0.15 -0.58333,0.3667 -0.8,0.65 -0.21667,0.2667 -0.325,0.625 -0.325,1.075 0,0.8334 0.26667,1.4167 0.8,1.75 0.53333,0.3167 1.25833,0.475 2.175,0.475 m -0.2,-11.65 c 0.93333,0 1.71666,0.125 2.35,0.375 0.64999,0.2334 1.16666,0.575 1.55,1.025 0.39999,0.4334 0.68333,0.9584 0.85,1.575 0.16666,0.6 0.24999,1.2667 0.25,2 l 0,8.125 c -0.20001,0.033 -0.48334,0.083 -0.85,0.15 -0.35001,0.05 -0.75001,0.1 -1.2,0.15 -0.45001,0.05 -0.94167,0.092 -1.475,0.125 -0.51667,0.05 -1.03334,0.075 -1.55,0.075 -0.73334,0 -1.40834,-0.075 -2.025,-0.225 -0.61667,-0.15 -1.15,-0.3833 -1.6,-0.7 -0.45,-0.3333 -0.8,-0.7666 -1.05,-1.3 -0.25,-0.5333 -0.375,-1.175 -0.375,-1.925 0,-0.7166 0.14167,-1.3333 0.425,-1.85 0.3,-0.5166 0.7,-0.9333 1.2,-1.25 0.5,-0.3166 1.08333,-0.55 1.75,-0.7 0.66666,-0.15 1.36666,-0.225 2.1,-0.225 0.23333,0 0.475,0.017 0.725,0.05 0.25,0.017 0.48333,0.05 0.7,0.1 0.23333,0.033 0.43333,0.067 0.6,0.1 0.16666,0.033 0.28333,0.058 0.35,0.075 l 0,-0.65 c -1e-5,-0.3833 -0.0417,-0.7583 -0.125,-1.125 -0.0833,-0.3833 -0.23334,-0.7166 -0.45,-1 -0.21667,-0.3 -0.51667,-0.5333 -0.9,-0.7 -0.36667,-0.1833 -0.85,-0.275 -1.45,-0.275 -0.76667,0 -1.44167,0.058 -2.025,0.175 -0.56667,0.1 -0.99167,0.2084 -1.275,0.325 l -0.275,-1.925 c 0.3,-0.1333 0.8,-0.2583 1.5,-0.375 0.7,-0.1333 1.45833,-0.2 2.275,-0.2"
         style="font-size:25px;fill:#999999"
         id="path3106" />
      <path
         d="m 190.31139,1023.876 c 0,0.55 -0.0167,1.1417 -0.05,1.775 -0.0167,0.6167 -0.0583,1.2417 -0.125,1.875 -0.0667,0.6167 -0.15834,1.2334 -0.275,1.85 -0.11667,0.6 -0.26667,1.1667 -0.45,1.7 -0.18334,0.5334 -0.41667,1.0334 -0.7,1.5 -0.26667,0.4667 -0.6,0.8834 -1,1.25 -0.4,0.35 -0.86667,0.65 -1.4,0.9 -0.53333,0.2334 -1.15833,0.3834 -1.875,0.45 l -0.325,-1.95 c 0.81667,-0.1666 1.45833,-0.475 1.925,-0.925 0.48333,-0.45 0.86667,-1 1.15,-1.65 0.25,-0.5666 0.43333,-1.2083 0.55,-1.925 0.11666,-0.7166 0.2,-1.4583 0.25,-2.225 0.05,-0.7833 0.075,-1.5666 0.075,-2.35 0.0167,-0.7833 0.025,-1.525 0.025,-2.225 l 8.65,0 0,13 -2.325,0 0,-11.05 -4.1,0"
         style="font-size:25px;fill:#999999"
         id="path3108" />
      <path
         d="m 203.0528,1027.301 2.85,0 c 0.1,-0.8666 0.31666,-1.65 0.65,-2.35 0.34999,-0.7 0.78332,-1.3 1.3,-1.8 0.51666,-0.5 1.10832,-0.8833 1.775,-1.15 0.66665,-0.2666 1.38332,-0.4 2.15,-0.4 0.84998,0 1.63332,0.1667 2.35,0.5 0.73332,0.3167 1.36665,0.775 1.9,1.375 0.53331,0.6 0.94998,1.325 1.25,2.175 0.29998,0.8334 0.44998,1.7584 0.45,2.775 -2e-5,1.0334 -0.15002,1.9667 -0.45,2.8 -0.30002,0.8334 -0.71669,1.55 -1.25,2.15 -0.53335,0.6 -1.16668,1.0667 -1.9,1.4 -0.71668,0.3167 -1.50002,0.475 -2.35,0.475 -0.80001,0 -1.55001,-0.1416 -2.25,-0.425 -0.68334,-0.3 -1.28334,-0.7083 -1.8,-1.225 -0.51668,-0.5333 -0.94168,-1.175 -1.275,-1.925 -0.31668,-0.75 -0.50834,-1.5833 -0.575,-2.5 l -2.825,0 0,5.75 -2.325,0 0,-13 2.325,0 0,5.375 m 12.275,1.125 c -2e-5,-1.4666 -0.32502,-2.625 -0.975,-3.475 -0.63335,-0.8666 -1.49168,-1.3 -2.575,-1.3 -1.08335,0 -1.95001,0.4334 -2.6,1.3 -0.63334,0.85 -0.95001,2.0084 -0.95,3.475 -1e-5,1.4667 0.31666,2.6334 0.95,3.5 0.64999,0.85 1.51665,1.275 2.6,1.275 1.08332,0 1.94165,-0.425 2.575,-1.275 0.64998,-0.8666 0.97498,-2.0333 0.975,-3.5"
         style="font-size:25px;fill:#999999"
         id="path3110" />
      <path
         d="m 231.36647,1033.001 1.75,0 0,5.55 -2.2,0 0,-3.625 -9.925,0 0,-13 2.325,0 0,11.075 5.725,0 0,-11.075 2.325,0 0,11.075"
         style="font-size:25px;fill:#999999"
         id="path3112" />
      <path
         d="m 240.41491,1028.501 c -0.45001,0 -0.89167,0.017 -1.325,0.05 -0.41667,0.017 -0.79167,0.067 -1.125,0.15 l 0,4.475 c 0.1,0.017 0.24166,0.033 0.425,0.05 0.19999,0.017 0.40833,0.033 0.625,0.05 0.23333,0 0.46666,0.01 0.7,0.025 0.23332,0 0.44166,0 0.625,0 1.01666,0 1.79999,-0.1916 2.35,-0.575 0.54999,-0.3833 0.82499,-1 0.825,-1.85 -10e-6,-0.4166 -0.0917,-0.775 -0.275,-1.075 -0.16668,-0.3 -0.40001,-0.5416 -0.7,-0.725 -0.28334,-0.2 -0.60834,-0.3416 -0.975,-0.425 -0.36668,-0.1 -0.75001,-0.15 -1.15,-0.15 m -4.775,-6.575 2.325,0 0,4.975 c 0.28333,-0.067 0.69166,-0.1333 1.225,-0.2 0.54999,-0.067 1.07499,-0.1 1.575,-0.1 0.68332,0 1.33332,0.083 1.95,0.25 0.61665,0.15 1.15832,0.4 1.625,0.75 0.46665,0.3334 0.83332,0.775 1.1,1.325 0.28332,0.5334 0.42499,1.175 0.425,1.925 -1e-5,0.7834 -0.13335,1.45 -0.4,2 -0.26668,0.55 -0.64168,1 -1.125,1.35 -0.48335,0.35 -1.06668,0.6 -1.75,0.75 -0.68334,0.1667 -1.43334,0.25 -2.25,0.25 -0.78334,0 -1.57501,-0.05 -2.375,-0.15 -0.80001,-0.083 -1.575,-0.2166 -2.325,-0.4 l 0,-12.725 m 14.95,13 -2.325,0 0,-13 2.325,0 0,13"
         style="font-size:25px;fill:#999999"
         id="path3114" />
      <path
         d="m 256.91022,1027.301 2.85,0 c 0.1,-0.8666 0.31666,-1.65 0.65,-2.35 0.34999,-0.7 0.78333,-1.3 1.3,-1.8 0.51666,-0.5 1.10832,-0.8833 1.775,-1.15 0.66666,-0.2666 1.38332,-0.4 2.15,-0.4 0.84999,0 1.63332,0.1667 2.35,0.5 0.73332,0.3167 1.36665,0.775 1.9,1.375 0.53332,0.6 0.94998,1.325 1.25,2.175 0.29998,0.8334 0.44998,1.7584 0.45,2.775 -2e-5,1.0334 -0.15002,1.9667 -0.45,2.8 -0.30002,0.8334 -0.71668,1.55 -1.25,2.15 -0.53335,0.6 -1.16668,1.0667 -1.9,1.4 -0.71668,0.3167 -1.50001,0.475 -2.35,0.475 -0.80001,0 -1.55001,-0.1416 -2.25,-0.425 -0.68334,-0.3 -1.28334,-0.7083 -1.8,-1.225 -0.51667,-0.5333 -0.94167,-1.175 -1.275,-1.925 -0.31667,-0.75 -0.50834,-1.5833 -0.575,-2.5 l -2.825,0 0,5.75 -2.325,0 0,-13 2.325,0 0,5.375 m 12.275,1.125 c -2e-5,-1.4666 -0.32502,-2.625 -0.975,-3.475 -0.63335,-0.8666 -1.49168,-1.3 -2.575,-1.3 -1.08334,0 -1.95001,0.4334 -2.6,1.3 -0.63334,0.85 -0.95001,2.0084 -0.95,3.475 -10e-6,1.4667 0.31666,2.6334 0.95,3.5 0.64999,0.85 1.51666,1.275 2.6,1.275 1.08332,0 1.94165,-0.425 2.575,-1.275 0.64998,-0.8666 0.97498,-2.0333 0.975,-3.5"
         style="font-size:25px;fill:#999999"
         id="path3116" />
    </g>
    <g
       style="font-size:24.28185844px;font-style:normal;font-variant:normal;font-weight:normal;font-stretch:normal;line-height:125%;letter-spacing:0px;word-spacing:0px;fill:#4d4d4d;fill-opacity:1;stroke:none;font-family:Ubuntu;-inkscape-font-specification:Ubuntu"
       id="text2995">
      <path
         d="m 370.06859,1015.714 c 0.68333,0 1.26666,0.05 1.75,0.15 0.49999,0.1 0.84999,0.1917 1.05,0.275 l -0.425,2 c -0.20001,-0.1 -0.48334,-0.1916 -0.85,-0.275 -0.36667,-0.1 -0.81667,-0.15 -1.35,-0.15 -1.08334,0 -1.84167,0.3 -2.275,0.9 -0.43334,0.5834 -0.65,1.375 -0.65,2.375 l 0,1.125 5,0 0,1.95 -5,0 0,11.05 -2.325,0 0,-14.175 c 0,-1.6666 0.40833,-2.95 1.225,-3.85 0.81666,-0.9166 2.1,-1.375 3.85,-1.375"
         style="font-size:25px;fill:#4d4d4d"
         id="path3119" />
      <path
         d="m 379.06156,1033.439 c 0.54999,0 1.03333,-0.01 1.45,-0.025 0.43333,-0.033 0.79166,-0.083 1.075,-0.15 l 0,-3.875 c -0.16668,-0.083 -0.44168,-0.15 -0.825,-0.2 -0.36667,-0.067 -0.81667,-0.1 -1.35,-0.1 -0.35001,0 -0.72501,0.025 -1.125,0.075 -0.38334,0.05 -0.74167,0.1584 -1.075,0.325 -0.31667,0.15 -0.58334,0.3667 -0.8,0.65 -0.21667,0.2667 -0.325,0.625 -0.325,1.075 0,0.8334 0.26666,1.4167 0.8,1.75 0.53333,0.3167 1.25833,0.475 2.175,0.475 m -0.2,-11.65 c 0.93333,0 1.71666,0.125 2.35,0.375 0.64999,0.2334 1.16666,0.575 1.55,1.025 0.39999,0.4334 0.68332,0.9584 0.85,1.575 0.16666,0.6 0.24999,1.2667 0.25,2 l 0,8.125 c -0.20001,0.033 -0.48334,0.083 -0.85,0.15 -0.35001,0.05 -0.75001,0.1 -1.2,0.15 -0.45001,0.05 -0.94167,0.092 -1.475,0.125 -0.51667,0.05 -1.03334,0.075 -1.55,0.075 -0.73334,0 -1.40834,-0.075 -2.025,-0.225 -0.61667,-0.15 -1.15,-0.3833 -1.6,-0.7 -0.45,-0.3333 -0.8,-0.7667 -1.05,-1.3 -0.25,-0.5333 -0.375,-1.175 -0.375,-1.925 0,-0.7166 0.14167,-1.3333 0.425,-1.85 0.3,-0.5166 0.7,-0.9333 1.2,-1.25 0.5,-0.3166 1.08333,-0.55 1.75,-0.7 0.66666,-0.15 1.36666,-0.225 2.1,-0.225 0.23333,0 0.47499,0.017 0.725,0.05 0.24999,0.017 0.48333,0.05 0.7,0.1 0.23333,0.033 0.43332,0.067 0.6,0.1 0.16666,0.033 0.28332,0.058 0.35,0.075 l 0,-0.65 c -1e-5,-0.3833 -0.0417,-0.7583 -0.125,-1.125 -0.0833,-0.3833 -0.23334,-0.7166 -0.45,-1 -0.21667,-0.3 -0.51667,-0.5333 -0.9,-0.7 -0.36667,-0.1833 -0.85001,-0.275 -1.45,-0.275 -0.76667,0 -1.44167,0.058 -2.025,0.175 -0.56667,0.1 -0.99167,0.2084 -1.275,0.325 l -0.275,-1.925 c 0.3,-0.1333 0.8,-0.2583 1.5,-0.375 0.7,-0.1333 1.45833,-0.2 2.275,-0.2"
         style="font-size:25px;fill:#4d4d4d"
         id="path3121" />
      <path
         d="m 391.59867,1035.364 c -1.43334,-0.033 -2.45,-0.3417 -3.05,-0.925 -0.6,-0.5833 -0.9,-1.4917 -0.9,-2.725 l 0,-15.6 2.325,-0.4 0,15.625 c 0,0.3834 0.0333,0.7 0.1,0.95 0.0667,0.25 0.17499,0.45 0.325,0.6 0.14999,0.15 0.34999,0.2667 0.6,0.35 0.24999,0.067 0.55833,0.125 0.925,0.175 l -0.325,1.95"
         style="font-size:25px;fill:#4d4d4d"
         id="path3123" />
      <path
         d="m 398.93461,1033.439 c 0.54999,0 1.03332,-0.01 1.45,-0.025 0.43332,-0.033 0.79165,-0.083 1.075,-0.15 l 0,-3.875 c -0.16668,-0.083 -0.44168,-0.15 -0.825,-0.2 -0.36668,-0.067 -0.81668,-0.1 -1.35,-0.1 -0.35001,0 -0.72501,0.025 -1.125,0.075 -0.38334,0.05 -0.74167,0.1584 -1.075,0.325 -0.31667,0.15 -0.58334,0.3667 -0.8,0.65 -0.21667,0.2667 -0.32501,0.625 -0.325,1.075 -10e-6,0.8334 0.26666,1.4167 0.8,1.75 0.53333,0.3167 1.25832,0.475 2.175,0.475 m -0.2,-11.65 c 0.93332,0 1.71666,0.125 2.35,0.375 0.64999,0.2334 1.16665,0.575 1.55,1.025 0.39999,0.4334 0.68332,0.9584 0.85,1.575 0.16665,0.6 0.24999,1.2667 0.25,2 l 0,8.125 c -0.20001,0.033 -0.48335,0.083 -0.85,0.15 -0.35001,0.05 -0.75001,0.1 -1.2,0.15 -0.45001,0.05 -0.94168,0.092 -1.475,0.125 -0.51668,0.05 -1.03334,0.075 -1.55,0.075 -0.73334,0 -1.40834,-0.075 -2.025,-0.225 -0.61667,-0.15 -1.15001,-0.3833 -1.6,-0.7 -0.45001,-0.3333 -0.8,-0.7667 -1.05,-1.3 -0.25,-0.5333 -0.375,-1.175 -0.375,-1.925 0,-0.7166 0.14166,-1.3333 0.425,-1.85 0.3,-0.5166 0.69999,-0.9333 1.2,-1.25 0.49999,-0.3166 1.08333,-0.55 1.75,-0.7 0.66666,-0.15 1.36666,-0.225 2.1,-0.225 0.23332,0 0.47499,0.017 0.725,0.05 0.24999,0.017 0.48332,0.05 0.7,0.1 0.23332,0.033 0.43332,0.067 0.6,0.1 0.16665,0.033 0.28332,0.058 0.35,0.075 l 0,-0.65 c -10e-6,-0.3833 -0.0417,-0.7583 -0.125,-1.125 -0.0833,-0.3833 -0.23334,-0.7166 -0.45,-1 -0.21668,-0.3 -0.51668,-0.5333 -0.9,-0.7 -0.36668,-0.1833 -0.85001,-0.275 -1.45,-0.275 -0.76667,0 -1.44167,0.058 -2.025,0.175 -0.56667,0.1 -0.99167,0.2084 -1.275,0.325 l -0.275,-1.925 c 0.29999,-0.1333 0.79999,-0.2583 1.5,-0.375 0.69999,-0.1333 1.45832,-0.2 2.275,-0.2"
         style="font-size:25px;fill:#4d4d4d"
         id="path3125" />
      <path
         d="m 407.57172,1022.489 c 0.53333,-0.1333 1.24166,-0.275 2.125,-0.425 0.88332,-0.15 1.89999,-0.225 3.05,-0.225 1.03332,0 1.89165,0.15 2.575,0.45 0.68332,0.2834 1.22499,0.6917 1.625,1.225 0.41665,0.5167 0.70832,1.1417 0.875,1.875 0.16665,0.7334 0.24998,1.5417 0.25,2.425 l 0,7.3 -2.325,0 0,-6.8 c -10e-6,-0.8 -0.0583,-1.4833 -0.175,-2.05 -0.10001,-0.5666 -0.27501,-1.025 -0.525,-1.375 -0.25001,-0.35 -0.58335,-0.6 -1,-0.75 -0.41668,-0.1666 -0.93334,-0.25 -1.55,-0.25 -0.25001,0 -0.50834,0.01 -0.775,0.025 -0.26668,0.017 -0.52501,0.042 -0.775,0.075 -0.23334,0.017 -0.45001,0.042 -0.65,0.075 -0.18334,0.033 -0.31667,0.058 -0.4,0.075 l 0,10.975 -2.325,0 0,-12.625"
         style="font-size:25px;fill:#4d4d4d"
         id="path3127" />
      <path
         d="m 424.95219,1033.439 c 0.94999,0 1.64999,-0.125 2.1,-0.375 0.46665,-0.25 0.69999,-0.65 0.7,-1.2 -10e-6,-0.5666 -0.22501,-1.0166 -0.675,-1.35 -0.45001,-0.3333 -1.19168,-0.7083 -2.225,-1.125 -0.50001,-0.2 -0.98334,-0.4 -1.45,-0.6 -0.45001,-0.2166 -0.84167,-0.4666 -1.175,-0.75 -0.33334,-0.2833 -0.60001,-0.625 -0.8,-1.025 -0.20001,-0.4 -0.30001,-0.8916 -0.3,-1.475 -10e-6,-1.15 0.42499,-2.0583 1.275,-2.725 0.84999,-0.6833 2.00832,-1.025 3.475,-1.025 0.36666,0 0.73332,0.025 1.1,0.075 0.36665,0.033 0.70832,0.083 1.025,0.15 0.31665,0.05 0.59165,0.1084 0.825,0.175 0.24999,0.067 0.44165,0.125 0.575,0.175 l -0.425,2 c -0.25001,-0.1333 -0.64168,-0.2666 -1.175,-0.4 -0.53335,-0.15 -1.17501,-0.225 -1.925,-0.225 -0.65001,0 -1.21668,0.1334 -1.7,0.4 -0.48334,0.25 -0.72501,0.65 -0.725,1.2 -10e-6,0.2834 0.05,0.5334 0.15,0.75 0.11666,0.2167 0.28332,0.4167 0.5,0.6 0.23332,0.1667 0.51666,0.325 0.85,0.475 0.33332,0.15 0.73332,0.3084 1.2,0.475 0.61665,0.2334 1.16665,0.4667 1.65,0.7 0.48332,0.2167 0.89165,0.475 1.225,0.775 0.34999,0.3 0.61665,0.6667 0.8,1.1 0.18332,0.4167 0.27498,0.9334 0.275,1.55 -2e-5,1.2 -0.45001,2.1083 -1.35,2.725 -0.88335,0.6167 -2.15001,0.925 -3.8,0.925 -1.15001,0 -2.05001,-0.1 -2.7,-0.3 -0.65001,-0.1833 -1.09167,-0.325 -1.325,-0.425 l 0.425,-2 c 0.26666,0.1 0.69166,0.25 1.275,0.45 0.58333,0.2 1.35832,0.3 2.325,0.3"
         style="font-size:25px;fill:#4d4d4d"
         id="path3129" />
      <path
         d="m 435.235,1022.114 4.925,0 0,1.95 -4.925,0 0,6 c -1e-5,0.65 0.05,1.1917 0.15,1.625 0.1,0.4167 0.24999,0.75 0.45,1 0.19999,0.2333 0.44999,0.4 0.75,0.5 0.29999,0.1 0.64999,0.15 1.05,0.15 0.69999,0 1.25832,-0.075 1.675,-0.225 0.43332,-0.1667 0.73332,-0.2833 0.9,-0.35 l 0.45,1.925 c -0.23335,0.1167 -0.64168,0.2583 -1.225,0.425 -0.58334,0.1833 -1.25001,0.275 -2,0.275 -0.88334,0 -1.61667,-0.1083 -2.2,-0.325 -0.56667,-0.2333 -1.02501,-0.575 -1.375,-1.025 -0.35,-0.45 -0.6,-1 -0.75,-1.65 -0.13334,-0.6666 -0.2,-1.4333 -0.2,-2.3 l 0,-11.6 2.325,-0.4 0,4.025"
         style="font-size:25px;fill:#4d4d4d"
         id="path3131" />
      <path
         d="m 442.14945,1028.639 c 0,-1.15 0.16667,-2.15 0.5,-3 0.33333,-0.8666 0.775,-1.5833 1.325,-2.15 0.55,-0.5666 1.18333,-0.9916 1.9,-1.275 0.71666,-0.2833 1.44999,-0.425 2.2,-0.425 1.74999,0 3.09166,0.55 4.025,1.65 0.93332,1.0834 1.39999,2.7417 1.4,4.975 -1e-5,0.1 -1e-5,0.2334 0,0.4 -1e-5,0.15 -0.008,0.2917 -0.025,0.425 l -8.9,0 c 0.1,1.35 0.49166,2.375 1.175,3.075 0.68333,0.7 1.74999,1.05 3.2,1.05 0.81666,0 1.49999,-0.067 2.05,-0.2 0.56666,-0.15 0.99166,-0.2917 1.275,-0.425 l 0.325,1.95 c -0.28334,0.15 -0.78334,0.3083 -1.5,0.475 -0.70001,0.1667 -1.50001,0.25 -2.4,0.25 -1.13334,0 -2.11667,-0.1667 -2.95,-0.5 -0.81667,-0.35 -1.49167,-0.825 -2.025,-1.425 -0.53333,-0.6 -0.93333,-1.3083 -1.2,-2.125 -0.25,-0.8333 -0.375,-1.7416 -0.375,-2.725 m 8.925,-1.275 c 0.0167,-1.05 -0.25001,-1.9083 -0.8,-2.575 -0.53334,-0.6833 -1.27501,-1.025 -2.225,-1.025 -0.53334,0 -1.00834,0.1084 -1.425,0.325 -0.4,0.2 -0.74167,0.4667 -1.025,0.8 -0.28334,0.3334 -0.50834,0.7167 -0.675,1.15 -0.15,0.4334 -0.25,0.875 -0.3,1.325 l 6.45,0"
         style="font-size:25px;fill:#4d4d4d"
         id="path3133" />
      <path
         d="m 461.63929,1021.839 c 0.2,0 0.425,0.017 0.675,0.05 0.26666,0.017 0.525,0.05 0.775,0.1 0.25,0.033 0.475,0.075 0.675,0.125 0.21666,0.033 0.375,0.067 0.475,0.1 l -0.4,2.025 c -0.18334,-0.067 -0.49167,-0.1416 -0.925,-0.225 -0.41667,-0.1 -0.95834,-0.15 -1.625,-0.15 -0.43333,0 -0.86667,0.05 -1.3,0.15 -0.41667,0.083 -0.69167,0.1417 -0.825,0.175 l 0,10.925 -2.325,0 0,-12.45 c 0.55,-0.2 1.23333,-0.3833 2.05,-0.55 0.81667,-0.1833 1.73333,-0.275 2.75,-0.275"
         style="font-size:25px;fill:#4d4d4d"
         id="path3135" />
      <path
         d="m 467.89008,1033.764 c -1e-5,0.45 -0.15001,0.8417 -0.45,1.175 -0.30001,0.3333 -0.70834,0.5 -1.225,0.5 -0.51667,0 -0.92501,-0.1667 -1.225,-0.5 -0.30001,-0.3333 -0.45001,-0.725 -0.45,-1.175 -10e-6,-0.45 0.14999,-0.8417 0.45,-1.175 0.29999,-0.3333 0.70833,-0.5 1.225,-0.5 0.51666,0 0.92499,0.1667 1.225,0.5 0.29999,0.3333 0.44999,0.725 0.45,1.175"
         style="font-size:25px;fill:#4d4d4d"
         id="path3137" />
      <path
         d="m 473.61742,1022.689 c 0.28333,-0.1833 0.70833,-0.375 1.275,-0.575 0.58333,-0.2 1.24999,-0.3 2,-0.3 0.93332,0 1.75832,0.1667 2.475,0.5 0.73332,0.3334 1.34999,0.8 1.85,1.4 0.49999,0.6 0.87499,1.3167 1.125,2.15 0.26665,0.8334 0.39999,1.75 0.4,2.75 -10e-6,1.05 -0.15835,2 -0.475,2.85 -0.30001,0.8333 -0.73335,1.5417 -1.3,2.125 -0.56668,0.5833 -1.25001,1.0333 -2.05,1.35 -0.80001,0.3167 -1.70001,0.475 -2.7,0.475 -1.08334,0 -2.04167,-0.075 -2.875,-0.225 -0.83334,-0.15 -1.51667,-0.3 -2.05,-0.45 l 0,-18.625 2.325,-0.4 0,6.975 m 0,10.4 c 0.23333,0.067 0.55833,0.1333 0.975,0.2 0.43333,0.05 0.96666,0.075 1.6,0.075 1.24999,0 2.24999,-0.4083 3,-1.225 0.74999,-0.8333 1.12499,-2.0083 1.125,-3.525 -1e-5,-0.6666 -0.0667,-1.2916 -0.2,-1.875 -0.13334,-0.5833 -0.35001,-1.0833 -0.65,-1.5 -0.30001,-0.4333 -0.69168,-0.7666 -1.175,-1 -0.46668,-0.25 -1.03334,-0.375 -1.7,-0.375 -0.63334,0 -1.21667,0.1084 -1.75,0.325 -0.53334,0.2167 -0.94167,0.4417 -1.225,0.675 l 0,8.225"
         style="font-size:25px;fill:#4d4d4d"
         id="path3139" />
      <path
         d="m 484.17172,1037.539 c 0.18333,0.083 0.41666,0.1583 0.7,0.225 0.29999,0.083 0.59166,0.125 0.875,0.125 0.91666,0 1.63333,-0.2083 2.15,-0.625 0.51666,-0.4 0.98332,-1.0583 1.4,-1.975 -1.05001,-2 -2.03334,-4.1166 -2.95,-6.35 -0.90001,-2.25 -1.65,-4.525 -2.25,-6.825 l 2.5,0 c 0.18333,0.75 0.39999,1.5584 0.65,2.425 0.26666,0.8667 0.55833,1.7584 0.875,2.675 0.31666,0.9167 0.65832,1.8334 1.025,2.75 0.36666,0.9167 0.74999,1.8 1.15,2.65 0.63332,-1.75 1.18332,-3.4833 1.65,-5.2 0.46665,-1.7166 0.90832,-3.4833 1.325,-5.3 l 2.4,0 c -0.60002,2.45 -1.26668,4.8084 -2,7.075 -0.73335,2.25 -1.52501,4.3583 -2.375,6.325 -0.33334,0.75 -0.68334,1.3917 -1.05,1.925 -0.35001,0.55 -0.74168,1 -1.175,1.35 -0.43334,0.35 -0.92501,0.6083 -1.475,0.775 -0.53334,0.1667 -1.14167,0.25 -1.825,0.25 -0.18334,0 -0.37501,-0.017 -0.575,-0.05 -0.2,-0.017 -0.4,-0.05 -0.6,-0.1 -0.18334,-0.033 -0.35834,-0.075 -0.525,-0.125 -0.15,-0.05 -0.25834,-0.092 -0.325,-0.125 l 0.425,-1.875"
         style="font-size:25px;fill:#4d4d4d"
         id="path3141" />
    </g>
  </g>
</svg>
