<?xml version="1.0" encoding="UTF-8" standalone="no"?>
<!-- Created with Inkscape (http://www.inkscape.org/) -->

<svg
   xmlns:dc="http://purl.org/dc/elements/1.1/"
   xmlns:cc="http://creativecommons.org/ns#"
   xmlns:rdf="http://www.w3.org/1999/02/22-rdf-syntax-ns#"
   xmlns:svg="http://www.w3.org/2000/svg"
   xmlns="http://www.w3.org/2000/svg"
   xmlns:sodipodi="http://sodipodi.sourceforge.net/DTD/sodipodi-0.dtd"
   xmlns:inkscape="http://www.inkscape.org/namespaces/inkscape"
   width="524.40942"
   height="372.04724"
   id="svg2"
   version="1.1"
   inkscape:version="0.48.4 r9939"
   sodipodi:docname="postcard_5_path.svg"
   inkscape:export-filename="/home/svet/Dropbox/falanster/design/postcards/console/postcard_5_path.png"
   inkscape:export-xdpi="300"
   inkscape:export-ydpi="300">
  <defs
     id="defs4" />
  <sodipodi:namedview
     id="base"
     pagecolor="#ffffff"
     bordercolor="#666666"
     borderopacity="1.0"
     inkscape:pageopacity="0.0"
     inkscape:pageshadow="2"
     inkscape:zoom="1.4"
     inkscape:cx="371.25259"
     inkscape:cy="209.58817"
     inkscape:document-units="px"
     inkscape:current-layer="layer1"
     showgrid="false"
     inkscape:window-width="1301"
     inkscape:window-height="744"
     inkscape:window-x="65"
     inkscape:window-y="24"
     inkscape:window-maximized="1"
     showguides="true"
     inkscape:guide-bbox="true">
    <sodipodi:guide
       orientation="0,1"
       position="279.81226,16.162441"
       id="guide2999" />
    <sodipodi:guide
       orientation="1,0"
       position="26.263966,437.39605"
       id="guide3001" />
    <sodipodi:guide
       orientation="1,0"
       position="495.9849,304.05592"
       id="guide3003" />
  </sodipodi:namedview>
  <metadata
     id="metadata7">
    <rdf:RDF>
      <cc:Work
         rdf:about="">
        <dc:format>image/svg+xml</dc:format>
        <dc:type
           rdf:resource="http://purl.org/dc/dcmitype/StillImage" />
        <dc:title></dc:title>
      </cc:Work>
    </rdf:RDF>
  </metadata>
  <g
     inkscape:label="Layer 1"
     inkscape:groupmode="layer"
     id="layer1"
     transform="translate(0,-680.31491)">
    <path
       style="fill:#1a1a1a;fill-opacity:1;fill-rule:nonzero;stroke:none"
       d="m 0,680.31488 524.40942,0 0,372.04722 -524.40942,0 z"
       id="rect2985" />
    <g
       style="font-size:52px;font-style:normal;font-variant:normal;font-weight:normal;font-stretch:normal;line-height:125%;letter-spacing:0px;word-spacing:0px;fill:#ff00ff;fill-opacity:1;stroke:none;font-family:Courier 10 Pitch;-inkscape-font-specification:Courier 10 Pitch"
       id="text2983">
      <path
         d="m 37.235862,746.69596 0.631199,-11.0986 3.7346,0 -0.526,10.9408 c 0,0.0526 0,0.1052 0,0.1052 0,1.052 0.631201,1.6832 1.5254,1.6832 1.051999,0 1.6306,-0.5786 1.6832,-1.6306 l 0.5786,-11.0986 3.7872,0 c 1.104599,0 1.6832,-0.6312 1.6832,-1.7358 0,-1.1046 -0.578601,-1.7358 -1.6832,-1.7358 l -3.5768,0 0.3156,-6.1016 3.2612,0 c 1.104599,0 1.6832,-0.6312 1.6832,-1.7358 0,-1.1046 -0.578601,-1.6832 -1.6832,-1.6832 l -3.156,0 0.6312,-10.9934 c 0,-0.0526 0,-0.1052 0,-0.1052 0,-1.052 -0.683801,-1.6306 -1.6306,-1.6306 -0.946799,0 -1.5254,0.526 -1.578,1.578 l -0.6312,11.1512 -3.7346,0 0.526,-10.9934 c 0,-0.0526 0,-0.1052 0,-0.1052 0,-1.052 -0.6312,-1.6306 -1.578,-1.6306 -0.946799,0 -1.5254,0.526 -1.577999,1.578 l -0.6312,11.1512 -3.8398,0 c -1.104599,0 -1.6832,0.5786 -1.6832,1.6832 0,1.1046 0.578601,1.7358 1.6832,1.7358 l 3.682,0 -0.263,6.1016 -3.419,0 c -1.104599,0 -1.6832,0.6312 -1.6832,1.7358 0,1.1046 0.578601,1.7358 1.6832,1.7358 l 3.2086,0 -0.5786,10.9408 c 0,0.0526 0,0.1052 0,0.1578 0,0.9994 0.5786,1.6306 1.4728,1.6306 1.051998,0 1.6306,-0.5786 1.6832,-1.6306 m 0.788999,-14.5702 0.3156,-6.1016 3.8398,0 -0.3682,6.1016 -3.7872,0"
         style="font-size:52.59999847px;fill:#ff00ff"
         id="path3014" />
      <path
         d="m 92.104236,743.43476 c 0,1.6306 0.683801,2.4722 1.8936,2.4722 0.578599,0 1.420201,-0.4208 2.63,-1.2098 2.892997,0.7364 5.470404,1.1572 7.784804,1.1572 6.41719,0 10.0466,-3.20861 10.0466,-7.627 0,-5.0496 -3.52421,-7.0484 -10.3096,-7.2062 -5.049599,-0.1052 -7.995204,-0.36821 -7.995204,-3.1034 0,-2.0514 1.946203,-3.7872 5.365204,-3.7872 2.68259,0 4.5762,0.6312 6.5224,2.367 1.52539,1.3676 2.0514,2.6826 3.2086,2.6826 1.26239,0 1.7358,-0.8942 1.7358,-2.5774 l 0,-2.9982 c 0,-1.7358 -0.57861,-2.5774 -1.7358,-2.5774 -1.3676,0 -1.89361,0.9994 -2.63,0.9994 -0.7364,0 -2.78781,-1.1572 -6.5224,-1.1572 -6.364598,0 -9.888804,2.9456 -9.888804,7.2062 0,4.57619 3.734607,7.101 10.730404,7.101 0.73639,0 1.2098,0 1.4728,0 3.89239,0 5.786,0.7364 5.786,3.3664 0,2.31439 -2.31441,3.9976 -6.049,3.9976 -3.4716,0 -6.417206,-1.2624 -7.784804,-3.0508 -0.999399,-1.315 -0.841602,-2.7352 -2.4196,-2.7352 -1.367599,0 -1.841,0.7364 -1.841,2.104 l 0,4.5762"
         style="font-size:52.59999847px;fill:#ff00ff"
         id="path3016" />
      <path
         d="m 128.48042,735.80776 0,-12.3084 c 0,-0.1052 0,-0.1578 0,-0.263 0,-1.1572 -0.0526,-1.6832 -1.4728,-1.6832 l -3.8924,0 c -1.3676,0 -2.0514,0.5786 -2.0514,1.7884 0,1.315 0.7364,1.841 2.367,1.841 0.3682,0 0.789,0 1.1572,0 l 0,11.572 c 0,5.99639 2.84041,9.0472 8.4686,9.0472 3.1034,0 5.3126,-1.20981 7.9952,-3.3138 l 0,1.7358 c 0,0.6312 0.4734,1.052 1.4728,1.052 l 3.8924,0 c 1.3676,0 2.0514,-0.6312 2.0514,-1.841 0,-1.315 -0.7364,-1.7884 -2.367,-1.7884 -0.3682,0 -0.789,0 -1.1572,0 l 0,-17.621 c 0,-1.5254 0,-2.4722 -1.7884,-2.4722 l -5.4704,0 c -1.4202,0 -2.0514,0.526 -2.0514,1.7884 0,1.2624 0.526,1.841 1.8936,1.841 l 3.5242,0 0,10.6252 c 0,3.78719 -3.3138,6.2068 -6.7854,6.2068 -3.99759,0 -5.786,-1.99881 -5.786,-6.2068"
         style="font-size:52.59999847px;fill:#ff00ff"
         id="path3018" />
      <path
         d="m 157.54521,733.75636 c 0,-5.1022 3.2612,-8.4686 8.1004,-8.4686 4.78659,0 8.1004,3.4716 8.1004,8.2056 0,4.73399 -3.419,8.3108 -8.153,8.3108 -4.5762,0 -8.0478,-3.20861 -8.0478,-8.0478 m 16.832,11.5194 4.8918,0 c 1.1046,0 1.841,-0.6838 1.841,-1.841 0,-1.315 -0.7364,-1.7884 -2.367,-1.7884 -0.3682,0 -0.789,0 -1.1572,0 l 0,-28.93 c 0,-0.7364 -0.4734,-1.052 -1.4728,-1.052 l -5.26,0 c -1.3676,0 -2.0514,0.6312 -2.0514,1.841 0,1.6832 1.1046,1.841 3.5242,1.841 l 1.3676,0 0,9.8362 c -1.9988,-2.4722 -4.8392,-3.682 -8.3634,-3.682 -6.94319,0 -12.2032,5.3652 -12.2032,12.1506 0,7.20619 4.94441,12.2558 11.4142,12.2558 3.6294,0 6.7854,-1.47281 8.8368,-4.0502 l 0,2.104 c 0,0.8942 0.2104,1.315 0.9994,1.315"
         style="font-size:52.59999847px;fill:#ff00ff"
         id="path3020" />
      <path
         d="m 211.7002,733.44076 c 0,-7.101 -5.26001,-12.4662 -13.413,-12.4662 -8.15299,0 -13.4656,5.3126 -13.4656,12.4662 0,7.15359 5.31261,12.4662 13.4656,12.4662 8.15299,0 13.413,-5.31261 13.413,-12.4662 m -13.413,8.8894 c -5.3126,0 -8.9946,-3.78721 -8.9946,-8.8894 0,-5.1022 3.682,-8.942 8.9946,-8.942 5.31259,0 8.9946,3.8398 8.9946,8.942 0,5.15479 -3.68201,8.8894 -8.9946,8.8894"
         style="font-size:52.59999847px;fill:#ff00ff"
         id="path3022" />
      <path
         d="m 255.04918,735.80776 0,-12.3084 c 0,-0.1052 0,-0.1578 0,-0.263 0,-1.1572 -0.0526,-1.6832 -1.4728,-1.6832 l -3.8924,0 c -1.3676,0 -2.0514,0.5786 -2.0514,1.7884 0,1.315 0.7364,1.841 2.367,1.841 0.3682,0 0.789,0 1.1572,0 l 0,11.572 c 0,5.99639 2.8404,9.0472 8.4686,9.0472 3.10339,0 5.3126,-1.20981 7.9952,-3.3138 l 0,1.7358 c 0,0.6312 0.4734,1.052 1.4728,1.052 l 3.8924,0 c 1.3676,0 2.0514,-0.6312 2.0514,-1.841 0,-1.315 -0.73641,-1.7884 -2.367,-1.7884 -0.3682,0 -0.789,0 -1.1572,0 l 0,-17.621 c 0,-1.5254 -1e-5,-2.4722 -1.7884,-2.4722 l -5.4704,0 c -1.4202,0 -2.0514,0.526 -2.0514,1.7884 0,1.2624 0.526,1.841 1.8936,1.841 l 3.5242,0 0,10.6252 c 0,3.78719 -3.31381,6.2068 -6.7854,6.2068 -3.9976,0 -5.786,-1.99881 -5.786,-6.2068"
         style="font-size:52.59999847px;fill:#ff00ff"
         id="path3024" />
      <path
         d="m 281.95736,743.43476 c 0,1.6306 0.6838,2.4722 1.8936,2.4722 0.5786,0 1.4202,-0.4208 2.63,-1.2098 2.893,0.7364 5.4704,1.1572 7.7848,1.1572 6.41719,0 10.0466,-3.20861 10.0466,-7.627 0,-5.0496 -3.52421,-7.0484 -10.3096,-7.2062 -5.0496,-0.1052 -7.9952,-0.36821 -7.9952,-3.1034 0,-2.0514 1.9462,-3.7872 5.3652,-3.7872 2.6826,0 4.5762,0.6312 6.5224,2.367 1.5254,1.3676 2.0514,2.6826 3.2086,2.6826 1.2624,0 1.7358,-0.8942 1.7358,-2.5774 l 0,-2.9982 c 0,-1.7358 -0.5786,-2.5774 -1.7358,-2.5774 -1.3676,0 -1.8936,0.9994 -2.63,0.9994 -0.7364,0 -2.78781,-1.1572 -6.5224,-1.1572 -6.3646,0 -9.8888,2.9456 -9.8888,7.2062 0,4.57619 3.73461,7.101 10.7304,7.101 0.7364,0 1.2098,0 1.4728,0 3.89239,0 5.786,0.7364 5.786,3.3664 0,2.31439 -2.31441,3.9976 -6.049,3.9976 -3.4716,0 -6.4172,-1.2624 -7.7848,-3.0508 -0.9994,-1.315 -0.8416,-2.7352 -2.4196,-2.7352 -1.3676,0 -1.841,0.7364 -1.841,2.104 l 0,4.5762"
         style="font-size:52.59999847px;fill:#ff00ff"
         id="path3026" />
      <path
         d="m 316.28216,731.17896 c 0.99939,-4.2606 4.3132,-6.7854 8.8368,-6.7854 4.15539,0 7.4166,2.6826 7.88999,6.7854 l -16.72679,0 m -0.1052,3.3664 17.25279,0 c 3.156,0 4.2606,-10e-6 4.2606,-2.4196 0,-5.7334 -4.7866,-11.2564 -12.57139,-11.2564 -7.9426,0 -13.413,5.1022 -13.413,12.4662 0,7.67959 4.9444,12.5714 12.887,12.5714 3.47159,0 7.2062,-0.8416 10.73039,-2.5774 1.5254,-0.7364 2.2618,-1.5254 2.2618,-2.5774 0,-0.9468 -0.789,-1.6832 -1.7884,-1.6832 -2.31439,0 -5.6282,3.2086 -10.83559,3.2086 -5.3126,0 -8.5212,-2.78781 -8.7842,-7.7322"
         style="font-size:52.59999847px;fill:#ff00ff"
         id="path3028" />
      <path
         d="m 353.97334,741.64636 0,-10.6252 c 3.41899,-3.8924 6.312,-5.9438 9.1524,-5.9438 1.99879,0 3.1034,1.578 4.471,1.578 1.10459,0 2.2618,-1.1572 2.2618,-2.4196 0,-1.8936 -1.89361,-3.3138 -5.1022,-3.3138 -4.1028,0 -7.57441,1.9988 -10.783,6.049 l 0,-4.3658 c 0,-0.7364 -0.4734,-1.052 -1.4202,-1.052 l -5.8386,0 c -1.3676,0 -2.0514,0.5786 -2.0514,1.7884 0,1.315 0.7364,1.841 2.4196,1.841 0.263,0 0.7364,0 1.315,0 l 1.7358,0 0,16.4638 -4.5236,0 c -1.4202,0 -2.1566,0.5786 -2.1566,1.7884 0,1.2098 0.7364,1.841 2.104,1.841 l 16.7794,0 c 1.52539,0 2.104,-0.3682 2.104,-1.841 0,-1.2624 -0.63121,-1.7884 -1.9462,-1.7884 l -8.5212,0"
         style="font-size:52.59999847px;fill:#ff00ff"
         id="path3030" />
      <path
         d="m 393.97892,742.01456 0.263,1.578 c 0.2104,1.1046 0.8416,1.6832 1.7884,1.6832 l 4.0502,0 c 1.3676,0 2.0514,-0.6312 2.0514,-1.841 0,-1.5254 -0.8942,-1.7884 -3.0508,-1.7884 l -1.315,0 0,-11.6246 c 0,-6.2068 -3.05081,-9.0998 -9.6258,-9.0998 -5.786,0 -9.5732,1.841 -9.5732,3.6294 0,1.315 0.789,2.1566 1.7358,2.1566 1.9988,0 4.1028,-2.1566 7.7322,-2.1566 3.94499,0 5.786,1.841 5.786,5.786 0,0.0526 0,0.1052 0,0.1578 -2.104,-0.526 -4.1028,-0.789 -6.1016,-0.789 -7.62699,0 -11.8876,3.2086 -11.8876,8.5212 0,4.52359 3.3664,7.6796 8.5212,7.6796 3.52419,0 6.838,-1.36761 9.6258,-3.8924 m -0.1578,-8.1004 0,2.7878 c 0,2.31439 -4.20801,5.26 -8.8368,5.26 -2.9982,0 -5.0496,-1.73581 -5.0496,-3.9976 0,-2.893 2.9982,-4.9444 8.4686,-4.9444 1.8936,0 3.682,0.3156 5.4178,0.8942"
         style="font-size:52.59999847px;fill:#ff00ff"
         id="path3032" />
      <path
         d="m 410.6827,733.75636 c 0,-5.1022 3.2612,-8.4686 8.1004,-8.4686 4.78659,0 8.1004,3.4716 8.1004,8.2056 0,4.73399 -3.41901,8.3108 -8.153,8.3108 -4.5762,0 -8.0478,-3.20861 -8.0478,-8.0478 m 16.832,11.5194 4.8918,0 c 1.1046,0 1.841,-0.6838 1.841,-1.841 0,-1.315 -0.7364,-1.7884 -2.367,-1.7884 -0.3682,0 -0.789,0 -1.1572,0 l 0,-28.93 c 0,-0.7364 -0.4734,-1.052 -1.4728,-1.052 l -5.26,0 c -1.3676,0 -2.0514,0.6312 -2.0514,1.841 0,1.6832 1.1046,1.841 3.5242,1.841 l 1.3676,0 0,9.8362 c -1.9988,-2.4722 -4.8392,-3.682 -8.3634,-3.682 -6.94319,0 -12.2032,5.3652 -12.2032,12.1506 0,7.20619 4.94441,12.2558 11.4142,12.2558 3.6294,0 6.7854,-1.47281 8.8368,-4.0502 l 0,2.104 c 0,0.8942 0.2104,1.315 0.9994,1.315"
         style="font-size:52.59999847px;fill:#ff00ff"
         id="path3034" />
      <path
         d="m 442.32488,733.75636 c 0,-5.1022 3.26121,-8.4686 8.1004,-8.4686 4.7866,0 8.1004,3.4716 8.1004,8.2056 0,4.73399 -3.419,8.3108 -8.153,8.3108 -4.57619,0 -8.0478,-3.20861 -8.0478,-8.0478 m 16.832,11.5194 4.8918,0 c 1.1046,0 1.841,-0.6838 1.841,-1.841 0,-1.315 -0.7364,-1.7884 -2.367,-1.7884 -0.3682,0 -0.789,0 -1.1572,0 l 0,-28.93 c 0,-0.7364 -0.4734,-1.052 -1.4728,-1.052 l -5.26,0 c -1.3676,0 -2.0514,0.6312 -2.0514,1.841 0,1.6832 1.1046,1.841 3.5242,1.841 l 1.3676,0 0,9.8362 c -1.9988,-2.4722 -4.8392,-3.682 -8.3634,-3.682 -6.94319,0 -12.2032,5.3652 -12.2032,12.1506 0,7.20619 4.94441,12.2558 11.4142,12.2558 3.6294,0 6.7854,-1.47281 8.8368,-4.0502 l 0,2.104 c 0,0.8942 0.2104,1.315 0.9994,1.315"
         style="font-size:52.59999847px;fill:#ff00ff"
         id="path3036" />
      <path
         d="m 28.662062,792.30016 c -1.735798,0.78899 -2.63,1.1046 -2.63,2.4722 0,1.36759 0.999401,1.7358 2.63,2.4722 l 20.408799,9.5206 c 0.841599,0.36819 1.420201,0.6312 2.0514,0.6312 1.051999,0 1.6832,-0.63121 1.6832,-1.6306 0,-1.052 -0.736401,-1.68321 -2.104,-2.3144 l -18.146999,-8.6264 18.146999,-8.6264 c 1.367599,-0.6312 2.104,-1.20981 2.104,-2.2618 0,-0.9994 -0.631201,-1.6306 -1.6832,-1.6306 -0.578599,0 -1.209801,0.2104 -2.0514,0.6312 l -20.408799,9.3628"
         style="font-size:52.59999847px;fill:#ff00ff"
         id="path3038" />
      <path
         d="m 62.145249,807.39636 c -0.2104,0 -0.3682,0 -0.526,0 -2.103998,0 -2.9982,0.3156 -2.9982,1.78839 0,1.2098 0.683801,1.841 2.1566,1.841 0.683799,0 1.1572,0 1.3676,0 l 4.6814,0 c 1.946198,0 2.7352,-0.1052 2.7352,-1.841 0,-1.42019 -0.683802,-1.84099 -2.4722,-1.84099 -0.3156,0 -0.683801,0.0526 -1.1046,0.0526 l 0,-10.6778 c 0,-3.8398 3.576803,-6.1542 6.6802,-6.1542 3.366396,0 5.259999,2.0514 5.259999,6.1542 l 0,10.6778 c -0.315599,0 -0.5786,0 -0.8416,0 -1.840998,0 -2.5774,0.3682 -2.5774,1.78839 0,1.6832 0.736402,1.841 2.5774,1.841 l 5.6808,0 c 1.840998,0 2.7352,-0.3682 2.7352,-1.841 0,-1.31499 -0.789001,-1.78839 -2.4196,-1.78839 -0.368199,0 -0.789,0 -1.1572,0 l 0,-11.6246 c 0,-5.9438 -3.471605,-9.1524 -8.3634,-9.1524 -2.682597,0 -5.049602,1.1572 -7.521799,3.4716 l 0,-1.7358 c 0,-0.6312 -0.473401,-1.052 -1.4728,-1.052 l -2.4196,0 c -2.366998,0 -3.5242,0 -3.5242,1.7884 0,1.31499 0.736402,1.841 2.367,1.841 0.368199,0 0.789,0 1.1572,0 l 0,16.4638"
         style="font-size:52.59999847px;fill:#ff00ff"
         id="path3040" />
      <path
         d="m 94.786836,796.92896 c 0.999399,-4.2606 4.313204,-6.7854 8.836804,-6.7854 4.15539,0 7.4166,2.6826 7.89,6.7854 l -16.726804,0 m -0.1052,3.3664 17.252804,0 c 3.15599,0 4.2606,-10e-6 4.2606,-2.4196 0,-5.7334 -4.78661,-11.2564 -12.5714,-11.2564 -7.942596,0 -13.413004,5.1022 -13.413004,12.4662 0,7.67959 4.944408,12.57139 12.887004,12.57139 3.47159,0 7.2062,-0.8416 10.7304,-2.5774 1.52539,-0.73639 2.2618,-1.5254 2.2618,-2.57739 0,-0.9468 -0.78901,-1.6832 -1.7884,-1.6832 -2.3144,0 -5.62821,3.2086 -10.8356,3.2086 -5.312599,0 -8.521204,-2.78781 -8.784204,-7.7322"
         style="font-size:52.59999847px;fill:#ff00ff"
         id="path3042" />
      <path
         d="m 134.79242,797.98096 3.419,11.67719 c 0.4734,1.578 0.9994,2.2618 2.5248,2.2618 1.2098,0 1.7884,-0.4734 2.1566,-1.7358 l 5.786,-19.25159 c 1.6306,0 2.2092,-0.47341 2.2092,-1.841 0,-1.2098 -0.5786,-1.7884 -1.578,-1.7884 l -6.8906,0 c -1.6306,0 -2.2618,0.3156 -2.2618,1.7884 0,1.52539 0.8416,1.8936 2.9982,1.8936 0.526,0 1.1046,0 1.7884,-0.0526 l -4.3132,15.4118 -3.2086,-10.6778 c -0.4734,-1.578 -0.9994,-2.2618 -2.5248,-2.2618 -1.2098,0 -1.7884,0.526 -2.1566,1.7358 l -3.3138,11.2038 -4.4184,-15.4118 c 0.6312,0.0526 1.1572,0.0526 1.6832,0.0526 2.2618,0 3.156,-0.36821 3.156,-1.8936 0,-1.5254 -0.6838,-1.7884 -2.3144,-1.7884 l -6.8906,0 c -1.315,0 -1.9462,0.6312 -1.9462,1.7884 0,1.36759 0.6312,1.841 2.2618,1.841 l 5.8912,18.72559 c 0.4734,1.578 0.9994,2.2618 2.5248,2.2618 1.1572,0 1.841,-0.526 2.1566,-1.7358 l 3.2612,-12.20319"
         style="font-size:52.59999847px;fill:#ff00ff"
         id="path3044" />
      <path
         d="m 182.47761,822.49255 -31.6652,0 c -0.6838,0 -1.1572,0.42081 -1.1572,1.052 l 0,1.9462 c 0,0.7364 0.4734,1.2624 1.1572,1.2624 l 31.6652,0 c 0.6312,0 1.2098,-0.5786 1.2098,-1.2624 l 0,-1.9462 c 0,-0.68379 -0.4208,-1.052 -1.2098,-1.052"
         style="font-size:52.59999847px;fill:#ff00ff"
         id="path3046" />
      <path
         d="m 191.7648,801.55776 0,-12.3084 c 0,-0.1052 0,-0.1578 0,-0.263 0,-1.1572 -0.0526,-1.6832 -1.4728,-1.6832 l -3.8924,0 c -1.3676,0 -2.0514,0.5786 -2.0514,1.7884 0,1.31499 0.7364,1.841 2.367,1.841 0.3682,0 0.789,0 1.1572,0 l 0,11.572 c 0,5.99639 2.8404,9.04719 8.4686,9.04719 3.1034,0 5.3126,-1.2098 7.9952,-3.31379 l 0,1.73579 c 0,0.6312 0.4734,1.052 1.4728,1.052 l 3.8924,0 c 1.3676,0 2.0514,-0.6312 2.0514,-1.841 0,-1.31499 -0.7364,-1.78839 -2.367,-1.78839 -0.3682,0 -0.789,0 -1.1572,0 l 0,-17.621 c 0,-1.5254 0,-2.4722 -1.7884,-2.4722 l -5.4704,0 c -1.4202,0 -2.0514,0.526 -2.0514,1.7884 0,1.26239 0.526,1.841 1.8936,1.841 l 3.5242,0 0,10.6252 c 0,3.78719 -3.3138,6.2068 -6.7854,6.2068 -3.9976,0 -5.786,-1.99881 -5.786,-6.2068"
         style="font-size:52.59999847px;fill:#ff00ff"
         id="path3048" />
      <path
         d="m 218.67298,809.18475 c 0,1.6306 0.6838,2.4722 1.8936,2.4722 0.5786,0 1.4202,-0.4208 2.63,-1.2098 2.893,0.7364 5.4704,1.1572 7.7848,1.1572 6.41719,0 10.0466,-3.2086 10.0466,-7.62699 0,-5.0496 -3.52421,-7.0484 -10.3096,-7.2062 -5.04959,-0.1052 -7.9952,-0.36821 -7.9952,-3.1034 0,-2.0514 1.9462,-3.7872 5.3652,-3.7872 2.6826,0 4.5762,0.6312 6.5224,2.367 1.5254,1.36759 2.0514,2.6826 3.2086,2.6826 1.2624,0 1.7358,-0.89421 1.7358,-2.5774 l 0,-2.9982 c 0,-1.7358 -0.5786,-2.5774 -1.7358,-2.5774 -1.3676,0 -1.8936,0.9994 -2.63,0.9994 -0.7364,0 -2.7878,-1.1572 -6.5224,-1.1572 -6.36459,0 -9.8888,2.9456 -9.8888,7.2062 0,4.57619 3.73461,7.101 10.7304,7.101 0.7364,0 1.2098,0 1.4728,0 3.8924,0 5.786,0.7364 5.786,3.3664 0,2.31439 -2.3144,3.9976 -6.049,3.9976 -3.4716,0 -6.4172,-1.26241 -7.7848,-3.0508 -0.9994,-1.315 -0.8416,-2.7352 -2.4196,-2.7352 -1.3676,0 -1.841,0.7364 -1.841,2.104 l 0,4.57619"
         style="font-size:52.59999847px;fill:#ff00ff"
         id="path3050" />
      <path
         d="m 252.99778,796.92896 c 0.9994,-4.2606 4.3132,-6.7854 8.8368,-6.7854 4.15539,0 7.4166,2.6826 7.89,6.7854 l -16.7268,0 m -0.1052,3.3664 17.2528,0 c 3.15599,0 4.2606,-10e-6 4.2606,-2.4196 0,-5.7334 -4.78661,-11.2564 -12.5714,-11.2564 -7.94259,0 -13.413,5.1022 -13.413,12.4662 0,7.67959 4.94441,12.57139 12.887,12.57139 3.47159,0 7.2062,-0.8416 10.7304,-2.5774 1.5254,-0.73639 2.2618,-1.5254 2.2618,-2.57739 0,-0.9468 -0.789,-1.6832 -1.7884,-1.6832 -2.3144,0 -5.62821,3.2086 -10.8356,3.2086 -5.3126,0 -8.5212,-2.78781 -8.7842,-7.7322"
         style="font-size:52.59999847px;fill:#ff00ff"
         id="path3052" />
      <path
         d="m 290.68896,807.39636 0,-10.6252 c 3.41899,-3.8924 6.312,-5.9438 9.1524,-5.9438 1.9988,0 3.1034,1.578 4.471,1.578 1.1046,0 2.2618,-1.15721 2.2618,-2.4196 0,-1.8936 -1.89361,-3.3138 -5.1022,-3.3138 -4.1028,0 -7.5744,1.9988 -10.783,6.049 l 0,-4.3658 c 0,-0.7364 -0.4734,-1.052 -1.4202,-1.052 l -5.8386,0 c -1.3676,0 -2.0514,0.5786 -2.0514,1.7884 0,1.31499 0.7364,1.841 2.4196,1.841 0.263,0 0.7364,0 1.315,0 l 1.7358,0 0,16.4638 -4.5236,0 c -1.4202,0 -2.1566,0.5786 -2.1566,1.78839 0,1.2098 0.7364,1.841 2.104,1.841 l 16.7794,0 c 1.5254,0 2.104,-0.3682 2.104,-1.841 0,-1.26239 -0.6312,-1.78839 -1.9462,-1.78839 l -8.5212,0"
         style="font-size:52.59999847px;fill:#ff00ff"
         id="path3054" />
      <path
         d="m 336.27015,797.40236 c 1.7358,-0.789 2.63,-1.10461 2.63,-2.4722 0,-1.3676 -0.9994,-1.73581 -2.63,-2.4722 l -20.40879,-9.5206 c -0.8416,-0.3682 -1.42021,-0.6312 -2.0514,-0.6312 -1.052,0 -1.6832,0.6312 -1.6832,1.6306 0,1.05199 0.789,1.6306 2.1566,2.2618 l 18.09439,8.679 -18.09439,8.5738 c -1.3676,0.63119 -2.1566,1.2624 -2.1566,2.3144 0,0.99939 0.6312,1.6306 1.6832,1.6306 0.57859,0 1.2098,-0.21041 2.0514,-0.6312 l 20.40879,-9.3628"
         style="font-size:52.59999847px;fill:#ff00ff"
         id="path3056" />
      <path
         d="m 376.88392,809.18475 c 0,1.6306 0.6838,2.4722 1.8936,2.4722 0.5786,0 1.4202,-0.4208 2.63,-1.2098 2.893,0.7364 5.4704,1.1572 7.7848,1.1572 6.41719,0 10.0466,-3.2086 10.0466,-7.62699 0,-5.0496 -3.52421,-7.0484 -10.3096,-7.2062 -5.0496,-0.1052 -7.9952,-0.36821 -7.9952,-3.1034 0,-2.0514 1.9462,-3.7872 5.3652,-3.7872 2.6826,0 4.5762,0.6312 6.5224,2.367 1.5254,1.36759 2.0514,2.6826 3.2086,2.6826 1.2624,0 1.7358,-0.89421 1.7358,-2.5774 l 0,-2.9982 c 0,-1.7358 -0.5786,-2.5774 -1.7358,-2.5774 -1.3676,0 -1.8936,0.9994 -2.63,0.9994 -0.7364,0 -2.78781,-1.1572 -6.5224,-1.1572 -6.3646,0 -9.8888,2.9456 -9.8888,7.2062 0,4.57619 3.73461,7.101 10.7304,7.101 0.7364,0 1.2098,0 1.4728,0 3.89239,0 5.786,0.7364 5.786,3.3664 0,2.31439 -2.31441,3.9976 -6.049,3.9976 -3.4716,0 -6.4172,-1.26241 -7.7848,-3.0508 -0.9994,-1.315 -0.8416,-2.7352 -2.4196,-2.7352 -1.3676,0 -1.841,0.7364 -1.841,2.104 l 0,4.57619"
         style="font-size:52.59999847px;fill:#ff00ff"
         id="path3058" />
      <path
         d="m 413.2601,801.55776 0,-12.3084 c 0,-0.1052 0,-0.1578 0,-0.263 0,-1.1572 -0.0526,-1.6832 -1.4728,-1.6832 l -3.8924,0 c -1.3676,0 -2.0514,0.5786 -2.0514,1.7884 0,1.31499 0.7364,1.841 2.367,1.841 0.3682,0 0.789,0 1.1572,0 l 0,11.572 c 0,5.99639 2.84041,9.04719 8.4686,9.04719 3.1034,0 5.3126,-1.2098 7.9952,-3.31379 l 0,1.73579 c 0,0.6312 0.4734,1.052 1.4728,1.052 l 3.8924,0 c 1.3676,0 2.0514,-0.6312 2.0514,-1.841 0,-1.31499 -0.7364,-1.78839 -2.367,-1.78839 -0.3682,0 -0.789,0 -1.1572,0 l 0,-17.621 c 0,-1.5254 0,-2.4722 -1.7884,-2.4722 l -5.4704,0 c -1.4202,0 -2.0514,0.526 -2.0514,1.7884 0,1.26239 0.526,1.841 1.8936,1.841 l 3.5242,0 0,10.6252 c 0,3.78719 -3.3138,6.2068 -6.7854,6.2068 -3.9976,0 -5.786,-1.99881 -5.786,-6.2068"
         style="font-size:52.59999847px;fill:#ff00ff"
         id="path3060" />
      <path
         d="m 442.32488,799.50636 c 0,-5.1022 3.26121,-8.4686 8.1004,-8.4686 4.7866,0 8.1004,3.4716 8.1004,8.2056 0,4.73399 -3.419,8.3108 -8.153,8.3108 -4.57619,0 -8.0478,-3.20861 -8.0478,-8.0478 m 16.832,11.51939 4.8918,0 c 1.1046,0 1.841,-0.6838 1.841,-1.841 0,-1.31499 -0.7364,-1.78839 -2.367,-1.78839 -0.3682,0 -0.789,0 -1.1572,0 l 0,-28.93 c 0,-0.7364 -0.4734,-1.052 -1.4728,-1.052 l -5.26,0 c -1.3676,0 -2.0514,0.6312 -2.0514,1.841 0,1.68319 1.1046,1.841 3.5242,1.841 l 1.3676,0 0,9.8362 c -1.9988,-2.4722 -4.8392,-3.682 -8.3634,-3.682 -6.94319,0 -12.2032,5.3652 -12.2032,12.1506 0,7.20619 4.94441,12.25579 11.4142,12.25579 3.6294,0 6.7854,-1.4728 8.8368,-4.05019 l 0,2.10399 c 0,0.8942 0.2104,1.315 0.9994,1.315"
         style="font-size:52.59999847px;fill:#ff00ff"
         id="path3062" />
      <path
         d="m 496.47989,799.19076 c 0,-7.101 -5.26001,-12.4662 -13.413,-12.4662 -8.15299,0 -13.4656,5.3126 -13.4656,12.4662 0,7.15359 5.31261,12.46619 13.4656,12.46619 8.15299,0 13.413,-5.3126 13.413,-12.46619 m -13.413,8.8894 c -5.31259,0 -8.9946,-3.78721 -8.9946,-8.8894 0,-5.1022 3.68201,-8.942 8.9946,-8.942 5.3126,0 8.9946,3.8398 8.9946,8.942 0,5.15479 -3.682,8.8894 -8.9946,8.8894"
         style="font-size:52.59999847px;fill:#ff00ff"
         id="path3064" />
    </g>
    <g
       style="font-size:25.04329872px;font-style:normal;font-variant:normal;font-weight:normal;font-stretch:normal;line-height:125%;letter-spacing:0px;word-spacing:0px;fill:#999999;fill-opacity:1;stroke:none;font-family:Ubuntu;-inkscape-font-specification:Ubuntu"
       id="text2991">
      <path
         d="m 34.117252,1035.076 c -0.350007,0 -0.73334,-0.01 -1.15,-0.025 -0.400006,-0.017 -0.808339,-0.042 -1.225,-0.075 -0.400004,-0.033 -0.800004,-0.075 -1.2,-0.125 -0.400003,-0.05 -0.76667,-0.1166 -1.1,-0.2 l 0,-16.8 c 0.33333,-0.083 0.699997,-0.15 1.1,-0.2 0.399996,-0.05 0.799996,-0.092 1.2,-0.125 0.416661,-0.033 0.824994,-0.058 1.225,-0.075 0.399994,-0.017 0.774993,-0.025 1.125,-0.025 0.999992,0 1.933324,0.075 2.8,0.225 0.883322,0.15 1.641655,0.4084 2.275,0.775 0.649987,0.35 1.15832,0.8167 1.525,1.4 0.366652,0.5834 0.549986,1.3 0.55,2.15 -1.4e-5,0.95 -0.225014,1.7334 -0.675,2.35 -0.450013,0.6 -1.050013,1.05 -1.8,1.35 1.016654,0.3 1.824986,0.775 2.425,1.425 0.599985,0.65 0.899985,1.5667 0.9,2.75 -1.5e-5,1.7334 -0.641681,3.0417 -1.925,3.925 -1.266679,0.8667 -3.283343,1.3 -6.05,1.3 m -2.275,-8.225 0,6.1 c 0.183328,0.017 0.399995,0.033 0.65,0.05 0.216661,0.017 0.466661,0.033 0.75,0.05 0.299993,0 0.64166,0 1.025,0 0.716659,0 1.391658,-0.042 2.025,-0.125 0.64999,-0.1 1.216656,-0.2666 1.7,-0.5 0.483322,-0.2333 0.866655,-0.5583 1.15,-0.975 0.299987,-0.4166 0.449987,-0.9416 0.45,-1.575 -1.3e-5,-0.5666 -0.108346,-1.0416 -0.325,-1.425 -0.216679,-0.4 -0.533345,-0.7166 -0.95,-0.95 -0.400011,-0.2333 -0.883344,-0.4 -1.45,-0.5 -0.566676,-0.1 -1.200009,-0.15 -1.9,-0.15 l -3.125,0 m 0,-1.95 2.55,0 c 0.599992,0 1.166658,-0.042 1.7,-0.125 0.533324,-0.083 0.991656,-0.2333 1.375,-0.45 0.399989,-0.2166 0.708322,-0.5 0.925,-0.85 0.233322,-0.35 0.349988,-0.7916 0.35,-1.325 -1.2e-5,-0.5 -0.116678,-0.9166 -0.35,-1.25 -0.233345,-0.35 -0.558344,-0.625 -0.975,-0.825 -0.40001,-0.2166 -0.87501,-0.375 -1.425,-0.475 -0.550009,-0.1 -1.133341,-0.15 -1.75,-0.15 -0.616673,0 -1.100006,0.01 -1.45,0.025 -0.350006,0.017 -0.666672,0.042 -0.95,0.075 l 0,5.35"
         style="font-size:25px;fill:#999999"
         id="path3067" />
      <path
         d="m 50.131705,1028.501 c -0.450007,0 -0.891673,0.017 -1.325,0.05 -0.416672,0.017 -0.791672,0.067 -1.125,0.15 l 0,4.475 c 0.09999,0.017 0.241662,0.033 0.425,0.05 0.199995,0.017 0.408328,0.033 0.625,0.05 0.233327,0 0.466661,0.01 0.7,0.025 0.233327,0 0.44166,0 0.625,0 1.016659,0 1.799991,-0.1916 2.35,-0.575 0.54999,-0.3833 0.82499,-1 0.825,-1.85 -10e-6,-0.4166 -0.09168,-0.775 -0.275,-1.075 -0.166676,-0.3 -0.400009,-0.5416 -0.7,-0.725 -0.283342,-0.2 -0.608342,-0.3416 -0.975,-0.425 -0.366675,-0.1 -0.750007,-0.15 -1.15,-0.15 m -4.775,-6.575 2.325,0 0,4.975 c 0.283328,-0.067 0.691661,-0.1333 1.225,-0.2 0.549994,-0.067 1.074993,-0.1 1.575,-0.1 0.683325,0 1.333325,0.083 1.95,0.25 0.616657,0.15 1.158323,0.4 1.625,0.75 0.466655,0.3334 0.833322,0.775 1.1,1.325 0.283321,0.5334 0.424987,1.175 0.425,1.925 -1.3e-5,0.7834 -0.133346,1.45 -0.4,2 -0.266679,0.55 -0.641678,1 -1.125,1.35 -0.483344,0.35 -1.066677,0.6 -1.75,0.75 -0.683342,0.1667 -1.433341,0.25 -2.25,0.25 -0.78334,0 -1.575005,-0.05 -2.375,-0.15 -0.800004,-0.083 -1.575003,-0.2166 -2.325,-0.4 l 0,-12.725 m 14.95,13 -2.325,0 0,-13 2.325,0 0,13"
         style="font-size:25px;fill:#999999"
         id="path3069" />
      <path
         d="m 68.538736,1037.351 c 0.183333,0.083 0.416666,0.1584 0.7,0.225 0.299998,0.083 0.591665,0.125 0.875,0.125 0.916664,0 1.63333,-0.2083 2.15,-0.625 0.516662,-0.4 0.983328,-1.0583 1.4,-1.975 -1.050005,-2 -2.033337,-4.1166 -2.95,-6.35 -0.900002,-2.25 -1.650001,-4.525 -2.25,-6.825 l 2.5,0 c 0.18333,0.75 0.399997,1.5584 0.65,2.425 0.266663,0.8667 0.558329,1.7584 0.875,2.675 0.316662,0.9167 0.658328,1.8334 1.025,2.75 0.366661,0.9167 0.749994,1.8 1.15,2.65 0.633326,-1.75 1.183326,-3.4833 1.65,-5.2 0.466658,-1.7166 0.908324,-3.4833 1.325,-5.3 l 2.4,0 c -0.600011,2.45 -1.266677,4.8084 -2,7.075 -0.733343,2.25 -1.525008,4.3584 -2.375,6.325 -0.333341,0.75 -0.68334,1.3917 -1.05,1.925 -0.350006,0.55 -0.741673,1 -1.175,1.35 -0.433338,0.35 -0.925004,0.6084 -1.475,0.775 -0.533337,0.1667 -1.141669,0.25 -1.825,0.25 -0.183335,0 -0.375002,-0.017 -0.575,-0.05 -0.200001,-0.017 -0.400001,-0.05 -0.6,-0.1 -0.183334,-0.033 -0.358334,-0.075 -0.525,-0.125 -0.15,-0.05 -0.258333,-0.092 -0.325,-0.125 l 0.425,-1.875 m 6.075,-17.525 c -1.050006,0 -1.908338,-0.2666 -2.575,-0.8 -0.650003,-0.5333 -1.04167,-1.275 -1.175,-2.225 l 1.775,-0.475 c 0.133329,0.5334 0.358328,0.9667 0.675,1.3 0.316661,0.3334 0.749994,0.5 1.3,0.5 0.549993,0 0.983326,-0.1666 1.3,-0.5 0.316658,-0.3333 0.541658,-0.7666 0.675,-1.3 l 1.75,0.475 c -0.133344,0.95 -0.52501,1.6917 -1.175,2.225 -0.650008,0.5334 -1.500008,0.8 -2.55,0.8"
         style="font-size:25px;fill:#999999"
         id="path3071" />
      <path
         d="m 96.277798,1023.876 -5.725,0 0,11.05 -2.325,0 0,-13 8.05,0 0,1.95"
         style="font-size:25px;fill:#999999"
         id="path3073" />
      <path
         d="m 97.689127,1037.351 c 0.183332,0.083 0.416665,0.1584 0.7,0.225 0.299998,0.083 0.591664,0.125 0.875,0.125 0.916663,0 1.633333,-0.2083 2.150003,-0.625 0.51666,-0.4 0.98332,-1.0583 1.4,-1.975 -1.05001,-2 -2.03334,-4.1166 -2.950003,-6.35 -0.900002,-2.25 -1.650001,-4.525 -2.25,-6.825 l 2.500003,0 c 0.18333,0.75 0.39999,1.5584 0.65,2.425 0.26666,0.8667 0.55833,1.7584 0.875,2.675 0.31666,0.9167 0.65832,1.8334 1.025,2.75 0.36666,0.9167 0.74999,1.8 1.15,2.65 0.63332,-1.75 1.18332,-3.4833 1.65,-5.2 0.46665,-1.7166 0.90832,-3.4833 1.325,-5.3 l 2.4,0 c -0.60001,2.45 -1.26668,4.8084 -2,7.075 -0.73335,2.25 -1.52501,4.3584 -2.375,6.325 -0.33334,0.75 -0.68334,1.3917 -1.05,1.925 -0.35001,0.55 -0.74168,1 -1.175,1.35 -0.43334,0.35 -0.92501,0.6084 -1.475,0.775 -0.53334,0.1667 -1.141673,0.25 -1.825003,0.25 -0.183336,0 -0.375002,-0.017 -0.575,-0.05 -0.200002,-0.017 -0.400002,-0.05 -0.6,-0.1 -0.183334,-0.033 -0.358334,-0.075 -0.525,-0.125 -0.150001,-0.05 -0.258334,-0.092 -0.325,-0.125 l 0.425,-1.875"
         style="font-size:25px;fill:#999999"
         id="path3075" />
      <path
         d="m 115.45788,1023.876 c -1e-5,0.55 -0.0167,1.1417 -0.05,1.775 -0.0167,0.6167 -0.0583,1.2417 -0.125,1.875 -0.0667,0.6167 -0.15834,1.2334 -0.275,1.85 -0.11668,0.6 -0.26668,1.1667 -0.45,1.7 -0.18334,0.5334 -0.41668,1.0334 -0.7,1.5 -0.26667,0.4667 -0.60001,0.8834 -1,1.25 -0.40001,0.35 -0.86667,0.65 -1.4,0.9 -0.53334,0.2334 -1.15834,0.3834 -1.875,0.45 l -0.325,-1.95 c 0.81666,-0.1666 1.45833,-0.475 1.925,-0.925 0.48333,-0.45 0.86666,-1 1.15,-1.65 0.24999,-0.5666 0.43333,-1.2083 0.55,-1.925 0.11666,-0.7166 0.19999,-1.4583 0.25,-2.225 0.05,-0.7833 0.075,-1.5666 0.075,-2.35 0.0167,-0.7833 0.025,-1.525 0.025,-2.225 l 8.65,0 0,13 -2.325,0 0,-11.05 -4.1,0"
         style="font-size:25px;fill:#999999"
         id="path3077" />
      <path
         d="m 130.79928,1033.301 c 0.98333,0 1.75833,-0.1916 2.325,-0.575 0.56666,-0.3833 0.84999,-1 0.85,-1.85 -1e-5,-0.4166 -0.0833,-0.775 -0.25,-1.075 -0.16667,-0.3 -0.40001,-0.5416 -0.7,-0.725 -0.28334,-0.2 -0.61667,-0.3416 -1,-0.425 -0.38334,-0.1 -0.79167,-0.15 -1.225,-0.15 -0.45,0 -0.91667,0.017 -1.4,0.05 -0.46667,0.017 -0.86667,0.067 -1.2,0.15 l 0,4.475 c 0.1,0.017 0.25,0.033 0.45,0.05 0.2,0.017 0.41666,0.033 0.65,0.05 0.25,0 0.5,0.01 0.75,0.025 0.26666,0 0.51666,0 0.75,0 m -4.925,1.35 0,-12.725 2.325,0 0,4.975 c 0.13333,-0.033 0.30833,-0.067 0.525,-0.1 0.23333,-0.033 0.475,-0.067 0.725,-0.1 0.26666,-0.033 0.54166,-0.058 0.825,-0.075 0.28333,-0.017 0.55,-0.025 0.8,-0.025 0.71666,0 1.39166,0.083 2.025,0.25 0.63333,0.15 1.18333,0.4 1.65,0.75 0.48332,0.3334 0.86666,0.775 1.15,1.325 0.28332,0.5334 0.42499,1.175 0.425,1.925 -10e-6,0.7834 -0.13334,1.45 -0.4,2 -0.26668,0.55 -0.65001,1 -1.15,1.35 -0.50001,0.35 -1.10001,0.6 -1.8,0.75 -0.68334,0.1667 -1.45,0.25 -2.3,0.25 -0.83334,0 -1.65,-0.05 -2.45,-0.15 -0.8,-0.083 -1.58333,-0.2166 -2.35,-0.4"
         style="font-size:25px;fill:#999999"
         id="path3079" />
      <path
         d="m 149.70788,1034.926 -2.325,0 0,-5.75 -6,0 0,5.75 -2.325,0 0,-13 2.325,0 0,5.3 6,0 0,-5.3 2.325,0 0,13"
         style="font-size:25px;fill:#999999"
         id="path3081" />
      <path
         d="m 156.03131,1034.926 -2.325,0 0,-13 2.325,0 0,13 m -1.175,-15.35 c -0.41667,0 -0.775,-0.1333 -1.075,-0.4 -0.28333,-0.2833 -0.425,-0.6583 -0.425,-1.125 0,-0.4666 0.14167,-0.8333 0.425,-1.1 0.3,-0.2833 0.65833,-0.425 1.075,-0.425 0.41667,0 0.76667,0.1417 1.05,0.425 0.3,0.2667 0.45,0.6334 0.45,1.1 0,0.4667 -0.15,0.8417 -0.45,1.125 -0.28333,0.2667 -0.63333,0.4 -1.05,0.4"
         style="font-size:25px;fill:#999999"
         id="path3083" />
    </g>
    <g
       style="font-size:24.28185844px;font-style:normal;font-variant:normal;font-weight:normal;font-stretch:normal;line-height:125%;letter-spacing:0px;word-spacing:0px;fill:#4d4d4d;fill-opacity:1;stroke:none;font-family:Ubuntu;-inkscape-font-specification:Ubuntu"
       id="text2995">
      <path
         d="m 370.06859,1015.714 c 0.68333,0 1.26666,0.05 1.75,0.15 0.49999,0.1 0.84999,0.1917 1.05,0.275 l -0.425,2 c -0.20001,-0.1 -0.48334,-0.1916 -0.85,-0.275 -0.36667,-0.1 -0.81667,-0.15 -1.35,-0.15 -1.08334,0 -1.84167,0.3 -2.275,0.9 -0.43334,0.5834 -0.65,1.375 -0.65,2.375 l 0,1.125 5,0 0,1.95 -5,0 0,11.05 -2.325,0 0,-14.175 c 0,-1.6666 0.40833,-2.95 1.225,-3.85 0.81666,-0.9166 2.1,-1.375 3.85,-1.375"
         style="font-size:25px;fill:#4d4d4d"
         id="path3086" />
      <path
         d="m 379.06156,1033.439 c 0.54999,0 1.03333,-0.01 1.45,-0.025 0.43333,-0.033 0.79166,-0.083 1.075,-0.15 l 0,-3.875 c -0.16668,-0.083 -0.44168,-0.15 -0.825,-0.2 -0.36667,-0.067 -0.81667,-0.1 -1.35,-0.1 -0.35001,0 -0.72501,0.025 -1.125,0.075 -0.38334,0.05 -0.74167,0.1584 -1.075,0.325 -0.31667,0.15 -0.58334,0.3667 -0.8,0.65 -0.21667,0.2667 -0.325,0.625 -0.325,1.075 0,0.8334 0.26666,1.4167 0.8,1.75 0.53333,0.3167 1.25833,0.475 2.175,0.475 m -0.2,-11.65 c 0.93333,0 1.71666,0.125 2.35,0.375 0.64999,0.2334 1.16666,0.575 1.55,1.025 0.39999,0.4334 0.68332,0.9584 0.85,1.575 0.16666,0.6 0.24999,1.2667 0.25,2 l 0,8.125 c -0.20001,0.033 -0.48334,0.083 -0.85,0.15 -0.35001,0.05 -0.75001,0.1 -1.2,0.15 -0.45001,0.05 -0.94167,0.092 -1.475,0.125 -0.51667,0.05 -1.03334,0.075 -1.55,0.075 -0.73334,0 -1.40834,-0.075 -2.025,-0.225 -0.61667,-0.15 -1.15,-0.3833 -1.6,-0.7 -0.45,-0.3333 -0.8,-0.7667 -1.05,-1.3 -0.25,-0.5333 -0.375,-1.175 -0.375,-1.925 0,-0.7166 0.14167,-1.3333 0.425,-1.85 0.3,-0.5166 0.7,-0.9333 1.2,-1.25 0.5,-0.3166 1.08333,-0.55 1.75,-0.7 0.66666,-0.15 1.36666,-0.225 2.1,-0.225 0.23333,0 0.47499,0.017 0.725,0.05 0.24999,0.017 0.48333,0.05 0.7,0.1 0.23333,0.033 0.43332,0.067 0.6,0.1 0.16666,0.033 0.28332,0.058 0.35,0.075 l 0,-0.65 c -1e-5,-0.3833 -0.0417,-0.7583 -0.125,-1.125 -0.0833,-0.3833 -0.23334,-0.7166 -0.45,-1 -0.21667,-0.3 -0.51667,-0.5333 -0.9,-0.7 -0.36667,-0.1833 -0.85001,-0.275 -1.45,-0.275 -0.76667,0 -1.44167,0.058 -2.025,0.175 -0.56667,0.1 -0.99167,0.2084 -1.275,0.325 l -0.275,-1.925 c 0.3,-0.1333 0.8,-0.2583 1.5,-0.375 0.7,-0.1333 1.45833,-0.2 2.275,-0.2"
         style="font-size:25px;fill:#4d4d4d"
         id="path3088" />
      <path
         d="m 391.59867,1035.364 c -1.43334,-0.033 -2.45,-0.3417 -3.05,-0.925 -0.6,-0.5833 -0.9,-1.4917 -0.9,-2.725 l 0,-15.6 2.325,-0.4 0,15.625 c 0,0.3834 0.0333,0.7 0.1,0.95 0.0667,0.25 0.17499,0.45 0.325,0.6 0.14999,0.15 0.34999,0.2667 0.6,0.35 0.24999,0.067 0.55833,0.125 0.925,0.175 l -0.325,1.95"
         style="font-size:25px;fill:#4d4d4d"
         id="path3090" />
      <path
         d="m 398.93461,1033.439 c 0.54999,0 1.03332,-0.01 1.45,-0.025 0.43332,-0.033 0.79165,-0.083 1.075,-0.15 l 0,-3.875 c -0.16668,-0.083 -0.44168,-0.15 -0.825,-0.2 -0.36668,-0.067 -0.81668,-0.1 -1.35,-0.1 -0.35001,0 -0.72501,0.025 -1.125,0.075 -0.38334,0.05 -0.74167,0.1584 -1.075,0.325 -0.31667,0.15 -0.58334,0.3667 -0.8,0.65 -0.21667,0.2667 -0.32501,0.625 -0.325,1.075 -10e-6,0.8334 0.26666,1.4167 0.8,1.75 0.53333,0.3167 1.25832,0.475 2.175,0.475 m -0.2,-11.65 c 0.93332,0 1.71666,0.125 2.35,0.375 0.64999,0.2334 1.16665,0.575 1.55,1.025 0.39999,0.4334 0.68332,0.9584 0.85,1.575 0.16665,0.6 0.24999,1.2667 0.25,2 l 0,8.125 c -0.20001,0.033 -0.48335,0.083 -0.85,0.15 -0.35001,0.05 -0.75001,0.1 -1.2,0.15 -0.45001,0.05 -0.94168,0.092 -1.475,0.125 -0.51668,0.05 -1.03334,0.075 -1.55,0.075 -0.73334,0 -1.40834,-0.075 -2.025,-0.225 -0.61667,-0.15 -1.15001,-0.3833 -1.6,-0.7 -0.45001,-0.3333 -0.8,-0.7667 -1.05,-1.3 -0.25,-0.5333 -0.375,-1.175 -0.375,-1.925 0,-0.7166 0.14166,-1.3333 0.425,-1.85 0.3,-0.5166 0.69999,-0.9333 1.2,-1.25 0.49999,-0.3166 1.08333,-0.55 1.75,-0.7 0.66666,-0.15 1.36666,-0.225 2.1,-0.225 0.23332,0 0.47499,0.017 0.725,0.05 0.24999,0.017 0.48332,0.05 0.7,0.1 0.23332,0.033 0.43332,0.067 0.6,0.1 0.16665,0.033 0.28332,0.058 0.35,0.075 l 0,-0.65 c -10e-6,-0.3833 -0.0417,-0.7583 -0.125,-1.125 -0.0833,-0.3833 -0.23334,-0.7166 -0.45,-1 -0.21668,-0.3 -0.51668,-0.5333 -0.9,-0.7 -0.36668,-0.1833 -0.85001,-0.275 -1.45,-0.275 -0.76667,0 -1.44167,0.058 -2.025,0.175 -0.56667,0.1 -0.99167,0.2084 -1.275,0.325 l -0.275,-1.925 c 0.29999,-0.1333 0.79999,-0.2583 1.5,-0.375 0.69999,-0.1333 1.45832,-0.2 2.275,-0.2"
         style="font-size:25px;fill:#4d4d4d"
         id="path3092" />
      <path
         d="m 407.57172,1022.489 c 0.53333,-0.1333 1.24166,-0.275 2.125,-0.425 0.88332,-0.15 1.89999,-0.225 3.05,-0.225 1.03332,0 1.89165,0.15 2.575,0.45 0.68332,0.2834 1.22499,0.6917 1.625,1.225 0.41665,0.5167 0.70832,1.1417 0.875,1.875 0.16665,0.7334 0.24998,1.5417 0.25,2.425 l 0,7.3 -2.325,0 0,-6.8 c -10e-6,-0.8 -0.0583,-1.4833 -0.175,-2.05 -0.10001,-0.5666 -0.27501,-1.025 -0.525,-1.375 -0.25001,-0.35 -0.58335,-0.6 -1,-0.75 -0.41668,-0.1666 -0.93334,-0.25 -1.55,-0.25 -0.25001,0 -0.50834,0.01 -0.775,0.025 -0.26668,0.017 -0.52501,0.042 -0.775,0.075 -0.23334,0.017 -0.45001,0.042 -0.65,0.075 -0.18334,0.033 -0.31667,0.058 -0.4,0.075 l 0,10.975 -2.325,0 0,-12.625"
         style="font-size:25px;fill:#4d4d4d"
         id="path3094" />
      <path
         d="m 424.95219,1033.439 c 0.94999,0 1.64999,-0.125 2.1,-0.375 0.46665,-0.25 0.69999,-0.65 0.7,-1.2 -10e-6,-0.5666 -0.22501,-1.0166 -0.675,-1.35 -0.45001,-0.3333 -1.19168,-0.7083 -2.225,-1.125 -0.50001,-0.2 -0.98334,-0.4 -1.45,-0.6 -0.45001,-0.2166 -0.84167,-0.4666 -1.175,-0.75 -0.33334,-0.2833 -0.60001,-0.625 -0.8,-1.025 -0.20001,-0.4 -0.30001,-0.8916 -0.3,-1.475 -10e-6,-1.15 0.42499,-2.0583 1.275,-2.725 0.84999,-0.6833 2.00832,-1.025 3.475,-1.025 0.36666,0 0.73332,0.025 1.1,0.075 0.36665,0.033 0.70832,0.083 1.025,0.15 0.31665,0.05 0.59165,0.1084 0.825,0.175 0.24999,0.067 0.44165,0.125 0.575,0.175 l -0.425,2 c -0.25001,-0.1333 -0.64168,-0.2666 -1.175,-0.4 -0.53335,-0.15 -1.17501,-0.225 -1.925,-0.225 -0.65001,0 -1.21668,0.1334 -1.7,0.4 -0.48334,0.25 -0.72501,0.65 -0.725,1.2 -10e-6,0.2834 0.05,0.5334 0.15,0.75 0.11666,0.2167 0.28332,0.4167 0.5,0.6 0.23332,0.1667 0.51666,0.325 0.85,0.475 0.33332,0.15 0.73332,0.3084 1.2,0.475 0.61665,0.2334 1.16665,0.4667 1.65,0.7 0.48332,0.2167 0.89165,0.475 1.225,0.775 0.34999,0.3 0.61665,0.6667 0.8,1.1 0.18332,0.4167 0.27498,0.9334 0.275,1.55 -2e-5,1.2 -0.45001,2.1083 -1.35,2.725 -0.88335,0.6167 -2.15001,0.925 -3.8,0.925 -1.15001,0 -2.05001,-0.1 -2.7,-0.3 -0.65001,-0.1833 -1.09167,-0.325 -1.325,-0.425 l 0.425,-2 c 0.26666,0.1 0.69166,0.25 1.275,0.45 0.58333,0.2 1.35832,0.3 2.325,0.3"
         style="font-size:25px;fill:#4d4d4d"
         id="path3096" />
      <path
         d="m 435.235,1022.114 4.925,0 0,1.95 -4.925,0 0,6 c -1e-5,0.65 0.05,1.1917 0.15,1.625 0.1,0.4167 0.24999,0.75 0.45,1 0.19999,0.2333 0.44999,0.4 0.75,0.5 0.29999,0.1 0.64999,0.15 1.05,0.15 0.69999,0 1.25832,-0.075 1.675,-0.225 0.43332,-0.1667 0.73332,-0.2833 0.9,-0.35 l 0.45,1.925 c -0.23335,0.1167 -0.64168,0.2583 -1.225,0.425 -0.58334,0.1833 -1.25001,0.275 -2,0.275 -0.88334,0 -1.61667,-0.1083 -2.2,-0.325 -0.56667,-0.2333 -1.02501,-0.575 -1.375,-1.025 -0.35,-0.45 -0.6,-1 -0.75,-1.65 -0.13334,-0.6666 -0.2,-1.4333 -0.2,-2.3 l 0,-11.6 2.325,-0.4 0,4.025"
         style="font-size:25px;fill:#4d4d4d"
         id="path3098" />
      <path
         d="m 442.14945,1028.639 c 0,-1.15 0.16667,-2.15 0.5,-3 0.33333,-0.8666 0.775,-1.5833 1.325,-2.15 0.55,-0.5666 1.18333,-0.9916 1.9,-1.275 0.71666,-0.2833 1.44999,-0.425 2.2,-0.425 1.74999,0 3.09166,0.55 4.025,1.65 0.93332,1.0834 1.39999,2.7417 1.4,4.975 -1e-5,0.1 -1e-5,0.2334 0,0.4 -1e-5,0.15 -0.008,0.2917 -0.025,0.425 l -8.9,0 c 0.1,1.35 0.49166,2.375 1.175,3.075 0.68333,0.7 1.74999,1.05 3.2,1.05 0.81666,0 1.49999,-0.067 2.05,-0.2 0.56666,-0.15 0.99166,-0.2917 1.275,-0.425 l 0.325,1.95 c -0.28334,0.15 -0.78334,0.3083 -1.5,0.475 -0.70001,0.1667 -1.50001,0.25 -2.4,0.25 -1.13334,0 -2.11667,-0.1667 -2.95,-0.5 -0.81667,-0.35 -1.49167,-0.825 -2.025,-1.425 -0.53333,-0.6 -0.93333,-1.3083 -1.2,-2.125 -0.25,-0.8333 -0.375,-1.7416 -0.375,-2.725 m 8.925,-1.275 c 0.0167,-1.05 -0.25001,-1.9083 -0.8,-2.575 -0.53334,-0.6833 -1.27501,-1.025 -2.225,-1.025 -0.53334,0 -1.00834,0.1084 -1.425,0.325 -0.4,0.2 -0.74167,0.4667 -1.025,0.8 -0.28334,0.3334 -0.50834,0.7167 -0.675,1.15 -0.15,0.4334 -0.25,0.875 -0.3,1.325 l 6.45,0"
         style="font-size:25px;fill:#4d4d4d"
         id="path3100" />
      <path
         d="m 461.63929,1021.839 c 0.2,0 0.425,0.017 0.675,0.05 0.26666,0.017 0.525,0.05 0.775,0.1 0.25,0.033 0.475,0.075 0.675,0.125 0.21666,0.033 0.375,0.067 0.475,0.1 l -0.4,2.025 c -0.18334,-0.067 -0.49167,-0.1416 -0.925,-0.225 -0.41667,-0.1 -0.95834,-0.15 -1.625,-0.15 -0.43333,0 -0.86667,0.05 -1.3,0.15 -0.41667,0.083 -0.69167,0.1417 -0.825,0.175 l 0,10.925 -2.325,0 0,-12.45 c 0.55,-0.2 1.23333,-0.3833 2.05,-0.55 0.81667,-0.1833 1.73333,-0.275 2.75,-0.275"
         style="font-size:25px;fill:#4d4d4d"
         id="path3102" />
      <path
         d="m 467.89008,1033.764 c -1e-5,0.45 -0.15001,0.8417 -0.45,1.175 -0.30001,0.3333 -0.70834,0.5 -1.225,0.5 -0.51667,0 -0.92501,-0.1667 -1.225,-0.5 -0.30001,-0.3333 -0.45001,-0.725 -0.45,-1.175 -10e-6,-0.45 0.14999,-0.8417 0.45,-1.175 0.29999,-0.3333 0.70833,-0.5 1.225,-0.5 0.51666,0 0.92499,0.1667 1.225,0.5 0.29999,0.3333 0.44999,0.725 0.45,1.175"
         style="font-size:25px;fill:#4d4d4d"
         id="path3104" />
      <path
         d="m 473.61742,1022.689 c 0.28333,-0.1833 0.70833,-0.375 1.275,-0.575 0.58333,-0.2 1.24999,-0.3 2,-0.3 0.93332,0 1.75832,0.1667 2.475,0.5 0.73332,0.3334 1.34999,0.8 1.85,1.4 0.49999,0.6 0.87499,1.3167 1.125,2.15 0.26665,0.8334 0.39999,1.75 0.4,2.75 -10e-6,1.05 -0.15835,2 -0.475,2.85 -0.30001,0.8333 -0.73335,1.5417 -1.3,2.125 -0.56668,0.5833 -1.25001,1.0333 -2.05,1.35 -0.80001,0.3167 -1.70001,0.475 -2.7,0.475 -1.08334,0 -2.04167,-0.075 -2.875,-0.225 -0.83334,-0.15 -1.51667,-0.3 -2.05,-0.45 l 0,-18.625 2.325,-0.4 0,6.975 m 0,10.4 c 0.23333,0.067 0.55833,0.1333 0.975,0.2 0.43333,0.05 0.96666,0.075 1.6,0.075 1.24999,0 2.24999,-0.4083 3,-1.225 0.74999,-0.8333 1.12499,-2.0083 1.125,-3.525 -1e-5,-0.6666 -0.0667,-1.2916 -0.2,-1.875 -0.13334,-0.5833 -0.35001,-1.0833 -0.65,-1.5 -0.30001,-0.4333 -0.69168,-0.7666 -1.175,-1 -0.46668,-0.25 -1.03334,-0.375 -1.7,-0.375 -0.63334,0 -1.21667,0.1084 -1.75,0.325 -0.53334,0.2167 -0.94167,0.4417 -1.225,0.675 l 0,8.225"
         style="font-size:25px;fill:#4d4d4d"
         id="path3106" />
      <path
         d="m 484.17172,1037.539 c 0.18333,0.083 0.41666,0.1583 0.7,0.225 0.29999,0.083 0.59166,0.125 0.875,0.125 0.91666,0 1.63333,-0.2083 2.15,-0.625 0.51666,-0.4 0.98332,-1.0583 1.4,-1.975 -1.05001,-2 -2.03334,-4.1166 -2.95,-6.35 -0.90001,-2.25 -1.65,-4.525 -2.25,-6.825 l 2.5,0 c 0.18333,0.75 0.39999,1.5584 0.65,2.425 0.26666,0.8667 0.55833,1.7584 0.875,2.675 0.31666,0.9167 0.65832,1.8334 1.025,2.75 0.36666,0.9167 0.74999,1.8 1.15,2.65 0.63332,-1.75 1.18332,-3.4833 1.65,-5.2 0.46665,-1.7166 0.90832,-3.4833 1.325,-5.3 l 2.4,0 c -0.60002,2.45 -1.26668,4.8084 -2,7.075 -0.73335,2.25 -1.52501,4.3583 -2.375,6.325 -0.33334,0.75 -0.68334,1.3917 -1.05,1.925 -0.35001,0.55 -0.74168,1 -1.175,1.35 -0.43334,0.35 -0.92501,0.6083 -1.475,0.775 -0.53334,0.1667 -1.14167,0.25 -1.825,0.25 -0.18334,0 -0.37501,-0.017 -0.575,-0.05 -0.2,-0.017 -0.4,-0.05 -0.6,-0.1 -0.18334,-0.033 -0.35834,-0.075 -0.525,-0.125 -0.15,-0.05 -0.25834,-0.092 -0.325,-0.125 l 0.425,-1.875"
         style="font-size:25px;fill:#4d4d4d"
         id="path3108" />
    </g>
  </g>
</svg>
