<?xml version="1.0" encoding="UTF-8" standalone="no"?>
<!-- Created with Inkscape (http://www.inkscape.org/) -->

<svg
   xmlns:dc="http://purl.org/dc/elements/1.1/"
   xmlns:cc="http://creativecommons.org/ns#"
   xmlns:rdf="http://www.w3.org/1999/02/22-rdf-syntax-ns#"
   xmlns:svg="http://www.w3.org/2000/svg"
   xmlns="http://www.w3.org/2000/svg"
   xmlns:sodipodi="http://sodipodi.sourceforge.net/DTD/sodipodi-0.dtd"
   xmlns:inkscape="http://www.inkscape.org/namespaces/inkscape"
   width="538.5827"
   height="386.22046"
   id="svg2"
   version="1.1"
   inkscape:version="0.48.4 r9939"
   sodipodi:docname="postcard_3_en_path.svg"
   inkscape:export-filename="/home/svet/Dropbox/falanster/design/postcards/console/postcard_3_en_path.png"
   inkscape:export-xdpi="300"
   inkscape:export-ydpi="300">
  <defs
     id="defs4" />
  <sodipodi:namedview
     id="base"
     pagecolor="#ffffff"
     bordercolor="#666666"
     borderopacity="1.0"
     inkscape:pageopacity="0.0"
     inkscape:pageshadow="2"
     inkscape:zoom="1.4"
     inkscape:cx="395.1008"
     inkscape:cy="217.58812"
     inkscape:document-units="px"
     inkscape:current-layer="layer1"
     showgrid="false"
     inkscape:window-width="1301"
     inkscape:window-height="744"
     inkscape:window-x="65"
     inkscape:window-y="24"
     inkscape:window-maximized="1"
     showguides="true"
     inkscape:guide-bbox="true"
     fit-margin-top="0"
     fit-margin-left="0"
     fit-margin-right="0"
     fit-margin-bottom="0">
    <sodipodi:guide
       orientation="0,1"
       position="287.81226,24.16239"
       id="guide2999" />
    <sodipodi:guide
       orientation="1,0"
       position="34.263966,445.396"
       id="guide3001" />
    <sodipodi:guide
       orientation="1,0"
       position="503.9849,312.05587"
       id="guide3003" />
  </sodipodi:namedview>
  <metadata
     id="metadata7">
    <rdf:RDF>
      <cc:Work
         rdf:about="">
        <dc:format>image/svg+xml</dc:format>
        <dc:type
           rdf:resource="http://purl.org/dc/dcmitype/StillImage" />
        <dc:title />
      </cc:Work>
    </rdf:RDF>
  </metadata>
  <g
     inkscape:label="Layer 1"
     inkscape:groupmode="layer"
     id="layer1"
     transform="translate(8,-674.14163)">
    <path
       style="fill:#1a1a1a;fill-opacity:1;fill-rule:nonzero;stroke:none"
       d="m -8,674.14163 538.58268,0 0,386.22047 -538.58268,0 z"
       id="rect2985"
       inkscape:connector-curvature="0" />
    <g
       style="font-size:49px;font-style:normal;font-variant:normal;font-weight:normal;font-stretch:normal;line-height:125%;letter-spacing:0px;word-spacing:0px;fill:#00ffff;fill-opacity:1;stroke:none;font-family:Courier 10 Pitch;-inkscape-font-specification:Courier 10 Pitch"
       id="text2983">
      <path
         d="m 36.346662,746.59876 0.588,-10.339 3.479,0 -0.49,10.192 c 0,0.049 0,0.098 0,0.098 0,0.98 0.588001,1.568 1.421,1.568 0.979999,0 1.519,-0.539 1.568,-1.519 l 0.539,-10.339 3.528,0 c 1.028999,0 1.568,-0.588 1.568,-1.617 0,-1.029 -0.539001,-1.617 -1.568,-1.617 l -3.332,0 0.294,-5.684 3.038,0 c 1.028999,0 1.568,-0.588 1.568,-1.617 0,-1.029 -0.539001,-1.568 -1.568,-1.568 l -2.94,0 0.588,-10.241 c 0,-0.049 0,-0.098 0,-0.098 0,-0.98 -0.637001,-1.519 -1.519,-1.519 -0.881999,0 -1.421,0.49 -1.47,1.47 l -0.588,10.388 -3.479,0 0.49,-10.241 c 0,-0.049 0,-0.098 0,-0.098 0,-0.98 -0.588001,-1.519 -1.47,-1.519 -0.881999,0 -1.421,0.49 -1.47,1.47 l -0.588,10.388 -3.577,0 c -1.028999,0 -1.568,0.539 -1.568,1.568 0,1.029 0.539001,1.617 1.568,1.617 l 3.43,0 -0.245,5.684 -3.185,0 c -1.028999,0 -1.568,0.588 -1.568,1.617 0,1.029 0.539001,1.617 1.568,1.617 l 2.989,0 -0.539,10.192 c 0,0.049 0,0.098 0,0.147 0,0.931 0.539001,1.519 1.372,1.519 0.979999,0 1.519,-0.539 1.568,-1.519 m 0.735,-13.573 0.294,-5.684 3.577,0 -0.343,5.684 -3.528,0"
         id="path2995"
         inkscape:connector-curvature="0" />
      <path
         d="m 107.64779,744.00176 0,-17.444 c 0.147,0 0.294,0 0.441,0 2.00899,0 2.842,-0.343 2.842,-1.715 0,-1.127 -0.637,-1.666 -1.911,-1.666 l -3.626,0 c -0.931,0 -1.372,0.294 -1.372,0.98 l 0,1.715 c -2.303,-1.813 -4.606006,-2.744 -7.056003,-2.744 -5.781994,0 -10.535,4.361 -10.535,10.535 0,6.27199 4.410006,10.633 10.339,10.633 3.086997,0 5.341003,-1.02901 7.301003,-3.283 l 0,2.891 c 0,4.94899 -1.51901,7.203 -6.517003,7.203 -1.273999,0 -2.597002,-0.343 -4.018,-0.343 -1.126999,0 -2.058,0.882 -2.058,1.862 0,1.568 1.715003,2.205 5.243,2.205 4.458993,0 7.693003,-1.32301 9.457003,-3.626 1.421,-1.862 1.47,-3.96901 1.47,-6.664 0,-0.196 0,-0.343 0,-0.539 m -10.388003,-17.297 c 4.213993,0 7.105003,2.94 7.105003,6.958 0,4.06699 -2.94001,6.958 -7.105003,6.958 -4.213996,0 -7.105,-2.94001 -7.105,-6.958 0,-4.116 2.940004,-6.958 7.105,-6.958"
         id="path2997"
         inkscape:connector-curvature="0" />
      <path
         d="m 129.62735,741.89476 0,-17.738 c 0,-0.588 -0.441,-0.98 -1.372,-0.98 l -7.007,0 c -1.274,0 -1.911,0.539 -1.911,1.666 0,1.127 0.686,1.715 2.009,1.715 l 4.655,0 0,15.337 -7.301,0 c -1.323,0 -2.009,0.539 -2.009,1.666 0,1.127 0.637,1.715 1.911,1.715 l 18.571,0 c 1.421,0 1.96,-0.343 1.96,-1.715 0,-1.176 -0.588,-1.666 -1.813,-1.666 l -7.693,0 m -4.459,-25.627 c 0,1.95999 0.49,2.352 2.499,2.352 2.303,0 2.45,-0.53901 2.45,-3.038 0,-2.499 -0.245,-3.234 -2.45,-3.234 -2.205,0 -2.499,0.735 -2.499,3.92"
         id="path2999"
         inkscape:connector-curvature="0" />
      <path
         d="m 163.41591,724.49976 -9.408,0 0,-4.851 c 0,-2.352 -0.196,-3.332 -1.911,-3.332 -1.274,0 -1.862,0.686 -1.862,2.009 0,0.637 0,1.078 0,1.274 l 0,4.9 -2.646,0 c -2.303,0 -3.283,0.147 -3.283,1.715 0,1.176 0.588,1.666 1.911,1.666 l 4.018,0 0,7.987 c 0,0.245 0,0.49 0,0.735 0,2.20499 0.049,4.116 0.882,5.537 1.372,2.40099 3.92001,3.577 7.595,3.577 2.254,0 4.753,-0.637 7.742,-1.813 1.764,-0.686 2.646,-1.372 2.646,-2.499 0,-0.882 -0.784,-1.715 -1.666,-1.715 -1.911,0 -5.096,2.548 -8.967,2.548 -4.21399,0 -4.508,-2.54801 -4.508,-6.37 l 0,-7.987 9.702,0 c 1.323,0 2.009,-0.539 2.009,-1.666 0,-1.225 -0.735,-1.715 -2.254,-1.715"
         id="path3001"
         inkscape:connector-curvature="0" />
      <path
         d="m 226.63204,730.37976 0,-4.459 c 0,-2.058 -0.245,-2.94 -1.715,-2.94 -1.225,0 -1.862,0.441 -1.862,1.519 0,0 0,0.049 0,0.098 -2.646,-1.323 -5.04701,-2.009 -7.546,-2.009 -6.86,0 -12.054,5.047 -12.054,11.662 0,6.61499 5.145,11.613 12.103,11.613 5.78199,0 11.172,-3.57701 11.172,-5.831 0,-0.98 -0.686,-1.666 -1.666,-1.666 -1.274,0 -2.205,1.176 -3.675,2.156 -1.715,1.127 -3.67501,1.764 -5.586,1.764 -4.998,0 -8.183,-3.33201 -8.183,-8.085 0,-4.606 3.43,-7.889 8.379,-7.889 2.84199,0 5.096,1.323 6.566,3.92 0.735,1.323 1.225,1.911 2.254,1.911 1.176,0 1.813,-0.588 1.813,-1.764"
         id="path3003"
         inkscape:connector-curvature="0" />
      <path
         d="m 257.8236,734.25076 c 0,-6.615 -4.90001,-11.613 -12.495,-11.613 -7.59499,0 -12.544,4.949 -12.544,11.613 0,6.66399 4.94901,11.613 12.544,11.613 7.59499,0 12.495,-4.94901 12.495,-11.613 m -12.495,8.281 c -4.949,0 -8.379,-3.52801 -8.379,-8.281 0,-4.753 3.43,-8.33 8.379,-8.33 4.94899,0 8.379,3.577 8.379,8.33 0,4.80199 -3.43001,8.281 -8.379,8.281"
         id="path3005"
         inkscape:connector-curvature="0" />
      <path
         d="m 283.52716,731.94776 0,10.927 c 0,1.568 0.686,2.401 2.009,2.401 l 2.891,0 c 1.127,0 1.715,-0.588 1.715,-1.715 0,-1.372 -0.686,-1.666 -2.499,-1.666 -0.147,0 -0.294,0 -0.441,0 l 0,-10.829 c 0,-5.586 -1.47,-8.526 -5.88,-8.526 -2.303,0 -4.018,0.98 -5.341,2.94 -0.686,-1.96 -2.156,-2.94 -4.361,-2.94 -1.862,0 -3.332,0.637 -4.606,2.058 -0.098,-1.176 -0.343,-1.421 -1.372,-1.421 l -3.675,0 c -1.274,0 -1.862,0.539 -1.862,1.666 0,1.225 0.686,1.715 2.205,1.715 0.343,0 0.735,0 1.078,0 l 0,15.337 c -0.196,0 -0.343,0 -0.49,0 -1.96,0 -2.793,0.294 -2.793,1.666 0,1.127 0.588,1.715 1.862,1.715 l 6.37,0 c 1.421,0 1.96,-0.343 1.96,-1.715 0,-1.323 -0.637,-1.715 -2.303,-1.715 -0.294,0 -0.637,0.049 -1.029,0.049 l 0,-13.181 c 0.882,-1.666 2.058,-2.499 3.528,-2.499 1.813,0 3.136,1.421 3.136,3.871 0,0.294 0,0.931 0,1.862 l 0,10.094 c 0,0.245 0,0.441 0,0.637 0,1.86199 0.098,2.597 1.666,2.597 l 3.038,0 c 1.127,0 1.666,-0.588 1.666,-1.715 0,-1.372 -0.686,-1.666 -2.499,-1.666 -0.147,0 -0.294,0 -0.441,0 l 0,-9.947 c 0,-3.822 1.666,-5.733 3.871,-5.733 2.401,0 2.597,2.107 2.597,5.733"
         id="path3007"
         inkscape:connector-curvature="0" />
      <path
         d="m 313.00372,731.94776 0,10.927 c 0,1.568 0.68601,2.401 2.009,2.401 l 2.891,0 c 1.127,0 1.715,-0.588 1.715,-1.715 0,-1.372 -0.686,-1.666 -2.499,-1.666 -0.147,0 -0.294,0 -0.441,0 l 0,-10.829 c 0,-5.586 -1.47,-8.526 -5.88,-8.526 -2.30299,0 -4.018,0.98 -5.341,2.94 -0.68599,-1.96 -2.156,-2.94 -4.361,-2.94 -1.86199,0 -3.332,0.637 -4.606,2.058 -0.098,-1.176 -0.343,-1.421 -1.372,-1.421 l -3.675,0 c -1.27399,0 -1.862,0.539 -1.862,1.666 0,1.225 0.68601,1.715 2.205,1.715 0.343,0 0.735,0 1.078,0 l 0,15.337 c -0.196,0 -0.343,0 -0.49,0 -1.95999,0 -2.793,0.294 -2.793,1.666 0,1.127 0.58801,1.715 1.862,1.715 l 6.37,0 c 1.421,0 1.96,-0.343 1.96,-1.715 0,-1.323 -0.637,-1.715 -2.303,-1.715 -0.294,0 -0.637,0.049 -1.029,0.049 l 0,-13.181 c 0.882,-1.666 2.05801,-2.499 3.528,-2.499 1.813,0 3.136,1.421 3.136,3.871 0,0.294 0,0.931 0,1.862 l 0,10.094 c 0,0.245 0,0.441 0,0.637 0,1.86199 0.098,2.597 1.666,2.597 l 3.038,0 c 1.127,0 1.666,-0.588 1.666,-1.715 0,-1.372 -0.686,-1.666 -2.499,-1.666 -0.147,0 -0.294,0 -0.441,0 l 0,-9.947 c 0,-3.822 1.66601,-5.733 3.871,-5.733 2.401,0 2.597,2.107 2.597,5.733"
         id="path3009"
         inkscape:connector-curvature="0" />
      <path
         d="m 335.96329,741.89476 0,-17.738 c 0,-0.588 -0.441,-0.98 -1.372,-0.98 l -7.007,0 c -1.274,0 -1.911,0.539 -1.911,1.666 0,1.127 0.686,1.715 2.009,1.715 l 4.655,0 0,15.337 -7.301,0 c -1.323,0 -2.009,0.539 -2.009,1.666 0,1.127 0.637,1.715 1.911,1.715 l 18.571,0 c 1.421,0 1.96,-0.343 1.96,-1.715 0,-1.176 -0.588,-1.666 -1.813,-1.666 l -7.693,0 m -4.459,-25.627 c 0,1.95999 0.49,2.352 2.499,2.352 2.30299,0 2.45,-0.53901 2.45,-3.038 0,-2.499 -0.24501,-3.234 -2.45,-3.234 -2.205,0 -2.499,0.735 -2.499,3.92"
         id="path3011"
         inkscape:connector-curvature="0" />
      <path
         d="m 369.75185,724.49976 -9.408,0 0,-4.851 c 0,-2.352 -0.196,-3.332 -1.911,-3.332 -1.274,0 -1.862,0.686 -1.862,2.009 0,0.637 0,1.078 0,1.274 l 0,4.9 -2.646,0 c -2.303,0 -3.283,0.147 -3.283,1.715 0,1.176 0.588,1.666 1.911,1.666 l 4.018,0 0,7.987 c 0,0.245 0,0.49 0,0.735 0,2.20499 0.049,4.116 0.882,5.537 1.372,2.40099 3.92,3.577 7.595,3.577 2.254,0 4.753,-0.637 7.742,-1.813 1.764,-0.686 2.646,-1.372 2.646,-2.499 0,-0.882 -0.784,-1.715 -1.666,-1.715 -1.911,0 -5.096,2.548 -8.967,2.548 -4.214,0 -4.508,-2.54801 -4.508,-6.37 l 0,-7.987 9.702,0 c 1.323,0 2.009,-0.539 2.009,-1.666 0,-1.225 -0.735,-1.715 -2.254,-1.715"
         id="path3013"
         inkscape:connector-curvature="0" />
      <path
         d="m 412.19197,736.55376 19.845,0 c 0.588,0 1.127,-0.539 1.127,-1.127 l 0,-2.548 c 0,-0.588 -0.392,-0.98 -1.127,-0.98 l -19.845,0 c -0.63699,0 -1.029,0.392 -1.029,0.98 l 0,2.548 c 0,0.686 0.39201,1.127 1.029,1.127"
         id="path3015"
         inkscape:connector-curvature="0" />
      <path
         d="m 457.10354,742.23776 0.245,1.47 c 0.196,1.029 0.784,1.568 1.666,1.568 l 3.773,0 c 1.274,0 1.911,-0.588 1.911,-1.715 0,-1.421 -0.83301,-1.666 -2.842,-1.666 l -1.225,0 0,-10.829 c 0,-5.782 -2.84201,-8.477 -8.967,-8.477 -5.39,0 -8.918,1.715 -8.918,3.381 0,1.225 0.735,2.009 1.617,2.009 1.862,0 3.822,-2.009 7.203,-2.009 3.67499,0 5.39,1.715 5.39,5.39 0,0.049 0,0.098 0,0.147 -1.96,-0.49 -3.822,-0.735 -5.684,-0.735 -7.105,0 -11.074,2.989 -11.074,7.938 0,4.21399 3.136,7.154 7.938,7.154 3.28299,0 6.37,-1.27401 8.967,-3.626 m -0.147,-7.546 0,2.597 c 0,2.15599 -3.92001,4.9 -8.232,4.9 -2.793,0 -4.704,-1.61701 -4.704,-3.724 0,-2.695 2.793,-4.606 7.889,-4.606 1.764,0 3.43,0.294 5.047,0.833"
         id="path3017"
         inkscape:connector-curvature="0" />
      <path
         d="m 489.8631,731.94776 0,10.927 c 0,1.568 0.686,2.401 2.009,2.401 l 2.891,0 c 1.127,0 1.715,-0.588 1.715,-1.715 0,-1.372 -0.686,-1.666 -2.499,-1.666 -0.147,0 -0.294,0 -0.441,0 l 0,-10.829 c 0,-5.586 -1.47001,-8.526 -5.88,-8.526 -2.303,0 -4.018,0.98 -5.341,2.94 -0.686,-1.96 -2.156,-2.94 -4.361,-2.94 -1.862,0 -3.332,0.637 -4.606,2.058 -0.098,-1.176 -0.343,-1.421 -1.372,-1.421 l -3.675,0 c -1.274,0 -1.862,0.539 -1.862,1.666 0,1.225 0.686,1.715 2.205,1.715 0.343,0 0.735,0 1.078,0 l 0,15.337 c -0.196,0 -0.343,0 -0.49,0 -1.96,0 -2.793,0.294 -2.793,1.666 0,1.127 0.588,1.715 1.862,1.715 l 6.37,0 c 1.421,0 1.96,-0.343 1.96,-1.715 0,-1.323 -0.637,-1.715 -2.303,-1.715 -0.294,0 -0.637,0.049 -1.029,0.049 l 0,-13.181 c 0.882,-1.666 2.058,-2.499 3.528,-2.499 1.813,0 3.136,1.421 3.136,3.871 0,0.294 0,0.931 0,1.862 l 0,10.094 c 0,0.245 0,0.441 0,0.637 0,1.86199 0.098,2.597 1.666,2.597 l 3.038,0 c 1.127,0 1.666,-0.588 1.666,-1.715 0,-1.372 -0.686,-1.666 -2.499,-1.666 -0.147,0 -0.294,0 -0.441,0 l 0,-9.947 c 0,-3.822 1.666,-5.733 3.871,-5.733 2.401,0 2.597,2.107 2.597,5.733"
         id="path3019"
         inkscape:connector-curvature="0" />
      <path
         d="m 33.798662,789.96376 1.47,0 c 0.930999,0 1.127,-0.441 1.225,-1.47 l 0.735,-8.869 c 0,-0.098 0,-0.196 0,-0.294 0,-0.784 -0.392001,-1.176 -1.127,-1.176 l -3.185,0 c -0.734999,0 -1.078,0.392 -1.078,1.176 0,0.098 0,0.196 0,0.294 l 0.735,8.869 c 0.098,1.029 0.294001,1.47 1.225,1.47 m 8.918,0 1.47,0 c 0.930999,0 1.127,-0.441 1.225,-1.47 l 0.735,-8.869 c 0,-0.098 0,-0.196 0,-0.294 0,-0.784 -0.343001,-1.176 -1.078,-1.176 l -3.185,0 c -0.734999,0 -1.127,0.392 -1.127,1.176 0,0.098 0,0.196 0,0.294 l 0.735,8.869 c 0.098,1.029 0.294001,1.47 1.225,1.47"
         id="path3021"
         inkscape:connector-curvature="0" />
      <path
         d="m 62.736224,803.14476 0,-9.947 11.466,0 0,9.947 c -0.440999,0 -0.833,0 -1.176,0 -2.106998,0 -2.989,0.294 -2.989,1.666 0,1.617 0.980002,1.715 2.989,1.715 l 4.9,0 c 1.959998,0 2.891,-0.098 2.891,-1.715 0,-1.323 -0.637001,-1.666 -2.254,-1.666 -0.195999,0 -0.392,0 -0.637,0 l 0,-21.56 c 0.196,0 0.392001,0 0.588,0 1.616999,0 2.303,-0.392 2.303,-1.715 0,-1.127 -0.588001,-1.715 -1.764,-1.715 -0.538999,0 -0.931,0 -1.127,0 l -4.704,0 c -2.155997,0 -3.185,0 -3.185,1.715 0,1.274 0.784002,1.715 2.548,1.715 1.077999,0 1.617,0 1.617,0 l 0,8.33 -11.466,0 0,-8.33 c 0.392,0 0.735001,0 1.078,0 2.155998,0 3.087,-0.294 3.087,-1.715 0,-1.617 -0.931002,-1.715 -2.94,-1.715 l -4.998,0 c -1.910998,0 -2.842,0.098 -2.842,1.715 0,1.323 0.686002,1.715 2.303,1.715 0.196,0 0.392001,0 0.588,0 l 0,21.56 c -0.244999,0 -0.441,0 -0.637,0 -1.616998,0 -2.254,0.343 -2.254,1.666 0,1.127 0.588002,1.715 1.764,1.715 0.49,0 0.784001,0 1.078,0 l 5.243,0 c 1.812999,0 2.695,-0.196 2.695,-1.715 0,-1.274 -0.784001,-1.715 -2.548,-1.715 -1.077999,0 -1.617,0.049 -1.617,0.049"
         id="path3023"
         inkscape:connector-curvature="0" />
      <path
         d="m 89.958787,793.39376 c 0.930999,-3.969 4.018004,-6.321 8.232,-6.321 3.870993,0 6.909003,2.499 7.350003,6.321 l -15.582003,0 m -0.098,3.136 16.072003,0 c 2.93999,0 3.969,-10e-6 3.969,-2.254 0,-5.341 -4.45901,-10.486 -11.711003,-10.486 -7.398993,0 -12.495,4.753 -12.495,11.613 0,7.15399 4.606007,11.711 12.005,11.711 3.233993,0 6.713003,-0.784 9.996003,-2.401 1.421,-0.686 2.107,-1.421 2.107,-2.401 0,-0.882 -0.735,-1.568 -1.666,-1.568 -2.156,0 -5.24301,2.989 -10.094003,2.989 -4.948995,0 -7.938,-2.59701 -8.183,-7.203"
         id="path3025"
         inkscape:connector-curvature="0" />
      <path
         d="m 125.80535,778.64476 0,24.5 -6.615,0 c -1.323,0 -2.009,0.539 -2.009,1.666 0,1.127 0.637,1.715 1.911,1.715 l 17.64,0 c 1.421,0 1.96,-0.343 1.96,-1.715 0,-1.176 -0.588,-1.666 -1.813,-1.666 l -7.448,0 0,-26.95 c 0,-0.588 -0.441,-0.98 -1.372,-0.98 l -7.889,0 c -1.274,0 -1.911,0.588 -1.911,1.715 0,1.225 0.686,1.666 2.254,1.666 0.245,0 0.686,0.049 1.225,0.049 l 4.067,0"
         id="path3027"
         inkscape:connector-curvature="0" />
      <path
         d="m 155.28191,778.64476 0,24.5 -6.615,0 c -1.323,0 -2.009,0.539 -2.009,1.666 0,1.127 0.637,1.715 1.911,1.715 l 17.64,0 c 1.421,0 1.96,-0.343 1.96,-1.715 0,-1.176 -0.588,-1.666 -1.813,-1.666 l -7.448,0 0,-26.95 c 0,-0.588 -0.441,-0.98 -1.372,-0.98 l -7.889,0 c -1.274,0 -1.911,0.588 -1.911,1.715 0,1.225 0.686,1.666 2.254,1.666 0.245,0 0.686,0.049 1.225,0.049 l 4.067,0"
         id="path3029"
         inkscape:connector-curvature="0" />
      <path
         d="m 198.87047,795.50076 c 0,-6.615 -4.9,-11.613 -12.495,-11.613 -7.59499,0 -12.544,4.949 -12.544,11.613 0,6.66399 4.94901,11.613 12.544,11.613 7.595,0 12.495,-4.94901 12.495,-11.613 m -12.495,8.281 c -4.94899,0 -8.379,-3.52801 -8.379,-8.281 0,-4.753 3.43001,-8.33 8.379,-8.33 4.949,0 8.379,3.577 8.379,8.33 0,4.80199 -3.43,8.281 -8.379,8.281"
         id="path3031"
         inkscape:connector-curvature="0" />
      <path
         d="m 239.1546,800.40076 -2.597,-19.012 3.381,0 c 1.421,0 2.107,-0.49 2.107,-1.617 0,-1.323 -0.735,-1.617 -2.303,-1.617 l -7.742,0 c -0.686,0 -1.323,0.588 -1.323,1.617 0,1.078 0.637,1.617 1.862,1.617 0.098,0 0.196,0 0.294,0 l 3.626,23.863 c 0.098,0.784 0.196,1.274 1.029,1.274 l 1.813,0 c 0.833,0 1.078,-0.245 1.274,-0.98 l 4.606,-16.513 5.194,16.464 c 0.245,0.735 0.588,1.029 1.323,1.029 l 1.715,0 c 0.686,0 0.833,-0.392 0.931,-1.225 l 3.332,-23.912 c 0.098,0 0.196,0 0.294,0 1.225,0 1.862,-0.539 1.862,-1.617 0,-1.029 -0.637,-1.617 -1.323,-1.617 l -7.742,0 c -1.568,0 -2.303,0.294 -2.303,1.617 0,1.127 0.686,1.617 2.107,1.617 l 3.773,0 -2.352,19.012 -4.655,-14.406 c -0.294,-0.882 -0.539,-1.078 -1.519,-1.078 l -1.078,0 c -1.029,0 -1.225,0.294 -1.47,1.176 l -4.116,14.308"
         id="path3033"
         inkscape:connector-curvature="0" />
      <path
         d="m 287.30016,795.50076 c 0,-6.615 -4.90001,-11.613 -12.495,-11.613 -7.59499,0 -12.544,4.949 -12.544,11.613 0,6.66399 4.94901,11.613 12.544,11.613 7.59499,0 12.495,-4.94901 12.495,-11.613 m -12.495,8.281 c -4.94899,0 -8.379,-3.52801 -8.379,-8.281 0,-4.753 3.43001,-8.33 8.379,-8.33 4.949,0 8.379,3.577 8.379,8.33 0,4.80199 -3.43,8.281 -8.379,8.281"
         id="path3035"
         inkscape:connector-curvature="0" />
      <path
         d="m 301.92972,803.14476 0,-9.898 c 3.185,-3.626 5.88001,-5.537 8.526,-5.537 1.862,0 2.89101,1.47 4.165,1.47 1.029,0 2.107,-1.078 2.107,-2.254 0,-1.764 -1.764,-3.087 -4.753,-3.087 -3.82199,0 -7.056,1.862 -10.045,5.635 l 0,-4.067 c 0,-0.686 -0.441,-0.98 -1.323,-0.98 l -5.439,0 c -1.27399,0 -1.911,0.539 -1.911,1.666 0,1.225 0.68601,1.715 2.254,1.715 0.245,0 0.686,0 1.225,0 l 1.617,0 0,15.337 -4.214,0 c -1.32299,0 -2.009,0.539 -2.009,1.666 0,1.127 0.68601,1.715 1.96,1.715 l 15.631,0 c 1.421,0 1.96,-0.343 1.96,-1.715 0,-1.176 -0.588,-1.666 -1.813,-1.666 l -7.938,0"
         id="path3037"
         inkscape:connector-curvature="0" />
      <path
         d="m 332.14129,778.64476 0,24.5 -6.615,0 c -1.323,0 -2.009,0.539 -2.009,1.666 0,1.127 0.637,1.715 1.911,1.715 l 17.64,0 c 1.421,0 1.96,-0.343 1.96,-1.715 0,-1.176 -0.588,-1.666 -1.813,-1.666 l -7.448,0 0,-26.95 c 0,-0.588 -0.441,-0.98 -1.372,-0.98 l -7.889,0 c -1.274,0 -1.911,0.588 -1.911,1.715 0,1.225 0.686,1.666 2.254,1.666 0.245,0 0.686,0.049 1.225,0.049 l 4.067,0"
         id="path3039"
         inkscape:connector-curvature="0" />
      <path
         d="m 354.75785,795.79476 c 0,-4.753 3.038,-7.889 7.546,-7.889 4.45899,0 7.546,3.234 7.546,7.644 0,4.40999 -3.18501,7.742 -7.595,7.742 -4.263,0 -7.497,-2.98901 -7.497,-7.497 m 15.68,10.731 4.557,0 c 1.029,0 1.715,-0.637 1.715,-1.715 0,-1.225 -0.686,-1.666 -2.205,-1.666 -0.343,0 -0.735,0 -1.078,0 l 0,-26.95 c 0,-0.686 -0.441,-0.98 -1.372,-0.98 l -4.9,0 c -1.274,0 -1.911,0.588 -1.911,1.715 0,1.568 1.029,1.715 3.283,1.715 l 1.274,0 0,9.163 c -1.862,-2.303 -4.508,-3.43 -7.791,-3.43 -6.46799,0 -11.368,4.998 -11.368,11.319 0,6.71299 4.60601,11.417 10.633,11.417 3.381,0 6.321,-1.37201 8.232,-3.773 l 0,1.96 c 0,0.833 0.196,1.225 0.931,1.225"
         id="path3041"
         inkscape:connector-curvature="0" />
      <path
         d="m 388.25241,803.24276 c 0,2.15599 1.764,3.822 4.459,3.822 2.744,0 4.459,-1.61701 4.459,-3.822 0,-2.156 -1.715,-3.773 -4.459,-3.773 -2.744,0 -4.459,1.617 -4.459,3.773 m 1.666,-23.471 0.833,15.533 c 0.049,1.029 0.833,1.813 1.96,1.813 1.127,0 1.911,-0.784 1.96,-1.813 l 0.833,-15.533 c 0,-0.098 0,-0.147 0,-0.245 0,-1.862 -1.078,-2.989 -2.793,-2.989 -1.715,0 -2.793,1.127 -2.793,2.989 0,0.098 0,0.147 0,0.245"
         id="path3043"
         inkscape:connector-curvature="0" />
      <path
         d="m 416.99397,789.96376 1.47,0 c 0.931,0 1.127,-0.441 1.225,-1.47 l 0.735,-8.869 c 0,-0.098 0,-0.196 0,-0.294 0,-0.784 -0.392,-1.176 -1.127,-1.176 l -3.185,0 c -0.73499,0 -1.078,0.392 -1.078,1.176 0,0.098 0,0.196 0,0.294 l 0.735,8.869 c 0.098,1.029 0.29401,1.47 1.225,1.47 m 8.918,0 1.47,0 c 0.931,0 1.127,-0.441 1.225,-1.47 l 0.735,-8.869 c 0,-0.098 0,-0.196 0,-0.294 0,-0.784 -0.343,-1.176 -1.078,-1.176 l -3.185,0 c -0.73499,0 -1.127,0.392 -1.127,1.176 0,0.098 0,0.196 0,0.294 l 0.735,8.869 c 0.098,1.029 0.29401,1.47 1.225,1.47"
         id="path3045"
         inkscape:connector-curvature="0" />
    </g>
    <g
       style="font-size:25.04329872px;font-style:normal;font-variant:normal;font-weight:normal;font-stretch:normal;line-height:125%;letter-spacing:0px;word-spacing:0px;fill:#999999;fill-opacity:1;stroke:none;font-family:Ubuntu;-inkscape-font-specification:Ubuntu"
       id="text2991">
      <path
         d="m 36.892252,1035.301 c -1.216675,0 -2.325008,-0.2 -3.325,-0.6 -1.000006,-0.4 -1.858338,-0.9833 -2.575,-1.75 -0.71667,-0.7666 -1.275003,-1.7083 -1.675,-2.825 -0.383335,-1.1333 -0.575002,-2.425 -0.575,-3.875 -2e-6,-1.45 0.216665,-2.7333 0.65,-3.85 0.449997,-1.1333 1.049996,-2.0833 1.8,-2.85 0.749995,-0.7666 1.624994,-1.35 2.625,-1.75 0.999992,-0.4 2.066658,-0.6 3.2,-0.6 0.716656,0 1.358322,0.05 1.925,0.15 0.583321,0.1 1.08332,0.2167 1.5,0.35 0.433319,0.1334 0.783319,0.2667 1.05,0.4 0.266652,0.1334 0.449985,0.2334 0.55,0.3 l -0.7,2 c -0.150014,-0.1 -0.366681,-0.2083 -0.65,-0.325 -0.283347,-0.1166 -0.608347,-0.2333 -0.975,-0.35 -0.350012,-0.1166 -0.741679,-0.2083 -1.175,-0.275 -0.416678,-0.083 -0.841677,-0.125 -1.275,-0.125 -0.916676,0 -1.741675,0.1584 -2.475,0.475 -0.733341,0.3167 -1.35834,0.775 -1.875,1.375 -0.516672,0.6 -0.916672,1.3334 -1.2,2.2 -0.266671,0.85 -0.400004,1.8084 -0.4,2.875 -4e-6,1.0334 0.116662,1.975 0.35,2.825 0.249995,0.85 0.616661,1.5834 1.1,2.2 0.483327,0.6 1.083326,1.0667 1.8,1.4 0.733325,0.3334 1.583324,0.5 2.55,0.5 1.116655,0 2.041654,-0.1166 2.775,-0.35 0.73332,-0.2333 1.283319,-0.4416 1.65,-0.625 l 0.625,2 c -0.116682,0.083 -0.325015,0.1917 -0.625,0.325 -0.300014,0.1167 -0.675014,0.2334 -1.125,0.35 -0.450013,0.1167 -0.975013,0.2167 -1.575,0.3 -0.600011,0.083 -1.250011,0.125 -1.95,0.125"
         style="font-size:25px;fill:#999999"
         id="path3048"
         inkscape:connector-curvature="0" />
      <path
         d="m 55.855142,1028.426 c -1.3e-5,1.0334 -0.150013,1.9667 -0.45,2.8 -0.300013,0.8334 -0.725012,1.55 -1.275,2.15 -0.533344,0.6 -1.17501,1.0667 -1.925,1.4 -0.750009,0.3167 -1.566675,0.475 -2.45,0.475 -0.88334,0 -1.700005,-0.1583 -2.45,-0.475 -0.750004,-0.3333 -1.400003,-0.8 -1.95,-1.4 -0.533336,-0.6 -0.950002,-1.3166 -1.25,-2.15 -0.300001,-0.8333 -0.450001,-1.7666 -0.45,-2.8 -10e-7,-1.0166 0.149999,-1.9416 0.45,-2.775 0.299998,-0.85 0.716664,-1.575 1.25,-2.175 0.549997,-0.6 1.199996,-1.0583 1.95,-1.375 0.749995,-0.3333 1.56666,-0.5 2.45,-0.5 0.883325,0 1.699991,0.1667 2.45,0.5 0.74999,0.3167 1.391656,0.775 1.925,1.375 0.549988,0.6 0.974987,1.325 1.275,2.175 0.299987,0.8334 0.449987,1.7584 0.45,2.775 m -2.425,0 c -1.1e-5,-1.4666 -0.333344,-2.625 -1,-3.475 -0.650009,-0.8666 -1.541675,-1.3 -2.675,-1.3 -1.133339,0 -2.033338,0.4334 -2.7,1.3 -0.650004,0.85 -0.975003,2.0084 -0.975,3.475 -3e-6,1.4667 0.324996,2.6334 0.975,3.5 0.666662,0.85 1.566661,1.275 2.7,1.275 1.133325,0 2.024991,-0.425 2.675,-1.275 0.666656,-0.8666 0.999989,-2.0333 1,-3.5"
         style="font-size:25px;fill:#999999"
         id="path3050"
         inkscape:connector-curvature="0" />
      <path
         d="m 59.126236,1022.301 c 0.533331,-0.1333 1.241663,-0.275 2.125,-0.425 0.883328,-0.15 1.899994,-0.225 3.05,-0.225 1.033325,0 1.891658,0.15 2.575,0.45 0.683323,0.2834 1.224989,0.6917 1.625,1.225 0.416655,0.5167 0.708321,1.1417 0.875,1.875 0.166654,0.7334 0.249987,1.5417 0.25,2.425 l 0,7.3 -2.325,0 0,-6.8 c -1e-5,-0.8 -0.05834,-1.4833 -0.175,-2.05 -0.10001,-0.5666 -0.27501,-1.025 -0.525,-1.375 -0.250009,-0.35 -0.583342,-0.6 -1,-0.75 -0.416675,-0.1666 -0.933341,-0.25 -1.55,-0.25 -0.250007,0 -0.50834,0.01 -0.775,0.025 -0.266673,0.017 -0.525006,0.042 -0.775,0.075 -0.233339,0.017 -0.450005,0.042 -0.65,0.075 -0.183338,0.033 -0.316671,0.058 -0.4,0.075 l 0,10.975 -2.325,0 0,-12.625"
         style="font-size:25px;fill:#999999"
         id="path3052"
         inkscape:connector-curvature="0" />
      <path
         d="m 73.481705,1022.301 c 0.533331,-0.1333 1.241663,-0.275 2.125,-0.425 0.883328,-0.15 1.899994,-0.225 3.05,-0.225 1.033325,0 1.891657,0.15 2.575,0.45 0.683323,0.2834 1.224989,0.6917 1.625,1.225 0.416655,0.5167 0.708321,1.1417 0.875,1.875 0.166654,0.7334 0.249987,1.5417 0.25,2.425 l 0,7.3 -2.325,0 0,-6.8 c -1e-5,-0.8 -0.05834,-1.4833 -0.175,-2.05 -0.10001,-0.5666 -0.27501,-1.025 -0.525,-1.375 -0.25001,-0.35 -0.583343,-0.6 -1,-0.75 -0.416675,-0.1666 -0.933341,-0.25 -1.55,-0.25 -0.250007,0 -0.50834,0.01 -0.775,0.025 -0.266673,0.017 -0.525006,0.042 -0.775,0.075 -0.233339,0.017 -0.450005,0.042 -0.65,0.075 -0.183338,0.033 -0.316671,0.058 -0.4,0.075 l 0,10.975 -2.325,0 0,-12.625"
         style="font-size:25px;fill:#999999"
         id="path3054"
         inkscape:connector-curvature="0" />
      <path
         d="m 87.112173,1028.451 c -10e-7,-1.15 0.166666,-2.15 0.5,-3 0.333332,-0.8666 0.774998,-1.5833 1.325,-2.15 0.549997,-0.5666 1.18333,-0.9916 1.9,-1.275 0.716661,-0.2833 1.449994,-0.425 2.2,-0.425 1.749992,0 3.091657,0.55 4.025,1.65 0.933322,1.0834 1.399988,2.7417 1.4,4.975 -1.2e-5,0.1 -1.2e-5,0.2334 0,0.4 -1.2e-5,0.15 -0.0083,0.2917 -0.025,0.425 l -8.9,0 c 0.1,1.35 0.491663,2.375 1.175,3.075 0.683328,0.7 1.749994,1.05 3.2,1.05 0.816658,0 1.499991,-0.067 2.05,-0.2 0.566656,-0.15 0.991656,-0.2916 1.275,-0.425 l 0.325,1.95 c -0.283344,0.15 -0.783344,0.3084 -1.5,0.475 -0.700009,0.1667 -1.500008,0.25 -2.4,0.25 -1.13334,0 -2.116672,-0.1666 -2.95,-0.5 -0.81667,-0.35 -1.49167,-0.825 -2.025,-1.425 -0.533335,-0.6 -0.933335,-1.3083 -1.2,-2.125 -0.250001,-0.8333 -0.375001,-1.7416 -0.375,-2.725 m 8.925,-1.275 c 0.01666,-1.05 -0.250009,-1.9083 -0.8,-2.575 -0.533342,-0.6833 -1.275008,-1.025 -2.225,-1.025 -0.53334,0 -1.008339,0.1084 -1.425,0.325 -0.400005,0.2 -0.741671,0.4667 -1.025,0.8 -0.283337,0.3334 -0.508337,0.7167 -0.675,1.15 -0.150003,0.4334 -0.250003,0.875 -0.3,1.325 l 6.45,0"
         style="font-size:25px;fill:#999999"
         id="path3056"
         inkscape:connector-curvature="0" />
      <path
         d="m 107.45202,1035.226 c -1.05001,0 -1.97501,-0.1666 -2.775,-0.5 -0.78334,-0.3333 -1.45001,-0.8 -2,-1.4 -0.53334,-0.6 -0.93334,-1.3083 -1.2,-2.125 -0.26667,-0.8333 -0.4,-1.75 -0.4,-2.75 0,-1 0.14166,-1.9166 0.425,-2.75 0.3,-0.8333 0.71666,-1.55 1.25,-2.15 0.53333,-0.6166 1.18333,-1.0916 1.95,-1.425 0.78332,-0.35 1.64999,-0.525 2.6,-0.525 0.58332,0 1.16666,0.05 1.75,0.15 0.58332,0.1 1.14165,0.2584 1.675,0.475 l -0.525,1.975 c -0.35001,-0.1666 -0.75835,-0.3 -1.225,-0.4 -0.45001,-0.1 -0.93334,-0.15 -1.45,-0.15 -1.30001,0 -2.30001,0.4084 -3,1.225 -0.68334,0.8167 -1.02501,2.0084 -1.025,3.575 -1e-5,0.7 0.075,1.3417 0.225,1.925 0.16666,0.5834 0.41666,1.0834 0.75,1.5 0.34999,0.4167 0.79166,0.7417 1.325,0.975 0.53332,0.2167 1.18332,0.325 1.95,0.325 0.61666,0 1.17499,-0.058 1.675,-0.175 0.49999,-0.1166 0.89165,-0.2416 1.175,-0.375 l 0.325,1.95 c -0.13335,0.083 -0.32501,0.1667 -0.575,0.25 -0.25001,0.067 -0.53335,0.125 -0.85,0.175 -0.31668,0.067 -0.65835,0.1167 -1.025,0.15 -0.35001,0.05 -0.69168,0.075 -1.025,0.075"
         style="font-size:25px;fill:#999999"
         id="path3058"
         inkscape:connector-curvature="0" />
      <path
         d="m 115.59811,1021.926 4.925,0 0,1.95 -4.925,0 0,6 c 0,0.65 0.05,1.1917 0.15,1.625 0.1,0.4167 0.25,0.75 0.45,1 0.2,0.2334 0.45,0.4 0.75,0.5 0.3,0.1 0.64999,0.15 1.05,0.15 0.69999,0 1.25833,-0.075 1.675,-0.225 0.43333,-0.1666 0.73333,-0.2833 0.9,-0.35 l 0.45,1.925 c -0.23334,0.1167 -0.64167,0.2584 -1.225,0.425 -0.58334,0.1834 -1.25001,0.275 -2,0.275 -0.88334,0 -1.61667,-0.1083 -2.2,-0.325 -0.56667,-0.2333 -1.025,-0.575 -1.375,-1.025 -0.35,-0.45 -0.6,-1 -0.75,-1.65 -0.13333,-0.6666 -0.2,-1.4333 -0.2,-2.3 l 0,-11.6 2.325,-0.4 0,4.025"
         style="font-size:25px;fill:#999999"
         id="path3060"
         inkscape:connector-curvature="0" />
      <path
         d="m 131.41842,1021.926 4.925,0 0,1.95 -4.925,0 0,6 c 0,0.65 0.05,1.1917 0.15,1.625 0.1,0.4167 0.25,0.75 0.45,1 0.2,0.2334 0.45,0.4 0.75,0.5 0.3,0.1 0.65,0.15 1.05,0.15 0.7,0 1.25833,-0.075 1.675,-0.225 0.43333,-0.1666 0.73333,-0.2833 0.9,-0.35 l 0.45,1.925 c -0.23334,0.1167 -0.64167,0.2584 -1.225,0.425 -0.58334,0.1834 -1.25,0.275 -2,0.275 -0.88334,0 -1.61667,-0.1083 -2.2,-0.325 -0.56667,-0.2333 -1.025,-0.575 -1.375,-1.025 -0.35,-0.45 -0.6,-1 -0.75,-1.65 -0.13333,-0.6666 -0.2,-1.4333 -0.2,-2.3 l 0,-11.6 2.325,-0.4 0,4.025"
         style="font-size:25px;fill:#999999"
         id="path3062"
         inkscape:connector-curvature="0" />
      <path
         d="m 150.43522,1028.426 c -10e-6,1.0334 -0.15001,1.9667 -0.45,2.8 -0.30001,0.8334 -0.72501,1.55 -1.275,2.15 -0.53334,0.6 -1.17501,1.0667 -1.925,1.4 -0.75001,0.3167 -1.56667,0.475 -2.45,0.475 -0.88334,0 -1.70001,-0.1583 -2.45,-0.475 -0.75,-0.3333 -1.4,-0.8 -1.95,-1.4 -0.53334,-0.6 -0.95,-1.3166 -1.25,-2.15 -0.3,-0.8333 -0.45,-1.7666 -0.45,-2.8 0,-1.0166 0.15,-1.9416 0.45,-2.775 0.3,-0.85 0.71666,-1.575 1.25,-2.175 0.55,-0.6 1.2,-1.0583 1.95,-1.375 0.74999,-0.3333 1.56666,-0.5 2.45,-0.5 0.88333,0 1.69999,0.1667 2.45,0.5 0.74999,0.3167 1.39166,0.775 1.925,1.375 0.54999,0.6 0.97499,1.325 1.275,2.175 0.29999,0.8334 0.44999,1.7584 0.45,2.775 m -2.425,0 c -1e-5,-1.4666 -0.33334,-2.625 -1,-3.475 -0.65001,-0.8666 -1.54167,-1.3 -2.675,-1.3 -1.13334,0 -2.03334,0.4334 -2.7,1.3 -0.65,0.85 -0.975,2.0084 -0.975,3.475 0,1.4667 0.325,2.6334 0.975,3.5 0.66666,0.85 1.56666,1.275 2.7,1.275 1.13333,0 2.02499,-0.425 2.675,-1.275 0.66666,-0.8666 0.99999,-2.0333 1,-3.5"
         style="font-size:25px;fill:#999999"
         id="path3064"
         inkscape:connector-curvature="0" />
      <path
         d="m 164.26803,1021.651 c 0.2,0 0.425,0.017 0.675,0.05 0.26666,0.017 0.52499,0.05 0.775,0.1 0.24999,0.033 0.47499,0.075 0.675,0.125 0.21666,0.033 0.37499,0.067 0.475,0.1 l -0.4,2.025 c -0.18334,-0.067 -0.49167,-0.1416 -0.925,-0.225 -0.41667,-0.1 -0.95834,-0.15 -1.625,-0.15 -0.43334,0 -0.86667,0.05 -1.3,0.15 -0.41667,0.083 -0.69167,0.1417 -0.825,0.175 l 0,10.925 -2.325,0 0,-12.45 c 0.55,-0.2 1.23333,-0.3833 2.05,-0.55 0.81666,-0.1833 1.73333,-0.275 2.75,-0.275"
         style="font-size:25px;fill:#999999"
         id="path3066"
         inkscape:connector-curvature="0" />
      <path
         d="m 168.411,1028.451 c 0,-1.15 0.16667,-2.15 0.5,-3 0.33333,-0.8666 0.775,-1.5833 1.325,-2.15 0.55,-0.5666 1.18333,-0.9916 1.9,-1.275 0.71666,-0.2833 1.45,-0.425 2.2,-0.425 1.74999,0 3.09166,0.55 4.025,1.65 0.93332,1.0834 1.39999,2.7417 1.4,4.975 -1e-5,0.1 -1e-5,0.2334 0,0.4 -1e-5,0.15 -0.008,0.2917 -0.025,0.425 l -8.9,0 c 0.1,1.35 0.49166,2.375 1.175,3.075 0.68333,0.7 1.74999,1.05 3.2,1.05 0.81666,0 1.49999,-0.067 2.05,-0.2 0.56666,-0.15 0.99166,-0.2916 1.275,-0.425 l 0.325,1.95 c -0.28334,0.15 -0.78334,0.3084 -1.5,0.475 -0.70001,0.1667 -1.50001,0.25 -2.4,0.25 -1.13334,0 -2.11667,-0.1666 -2.95,-0.5 -0.81667,-0.35 -1.49167,-0.825 -2.025,-1.425 -0.53333,-0.6 -0.93333,-1.3083 -1.2,-2.125 -0.25,-0.8333 -0.375,-1.7416 -0.375,-2.725 m 8.925,-1.275 c 0.0167,-1.05 -0.25001,-1.9083 -0.8,-2.575 -0.53334,-0.6833 -1.27501,-1.025 -2.225,-1.025 -0.53334,0 -1.00834,0.1084 -1.425,0.325 -0.4,0.2 -0.74167,0.4667 -1.025,0.8 -0.28334,0.3334 -0.50834,0.7167 -0.675,1.15 -0.15,0.4334 -0.25,0.875 -0.3,1.325 l 6.45,0"
         style="font-size:25px;fill:#999999"
         id="path3068"
         inkscape:connector-curvature="0" />
      <path
         d="m 187.50085,1033.251 c 0.54999,0 1.03332,-0.01 1.45,-0.025 0.43332,-0.033 0.79165,-0.083 1.075,-0.15 l 0,-3.875 c -0.16668,-0.083 -0.44168,-0.15 -0.825,-0.2 -0.36668,-0.067 -0.81668,-0.1 -1.35,-0.1 -0.35001,0 -0.72501,0.025 -1.125,0.075 -0.38334,0.05 -0.74168,0.1584 -1.075,0.325 -0.31668,0.15 -0.58334,0.3667 -0.8,0.65 -0.21667,0.2667 -0.32501,0.625 -0.325,1.075 -1e-5,0.8334 0.26666,1.4167 0.8,1.75 0.53332,0.3167 1.25832,0.475 2.175,0.475 m -0.2,-11.65 c 0.93332,0 1.71665,0.125 2.35,0.375 0.64999,0.2334 1.16665,0.575 1.55,1.025 0.39998,0.4334 0.68332,0.9584 0.85,1.575 0.16665,0.6 0.24998,1.2667 0.25,2 l 0,8.125 c -0.20002,0.033 -0.48335,0.083 -0.85,0.15 -0.35001,0.05 -0.75001,0.1 -1.2,0.15 -0.45001,0.05 -0.94168,0.092 -1.475,0.125 -0.51668,0.05 -1.03334,0.075 -1.55,0.075 -0.73334,0 -1.40834,-0.075 -2.025,-0.225 -0.61667,-0.15 -1.15001,-0.3833 -1.6,-0.7 -0.45001,-0.3333 -0.80001,-0.7666 -1.05,-1.3 -0.25001,-0.5333 -0.37501,-1.175 -0.375,-1.925 -1e-5,-0.7166 0.14166,-1.3333 0.425,-1.85 0.29999,-0.5166 0.69999,-0.9333 1.2,-1.25 0.49999,-0.3166 1.08332,-0.55 1.75,-0.7 0.66666,-0.15 1.36666,-0.225 2.1,-0.225 0.23332,0 0.47499,0.017 0.725,0.05 0.24999,0.017 0.48332,0.05 0.7,0.1 0.23332,0.033 0.43332,0.067 0.6,0.1 0.16665,0.033 0.28332,0.058 0.35,0.075 l 0,-0.65 c -1e-5,-0.3833 -0.0417,-0.7583 -0.125,-1.125 -0.0833,-0.3833 -0.23335,-0.7166 -0.45,-1 -0.21668,-0.3 -0.51668,-0.5333 -0.9,-0.7 -0.36668,-0.1833 -0.85001,-0.275 -1.45,-0.275 -0.76668,0 -1.44168,0.058 -2.025,0.175 -0.56667,0.1 -0.99167,0.2084 -1.275,0.325 l -0.275,-1.925 c 0.29999,-0.1333 0.79999,-0.2583 1.5,-0.375 0.69999,-0.1333 1.45832,-0.2 2.275,-0.2"
         style="font-size:25px;fill:#999999"
         id="path3070"
         inkscape:connector-curvature="0" />
      <path
         d="m 200.03795,1035.176 c -1.43333,-0.033 -2.45,-0.3416 -3.05,-0.925 -0.6,-0.5833 -0.9,-1.4916 -0.9,-2.725 l 0,-15.6 2.325,-0.4 0,15.625 c 0,0.3834 0.0333,0.7 0.1,0.95 0.0667,0.25 0.175,0.45 0.325,0.6 0.15,0.15 0.35,0.2667 0.6,0.35 0.25,0.067 0.55833,0.125 0.925,0.175 l -0.325,1.95"
         style="font-size:25px;fill:#999999"
         id="path3072"
         inkscape:connector-curvature="0" />
      <path
         d="m 205.29889,1034.926 -2.325,0 0,-13 2.325,0 0,13 m -1.175,-15.35 c -0.41667,0 -0.775,-0.1333 -1.075,-0.4 -0.28333,-0.2833 -0.425,-0.6583 -0.425,-1.125 0,-0.4666 0.14167,-0.8333 0.425,-1.1 0.3,-0.2833 0.65833,-0.425 1.075,-0.425 0.41667,0 0.76666,0.1417 1.05,0.425 0.3,0.2667 0.45,0.6334 0.45,1.1 0,0.4667 -0.15,0.8417 -0.45,1.125 -0.28334,0.2667 -0.63333,0.4 -1.05,0.4"
         style="font-size:25px;fill:#999999"
         id="path3074"
         inkscape:connector-curvature="0" />
      <path
         d="m 211.49655,1021.926 4.925,0 0,1.95 -4.925,0 0,6 c -1e-5,0.65 0.05,1.1917 0.15,1.625 0.1,0.4167 0.24999,0.75 0.45,1 0.19999,0.2334 0.44999,0.4 0.75,0.5 0.29999,0.1 0.64999,0.15 1.05,0.15 0.69999,0 1.25832,-0.075 1.675,-0.225 0.43332,-0.1666 0.73332,-0.2833 0.9,-0.35 l 0.45,1.925 c -0.23334,0.1167 -0.64168,0.2584 -1.225,0.425 -0.58334,0.1834 -1.25001,0.275 -2,0.275 -0.88334,0 -1.61667,-0.1083 -2.2,-0.325 -0.56667,-0.2333 -1.025,-0.575 -1.375,-1.025 -0.35,-0.45 -0.6,-1 -0.75,-1.65 -0.13334,-0.6666 -0.2,-1.4333 -0.2,-2.3 l 0,-11.6 2.325,-0.4 0,4.025"
         style="font-size:25px;fill:#999999"
         id="path3076"
         inkscape:connector-curvature="0" />
      <path
         d="m 217.85514,1037.351 c 0.18333,0.083 0.41667,0.1584 0.7,0.225 0.3,0.083 0.59167,0.125 0.875,0.125 0.91667,0 1.63333,-0.2083 2.15,-0.625 0.51666,-0.4 0.98333,-1.0583 1.4,-1.975 -1.05,-2 -2.03333,-4.1166 -2.95,-6.35 -0.9,-2.25 -1.65,-4.525 -2.25,-6.825 l 2.5,0 c 0.18333,0.75 0.4,1.5584 0.65,2.425 0.26667,0.8667 0.55833,1.7584 0.875,2.675 0.31666,0.9167 0.65833,1.8334 1.025,2.75 0.36666,0.9167 0.75,1.8 1.15,2.65 0.63333,-1.75 1.18333,-3.4833 1.65,-5.2 0.46666,-1.7166 0.90833,-3.4833 1.325,-5.3 l 2.4,0 c -0.60001,2.45 -1.26668,4.8084 -2,7.075 -0.73334,2.25 -1.52501,4.3584 -2.375,6.325 -0.33334,0.75 -0.68334,1.3917 -1.05,1.925 -0.35,0.55 -0.74167,1 -1.175,1.35 -0.43334,0.35 -0.925,0.6084 -1.475,0.775 -0.53333,0.1667 -1.14167,0.25 -1.825,0.25 -0.18333,0 -0.375,-0.017 -0.575,-0.05 -0.2,-0.017 -0.4,-0.05 -0.6,-0.1 -0.18333,-0.033 -0.35833,-0.075 -0.525,-0.125 -0.15,-0.05 -0.25833,-0.092 -0.325,-0.125 l 0.425,-1.875"
         style="font-size:25px;fill:#999999"
         id="path3078"
         inkscape:connector-curvature="0" />
    </g>
    <g
       style="font-size:24.28185844px;font-style:normal;font-variant:normal;font-weight:normal;font-stretch:normal;line-height:125%;letter-spacing:0px;word-spacing:0px;fill:#4d4d4d;fill-opacity:1;stroke:none;font-family:Ubuntu;-inkscape-font-specification:Ubuntu"
       id="text2995">
      <path
         d="m 370.06859,1015.714 c 0.68333,0 1.26666,0.05 1.75,0.15 0.49999,0.1 0.84999,0.1917 1.05,0.275 l -0.425,2 c -0.20001,-0.1 -0.48334,-0.1916 -0.85,-0.275 -0.36667,-0.1 -0.81667,-0.15 -1.35,-0.15 -1.08334,0 -1.84167,0.3 -2.275,0.9 -0.43334,0.5834 -0.65,1.375 -0.65,2.375 l 0,1.125 5,0 0,1.95 -5,0 0,11.05 -2.325,0 0,-14.175 c 0,-1.6666 0.40833,-2.95 1.225,-3.85 0.81666,-0.9166 2.1,-1.375 3.85,-1.375"
         style="font-size:25px;fill:#4d4d4d"
         id="path3081"
         inkscape:connector-curvature="0" />
      <path
         d="m 379.06156,1033.439 c 0.54999,0 1.03333,-0.01 1.45,-0.025 0.43333,-0.033 0.79166,-0.083 1.075,-0.15 l 0,-3.875 c -0.16668,-0.083 -0.44168,-0.15 -0.825,-0.2 -0.36667,-0.067 -0.81667,-0.1 -1.35,-0.1 -0.35001,0 -0.72501,0.025 -1.125,0.075 -0.38334,0.05 -0.74167,0.1584 -1.075,0.325 -0.31667,0.15 -0.58334,0.3667 -0.8,0.65 -0.21667,0.2667 -0.325,0.625 -0.325,1.075 0,0.8334 0.26666,1.4167 0.8,1.75 0.53333,0.3167 1.25833,0.475 2.175,0.475 m -0.2,-11.65 c 0.93333,0 1.71666,0.125 2.35,0.375 0.64999,0.2334 1.16666,0.575 1.55,1.025 0.39999,0.4334 0.68332,0.9584 0.85,1.575 0.16666,0.6 0.24999,1.2667 0.25,2 l 0,8.125 c -0.20001,0.033 -0.48334,0.083 -0.85,0.15 -0.35001,0.05 -0.75001,0.1 -1.2,0.15 -0.45001,0.05 -0.94167,0.092 -1.475,0.125 -0.51667,0.05 -1.03334,0.075 -1.55,0.075 -0.73334,0 -1.40834,-0.075 -2.025,-0.225 -0.61667,-0.15 -1.15,-0.3833 -1.6,-0.7 -0.45,-0.3333 -0.8,-0.7667 -1.05,-1.3 -0.25,-0.5333 -0.375,-1.175 -0.375,-1.925 0,-0.7166 0.14167,-1.3333 0.425,-1.85 0.3,-0.5166 0.7,-0.9333 1.2,-1.25 0.5,-0.3166 1.08333,-0.55 1.75,-0.7 0.66666,-0.15 1.36666,-0.225 2.1,-0.225 0.23333,0 0.47499,0.017 0.725,0.05 0.24999,0.017 0.48333,0.05 0.7,0.1 0.23333,0.033 0.43332,0.067 0.6,0.1 0.16666,0.033 0.28332,0.058 0.35,0.075 l 0,-0.65 c -1e-5,-0.3833 -0.0417,-0.7583 -0.125,-1.125 -0.0833,-0.3833 -0.23334,-0.7166 -0.45,-1 -0.21667,-0.3 -0.51667,-0.5333 -0.9,-0.7 -0.36667,-0.1833 -0.85001,-0.275 -1.45,-0.275 -0.76667,0 -1.44167,0.058 -2.025,0.175 -0.56667,0.1 -0.99167,0.2084 -1.275,0.325 l -0.275,-1.925 c 0.3,-0.1333 0.8,-0.2583 1.5,-0.375 0.7,-0.1333 1.45833,-0.2 2.275,-0.2"
         style="font-size:25px;fill:#4d4d4d"
         id="path3083"
         inkscape:connector-curvature="0" />
      <path
         d="m 391.59867,1035.364 c -1.43334,-0.033 -2.45,-0.3417 -3.05,-0.925 -0.6,-0.5833 -0.9,-1.4917 -0.9,-2.725 l 0,-15.6 2.325,-0.4 0,15.625 c 0,0.3834 0.0333,0.7 0.1,0.95 0.0667,0.25 0.17499,0.45 0.325,0.6 0.14999,0.15 0.34999,0.2667 0.6,0.35 0.24999,0.067 0.55833,0.125 0.925,0.175 l -0.325,1.95"
         style="font-size:25px;fill:#4d4d4d"
         id="path3085"
         inkscape:connector-curvature="0" />
      <path
         d="m 398.93461,1033.439 c 0.54999,0 1.03332,-0.01 1.45,-0.025 0.43332,-0.033 0.79165,-0.083 1.075,-0.15 l 0,-3.875 c -0.16668,-0.083 -0.44168,-0.15 -0.825,-0.2 -0.36668,-0.067 -0.81668,-0.1 -1.35,-0.1 -0.35001,0 -0.72501,0.025 -1.125,0.075 -0.38334,0.05 -0.74167,0.1584 -1.075,0.325 -0.31667,0.15 -0.58334,0.3667 -0.8,0.65 -0.21667,0.2667 -0.32501,0.625 -0.325,1.075 -10e-6,0.8334 0.26666,1.4167 0.8,1.75 0.53333,0.3167 1.25832,0.475 2.175,0.475 m -0.2,-11.65 c 0.93332,0 1.71666,0.125 2.35,0.375 0.64999,0.2334 1.16665,0.575 1.55,1.025 0.39999,0.4334 0.68332,0.9584 0.85,1.575 0.16665,0.6 0.24999,1.2667 0.25,2 l 0,8.125 c -0.20001,0.033 -0.48335,0.083 -0.85,0.15 -0.35001,0.05 -0.75001,0.1 -1.2,0.15 -0.45001,0.05 -0.94168,0.092 -1.475,0.125 -0.51668,0.05 -1.03334,0.075 -1.55,0.075 -0.73334,0 -1.40834,-0.075 -2.025,-0.225 -0.61667,-0.15 -1.15001,-0.3833 -1.6,-0.7 -0.45001,-0.3333 -0.8,-0.7667 -1.05,-1.3 -0.25,-0.5333 -0.375,-1.175 -0.375,-1.925 0,-0.7166 0.14166,-1.3333 0.425,-1.85 0.3,-0.5166 0.69999,-0.9333 1.2,-1.25 0.49999,-0.3166 1.08333,-0.55 1.75,-0.7 0.66666,-0.15 1.36666,-0.225 2.1,-0.225 0.23332,0 0.47499,0.017 0.725,0.05 0.24999,0.017 0.48332,0.05 0.7,0.1 0.23332,0.033 0.43332,0.067 0.6,0.1 0.16665,0.033 0.28332,0.058 0.35,0.075 l 0,-0.65 c -10e-6,-0.3833 -0.0417,-0.7583 -0.125,-1.125 -0.0833,-0.3833 -0.23334,-0.7166 -0.45,-1 -0.21668,-0.3 -0.51668,-0.5333 -0.9,-0.7 -0.36668,-0.1833 -0.85001,-0.275 -1.45,-0.275 -0.76667,0 -1.44167,0.058 -2.025,0.175 -0.56667,0.1 -0.99167,0.2084 -1.275,0.325 l -0.275,-1.925 c 0.29999,-0.1333 0.79999,-0.2583 1.5,-0.375 0.69999,-0.1333 1.45832,-0.2 2.275,-0.2"
         style="font-size:25px;fill:#4d4d4d"
         id="path3087"
         inkscape:connector-curvature="0" />
      <path
         d="m 407.57172,1022.489 c 0.53333,-0.1333 1.24166,-0.275 2.125,-0.425 0.88332,-0.15 1.89999,-0.225 3.05,-0.225 1.03332,0 1.89165,0.15 2.575,0.45 0.68332,0.2834 1.22499,0.6917 1.625,1.225 0.41665,0.5167 0.70832,1.1417 0.875,1.875 0.16665,0.7334 0.24998,1.5417 0.25,2.425 l 0,7.3 -2.325,0 0,-6.8 c -10e-6,-0.8 -0.0583,-1.4833 -0.175,-2.05 -0.10001,-0.5666 -0.27501,-1.025 -0.525,-1.375 -0.25001,-0.35 -0.58335,-0.6 -1,-0.75 -0.41668,-0.1666 -0.93334,-0.25 -1.55,-0.25 -0.25001,0 -0.50834,0.01 -0.775,0.025 -0.26668,0.017 -0.52501,0.042 -0.775,0.075 -0.23334,0.017 -0.45001,0.042 -0.65,0.075 -0.18334,0.033 -0.31667,0.058 -0.4,0.075 l 0,10.975 -2.325,0 0,-12.625"
         style="font-size:25px;fill:#4d4d4d"
         id="path3089"
         inkscape:connector-curvature="0" />
      <path
         d="m 424.95219,1033.439 c 0.94999,0 1.64999,-0.125 2.1,-0.375 0.46665,-0.25 0.69999,-0.65 0.7,-1.2 -10e-6,-0.5666 -0.22501,-1.0166 -0.675,-1.35 -0.45001,-0.3333 -1.19168,-0.7083 -2.225,-1.125 -0.50001,-0.2 -0.98334,-0.4 -1.45,-0.6 -0.45001,-0.2166 -0.84167,-0.4666 -1.175,-0.75 -0.33334,-0.2833 -0.60001,-0.625 -0.8,-1.025 -0.20001,-0.4 -0.30001,-0.8916 -0.3,-1.475 -10e-6,-1.15 0.42499,-2.0583 1.275,-2.725 0.84999,-0.6833 2.00832,-1.025 3.475,-1.025 0.36666,0 0.73332,0.025 1.1,0.075 0.36665,0.033 0.70832,0.083 1.025,0.15 0.31665,0.05 0.59165,0.1084 0.825,0.175 0.24999,0.067 0.44165,0.125 0.575,0.175 l -0.425,2 c -0.25001,-0.1333 -0.64168,-0.2666 -1.175,-0.4 -0.53335,-0.15 -1.17501,-0.225 -1.925,-0.225 -0.65001,0 -1.21668,0.1334 -1.7,0.4 -0.48334,0.25 -0.72501,0.65 -0.725,1.2 -10e-6,0.2834 0.05,0.5334 0.15,0.75 0.11666,0.2167 0.28332,0.4167 0.5,0.6 0.23332,0.1667 0.51666,0.325 0.85,0.475 0.33332,0.15 0.73332,0.3084 1.2,0.475 0.61665,0.2334 1.16665,0.4667 1.65,0.7 0.48332,0.2167 0.89165,0.475 1.225,0.775 0.34999,0.3 0.61665,0.6667 0.8,1.1 0.18332,0.4167 0.27498,0.9334 0.275,1.55 -2e-5,1.2 -0.45001,2.1083 -1.35,2.725 -0.88335,0.6167 -2.15001,0.925 -3.8,0.925 -1.15001,0 -2.05001,-0.1 -2.7,-0.3 -0.65001,-0.1833 -1.09167,-0.325 -1.325,-0.425 l 0.425,-2 c 0.26666,0.1 0.69166,0.25 1.275,0.45 0.58333,0.2 1.35832,0.3 2.325,0.3"
         style="font-size:25px;fill:#4d4d4d"
         id="path3091"
         inkscape:connector-curvature="0" />
      <path
         d="m 435.235,1022.114 4.925,0 0,1.95 -4.925,0 0,6 c -1e-5,0.65 0.05,1.1917 0.15,1.625 0.1,0.4167 0.24999,0.75 0.45,1 0.19999,0.2333 0.44999,0.4 0.75,0.5 0.29999,0.1 0.64999,0.15 1.05,0.15 0.69999,0 1.25832,-0.075 1.675,-0.225 0.43332,-0.1667 0.73332,-0.2833 0.9,-0.35 l 0.45,1.925 c -0.23335,0.1167 -0.64168,0.2583 -1.225,0.425 -0.58334,0.1833 -1.25001,0.275 -2,0.275 -0.88334,0 -1.61667,-0.1083 -2.2,-0.325 -0.56667,-0.2333 -1.02501,-0.575 -1.375,-1.025 -0.35,-0.45 -0.6,-1 -0.75,-1.65 -0.13334,-0.6666 -0.2,-1.4333 -0.2,-2.3 l 0,-11.6 2.325,-0.4 0,4.025"
         style="font-size:25px;fill:#4d4d4d"
         id="path3093"
         inkscape:connector-curvature="0" />
      <path
         d="m 442.14945,1028.639 c 0,-1.15 0.16667,-2.15 0.5,-3 0.33333,-0.8666 0.775,-1.5833 1.325,-2.15 0.55,-0.5666 1.18333,-0.9916 1.9,-1.275 0.71666,-0.2833 1.44999,-0.425 2.2,-0.425 1.74999,0 3.09166,0.55 4.025,1.65 0.93332,1.0834 1.39999,2.7417 1.4,4.975 -1e-5,0.1 -1e-5,0.2334 0,0.4 -1e-5,0.15 -0.008,0.2917 -0.025,0.425 l -8.9,0 c 0.1,1.35 0.49166,2.375 1.175,3.075 0.68333,0.7 1.74999,1.05 3.2,1.05 0.81666,0 1.49999,-0.067 2.05,-0.2 0.56666,-0.15 0.99166,-0.2917 1.275,-0.425 l 0.325,1.95 c -0.28334,0.15 -0.78334,0.3083 -1.5,0.475 -0.70001,0.1667 -1.50001,0.25 -2.4,0.25 -1.13334,0 -2.11667,-0.1667 -2.95,-0.5 -0.81667,-0.35 -1.49167,-0.825 -2.025,-1.425 -0.53333,-0.6 -0.93333,-1.3083 -1.2,-2.125 -0.25,-0.8333 -0.375,-1.7416 -0.375,-2.725 m 8.925,-1.275 c 0.0167,-1.05 -0.25001,-1.9083 -0.8,-2.575 -0.53334,-0.6833 -1.27501,-1.025 -2.225,-1.025 -0.53334,0 -1.00834,0.1084 -1.425,0.325 -0.4,0.2 -0.74167,0.4667 -1.025,0.8 -0.28334,0.3334 -0.50834,0.7167 -0.675,1.15 -0.15,0.4334 -0.25,0.875 -0.3,1.325 l 6.45,0"
         style="font-size:25px;fill:#4d4d4d"
         id="path3095"
         inkscape:connector-curvature="0" />
      <path
         d="m 461.63929,1021.839 c 0.2,0 0.425,0.017 0.675,0.05 0.26666,0.017 0.525,0.05 0.775,0.1 0.25,0.033 0.475,0.075 0.675,0.125 0.21666,0.033 0.375,0.067 0.475,0.1 l -0.4,2.025 c -0.18334,-0.067 -0.49167,-0.1416 -0.925,-0.225 -0.41667,-0.1 -0.95834,-0.15 -1.625,-0.15 -0.43333,0 -0.86667,0.05 -1.3,0.15 -0.41667,0.083 -0.69167,0.1417 -0.825,0.175 l 0,10.925 -2.325,0 0,-12.45 c 0.55,-0.2 1.23333,-0.3833 2.05,-0.55 0.81667,-0.1833 1.73333,-0.275 2.75,-0.275"
         style="font-size:25px;fill:#4d4d4d"
         id="path3097"
         inkscape:connector-curvature="0" />
      <path
         d="m 467.89008,1033.764 c -1e-5,0.45 -0.15001,0.8417 -0.45,1.175 -0.30001,0.3333 -0.70834,0.5 -1.225,0.5 -0.51667,0 -0.92501,-0.1667 -1.225,-0.5 -0.30001,-0.3333 -0.45001,-0.725 -0.45,-1.175 -10e-6,-0.45 0.14999,-0.8417 0.45,-1.175 0.29999,-0.3333 0.70833,-0.5 1.225,-0.5 0.51666,0 0.92499,0.1667 1.225,0.5 0.29999,0.3333 0.44999,0.725 0.45,1.175"
         style="font-size:25px;fill:#4d4d4d"
         id="path3099"
         inkscape:connector-curvature="0" />
      <path
         d="m 473.61742,1022.689 c 0.28333,-0.1833 0.70833,-0.375 1.275,-0.575 0.58333,-0.2 1.24999,-0.3 2,-0.3 0.93332,0 1.75832,0.1667 2.475,0.5 0.73332,0.3334 1.34999,0.8 1.85,1.4 0.49999,0.6 0.87499,1.3167 1.125,2.15 0.26665,0.8334 0.39999,1.75 0.4,2.75 -10e-6,1.05 -0.15835,2 -0.475,2.85 -0.30001,0.8333 -0.73335,1.5417 -1.3,2.125 -0.56668,0.5833 -1.25001,1.0333 -2.05,1.35 -0.80001,0.3167 -1.70001,0.475 -2.7,0.475 -1.08334,0 -2.04167,-0.075 -2.875,-0.225 -0.83334,-0.15 -1.51667,-0.3 -2.05,-0.45 l 0,-18.625 2.325,-0.4 0,6.975 m 0,10.4 c 0.23333,0.067 0.55833,0.1333 0.975,0.2 0.43333,0.05 0.96666,0.075 1.6,0.075 1.24999,0 2.24999,-0.4083 3,-1.225 0.74999,-0.8333 1.12499,-2.0083 1.125,-3.525 -1e-5,-0.6666 -0.0667,-1.2916 -0.2,-1.875 -0.13334,-0.5833 -0.35001,-1.0833 -0.65,-1.5 -0.30001,-0.4333 -0.69168,-0.7666 -1.175,-1 -0.46668,-0.25 -1.03334,-0.375 -1.7,-0.375 -0.63334,0 -1.21667,0.1084 -1.75,0.325 -0.53334,0.2167 -0.94167,0.4417 -1.225,0.675 l 0,8.225"
         style="font-size:25px;fill:#4d4d4d"
         id="path3101"
         inkscape:connector-curvature="0" />
      <path
         d="m 484.17172,1037.539 c 0.18333,0.083 0.41666,0.1583 0.7,0.225 0.29999,0.083 0.59166,0.125 0.875,0.125 0.91666,0 1.63333,-0.2083 2.15,-0.625 0.51666,-0.4 0.98332,-1.0583 1.4,-1.975 -1.05001,-2 -2.03334,-4.1166 -2.95,-6.35 -0.90001,-2.25 -1.65,-4.525 -2.25,-6.825 l 2.5,0 c 0.18333,0.75 0.39999,1.5584 0.65,2.425 0.26666,0.8667 0.55833,1.7584 0.875,2.675 0.31666,0.9167 0.65832,1.8334 1.025,2.75 0.36666,0.9167 0.74999,1.8 1.15,2.65 0.63332,-1.75 1.18332,-3.4833 1.65,-5.2 0.46665,-1.7166 0.90832,-3.4833 1.325,-5.3 l 2.4,0 c -0.60002,2.45 -1.26668,4.8084 -2,7.075 -0.73335,2.25 -1.52501,4.3583 -2.375,6.325 -0.33334,0.75 -0.68334,1.3917 -1.05,1.925 -0.35001,0.55 -0.74168,1 -1.175,1.35 -0.43334,0.35 -0.92501,0.6083 -1.475,0.775 -0.53334,0.1667 -1.14167,0.25 -1.825,0.25 -0.18334,0 -0.37501,-0.017 -0.575,-0.05 -0.2,-0.017 -0.4,-0.05 -0.6,-0.1 -0.18334,-0.033 -0.35834,-0.075 -0.525,-0.125 -0.15,-0.05 -0.25834,-0.092 -0.325,-0.125 l 0.425,-1.875"
         style="font-size:25px;fill:#4d4d4d"
         id="path3103"
         inkscape:connector-curvature="0" />
    </g>
  </g>
</svg>
